<?xml version="1.0" standalone="no"?>
<!DOCTYPE svg PUBLIC "-//W3C//DTD SVG 1.1//EN" "http://www.w3.org/Graphics/SVG/1.1/DTD/svg11.dtd" >
<svg xmlns="http://www.w3.org/2000/svg" xmlns:xlink="http://www.w3.org/1999/xlink" version="1.1">
<metadata>
Created by FontForge 20170731 at Wed Feb 27 17:20:48 2019
 By Aleksey,,,
(c) 2005-2019, Copyright by Lineto GmbH. All rights reserved.
</metadata>
<defs>
<font id="AkkuratMonoLLTT-Bold" horiz-adv-x="620" >
  <font-face 
    font-family="Akkurat Mono LL TT"
    font-weight="700"
    font-stretch="normal"
    units-per-em="1000"
    panose-1="2 1 8 9 1 1 1 1 1 4"
    ascent="760"
    descent="-240"
    x-height="520"
    cap-height="709"
    bbox="-5 -276 696 1085"
    underline-thickness="50"
    underline-position="-225"
    unicode-range="U+000D-FEFF"
  />
<missing-glyph 
d="M516 709v-709h-412v709h412zM416 613h-212v-518h212v518z" />
    <glyph glyph-name=".notdef" 
d="M516 709v-709h-412v709h412zM416 613h-212v-518h212v518z" />
    <glyph glyph-name=".null" horiz-adv-x="0" 
 />
    <glyph glyph-name=".null" horiz-adv-x="0" 
 />
    <glyph glyph-name="nonmarkingreturn" unicode="&#xd;" 
 />
    <glyph glyph-name="space" unicode=" " 
 />
    <glyph glyph-name="exclam" unicode="!" 
d="M275 212l-30 275v222h131v-222l-30 -275h-71zM242 143h140v-143h-140v143z" />
    <glyph glyph-name="quotedbl" unicode="&#x22;" 
d="M382 392l-25 171v146h133v-146l-25 -171h-83zM154 392l-25 171v146h133v-146l-25 -171h-83z" />
    <glyph glyph-name="numbersign" unicode="#" 
d="M466 282h101v-98h-116l-26 -184h-105l26 184h-118l-26 -184h-105l26 184h-101v98h116l18 131h-102v99h116l27 183h104l-26 -183h118l27 183h104l-26 -183h100v-99h-115zM243 282h118l18 131h-118z" />
    <glyph glyph-name="dollar" unicode="$" 
d="M575 217q0 -48 -16 -81t-41 -59q-31 -32 -72.5 -50t-90.5 -23v-91h-73v90q-48 4 -90.5 20.5t-79.5 50.5q-30 27 -50 66.5t-21 87.5h123q1 -26 11 -47.5t26 -36.5q17 -17 37.5 -25t43.5 -10v198l-47 7q-81 11 -128.5 61t-47.5 127q0 40 17 73t44 59q29 29 70 48t92 24v93
h73v-95q42 -5 78.5 -20.5t64.5 -41.5q30 -28 48.5 -64.5t20.5 -78.5h-123q-1 18 -10 36.5t-21 31.5q-11 11 -26 18.5t-32 12.5v-183l34 -5q38 -6 72 -21t59.5 -39t40 -57.5t14.5 -75.5zM282 601q-20 -3 -39.5 -11t-34.5 -22q-12 -11 -19.5 -27t-7.5 -36q0 -35 19.5 -52.5
t51.5 -22.5q8 -2 15 -3t15 -2v176zM454 212q0 38 -25 56.5t-57 24.5l-17 3v-186q46 8 71 33q12 12 20 28t8 41z" />
    <glyph glyph-name="percent" unicode="%" 
d="M61 223l465 329l46 -70l-463 -328zM47 565q0 29 11 54.5t30.5 45t45.5 31t57 11.5q30 0 56.5 -11.5t45.5 -31t30 -45t11 -54.5q0 -30 -11.5 -56.5t-31 -46t-45.5 -30.5t-55 -11q-30 0 -56 11t-45.5 30.5t-31 46t-11.5 56.5zM282 131q0 29 11 54.5t30 45t45 31t57 11.5
t57 -11.5t45 -31t30 -45t11 -54.5q0 -30 -11 -56t-30.5 -45.5t-45.5 -30.5t-56 -11q-29 0 -55 11t-45.5 30.5t-31 45.5t-11.5 56zM129 565q0 -26 18 -44t44 -18q25 0 43 18t18 44q0 24 -17.5 42t-43.5 18t-44 -18t-18 -42zM364 131q0 -26 18 -44t43 -18q26 0 43.5 18
t17.5 44q0 24 -17.5 42t-43.5 18t-43.5 -18t-17.5 -42z" />
    <glyph glyph-name="ampersand" unicode="&#x26;" 
d="M414 54q-35 -32 -80 -50t-99 -18q-44 0 -84 13.5t-70.5 39t-49 63.5t-18.5 86q0 66 31 112t85 81l-5 6q-13 15 -26 32t-24 37.5t-18 44t-7 50.5q0 35 14 66.5t39 55t60.5 37t78.5 13.5q39 0 72 -12.5t57 -34.5t37.5 -52t13.5 -65q0 -33 -10 -61t-28 -52t-42 -44.5
t-52 -38.5l118 -134q18 61 18 137v33h168v-99h-71q-3 -82 -40 -156l128 -144h-149zM245 90q32 0 58 10t46 28l-153 176q-38 -26 -53 -53t-15 -56q0 -50 33 -77.5t84 -27.5zM161 550q0 -31 18 -57t40 -51l2 -3q38 24 65 51t27 62q0 29 -20 50.5t-53 21.5t-56 -20.5t-23 -53.5
z" />
    <glyph glyph-name="quotesingle" unicode="'" 
d="M269 392l-25 171v146h133v-146l-25 -171h-83z" />
    <glyph glyph-name="parenleft" unicode="(" 
d="M155 317q0 94 23 172.5t64 141t97.5 108.5t122.5 76l45 -78q-122 -66 -185 -170t-63 -250t63 -250t185 -170l-45 -78q-66 30 -122.5 76t-97.5 108.5t-64 141t-23 172.5z" />
    <glyph glyph-name="parenright" unicode=")" 
d="M465 317q0 -94 -23 -172.5t-64 -141t-97.5 -108.5t-122.5 -76l-45 78q122 66 185 170t63 250t-63 250t-185 170l45 78q66 -30 122.5 -76t97.5 -108.5t64 -141t23 -172.5z" />
    <glyph glyph-name="asterisk" unicode="*" 
d="M479 345l-85 -63l-82 136l-84 -137l-85 63l98 124l-148 39l33 104l142 -59l-10 157h106l-11 -158l143 60l33 -104l-148 -39z" />
    <glyph glyph-name="plus" unicode="+" 
d="M366 0h-113v255h-228v107h228v239h113v-239h228v-107h-228v-255z" />
    <glyph glyph-name="comma" unicode="," 
d="M400 0q0 -80 -32.5 -138.5t-115.5 -88.5l-33 67q54 20 75.5 58.5t21.5 101.5h-93v176h177v-176z" />
    <glyph glyph-name="hyphen" unicode="-" 
d="M132 364h356v-112h-356v112z" />
    <glyph glyph-name="period" unicode="." 
d="M223 176h176v-176h-176v176z" />
    <glyph glyph-name="slash" unicode="/" 
d="M30 -15l464 738h96l-464 -738h-96z" />
    <glyph glyph-name="zero" unicode="0" 
d="M310 -13q-83 0 -133 32t-77 83.5t-35.5 115.5t-8.5 128t8.5 128t35.5 116t77 84.5t133 32.5q82 0 132 -32.5t77 -84.5t36 -116t9 -128t-8.5 -128t-35.5 -115.5t-77 -83.5t-133 -32zM436 323q0 31 -0.5 49.5t-0.5 29t-0.5 15t-0.5 7.5l-226 -261q14 -27 38 -44t64 -17
q45 0 70.5 22t37.5 55t15 71.5t3 72.5zM310 591q-36 0 -60 -17t-39 -48t-21 -74.5t-6 -96.5v-51.5t1 -29.5l224 260q-14 26 -37.5 41.5t-61.5 15.5z" />
    <glyph glyph-name="one" unicode="1" 
d="M97 426v136l191 133h107v-586h165v-109h-464v109h174v438z" />
    <glyph glyph-name="two" unicode="2" 
d="M86 99l282 298q26 27 35.5 54t9.5 48q0 48 -27 73t-70 25q-53 0 -79 -31t-26 -81v-6.5t1 -9.5h-129q-1 6 -1 10.5v6.5q0 46 15 86t44.5 70t73.5 47.5t102 17.5q46 0 86.5 -14.5t71 -41.5t48 -66t17.5 -88q0 -51 -21.5 -93.5t-63.5 -85.5l-198 -205h299v-113h-470v99z" />
    <glyph glyph-name="three" unicode="3" 
d="M548 198q0 -52 -19.5 -91.5t-53 -66.5t-78.5 -40.5t-96 -13.5q-53 0 -98 16t-78 45t-51.5 69.5t-19.5 89.5h126q4 -51 37 -80.5t85 -29.5q55 0 87 28t32 76q0 54 -36.5 79.5t-91.5 25.5h-58v109h58q58 0 85.5 24.5t27.5 66.5q0 40 -28 66t-76 26q-54 0 -84.5 -29.5
t-31.5 -72.5h-127q1 47 20 86t52 67t77 43.5t94 15.5q49 0 91.5 -14t73.5 -40.5t48.5 -63t17.5 -81.5q0 -48 -27.5 -89t-77.5 -58q28 -8 50.5 -24t38 -38t23.5 -48t8 -53z" />
    <glyph glyph-name="four" unicode="4" 
d="M492 0h-125v139h-331v128l271 426h140l-282 -441h202v182h125v-182h94v-113h-94v-139z" />
    <glyph glyph-name="five" unicode="5" 
d="M570 233q0 -55 -17.5 -100.5t-50 -78t-79 -50.5t-104.5 -18q-53 0 -97.5 15.5t-77 44t-51.5 68.5t-22 89h126q4 -51 38 -78.5t85 -27.5q60 0 91 36.5t31 94.5q0 54 -30.5 89t-91.5 35q-32 0 -62.5 -14.5t-46.5 -41.5h-126l22 397h428v-112h-322l-11 -173q48 54 145 54
q53 0 94.5 -17t70 -48t43.5 -73t15 -91z" />
    <glyph glyph-name="six" unicode="6" 
d="M563 228q0 -53 -17.5 -97t-49.5 -76t-77.5 -50t-101.5 -18q-82 0 -137.5 41.5t-84.5 108.5q-19 45 -25.5 94t-6.5 103q0 38 3 79.5t12 81.5t26 76t44 65q29 30 72 50.5t107 20.5q55 0 95.5 -15.5t68.5 -41.5q30 -28 45.5 -63.5t15.5 -66.5h-127q-4 39 -31.5 60t-67.5 21
q-18 0 -39 -5.5t-38 -19.5q-35 -28 -48 -77.5t-13 -103.5q23 32 63.5 49t83.5 17q54 0 96.5 -16.5t72 -47.5t44.5 -74t15 -95zM200 227q0 -54 29.5 -91.5t88.5 -37.5t88.5 37.5t29.5 91.5t-29.5 91.5t-88.5 37.5t-88.5 -37.5t-29.5 -91.5z" />
    <glyph glyph-name="seven" unicode="7" 
d="M134 0l302 581h-376v112h513v-100l-300 -593h-139z" />
    <glyph glyph-name="eight" unicode="8" 
d="M310 415q51 0 77.5 27.5t26.5 65.5t-26.5 63.5t-77.5 25.5t-77.5 -25.5t-26.5 -63.5t26.5 -65.5t77.5 -27.5zM310 97q53 0 85.5 28.5t32.5 76.5q0 43 -30.5 73t-87.5 30t-87.5 -30t-30.5 -73q0 -48 32.5 -76.5t85.5 -28.5zM310 -14q-48 0 -93 13t-79.5 38.5t-55.5 63.5
t-21 89q0 26 7.5 52t22.5 48.5t38 40.5t53 29q-52 20 -79 64t-27 89q0 49 19 85.5t51 60.5t74.5 36t89.5 12t89.5 -12t74.5 -36t51 -60.5t19 -85.5q0 -22 -7 -45t-20 -44t-33 -37.5t-45 -26.5q30 -11 52.5 -29t37.5 -40.5t22.5 -48.5t7.5 -52q0 -51 -20.5 -89t-55 -63.5
t-79.5 -38.5t-94 -13z" />
    <glyph glyph-name="nine" unicode="9" 
d="M554 359q0 -38 -2.5 -79.5t-10.5 -81.5t-24.5 -76.5t-43.5 -64.5q-29 -30 -70 -50t-105 -20q-55 0 -97 15.5t-70 41.5q-30 28 -45 64t-15 67h125q5 -39 34 -60t71 -21q45 0 71 20q33 24 45.5 72.5t12.5 111.5q-11 -15 -27 -26.5t-35 -19t-38.5 -11.5t-37.5 -4
q-55 0 -98.5 16.5t-74 47t-46.5 73.5t-16 96q0 51 17 94.5t49 75t77.5 49.5t101.5 18q51 0 91.5 -16.5t71 -45.5t50.5 -69t28 -87q6 -34 8.5 -65.5t2.5 -64.5zM301 339q57 0 86.5 36t29.5 92t-29.5 92t-86.5 36t-86.5 -36t-29.5 -92t29.5 -92t86.5 -36z" />
    <glyph glyph-name="colon" unicode=":" 
d="M232 520h158v-158h-158v158zM232 158h158v-158h-158v158z" />
    <glyph glyph-name="semicolon" unicode=";" 
d="M391 0q0 -72 -29 -124.5t-104 -79.5l-30 60q48 18 67.5 52.5t19.5 91.5h-83v158h159v-158zM232 520h158v-158h-158v158z" />
    <glyph glyph-name="less" unicode="&#x3c;" 
d="M495 619v-132l-264 -171l264 -171v-132l-384 255v96z" />
    <glyph glyph-name="equal" unicode="=" 
d="M69 426h482v-98h-482v98zM69 228h482v-99h-482v99z" />
    <glyph glyph-name="greater" unicode="&#x3e;" 
d="M125 13v132l264 171l-264 171v132l384 -255v-96z" />
    <glyph glyph-name="question" unicode="?" 
d="M538 527q0 -53 -22 -91.5t-57 -67.5q-20 -17 -37 -30t-30.5 -28t-21 -34.5t-7.5 -47.5v-28h-120q0 26 0.5 53t4.5 44q7 33 20 55.5t29.5 40t35 31.5t36.5 30q14 13 26.5 30.5t12.5 41.5q0 33 -23 60t-74 27q-48 0 -77 -28t-29 -75h-124q0 51 17.5 90.5t48.5 66.5
t73.5 41.5t92.5 14.5q49 0 90.5 -14.5t71.5 -41t46.5 -62.5t16.5 -78zM233 136h137v-136h-137v136z" />
    <glyph glyph-name="at" unicode="@" 
d="M467 166q-11 -24 -36.5 -40t-59.5 -16q-40 0 -71 16t-52 43t-31.5 63t-10.5 76q0 30 7.5 65.5t26.5 65.5t52 50t84 20q28 0 50.5 -12t29.5 -29v25q0 34 -10.5 60.5t-28.5 43.5t-42.5 26t-52.5 9q-78 0 -117 -48t-39 -128v-269q0 -88 51.5 -137t136.5 -49q32 0 65.5 7.5
t68.5 24.5v-96q-29 -20 -71.5 -28.5t-77.5 -8.5q-64 0 -115.5 20.5t-88 57t-56.5 88t-20 113.5v282q0 58 18.5 108t52.5 87t81.5 58t105.5 21q57 0 102.5 -17t77 -49t48.5 -77.5t17 -102.5v-366h-86zM459 308q0 21 -3.5 40t-12 33.5t-22 22.5t-33.5 8q-39 0 -57 -30t-18 -74
q0 -18 3.5 -35.5t12 -31t21.5 -22t33 -8.5q38 0 57 27.5t19 69.5z" />
    <glyph glyph-name="A" unicode="A" 
d="M431 176h-242l-51 -176h-134l224 709h168l220 -709h-134zM222 291h175l-87 301z" />
    <glyph glyph-name="B" unicode="B" 
d="M572 206q0 -97 -64.5 -151.5t-179.5 -54.5h-247v709h261q49 0 89 -13.5t68 -38.5t43 -61t15 -80q0 -51 -28 -92.5t-79 -57.5q58 -16 90 -60.5t32 -99.5zM426 509q0 42 -28.5 65.5t-80.5 23.5h-108v-178h115q48 0 75 23.5t27 65.5zM441 213q0 99 -116 99h-116v-196h109
q57 0 90 26t33 71z" />
    <glyph glyph-name="C" unicode="C" 
d="M322 102q38 0 65 12.5t43.5 32t24.5 44.5t9 50h129q-3 -47 -19.5 -92.5t-49 -81.5t-82.5 -58.5t-120 -22.5q-54 0 -103 17t-88 56q-29 29 -47 63t-28 71.5t-13.5 78t-3.5 82.5t3.5 82.5t13.5 78t28 71.5t47 63q39 39 88 56t103 17q69 0 118.5 -21.5t82.5 -57t50 -80.5
t20 -91h-130q-1 25 -8.5 49t-24 43t-43 30.5t-63.5 11.5q-61 0 -103 -42q-18 -18 -28.5 -45t-15.5 -56.5t-6 -58t-1 -50.5t1 -51t6 -58.5t15.5 -57t28.5 -45.5q21 -21 46 -30.5t55 -9.5z" />
    <glyph glyph-name="D" unicode="D" 
d="M585 356q0 -72 -12 -134t-42 -110q-30 -49 -88.5 -80.5t-142.5 -31.5h-229v709h229q84 0 143 -33t89 -82q30 -48 41.5 -107t11.5 -131zM454 356q0 60 -9.5 112t-41.5 85q-18 18 -46.5 29t-68.5 11h-88v-477h88q42 0 71 11.5t47 31.5q31 34 39.5 86t8.5 111z" />
    <glyph glyph-name="E" unicode="E" 
d="M95 709h473v-117h-344v-167h273v-116h-273v-192h344v-117h-473v709z" />
    <glyph glyph-name="F" unicode="F" 
d="M225 402h307v-117h-307v-285h-129v709h485v-117h-356v-190z" />
    <glyph glyph-name="G" unicode="G" 
d="M306 -14q-49 0 -95 15.5t-84 52.5q-30 29 -47.5 63.5t-26.5 73t-12 80t-3 83.5t3.5 82.5t13.5 78t28.5 71.5t47.5 63q39 39 89.5 56t104.5 17q67 0 116 -20.5t80.5 -54t46.5 -76t15 -87.5h-130q-1 22 -7.5 43.5t-21.5 39t-39 28.5t-60 11q-53 0 -84 -25.5t-47 -63.5
t-20.5 -82t-4.5 -81q0 -36 4 -80.5t18.5 -83.5t44 -65t80.5 -26q69 0 105.5 42.5t36.5 117.5h-167v107h290v-366h-84l-20 81q-6 -15 -19.5 -31.5t-35 -30.5t-50.5 -23.5t-66 -9.5z" />
    <glyph glyph-name="H" unicode="H" 
d="M425 307h-230v-307h-129v709h129v-279h230v279h129v-709h-129v307z" />
    <glyph glyph-name="I" unicode="I" 
d="M93 107h151v495h-151v107h434v-107h-152v-495h152v-107h-434v107z" />
    <glyph glyph-name="J" unicode="J" 
d="M285 -13q-53 0 -98 16.5t-77 48.5t-50 80.5t-18 111.5h126q0 -70 31 -106t86 -36q24 0 45 7.5t37 23t25 40.5t9 60v476h129v-473q0 -61 -19.5 -107.5t-53.5 -78t-78.5 -47.5t-93.5 -16z" />
    <glyph glyph-name="K" unicode="K" 
d="M453 709h162l-248 -297l249 -412h-154l-181 309l-82 -99v-210h-129v709h129v-317z" />
    <glyph glyph-name="L" unicode="L" 
d="M106 709h129v-587h344v-122h-473v709z" />
    <glyph glyph-name="M" unicode="M" 
d="M448 546l-84 -365h-108l-84 364v-545h-123v709h184l78 -346l87 346h173v-709h-123v546z" />
    <glyph glyph-name="N" unicode="N" 
d="M188 514v-514h-127v709h170l200 -468v468h127v-709h-143z" />
    <glyph glyph-name="O" unicode="O" 
d="M310 102q61 0 100 39q18 18 28 45.5t14.5 57.5t5.5 59t1 51t-1 51t-5.5 59t-14.5 57.5t-28 45.5q-39 39 -100 39t-100 -39q-18 -18 -28 -45.5t-14.5 -57.5t-5.5 -59t-1 -51t1 -51t5.5 -59t14.5 -57.5t28 -45.5q39 -39 100 -39zM310 -14q-54 0 -102 17.5t-87 56.5
q-29 29 -47 63t-28 71t-13 77.5t-3 82.5t3 82.5t13 77.5t28 71t47 63q39 39 87 56.5t102 17.5t102 -17.5t87 -56.5q29 -29 47 -63t27.5 -71t13 -77.5t3.5 -82.5t-3.5 -82.5t-13 -77.5t-27.5 -71t-47 -63q-39 -39 -87 -56.5t-102 -17.5z" />
    <glyph glyph-name="P" unicode="P" 
d="M587 492q0 -47 -16 -87t-47 -69t-77.5 -45.5t-107.5 -16.5h-132v-274h-128v709h260q61 0 107.5 -16t77.5 -45t47 -69t16 -87zM457 491q0 49 -30 77t-95 28h-125v-209h125q65 0 95 27.5t30 76.5z" />
    <glyph glyph-name="Q" unicode="Q" 
d="M311 -14q-54 0 -102 17.5t-87 56.5q-29 29 -47 63t-28 71t-13 77.5t-3 82.5t3 82.5t13 77.5t28 71t47 63q39 39 87 56.5t102 17.5t102 -17.5t87 -56.5q29 -29 47 -63t27.5 -71t13 -77.5t3.5 -82.5q0 -41 -3 -79.5t-11.5 -74t-24.5 -68.5t-42 -61l63 -81l-77 -60l-64 81
q-54 -25 -121 -25zM311 102q24 0 45 6l-83 106l78 61l81 -104q10 20 16 44.5t8.5 49t3 48t0.5 41.5q0 22 -1 51t-5.5 59t-14.5 57.5t-28 45.5q-39 39 -100 39t-100 -39q-18 -18 -28 -45.5t-14.5 -57.5t-5.5 -59t-1 -51t1 -51t5.5 -59t14.5 -57.5t28 -45.5q39 -39 100 -39z
" />
    <glyph glyph-name="R" unicode="R" 
d="M320 268h-109v-268h-130v709h255q63 0 109 -18.5t76 -49t44.5 -70t14.5 -82.5q0 -72 -37.5 -124t-97.5 -70l131 -295h-141zM451 491q0 43 -30 74t-85 31h-126v-212h126q55 0 85 28t30 79z" />
    <glyph glyph-name="S" unicode="S" 
d="M580 210q0 -57 -23.5 -99t-61.5 -70t-87 -41.5t-100 -13.5q-49 0 -97.5 14.5t-87 44.5t-62.5 75t-24 107h132q0 -35 12 -59.5t32 -40t45 -23t52 -7.5q26 0 51.5 5.5t45.5 18.5t32.5 32.5t12.5 48.5q0 38 -27 58.5t-65 27.5l-107 18q-91 16 -144 63.5t-53 132.5
q0 48 20 88.5t54.5 70t81 46t99.5 16.5q55 0 102 -17t81.5 -46.5t54 -70.5t20.5 -89h-130q-2 48 -34.5 80.5t-95.5 32.5q-24 0 -47 -6t-40.5 -19t-28 -32t-10.5 -44q0 -65 98 -82l99 -16q43 -7 80 -23t63.5 -41.5t41.5 -60t15 -79.5z" />
    <glyph glyph-name="T" unicode="T" 
d="M374 0h-128v589h-221v120h570v-120h-221v-589z" />
    <glyph glyph-name="U" unicode="U" 
d="M568 239q0 -119 -68 -185.5t-190 -66.5t-190 66.5t-68 185.5v470h129v-460q0 -76 34.5 -110.5t94.5 -34.5t94.5 34.5t34.5 110.5v460h129v-470z" />
    <glyph glyph-name="V" unicode="V" 
d="M14 709h136q40 -140 80 -277t80 -276q40 139 80 276t80 277h135q-54 -178 -108.5 -354.5t-109.5 -354.5h-156z" />
    <glyph glyph-name="W" unicode="W" 
d="M313 381l-81 -381h-142l-72 709h131l34 -517l64 328h132l63 -323l29 512h131l-67 -709h-141z" />
    <glyph glyph-name="X" unicode="X" 
d="M308 254l-155 -254h-148l232 361l-228 348h150l153 -244l148 244h149l-225 -349l230 -360h-151z" />
    <glyph glyph-name="Y" unicode="Y" 
d="M375 0h-130v302l-237 407h142l164 -289l162 289h136l-237 -407v-302z" />
    <glyph glyph-name="Z" unicode="Z" 
d="M58 127l365 465h-359v117h503v-127l-362 -465h367v-117h-514v127z" />
    <glyph glyph-name="bracketleft" unicode="[" 
d="M201 780h284v-85h-190v-758h190v-85h-284v928z" />
    <glyph glyph-name="backslash" unicode="\" 
d="M126 723l464 -738h-96l-464 738h96z" />
    <glyph glyph-name="bracketright" unicode="]" 
d="M134 -63h190v758h-190v85h284v-928h-284v85z" />
    <glyph glyph-name="asciicircum" unicode="^" 
d="M307 577l-94 -193h-133l180 338h99l179 -338h-138z" />
    <glyph glyph-name="underscore" unicode="_" 
d="M62 0h496v-88h-496v88z" />
    <glyph glyph-name="grave" unicode="`" 
d="M186 669l63 96l185 -139l-47 -69z" />
    <glyph glyph-name="a" unicode="a" 
d="M578 7q-11 -5 -29 -10t-41 -5q-46 0 -70 23.5t-27 52.5q-19 -32 -59 -57t-97 -25q-48 0 -84 13.5t-60 36t-36 51.5t-12 61q0 75 49.5 116t136.5 48l150 12v28q0 39 -22 62.5t-73 23.5q-46 0 -71 -21.5t-27 -57.5h-122q3 44 21.5 77t48.5 54.5t69 32.5t83 11q34 0 65 -5.5
t57.5 -18t46 -33t31.5 -49.5q10 -25 12.5 -52t2.5 -53v-192q0 -22 9.5 -28.5t26.5 -6.5q8 0 13.5 1t7.5 2v-92zM268 221q-38 -4 -60.5 -20t-22.5 -48t22 -49.5t61 -17.5q60 0 95.5 32t35.5 90v25z" />
    <glyph glyph-name="b" unicode="b" 
d="M582 259q0 -52 -14 -101t-42.5 -87t-71.5 -61t-101 -23q-50 0 -92 19.5t-65 55.5l-8 -62h-108v733h125v-263q17 23 53.5 43t93.5 20q58 0 101 -21t71.5 -58t43 -87t14.5 -108zM327 93q35 0 59.5 14.5t39.5 38.5t22 54t7 61q0 29 -6.5 58.5t-21.5 53.5t-39.5 39.5
t-60.5 15.5t-60.5 -15t-39.5 -39t-21.5 -53.5t-6.5 -59.5q0 -32 7 -62t22 -53.5t39.5 -38t59.5 -14.5z" />
    <glyph glyph-name="c" unicode="c" 
d="M550 182q-2 -31 -12.5 -61t-29.5 -53q-29 -34 -75 -58t-113 -24q-66 0 -113.5 24.5t-76.5 57.5q-31 37 -47.5 86t-16.5 106t17 106t48 86q29 33 76 57.5t113 24.5q67 0 113 -24t75 -58q19 -23 29.5 -53t12.5 -61h-123q-3 40 -31 64t-76 24q-32 0 -52.5 -11.5t-33.5 -25.5
q-24 -26 -33 -59t-9 -70t9 -71t33 -59q14 -14 34 -25t52 -11q43 0 72 22t35 66h123z" />
    <glyph glyph-name="d" unicode="d" 
d="M39 259q0 58 14.5 108t43.5 87t72 58t100 21q58 0 90.5 -20t46.5 -43v263h125v-733h-108l-8 62q-23 -36 -60.5 -55.5t-91.5 -19.5q-57 0 -99 23t-69.5 61t-41.5 87t-14 101zM289 93q35 0 58.5 15t38 39t20.5 54t6 60q0 28 -5.5 57.5t-20 54t-38 40t-59.5 15.5
t-59.5 -15.5t-38 -40t-20 -54t-5.5 -57.5q0 -30 6 -60t20.5 -54t38 -39t58.5 -15z" />
    <glyph glyph-name="e" unicode="e" 
d="M553 274q0 -23 -1.5 -35t-1.5 -15h-363q0 -27 8 -52t23.5 -44.5t39 -31t53.5 -11.5q45 0 74 19.5t35 51.5h119q-3 -23 -16.5 -51t-28.5 -46q-34 -39 -82 -56t-99 -17q-56 0 -97.5 17.5t-73.5 46.5q-41 38 -61.5 91.5t-20.5 118.5q0 63 20.5 116t59.5 91q30 29 72 48
t97 19q60 0 112.5 -23.5t85.5 -71.5q27 -40 36.5 -80t9.5 -85zM426 315q0 24 -6.5 45.5t-20.5 38t-36 26.5t-53 10q-52 0 -85 -33.5t-37 -86.5h238z" />
    <glyph glyph-name="f" unicode="f" 
d="M534 520v-103h-190v-417h-125v417h-148v103h148v31q0 85 50.5 133.5t143.5 48.5q43 0 75.5 -8.5t46.5 -16.5v-109q-12 8 -40.5 17t-64.5 9q-38 0 -62 -18.5t-24 -63.5v-23h190z" />
    <glyph glyph-name="g" unicode="g" 
d="M96 341q0 45 17.5 81t47 61t69 38t83.5 13q32 0 64 -8.5t58 -23.5q15 35 44 51.5t62 16.5q15 0 23 -1t15 -3v-99q-2 1 -8.5 1.5t-11.5 0.5q-20 0 -35.5 -8t-21.5 -25q27 -44 27 -94q0 -45 -18 -80t-48 -59t-69 -37t-81 -13q-48 0 -88 15q-11 -6 -19.5 -14.5t-8.5 -21.5
q0 -23 16.5 -29.5t36.5 -6.5h96q19 0 41 -0.5t44 -4t43.5 -10.5t39.5 -20q34 -23 47.5 -54t13.5 -69q0 -49 -23.5 -81.5t-60 -51.5t-82 -27t-88.5 -8q-45 0 -90.5 5.5t-82.5 21.5t-60 44.5t-23 74.5q0 35 22 62t55 42q-26 13 -39 36.5t-13 49.5q0 32 19 58t51 41
q-29 24 -46.5 58t-17.5 78zM458 -65q0 22 -11.5 34.5t-28.5 18.5t-37 7.5t-38 1.5h-120q-20 -6 -33.5 -21.5t-13.5 -40.5t15 -39t36.5 -21t46 -8.5t42.5 -1.5q19 0 43.5 1t46.5 8t37 21t15 40zM409 343q0 45 -27 71.5t-69 26.5t-69 -26.5t-27 -71.5t27 -71t69 -26t69 26
t27 71z" />
    <glyph glyph-name="h" unicode="h" 
d="M424 315q0 45 -22.5 73.5t-73.5 28.5q-34 0 -58 -18.5t-37 -47.5q-10 -23 -13.5 -50t-3.5 -53v-248h-125v733h125v-266q25 34 63.5 50t83.5 16q44 0 78.5 -14.5t58.5 -40t36.5 -60.5t12.5 -75v-343h-125v315z" />
    <glyph glyph-name="i" unicode="i" 
d="M393 520v-417h171v-103h-469v103h171v314h-143v103h270zM257 733h144v-132h-144v132z" />
    <glyph glyph-name="j" unicode="j" 
d="M433 520v-552q0 -41 -11 -76.5t-35 -61.5t-61 -40.5t-89 -14.5q-51 0 -85 8t-48 16v109q14 -5 43 -12t69 -7t66 20t26 73v435h-199v103h324zM297 733h144v-132h-144v132z" />
    <glyph glyph-name="k" unicode="k" 
d="M227 137v-137h-125v733h125v-430l207 217h160l-205 -213l204 -307h-147l-142 217z" />
    <glyph glyph-name="l" unicode="l" 
d="M86 103h166v527h-141v103h267v-630h169v-103h-461v103z" />
    <glyph glyph-name="m" unicode="m" 
d="M257 377q0 17 -11 32t-34 15q-15 0 -25 -6.5t-16 -16.5t-8.5 -23t-2.5 -25v-353h-117v520h88l12 -62q7 27 32.5 50t67.5 23q26 0 44.5 -7.5t30 -19t18 -26t8.5 -28.5q4 14 13 28.5t23.5 26t35 19t47.5 7.5q59 0 91.5 -40t32.5 -110v-381h-118v377q0 17 -11 32t-34 15
q-15 0 -25 -6.5t-16 -16.5t-8.5 -23t-2.5 -25v-353h-115v377z" />
    <glyph glyph-name="n" unicode="n" 
d="M417 315q0 45 -22.5 73.5t-73.5 28.5q-34 0 -58 -18.5t-37 -47.5t-15 -65t-2 -68v-218h-125v520h105l10 -68q23 42 65.5 61.5t91.5 19.5q44 0 78.5 -14.5t58.5 -40t36.5 -60.5t12.5 -75v-343h-125v315z" />
    <glyph glyph-name="o" unicode="o" 
d="M180 260q0 -79 35 -122t95 -43t95 43t35 122t-35 122t-95 43t-95 -43t-35 -122zM53 260q0 64 19.5 114.5t54 86t81.5 54.5t102 19t102 -19t81.5 -54.5t54 -86t19.5 -114.5t-19.5 -114.5t-54 -86t-81.5 -54.5t-102 -19t-102 19t-81.5 54.5t-54 86t-19.5 114.5z" />
    <glyph glyph-name="p" unicode="p" 
d="M578 261q0 -57 -13.5 -107t-41.5 -87t-70.5 -58.5t-100.5 -21.5q-28 0 -49.5 5.5t-38 14.5t-28.5 20t-21 23v-265h-125v735h108l8 -62q24 36 61.5 55.5t85.5 19.5q58 0 100 -23t70 -61t41.5 -87t13.5 -101zM327 427q-35 0 -57.5 -15t-36 -39t-19 -54t-5.5 -60
q0 -28 5 -57.5t18 -54t36 -40t59 -15.5t60 15.5t38 40t20 54t6 57.5q0 30 -6.5 60t-21 54t-38 39t-58.5 15z" />
    <glyph glyph-name="q" unicode="q" 
d="M35 261q0 52 14.5 101t43.5 87t72.5 61t101.5 23q51 0 91.5 -19.5t62.5 -55.5l8 62h108v-735h-125v268q-7 -12 -18.5 -23.5t-28.5 -21t-40 -15.5t-52 -6q-58 0 -102.5 21t-74.5 58t-45.5 87t-15.5 108zM290 427q-35 0 -59.5 -15t-39.5 -39t-22 -54t-7 -60
q0 -28 6.5 -57.5t21.5 -54t39.5 -40t60.5 -15.5t60.5 15.5t39.5 40t21.5 54t6.5 57.5q0 30 -7 60t-22 54t-39.5 39t-59.5 15z" />
    <glyph glyph-name="r" unicode="r" 
d="M443 323q0 21 -5 39.5t-15.5 32.5t-28 22.5t-42.5 8.5q-49 0 -77.5 -36t-28.5 -102v-288h-126v520h113l10 -68q16 35 53.5 58t89.5 23q46 0 80 -14.5t56.5 -41t34 -63.5t12.5 -81v-10h-126z" />
    <glyph glyph-name="s" unicode="s" 
d="M545 160q0 -46 -19.5 -79t-51.5 -54t-74.5 -31t-88.5 -10q-47 0 -90 11.5t-75.5 34t-52 56.5t-19.5 79h120q2 -42 37 -63.5t84 -21.5q53 0 83.5 18t30.5 48q0 22 -13.5 36.5t-47.5 19.5l-118 18q-42 6 -71.5 20.5t-48 34t-26.5 43t-8 46.5q0 36 16 67t44.5 53.5t69 35
t89.5 12.5q47 0 87 -12.5t68.5 -34.5t44.5 -53t16 -68h-119q-2 32 -26.5 53t-70.5 21q-45 0 -73 -17t-28 -46q0 -27 19 -38t44 -15l119 -17q67 -9 108 -47t41 -100z" />
    <glyph glyph-name="t" unicode="t" 
d="M556 21q-17 -11 -54 -19.5t-88 -8.5q-50 0 -85.5 13t-58.5 37t-34 57.5t-11 74.5v242h-142v103h142v137l125 36v-173h203v-103h-203v-227q0 -46 23.5 -65t61.5 -19q42 0 74.5 8.5t46.5 13.5v-107z" />
    <glyph glyph-name="u" unicode="u" 
d="M418 69q-19 -38 -60 -60t-91 -22q-43 0 -78 14.5t-60 40.5t-39 61.5t-14 77.5v339h125v-311q0 -46 24 -76.5t77 -30.5q28 0 47.5 10.5t32.5 28.5t19 41t6 48v290h125v-520h-104z" />
    <glyph glyph-name="v" unicode="v" 
d="M241 0l-207 520h136l145 -386l137 386h133l-201 -520h-143z" />
    <glyph glyph-name="w" unicode="w" 
d="M96 0l-81 520h121l46 -396l63 303h130l63 -303l46 396h121l-83 -520h-144l-68 306l-68 -306h-146z" />
    <glyph glyph-name="x" unicode="x" 
d="M582 0h-147l-128 176l-126 -176h-143l202 265l-199 255h149l125 -169l123 169h142l-196 -256z" />
    <glyph glyph-name="y" unicode="y" 
d="M36 520h139l146 -360l138 360h129l-252 -623q-23 -57 -65 -90.5t-116 -33.5q-27 0 -53 6t-46 16v106q12 -7 36.5 -13t46.5 -6q34 0 58 14.5t38 51.5l24 61z" />
    <glyph glyph-name="z" unicode="z" 
d="M83 110l302 307h-300v103h450v-113l-299 -304h301v-103h-454v110z" />
    <glyph glyph-name="braceleft" unicode="{" 
d="M404 -148q-43 0 -74 14t-50.5 37t-29 54t-9.5 64v124q0 66 -29.5 93t-88.5 32v93q28 3 50 9.5t37 20.5t22.5 36.5t7.5 57.5v124q0 33 9.5 64t29.5 54t51 37t74 14h103v-85h-84q-50 0 -69 -24t-19 -67v-154q0 -22 -7 -43t-20.5 -38.5t-33.5 -30.5t-47 -19v-3
q27 -6 47 -19.5t33.5 -31.5t20.5 -39.5t7 -43.5v-154q0 -43 19 -67t69 -24h84v-85h-103z" />
    <glyph glyph-name="bar" unicode="|" 
d="M261 780h98v-928h-98v928z" />
    <glyph glyph-name="braceright" unicode="}" 
d="M113 -63h84q50 0 69 24t19 67v154q0 22 7 43.5t20.5 39.5t33.5 31.5t47 19.5v3q-27 6 -47 19t-33.5 30.5t-20.5 38.5t-7 43v154q0 43 -19 67t-69 24h-84v85h103q43 0 74 -14t51 -37t29.5 -54t9.5 -64v-124q0 -35 7.5 -57.5t22.5 -36.5t36.5 -20.5t50.5 -9.5v-93
q-59 -5 -88.5 -32t-29.5 -93v-124q0 -33 -9.5 -64t-29 -54t-50.5 -37t-74 -14h-103v85z" />
    <glyph glyph-name="asciitilde" unicode="~" 
d="M412 220q-29 0 -54 8t-48.5 17t-47 17t-48.5 8q-29 0 -50.5 -9.5t-39.5 -27.5l-77 76q26 38 65.5 61t91.5 23q30 0 55.5 -8t49 -18t46 -18t46.5 -8q29 0 51.5 12.5t42.5 34.5l75 -80q-27 -40 -66.5 -64t-91.5 -24z" />
    <glyph glyph-name="uni00A0" unicode="&#xa0;" 
 />
    <glyph glyph-name="exclamdown" unicode="&#xa1;" 
d="M345 307l30 -275v-222h-131v222l30 275h71zM378 376h-140v143h140v-143z" />
    <glyph glyph-name="cent" unicode="&#xa2;" 
d="M534 276q-3 -64 -40 -112q-23 -30 -60.5 -53t-87.5 -28v-83h-62v85q-48 7 -85.5 29t-60.5 50q-29 36 -41.5 84.5t-12.5 105.5t12.5 105.5t41.5 84.5q23 28 60.5 50.5t85.5 29.5v83h62v-82q50 -5 87.5 -28t60.5 -53q37 -48 40 -112h-121q-1 14 -5 25.5t-10 21.5
q-17 28 -52 37v-324q35 9 52 37q6 10 10 21.5t5 25.5h121zM284 514q-24 -9 -42 -28q-23 -25 -28.5 -60t-5.5 -72t5.5 -72t28.5 -60q18 -19 42 -28v320z" />
    <glyph glyph-name="sterling" unicode="&#xa3;" 
d="M585 192q0 -94 -49.5 -143t-143.5 -49h-318v110q76 0 76 74v130h-75v103h75v85q0 47 15 85t42 64.5t65 41t85 14.5q42 0 78.5 -13t63.5 -38t42.5 -60t15.5 -79h-125q0 35 -19 58.5t-56 23.5q-41 0 -61 -26.5t-20 -64.5v-91h143v-103h-143v-131q0 -10 -1.5 -21t-5.5 -20.5
t-11.5 -17t-18.5 -10.5v-2h151q42 0 59 19.5t17 60.5h119z" />
    <glyph glyph-name="currency" unicode="&#xa4;" 
d="M432 56q-30 -17 -59.5 -25t-61.5 -8t-62 8t-61 25l-69 -76l-87 84l79 67q-36 63 -36 123t36 123l-79 63l88 87l67 -75q31 17 61.5 24.5t62.5 7.5t61 -7.5t60 -24.5l69 75l87 -87l-78 -63q36 -63 36 -123q0 -62 -36 -123l78 -67l-86 -84zM434 254q0 27 -8.5 50t-24.5 40
t-39 26.5t-51 9.5q-63 0 -94 -35t-31 -91q0 -25 8.5 -48t24.5 -40.5t39 -28t53 -10.5q60 0 91.5 36t31.5 91z" />
    <glyph glyph-name="yen" unicode="&#xa5;" 
d="M529 398v-73h-155v-90h155v-73h-155v-162h-128v162h-155v73h155v90h-155v73h100l-165 297h139l149 -271l144 271h137l-165 -297h99z" />
    <glyph glyph-name="brokenbar" unicode="&#xa6;" 
d="M261 780h98v-361h-98v361zM359 -148h-98v361h98v-361z" />
    <glyph glyph-name="section" unicode="&#xa7;" 
d="M546 170q0 -46 -25 -79.5t-61 -58.5q20 -23 30 -49.5t10 -60.5q0 -36 -12 -65t-33 -50q-26 -26 -64 -40t-80 -14q-39 0 -73.5 12t-60 35t-40.5 56.5t-15 76.5h109q0 -35 21 -58.5t59 -23.5q35 0 56 18.5t21 50.5q0 21 -10 36.5t-25 29.5l-195 167q-31 26 -48.5 61
t-17.5 76q0 46 25.5 79t61.5 58q-20 23 -30.5 50t-10.5 61q0 36 13 64t34 49q26 26 63 41t79 15q39 0 73.5 -12.5t60.5 -35.5t41 -56.5t15 -76.5h-110q0 35 -20.5 59t-58.5 24q-35 0 -56 -18.5t-21 -50.5q0 -21 9.5 -36.5t24.5 -29.5l195 -167q31 -26 48.5 -61t17.5 -76z
M436 162q0 17 -7 34t-21 29l-160 139q-17 -12 -31 -29t-14 -37q0 -17 6.5 -34t20.5 -29l161 -139q17 12 31 29t14 37z" />
    <glyph glyph-name="dieresis" unicode="&#xa8;" 
d="M353 709h115v-116h-115v116zM151 709h115v-116h-115v116z" />
    <glyph glyph-name="copyright" unicode="&#xa9;" 
d="M580 354q0 -59 -20.5 -108.5t-56.5 -85.5t-85.5 -56t-108.5 -20t-108.5 20t-85.5 56t-56.5 85.5t-20.5 108.5q0 58 20.5 107.5t57 85.5t86 56.5t107.5 20.5t107.5 -20.5t86 -56.5t57 -85.5t20.5 -107.5zM511 354q0 45 -14.5 83t-41.5 65.5t-64 43.5t-82 16t-82 -16
t-64 -43.5t-41.5 -65.5t-14.5 -83t14.5 -83t41 -66t64 -43.5t82.5 -15.5t82 16t64 44t41.5 66t14.5 82zM439 315q-5 -47 -39.5 -78t-87.5 -31q-32 0 -57.5 12t-43 32t-27 46.5t-9.5 56.5t9.5 56t27 45.5t43 31t57.5 11.5q53 0 87.5 -30.5t39.5 -78.5h-74q-4 17 -17 30
t-36 13q-16 0 -27.5 -6.5t-19 -17.5t-11 -25t-3.5 -29q0 -35 15.5 -57t45.5 -22q23 0 36 12t17 29h74z" />
    <glyph glyph-name="ordfeminine" unicode="&#xaa;" 
d="M498 329q-8 -4 -21 -7.5t-30 -3.5q-34 0 -51.5 17t-19.5 37q-15 -24 -45 -41t-75 -17q-59 0 -96.5 30.5t-37.5 85.5q0 53 36 83t97 35l108 8v16q0 28 -15 44t-51 16q-35 0 -51.5 -14.5t-18.5 -38.5h-93q5 61 50.5 92.5t115.5 31.5q23 0 45.5 -4t41.5 -12.5t33.5 -23
t23.5 -35.5q8 -18 9.5 -37t1.5 -38v-136q0 -16 8 -20.5t19 -4.5q8 0 10.5 1t5.5 1v-65zM272 479q-26 -2 -41.5 -13t-15.5 -34q0 -20 14 -32.5t46 -12.5q41 0 64.5 21.5t23.5 63.5v15z" />
    <glyph glyph-name="guillemotleft" unicode="&#xab;" 
d="M251 545l73 -52l-134 -194l134 -194l-73 -51l-193 244zM474 545l73 -52l-134 -194l134 -194l-73 -51l-193 244z" />
    <glyph glyph-name="logicalnot" unicode="&#xac;" 
d="M419 251h-364v113h486v-280h-122v167z" />
    <glyph glyph-name="uni00AD" unicode="&#xad;" 
d="M131 364h356v-112h-356v112z" />
    <glyph glyph-name="registered" unicode="&#xae;" 
d="M579 354q0 -59 -20.5 -108.5t-56.5 -85.5t-85.5 -56t-108.5 -20t-108.5 20t-85.5 56t-56.5 85.5t-20.5 108.5q0 58 20.5 107.5t57 85.5t86 56.5t107.5 20.5t107.5 -20.5t86 -56.5t57 -85.5t20.5 -107.5zM510 354q0 45 -14.5 83t-41.5 65.5t-64 43.5t-82 16t-82 -16
t-64 -43.5t-41.5 -65.5t-14.5 -83t14.5 -83t41 -66t64 -43.5t82.5 -15.5t82 16t64 44t41.5 66t14.5 82zM311 316h-27v-91h-68v267h108q44 0 72 -23t28 -68q0 -23 -13 -44.5t-36 -29.5l48 -102h-72zM356 404q0 14 -10 21t-24 7h-39v-58h39q14 0 24 7.5t10 22.5z" />
    <glyph glyph-name="macron" unicode="&#xaf;" 
d="M160 709h300v-97h-300v97z" />
    <glyph glyph-name="degree" unicode="&#xb0;" 
d="M480 540q0 -38 -14 -69.5t-38 -53.5t-55.5 -34t-67.5 -12t-67 13t-54 35.5t-36.5 53.5t-13.5 67q0 34 11.5 64.5t33.5 53.5t54 36t72 13q39 0 71 -12.5t55 -35t36 -53t13 -66.5zM382 540q0 32 -22.5 54t-54.5 22t-53.5 -22t-21.5 -54q0 -33 21.5 -55.5t53.5 -22.5
t54.5 22.5t22.5 55.5z" />
    <glyph glyph-name="plusminus" unicode="&#xb1;" 
d="M367 162h-114v160h-163v105h163v160h114v-160h163v-105h-163v-160zM90 106h440v-106h-440v106z" />
    <glyph glyph-name="twosuperior" unicode="&#xb2;" 
d="M162 408l160 127q14 11 25 24t11 31t-13 32t-39 14q-32 0 -45 -18.5t-13 -42.5h-93q0 69 42 105t113 36q30 0 56 -8.5t46 -24.5t31.5 -39t11.5 -53q0 -40 -22.5 -67t-53.5 -50l-75 -55h159v-86h-301v75z" />
    <glyph glyph-name="threesuperior" unicode="&#xb3;" 
d="M468 440q0 -28 -13.5 -49t-36 -35.5t-51 -21.5t-57.5 -7t-57 7.5t-49.5 23t-35.5 40t-16 57.5h91q2 -26 21.5 -37.5t44.5 -11.5q10 0 21.5 2t21.5 7t16.5 13t6.5 21q0 21 -17.5 30.5t-43.5 9.5h-37v73h37q21 0 36.5 8.5t15.5 28.5q0 23 -18.5 31.5t-38.5 8.5
q-25 0 -43 -12t-21 -39h-90q2 30 13 52.5t28 37.5q22 20 52 29t63 9q28 0 55 -6.5t48 -20t34 -34t13 -48.5q0 -26 -14 -48.5t-46 -30.5q32 -8 49.5 -32.5t17.5 -55.5z" />
    <glyph glyph-name="acute" unicode="&#xb4;" 
d="M371 764l63 -96l-201 -112l-47 69z" />
    <glyph glyph-name="mu" unicode="&#xb5;" 
d="M271 -4q-23 0 -45 6.5t-34 18.5v-236h-125v735h125v-325q0 -40 21.5 -66.5t61.5 -26.5q34 0 55 13.5t33 36t16.5 51.5t4.5 60v257h125v-376q0 -40 39 -40q15 0 31 4v-98q-2 -1 -19.5 -7t-45.5 -6q-46 0 -74 21.5t-35 59.5q-19 -44 -54.5 -63t-79.5 -19z" />
    <glyph glyph-name="paragraph" unicode="&#xb6;" 
d="M525 -125h-100v737h-97v-737h-99v436q-41 0 -77.5 15.5t-63.5 42.5t-42.5 63.5t-15.5 77.5t15.5 77.5t42.5 63.5t63.5 42.5t77.5 15.5h364v-97h-68v-737z" />
    <glyph glyph-name="periodcentered" unicode="&#xb7;" 
d="M236 371h148v-152h-148v152z" />
    <glyph glyph-name="cedilla" unicode="&#xb8;" 
d="M257 -123q0 -12 13 -25.5t41 -13.5q24 0 36.5 11t12.5 27q0 17 -14.5 29t-42.5 12q-17 0 -33 -4v111h92v-56q16 -2 32 -9t29 -19t20.5 -29t7.5 -38q0 -26 -11 -46t-29.5 -34t-44 -21.5t-55.5 -7.5q-27 0 -52.5 7.5t-45 22t-31.5 35.5t-13 48h88z" />
    <glyph glyph-name="onesuperior" unicode="&#xb9;" 
d="M262 417v190l-107 -66v95l117 73h85v-292h107v-84h-309v84h107z" />
    <glyph glyph-name="ordmasculine" unicode="&#xba;" 
d="M310 394q42 0 69 29t27 86q0 56 -27 85t-69 29t-69 -29t-27 -85q0 -57 27 -86t69 -29zM310 314q-40 0 -75 13.5t-61 38.5t-41 61t-15 82q0 45 15 81t41 61t61 38.5t75 13.5t75 -13.5t61 -38.5t41 -61t15 -81q0 -46 -15 -82t-41 -61t-61 -38.5t-75 -13.5z" />
    <glyph glyph-name="guillemotright" unicode="&#xbb;" 
d="M301 105l134 194l-134 194l73 52l193 -247l-193 -244zM78 105l134 194l-134 194l73 52l193 -247l-193 -244z" />
    <glyph glyph-name="onequarter" unicode="&#xbc;" 
d="M88 219l465 329l40 -62l-463 -328zM605 124v-68h-52v-56h-76v56h-164v88l123 156h82l-133 -176h92v75h76v-75h52zM104 460v152l-86 -53v76l94 58h68v-233h85v-67h-247v67h86z" />
    <glyph glyph-name="onehalf" unicode="&#xbd;" 
d="M87 219l465 329l40 -62l-463 -328zM104 460v152l-86 -53v76l94 58h68v-233h85v-67h-247v67h86zM354 60l128 101q11 8 20 19t9 25t-10.5 25.5t-30.5 11.5q-26 0 -36.5 -14.5t-10.5 -34.5h-74q0 55 33.5 84t90.5 29q24 0 45 -7t36.5 -19.5t25 -31t9.5 -42.5q0 -32 -18 -54
t-43 -40l-60 -44h127v-68h-241v60z" />
    <glyph glyph-name="threequarters" unicode="&#xbe;" 
d="M75 219l465 329l40 -62l-463 -328zM293 478q0 -22 -11 -39t-29 -28t-40.5 -17t-45.5 -6t-45 6t-39.5 18.5t-29 31.5t-12.5 46h72q2 -21 17.5 -30t35.5 -9q17 0 35 7t18 27q0 17 -14 24.5t-35 7.5h-29v59h29q17 0 29.5 6.5t12.5 22.5q0 18 -14.5 25t-31.5 7
q-20 0 -34.5 -9.5t-16.5 -30.5h-72q3 47 33 72q17 15 41.5 22.5t50.5 7.5q22 0 44 -5t38.5 -16t27 -27.5t10.5 -38.5q0 -21 -11.5 -39t-36.5 -24q26 -6 39.5 -26t13.5 -45zM597 124v-68h-52v-56h-76v56h-164v88l123 156h82l-133 -176h92v75h76v-75h52z" />
    <glyph glyph-name="questiondown" unicode="&#xbf;" 
d="M78 -7q0 53 22 91.5t57 67.5q19 16 36.5 29.5t31 28.5t21 34.5t7.5 47.5v28h120q0 -26 -0.5 -53t-4.5 -44q-7 -33 -20.5 -55.5t-30 -40t-34.5 -31.5t-36 -30q-14 -13 -26.5 -30.5t-12.5 -41.5q0 -33 23 -60t74 -27q48 0 77 28t29 75h124q0 -51 -17.5 -90.5t-48.5 -66.5
t-73.5 -41.5t-92.5 -14.5q-49 0 -90.5 14.5t-71.5 41t-46.5 62.5t-16.5 78zM383 384h-137v136h137v-136z" />
    <glyph glyph-name="Agrave" unicode="&#xc0;" 
d="M431 176h-242l-51 -176h-134l224 709h168l220 -709h-134zM222 291h175l-87 301zM178 837l49 101l219 -119l-34 -74z" />
    <glyph glyph-name="Aacute" unicode="&#xc1;" 
d="M431 176h-242l-51 -176h-134l224 709h168l220 -709h-134zM222 291h175l-87 301zM437 938l49 -101l-234 -92l-34 74z" />
    <glyph glyph-name="Acircumflex" unicode="&#xc2;" 
d="M431 176h-242l-51 -176h-134l224 709h168l220 -709h-134zM222 291h175l-87 301zM272 920h79l136 -105l-55 -70l-121 94l-122 -94l-53 70z" />
    <glyph glyph-name="Atilde" unicode="&#xc3;" 
d="M431 176h-242l-51 -176h-134l224 709h168l220 -709h-134zM222 291h175l-87 301zM486 871q0 -26 -9 -46t-24.5 -33.5t-35.5 -20t-41 -6.5q-25 0 -44 8.5t-33.5 19t-26.5 19t-23 8.5q-9 0 -17 -6t-8 -22v-21h-88v33q0 26 9 46.5t24.5 34t35.5 20.5t42 7q26 0 45 -8.5
t34 -18t26 -18t22 -8.5q24 0 24 27v22h88v-37z" />
    <glyph glyph-name="Adieresis" unicode="&#xc4;" 
d="M431 176h-242l-51 -176h-134l224 709h168l220 -709h-134zM222 291h175l-87 301zM363 896h115v-117h-115v117zM141 896h115v-117h-115v117z" />
    <glyph glyph-name="Aring" unicode="&#xc5;" 
d="M213 662q-23 20 -36.5 48.5t-13.5 61.5q0 31 12 58t32.5 47t48 31.5t58.5 11.5t58.5 -11.5t47.5 -31.5t32 -47t12 -58q0 -35 -14.5 -64t-38.5 -49l205 -659h-134l-51 176h-242l-51 -176h-134zM397 291l-87 301l-87 -301h174zM314 709q26 0 43.5 18t17.5 45t-17.5 45
t-43.5 18t-44.5 -17t-18.5 -46t18.5 -46t44.5 -17z" />
    <glyph glyph-name="AE" unicode="&#xc6;" 
d="M321 176h-144l-50 -176h-127l216 709h394v-117h-167v-165h139v-116h-139v-194h167v-117h-289v176zM321 291v301h-24l-87 -301h111z" />
    <glyph glyph-name="Ccedilla" unicode="&#xc7;" 
d="M258 -123q0 -12 13 -25.5t41 -13.5q24 0 36.5 11t12.5 27q0 17 -14.5 29t-42.5 12q-17 0 -33 -4v77q-40 6 -75.5 22.5t-64.5 46.5q-29 29 -47 63t-28 71.5t-13.5 78t-3.5 82.5t3.5 82.5t13.5 78t28 71.5t47 63q39 39 88 56t103 17q69 0 118.5 -21.5t82.5 -57t50 -80.5
t20 -91h-130q-1 25 -8.5 49t-24 43t-43 30.5t-63.5 11.5q-61 0 -103 -42q-18 -18 -28.5 -45t-15.5 -56.5t-6 -58t-1 -50.5t1 -51t6 -58.5t15.5 -57t28.5 -45.5q21 -21 46 -30.5t55 -9.5q38 0 65 12.5t43.5 32t24.5 44.5t9 50h129q-3 -43 -17.5 -85.5t-42 -77.5t-69.5 -59.5
t-101 -30.5v-20q16 -2 32 -9t29 -19t20.5 -29t7.5 -38q0 -26 -11 -46t-29.5 -34t-44 -21.5t-55.5 -7.5q-27 0 -52.5 7.5t-45 22t-31.5 35.5t-13 48h88z" />
    <glyph glyph-name="Egrave" unicode="&#xc8;" 
d="M95 709h473v-117h-344v-167h273v-116h-273v-192h344v-117h-473v709zM176 837l49 101l219 -119l-34 -74z" />
    <glyph glyph-name="Eacute" unicode="&#xc9;" 
d="M95 709h473v-117h-344v-167h273v-116h-273v-192h344v-117h-473v709zM443 938l49 -101l-234 -92l-34 74z" />
    <glyph glyph-name="Ecircumflex" unicode="&#xca;" 
d="M95 709h473v-117h-344v-167h273v-116h-273v-192h344v-117h-473v709zM315 920h79l136 -105l-55 -70l-121 94l-122 -94l-53 70z" />
    <glyph glyph-name="Edieresis" unicode="&#xcb;" 
d="M95 709h473v-117h-344v-167h273v-116h-273v-192h344v-117h-473v709zM394 896h115v-117h-115v117zM172 896h115v-117h-115v117z" />
    <glyph glyph-name="Igrave" unicode="&#xcc;" 
d="M93 107h151v495h-151v107h434v-107h-152v-495h152v-107h-434v107zM137 837l49 101l219 -119l-34 -74z" />
    <glyph glyph-name="Iacute" unicode="&#xcd;" 
d="M93 107h151v495h-151v107h434v-107h-152v-495h152v-107h-434v107zM445 938l49 -101l-234 -92l-34 74z" />
    <glyph glyph-name="Icircumflex" unicode="&#xce;" 
d="M93 107h151v495h-151v107h434v-107h-152v-495h152v-107h-434v107zM271 920h79l136 -105l-55 -70l-121 94l-122 -94l-53 70z" />
    <glyph glyph-name="Idieresis" unicode="&#xcf;" 
d="M93 107h151v495h-151v107h434v-107h-152v-495h152v-107h-434v107zM363 896h115v-117h-115v117zM141 896h115v-117h-115v117z" />
    <glyph glyph-name="Eth" unicode="&#xd0;" 
d="M585 356q0 -72 -12 -134t-42 -110q-30 -49 -88.5 -80.5t-142.5 -31.5h-229v333h-62v72h62v304h229q84 0 143 -33t89 -82q30 -48 41.5 -107t11.5 -131zM454 356q0 60 -9.5 112t-41.5 85q-18 18 -46.5 29t-68.5 11h-88v-188h127v-72h-127v-217h88q42 0 71 11.5t47 31.5
q31 34 39.5 86t8.5 111z" />
    <glyph glyph-name="Ntilde" unicode="&#xd1;" 
d="M188 514v-514h-127v709h170l200 -468v468h127v-709h-143zM495 871q0 -26 -9 -46t-24.5 -33.5t-35.5 -20t-41 -6.5q-25 0 -44 8.5t-33.5 19t-26.5 19t-23 8.5q-9 0 -17 -6t-8 -22v-21h-88v33q0 26 9 46.5t24.5 34t35.5 20.5t42 7q26 0 45 -8.5t34 -18t26 -18t22 -8.5
q24 0 24 27v22h88v-37z" />
    <glyph glyph-name="Ograve" unicode="&#xd2;" 
d="M310 102q61 0 100 39q18 18 28 45.5t14.5 57.5t5.5 59t1 51t-1 51t-5.5 59t-14.5 57.5t-28 45.5q-39 39 -100 39t-100 -39q-18 -18 -28 -45.5t-14.5 -57.5t-5.5 -59t-1 -51t1 -51t5.5 -59t14.5 -57.5t28 -45.5q39 -39 100 -39zM310 -14q-54 0 -102 17.5t-87 56.5
q-29 29 -47 63t-28 71t-13 77.5t-3 82.5t3 82.5t13 77.5t28 71t47 63q39 39 87 56.5t102 17.5t102 -17.5t87 -56.5q29 -29 47 -63t27.5 -71t13 -77.5t3.5 -82.5t-3.5 -82.5t-13 -77.5t-27.5 -71t-47 -63q-39 -39 -87 -56.5t-102 -17.5zM176 837l49 101l219 -119l-34 -74z
" />
    <glyph glyph-name="Oacute" unicode="&#xd3;" 
d="M310 102q61 0 100 39q18 18 28 45.5t14.5 57.5t5.5 59t1 51t-1 51t-5.5 59t-14.5 57.5t-28 45.5q-39 39 -100 39t-100 -39q-18 -18 -28 -45.5t-14.5 -57.5t-5.5 -59t-1 -51t1 -51t5.5 -59t14.5 -57.5t28 -45.5q39 -39 100 -39zM310 -14q-54 0 -102 17.5t-87 56.5
q-29 29 -47 63t-28 71t-13 77.5t-3 82.5t3 82.5t13 77.5t28 71t47 63q39 39 87 56.5t102 17.5t102 -17.5t87 -56.5q29 -29 47 -63t27.5 -71t13 -77.5t3.5 -82.5t-3.5 -82.5t-13 -77.5t-27.5 -71t-47 -63q-39 -39 -87 -56.5t-102 -17.5zM415 938l49 -101l-234 -92l-34 74z
" />
    <glyph glyph-name="Ocircumflex" unicode="&#xd4;" 
d="M310 102q61 0 100 39q18 18 28 45.5t14.5 57.5t5.5 59t1 51t-1 51t-5.5 59t-14.5 57.5t-28 45.5q-39 39 -100 39t-100 -39q-18 -18 -28 -45.5t-14.5 -57.5t-5.5 -59t-1 -51t1 -51t5.5 -59t14.5 -57.5t28 -45.5q39 -39 100 -39zM310 -14q-54 0 -102 17.5t-87 56.5
q-29 29 -47 63t-28 71t-13 77.5t-3 82.5t3 82.5t13 77.5t28 71t47 63q39 39 87 56.5t102 17.5t102 -17.5t87 -56.5q29 -29 47 -63t27.5 -71t13 -77.5t3.5 -82.5t-3.5 -82.5t-13 -77.5t-27.5 -71t-47 -63q-39 -39 -87 -56.5t-102 -17.5zM272 920h79l136 -105l-55 -70l-121 94
l-122 -94l-53 70z" />
    <glyph glyph-name="Otilde" unicode="&#xd5;" 
d="M310 102q61 0 100 39q18 18 28 45.5t14.5 57.5t5.5 59t1 51t-1 51t-5.5 59t-14.5 57.5t-28 45.5q-39 39 -100 39t-100 -39q-18 -18 -28 -45.5t-14.5 -57.5t-5.5 -59t-1 -51t1 -51t5.5 -59t14.5 -57.5t28 -45.5q39 -39 100 -39zM310 -14q-54 0 -102 17.5t-87 56.5
q-29 29 -47 63t-28 71t-13 77.5t-3 82.5t3 82.5t13 77.5t28 71t47 63q39 39 87 56.5t102 17.5t102 -17.5t87 -56.5q29 -29 47 -63t27.5 -71t13 -77.5t3.5 -82.5t-3.5 -82.5t-13 -77.5t-27.5 -71t-47 -63q-39 -39 -87 -56.5t-102 -17.5zM485 871q0 -26 -9 -46t-24.5 -33.5
t-35.5 -20t-41 -6.5q-25 0 -44 8.5t-33.5 19t-26.5 19t-23 8.5q-9 0 -17 -6t-8 -22v-21h-88v33q0 26 9 46.5t24.5 34t35.5 20.5t42 7q26 0 45 -8.5t34 -18t26 -18t22 -8.5q24 0 24 27v22h88v-37z" />
    <glyph glyph-name="Odieresis" unicode="&#xd6;" 
d="M310 102q61 0 100 39q18 18 28 45.5t14.5 57.5t5.5 59t1 51t-1 51t-5.5 59t-14.5 57.5t-28 45.5q-39 39 -100 39t-100 -39q-18 -18 -28 -45.5t-14.5 -57.5t-5.5 -59t-1 -51t1 -51t5.5 -59t14.5 -57.5t28 -45.5q39 -39 100 -39zM310 -14q-54 0 -102 17.5t-87 56.5
q-29 29 -47 63t-28 71t-13 77.5t-3 82.5t3 82.5t13 77.5t28 71t47 63q39 39 87 56.5t102 17.5t102 -17.5t87 -56.5q29 -29 47 -63t27.5 -71t13 -77.5t3.5 -82.5t-3.5 -82.5t-13 -77.5t-27.5 -71t-47 -63q-39 -39 -87 -56.5t-102 -17.5zM365 896h115v-117h-115v117zM143 896
h115v-117h-115v117z" />
    <glyph glyph-name="multiply" unicode="&#xd7;" 
d="M101 17l-72 72l208 208l-208 208l72 72l208 -207l208 207l73 -72l-208 -208l208 -208l-73 -72l-208 208z" />
    <glyph glyph-name="Oslash" unicode="&#xd8;" 
d="M310 -14q-88 0 -154 44l-52 -81l-70 51l59 92q-20 27 -32.5 58t-19.5 64t-9 68t-2 72q0 42 3 82.5t13 77.5t28 71t47 63q39 39 87 56.5t102 17.5q43 0 82.5 -11t73.5 -36l53 82l71 -46l-62 -97q39 -55 50.5 -121t11.5 -139q0 -42 -3.5 -82.5t-13 -77.5t-27.5 -71t-47 -63
q-39 -39 -87 -56.5t-102 -17.5zM161 354q0 -28 1.5 -65t9.5 -73l230 358q-38 32 -92 32q-61 0 -100 -39q-18 -18 -28 -45.5t-14.5 -57.5t-5.5 -59t-1 -51zM310 102q61 0 100 39q18 18 28 45.5t14.5 57.5t5.5 59t1 51q0 26 -1.5 63t-9.5 72l-228 -358q19 -15 41.5 -22
t48.5 -7z" />
    <glyph glyph-name="Ugrave" unicode="&#xd9;" 
d="M568 239q0 -119 -68 -185.5t-190 -66.5t-190 66.5t-68 185.5v470h129v-460q0 -76 34.5 -110.5t94.5 -34.5t94.5 34.5t34.5 110.5v460h129v-470zM173 837l49 101l219 -119l-34 -74z" />
    <glyph glyph-name="Uacute" unicode="&#xda;" 
d="M568 239q0 -119 -68 -185.5t-190 -66.5t-190 66.5t-68 185.5v470h129v-460q0 -76 34.5 -110.5t94.5 -34.5t94.5 34.5t34.5 110.5v460h129v-470zM412 938l49 -101l-234 -92l-34 74z" />
    <glyph glyph-name="Ucircumflex" unicode="&#xdb;" 
d="M568 239q0 -119 -68 -185.5t-190 -66.5t-190 66.5t-68 185.5v470h129v-460q0 -76 34.5 -110.5t94.5 -34.5t94.5 34.5t34.5 110.5v460h129v-470zM272 920h79l136 -105l-55 -70l-121 94l-122 -94l-53 70z" />
    <glyph glyph-name="Udieresis" unicode="&#xdc;" 
d="M568 239q0 -119 -68 -185.5t-190 -66.5t-190 66.5t-68 185.5v470h129v-460q0 -76 34.5 -110.5t94.5 -34.5t94.5 34.5t34.5 110.5v460h129v-470zM363 896h115v-117h-115v117zM141 896h115v-117h-115v117z" />
    <glyph glyph-name="Yacute" unicode="&#xdd;" 
d="M375 0h-130v302l-237 407h142l164 -289l162 289h136l-237 -407v-302zM414 938l49 -101l-234 -92l-34 74z" />
    <glyph glyph-name="Thorn" unicode="&#xde;" 
d="M339 581q61 0 107.5 -16t77.5 -45t47 -69t16 -87t-16 -87t-47 -69t-77.5 -45.5t-107.5 -16.5h-132v-146h-128v709h128v-128h132zM332 259q65 0 95 27.5t30 76.5t-30 77t-95 28h-125v-209h125z" />
    <glyph glyph-name="germandbls" unicode="&#xdf;" 
d="M596 213q0 -48 -15.5 -88.5t-44 -69.5t-69 -45.5t-89.5 -16.5q-23 0 -47.5 2.5t-46.5 7.5v109q16 -3 31.5 -4.5t35.5 -1.5q56 0 87.5 33t31.5 87q0 66 -39 93.5t-99 27.5h-21v104h21q41 0 68 22.5t27 61.5q0 41 -23.5 65t-64.5 24q-52 0 -75 -33.5t-23 -86.5v-504h-123
v417h-83v103h85q1 50 18 89.5t46.5 66.5t69.5 41.5t87 14.5q46 0 84.5 -13t67 -37.5t44.5 -59t16 -76.5q0 -23 -7.5 -45t-21 -41.5t-32.5 -34t-42 -21.5q36 -8 63 -26t45.5 -43t28 -56.5t9.5 -65.5z" />
    <glyph glyph-name="agrave" unicode="&#xe0;" 
d="M578 7q-11 -5 -29 -10t-41 -5q-46 0 -70 23.5t-27 52.5q-19 -32 -59 -57t-97 -25q-48 0 -84 13.5t-60 36t-36 51.5t-12 61q0 75 49.5 116t136.5 48l150 12v28q0 39 -22 62.5t-73 23.5q-46 0 -71 -21.5t-27 -57.5h-122q3 44 21.5 77t48.5 54.5t69 32.5t83 11q34 0 65 -5.5
t57.5 -18t46 -33t31.5 -49.5q10 -25 12.5 -52t2.5 -53v-192q0 -22 9.5 -28.5t26.5 -6.5q8 0 13.5 1t7.5 2v-92zM268 221q-38 -4 -60.5 -20t-22.5 -48t22 -49.5t61 -17.5q60 0 95.5 32t35.5 90v25zM186 669l63 96l185 -139l-47 -69z" />
    <glyph glyph-name="aacute" unicode="&#xe1;" 
d="M578 7q-11 -5 -29 -10t-41 -5q-46 0 -70 23.5t-27 52.5q-19 -32 -59 -57t-97 -25q-48 0 -84 13.5t-60 36t-36 51.5t-12 61q0 75 49.5 116t136.5 48l150 12v28q0 39 -22 62.5t-73 23.5q-46 0 -71 -21.5t-27 -57.5h-122q3 44 21.5 77t48.5 54.5t69 32.5t83 11q34 0 65 -5.5
t57.5 -18t46 -33t31.5 -49.5q10 -25 12.5 -52t2.5 -53v-192q0 -22 9.5 -28.5t26.5 -6.5q8 0 13.5 1t7.5 2v-92zM268 221q-38 -4 -60.5 -20t-22.5 -48t22 -49.5t61 -17.5q60 0 95.5 32t35.5 90v25zM400 764l63 -96l-201 -112l-47 69z" />
    <glyph glyph-name="acircumflex" unicode="&#xe2;" 
d="M578 7q-11 -5 -29 -10t-41 -5q-46 0 -70 23.5t-27 52.5q-19 -32 -59 -57t-97 -25q-48 0 -84 13.5t-60 36t-36 51.5t-12 61q0 75 49.5 116t136.5 48l150 12v28q0 39 -22 62.5t-73 23.5q-46 0 -71 -21.5t-27 -57.5h-122q3 44 21.5 77t48.5 54.5t69 32.5t83 11q34 0 65 -5.5
t57.5 -18t46 -33t31.5 -49.5q10 -25 12.5 -52t2.5 -53v-192q0 -22 9.5 -28.5t26.5 -6.5q8 0 13.5 1t7.5 2v-92zM268 221q-38 -4 -60.5 -20t-22.5 -48t22 -49.5t61 -17.5q60 0 95.5 32t35.5 90v25zM311 665l-109 -104l-62 64l129 122h83l128 -122l-59 -64z" />
    <glyph glyph-name="atilde" unicode="&#xe3;" 
d="M578 7q-11 -5 -29 -10t-41 -5q-46 0 -70 23.5t-27 52.5q-19 -32 -59 -57t-97 -25q-48 0 -84 13.5t-60 36t-36 51.5t-12 61q0 75 49.5 116t136.5 48l150 12v28q0 39 -22 62.5t-73 23.5q-46 0 -71 -21.5t-27 -57.5h-122q3 44 21.5 77t48.5 54.5t69 32.5t83 11q34 0 65 -5.5
t57.5 -18t46 -33t31.5 -49.5q10 -25 12.5 -52t2.5 -53v-192q0 -22 9.5 -28.5t26.5 -6.5q8 0 13.5 1t7.5 2v-92zM268 221q-38 -4 -60.5 -20t-22.5 -48t22 -49.5t61 -17.5q60 0 95.5 32t35.5 90v25zM476 686q0 -26 -8.5 -46t-22.5 -33t-32.5 -19.5t-38.5 -6.5q-24 0 -42 8.5
t-32 18.5t-25.5 18.5t-22.5 8.5q-9 0 -15.5 -6t-6.5 -22v-21h-86v33q0 53 31.5 80.5t73.5 27.5q26 0 44 -8.5t31 -18t23 -18t21 -8.5q22 0 22 25v24h86v-37z" />
    <glyph glyph-name="adieresis" unicode="&#xe4;" 
d="M578 7q-11 -5 -29 -10t-41 -5q-46 0 -70 23.5t-27 52.5q-19 -32 -59 -57t-97 -25q-48 0 -84 13.5t-60 36t-36 51.5t-12 61q0 75 49.5 116t136.5 48l150 12v28q0 39 -22 62.5t-73 23.5q-46 0 -71 -21.5t-27 -57.5h-122q3 44 21.5 77t48.5 54.5t69 32.5t83 11q34 0 65 -5.5
t57.5 -18t46 -33t31.5 -49.5q10 -25 12.5 -52t2.5 -53v-192q0 -22 9.5 -28.5t26.5 -6.5q8 0 13.5 1t7.5 2v-92zM268 221q-38 -4 -60.5 -20t-22.5 -48t22 -49.5t61 -17.5q60 0 95.5 32t35.5 90v25zM358 709h115v-116h-115v116zM156 709h115v-116h-115v116z" />
    <glyph glyph-name="aring" unicode="&#xe5;" 
d="M578 7q-11 -5 -29 -10t-41 -5q-46 0 -70 23.5t-27 52.5q-19 -32 -59 -57t-97 -25q-48 0 -84 13.5t-60 36t-36 51.5t-12 61q0 75 49.5 116t136.5 48l150 12v28q0 39 -22 62.5t-73 23.5q-46 0 -71 -21.5t-27 -57.5h-122q3 44 21.5 77t48.5 54.5t69 32.5t83 11q34 0 65 -5.5
t57.5 -18t46 -33t31.5 -49.5q10 -25 12.5 -52t2.5 -53v-192q0 -22 9.5 -28.5t26.5 -6.5q8 0 13.5 1t7.5 2v-92zM268 221q-38 -4 -60.5 -20t-22.5 -48t22 -49.5t61 -17.5q60 0 95.5 32t35.5 90v25zM446 695q0 -27 -10.5 -50t-28 -40.5t-41 -27.5t-50.5 -10t-50.5 10t-41 27.5
t-28 40.5t-10.5 50t10.5 50t28 40t41 27t50.5 10t50.5 -10t41 -27t28 -40t10.5 -50zM269 695q0 -23 14 -35t33 -12t33 12t14 35t-14 35t-33 12t-33 -12t-14 -35z" />
    <glyph glyph-name="ae" unicode="&#xe6;" 
d="M372 87q33 5 56 23.5t28 44.5h117q-6 -43 -28 -75t-54 -53t-70 -31t-76 -10h-91q-57 0 -98 13.5t-68 36t-39.5 52t-12.5 61.5q0 37 14.5 68t40.5 52.5t62 33.5t80 12h29v121q-38 -5 -59.5 -24.5t-23.5 -50.5h-120q3 43 23.5 75t52.5 54t73 33t86 11h47q58 0 103.5 -21
t77 -56.5t48 -83t16.5 -99.5q0 -11 -0.5 -24.5t-2.5 -25.5h-211v-137zM149 154q0 -30 21.5 -49.5t58.5 -19.5h33v139h-33q-38 0 -59 -19.5t-21 -50.5zM461 315q0 20 -5 40t-16 36.5t-27.5 28.5t-40.5 16v-121h89z" />
    <glyph glyph-name="ccedilla" unicode="&#xe7;" 
d="M247 -123q0 -12 13 -25.5t41 -13.5q24 0 36.5 11t12.5 27q0 17 -14.5 29t-42.5 12q-17 0 -33 -4v79q-44 9 -76 29.5t-54 46.5q-31 37 -47.5 86t-16.5 106t17 106t48 86q29 33 76 57.5t113 24.5q67 0 113 -24t75 -58q19 -23 29.5 -53t12.5 -61h-123q-3 40 -31 64t-76 24
q-32 0 -52.5 -11.5t-33.5 -25.5q-24 -26 -33 -59t-9 -70t9 -71t33 -59q14 -14 34 -25t52 -11q43 0 72 22t35 66h123q-2 -31 -12.5 -61t-29.5 -53q-26 -30 -64 -52.5t-92 -27.5v-20q16 -2 32 -9t29 -19t20.5 -29t7.5 -38q0 -26 -11 -46t-29.5 -34t-44 -21.5t-55.5 -7.5
q-27 0 -52.5 7.5t-45 22t-31.5 35.5t-13 48h88z" />
    <glyph glyph-name="egrave" unicode="&#xe8;" 
d="M553 274q0 -23 -1.5 -35t-1.5 -15h-363q0 -27 8 -52t23.5 -44.5t39 -31t53.5 -11.5q45 0 74 19.5t35 51.5h119q-3 -23 -16.5 -51t-28.5 -46q-34 -39 -82 -56t-99 -17q-56 0 -97.5 17.5t-73.5 46.5q-41 38 -61.5 91.5t-20.5 118.5q0 63 20.5 116t59.5 91q30 29 72 48
t97 19q60 0 112.5 -23.5t85.5 -71.5q27 -40 36.5 -80t9.5 -85zM426 315q0 24 -6.5 45.5t-20.5 38t-36 26.5t-53 10q-52 0 -85 -33.5t-37 -86.5h238zM186 669l63 96l185 -139l-47 -69z" />
    <glyph glyph-name="eacute" unicode="&#xe9;" 
d="M553 274q0 -23 -1.5 -35t-1.5 -15h-363q0 -27 8 -52t23.5 -44.5t39 -31t53.5 -11.5q45 0 74 19.5t35 51.5h119q-3 -23 -16.5 -51t-28.5 -46q-34 -39 -82 -56t-99 -17q-56 0 -97.5 17.5t-73.5 46.5q-41 38 -61.5 91.5t-20.5 118.5q0 63 20.5 116t59.5 91q30 29 72 48
t97 19q60 0 112.5 -23.5t85.5 -71.5q27 -40 36.5 -80t9.5 -85zM426 315q0 24 -6.5 45.5t-20.5 38t-36 26.5t-53 10q-52 0 -85 -33.5t-37 -86.5h238zM382 764l63 -96l-201 -112l-47 69z" />
    <glyph glyph-name="ecircumflex" unicode="&#xea;" 
d="M553 274q0 -23 -1.5 -35t-1.5 -15h-363q0 -27 8 -52t23.5 -44.5t39 -31t53.5 -11.5q45 0 74 19.5t35 51.5h119q-3 -23 -16.5 -51t-28.5 -46q-34 -39 -82 -56t-99 -17q-56 0 -97.5 17.5t-73.5 46.5q-41 38 -61.5 91.5t-20.5 118.5q0 63 20.5 116t59.5 91q30 29 72 48
t97 19q60 0 112.5 -23.5t85.5 -71.5q27 -40 36.5 -80t9.5 -85zM426 315q0 24 -6.5 45.5t-20.5 38t-36 26.5t-53 10q-52 0 -85 -33.5t-37 -86.5h238zM311 665l-109 -104l-62 64l129 122h83l128 -122l-59 -64z" />
    <glyph glyph-name="edieresis" unicode="&#xeb;" 
d="M553 274q0 -23 -1.5 -35t-1.5 -15h-363q0 -27 8 -52t23.5 -44.5t39 -31t53.5 -11.5q45 0 74 19.5t35 51.5h119q-3 -23 -16.5 -51t-28.5 -46q-34 -39 -82 -56t-99 -17q-56 0 -97.5 17.5t-73.5 46.5q-41 38 -61.5 91.5t-20.5 118.5q0 63 20.5 116t59.5 91q30 29 72 48
t97 19q60 0 112.5 -23.5t85.5 -71.5q27 -40 36.5 -80t9.5 -85zM426 315q0 24 -6.5 45.5t-20.5 38t-36 26.5t-53 10q-52 0 -85 -33.5t-37 -86.5h238zM353 709h115v-116h-115v116zM151 709h115v-116h-115v116z" />
    <glyph glyph-name="igrave" unicode="&#xec;" 
d="M393 520v-417h171v-103h-469v103h171v314h-143v103h270zM152 669l63 96l185 -139l-47 -69z" />
    <glyph glyph-name="iacute" unicode="&#xed;" 
d="M393 520v-417h171v-103h-469v103h171v314h-143v103h270zM451 764l63 -96l-201 -112l-47 69z" />
    <glyph glyph-name="icircumflex" unicode="&#xee;" 
d="M393 520v-417h171v-103h-469v103h171v314h-143v103h270zM330 665l-109 -104l-62 64l129 122h83l128 -122l-59 -64z" />
    <glyph glyph-name="idieresis" unicode="&#xef;" 
d="M393 520v-417h171v-103h-469v103h171v314h-143v103h270zM369 709h115v-116h-115v116zM167 709h115v-116h-115v116z" />
    <glyph glyph-name="eth" unicode="&#xf0;" 
d="M263 624q-23 16 -47.5 30t-50.5 25l47 93q49 -20 92.5 -47t81.5 -61l113 37l25 -79l-76 -25q50 -65 78 -146.5t28 -180.5q0 -58 -16 -109.5t-48 -90.5t-80.5 -61.5t-112.5 -22.5q-59 0 -104.5 21t-76.5 56t-47 82t-16 99q0 49 15 94.5t45 80.5t75 56t105 21
q32 0 61.5 -8.5t44.5 -24.5q-20 51 -64 98l-136 -43l-24 78zM180 242q0 -29 6.5 -56t21 -47.5t38 -33t56.5 -12.5t56.5 12.5t38 33.5t21.5 47.5t7 55.5q0 30 -6.5 57t-21 47.5t-38 32.5t-56.5 12q-63 0 -93 -41.5t-30 -107.5z" />
    <glyph glyph-name="ntilde" unicode="&#xf1;" 
d="M417 315q0 45 -22.5 73.5t-73.5 28.5q-34 0 -58 -18.5t-37 -47.5t-15 -65t-2 -68v-218h-125v520h105l10 -68q23 42 65.5 61.5t91.5 19.5q44 0 78.5 -14.5t58.5 -40t36.5 -60.5t12.5 -75v-343h-125v315zM501 686q0 -26 -8.5 -46t-22.5 -33t-32.5 -19.5t-38.5 -6.5
q-24 0 -42 8.5t-32 18.5t-25.5 18.5t-22.5 8.5q-9 0 -15.5 -6t-6.5 -22v-21h-86v33q0 53 31.5 80.5t73.5 27.5q26 0 44 -8.5t31 -18t23 -18t21 -8.5q22 0 22 25v24h86v-37z" />
    <glyph glyph-name="ograve" unicode="&#xf2;" 
d="M180 260q0 -79 35 -122t95 -43t95 43t35 122t-35 122t-95 43t-95 -43t-35 -122zM53 260q0 64 19.5 114.5t54 86t81.5 54.5t102 19t102 -19t81.5 -54.5t54 -86t19.5 -114.5t-19.5 -114.5t-54 -86t-81.5 -54.5t-102 -19t-102 19t-81.5 54.5t-54 86t-19.5 114.5zM186 669
l63 96l185 -139l-47 -69z" />
    <glyph glyph-name="oacute" unicode="&#xf3;" 
d="M180 260q0 -79 35 -122t95 -43t95 43t35 122t-35 122t-95 43t-95 -43t-35 -122zM53 260q0 64 19.5 114.5t54 86t81.5 54.5t102 19t102 -19t81.5 -54.5t54 -86t19.5 -114.5t-19.5 -114.5t-54 -86t-81.5 -54.5t-102 -19t-102 19t-81.5 54.5t-54 86t-19.5 114.5zM391 764
l63 -96l-201 -112l-47 69z" />
    <glyph glyph-name="ocircumflex" unicode="&#xf4;" 
d="M180 260q0 -79 35 -122t95 -43t95 43t35 122t-35 122t-95 43t-95 -43t-35 -122zM53 260q0 64 19.5 114.5t54 86t81.5 54.5t102 19t102 -19t81.5 -54.5t54 -86t19.5 -114.5t-19.5 -114.5t-54 -86t-81.5 -54.5t-102 -19t-102 19t-81.5 54.5t-54 86t-19.5 114.5zM311 665
l-109 -104l-62 64l129 122h83l128 -122l-59 -64z" />
    <glyph glyph-name="otilde" unicode="&#xf5;" 
d="M180 260q0 -79 35 -122t95 -43t95 43t35 122t-35 122t-95 43t-95 -43t-35 -122zM53 260q0 64 19.5 114.5t54 86t81.5 54.5t102 19t102 -19t81.5 -54.5t54 -86t19.5 -114.5t-19.5 -114.5t-54 -86t-81.5 -54.5t-102 -19t-102 19t-81.5 54.5t-54 86t-19.5 114.5zM476 686
q0 -26 -8.5 -46t-22.5 -33t-32.5 -19.5t-38.5 -6.5q-24 0 -42 8.5t-32 18.5t-25.5 18.5t-22.5 8.5q-9 0 -15.5 -6t-6.5 -22v-21h-86v33q0 53 31.5 80.5t73.5 27.5q26 0 44 -8.5t31 -18t23 -18t21 -8.5q22 0 22 25v24h86v-37z" />
    <glyph glyph-name="odieresis" unicode="&#xf6;" 
d="M180 260q0 -79 35 -122t95 -43t95 43t35 122t-35 122t-95 43t-95 -43t-35 -122zM53 260q0 64 19.5 114.5t54 86t81.5 54.5t102 19t102 -19t81.5 -54.5t54 -86t19.5 -114.5t-19.5 -114.5t-54 -86t-81.5 -54.5t-102 -19t-102 19t-81.5 54.5t-54 86t-19.5 114.5zM356 709
h115v-116h-115v116zM154 709h115v-116h-115v116z" />
    <glyph glyph-name="divide" unicode="&#xf7;" 
d="M243 575h137v-139h-137v139zM46 357h528v-114h-528v114zM243 169h137v-139h-137v139z" />
    <glyph glyph-name="oslash" unicode="&#xf8;" 
d="M53 260q0 64 19.5 114.5t54 86t81.5 54.5t102 19q80 0 142 -40l59 71l56 -45l-61 -74q29 -35 45 -81.5t16 -104.5q0 -64 -19.5 -114.5t-54 -86t-81.5 -54.5t-102 -19q-86 0 -150 44l-64 -78l-56 46l68 83q-26 34 -40.5 79t-14.5 100zM440 260q0 50 -16 88l-190 -229
q31 -24 76 -24q60 0 95 43t35 122zM180 260q0 -46 12 -79l187 224q-31 20 -69 20q-60 0 -95 -43t-35 -122z" />
    <glyph glyph-name="ugrave" unicode="&#xf9;" 
d="M418 69q-19 -38 -60 -60t-91 -22q-43 0 -78 14.5t-60 40.5t-39 61.5t-14 77.5v339h125v-311q0 -46 24 -76.5t77 -30.5q28 0 47.5 10.5t32.5 28.5t19 41t6 48v290h125v-520h-104zM163 669l63 96l185 -139l-47 -69z" />
    <glyph glyph-name="uacute" unicode="&#xfa;" 
d="M418 69q-19 -38 -60 -60t-91 -22q-43 0 -78 14.5t-60 40.5t-39 61.5t-14 77.5v339h125v-311q0 -46 24 -76.5t77 -30.5q28 0 47.5 10.5t32.5 28.5t19 41t6 48v290h125v-520h-104zM394 764l63 -96l-201 -112l-47 69z" />
    <glyph glyph-name="ucircumflex" unicode="&#xfb;" 
d="M418 69q-19 -38 -60 -60t-91 -22q-43 0 -78 14.5t-60 40.5t-39 61.5t-14 77.5v339h125v-311q0 -46 24 -76.5t77 -30.5q28 0 47.5 10.5t32.5 28.5t19 41t6 48v290h125v-520h-104zM309 665l-109 -104l-62 64l129 122h83l128 -122l-59 -64z" />
    <glyph glyph-name="udieresis" unicode="&#xfc;" 
d="M418 69q-19 -38 -60 -60t-91 -22q-43 0 -78 14.5t-60 40.5t-39 61.5t-14 77.5v339h125v-311q0 -46 24 -76.5t77 -30.5q28 0 47.5 10.5t32.5 28.5t19 41t6 48v290h125v-520h-104zM349 709h115v-116h-115v116zM147 709h115v-116h-115v116z" />
    <glyph glyph-name="yacute" unicode="&#xfd;" 
d="M36 520h139l146 -360l138 360h129l-252 -623q-23 -57 -65 -90.5t-116 -33.5q-27 0 -53 6t-46 16v106q12 -7 36.5 -13t46.5 -6q34 0 58 14.5t38 51.5l24 61zM397 764l63 -96l-201 -112l-47 69z" />
    <glyph glyph-name="thorn" unicode="&#xfe;" 
d="M578 261q0 -57 -13.5 -107t-41.5 -87t-70.5 -58.5t-100.5 -21.5q-28 0 -49.5 5.5t-38 14.5t-28.5 20t-21 23v-265h-125v948h124v-264q24 31 59 47.5t80 16.5q58 0 100 -23t70 -61t41.5 -87t13.5 -101zM327 427q-35 0 -57.5 -15t-36 -39t-19 -54t-5.5 -60q0 -28 5 -57.5
t18 -54t36 -40t59 -15.5t60 15.5t38 40t20 54t6 57.5q0 30 -6.5 60t-21 54t-38 39t-58.5 15z" />
    <glyph glyph-name="ydieresis" unicode="&#xff;" 
d="M36 520h139l146 -360l138 360h129l-252 -623q-23 -57 -65 -90.5t-116 -33.5q-27 0 -53 6t-46 16v106q12 -7 36.5 -13t46.5 -6q34 0 58 14.5t38 51.5l24 61zM370 709h115v-116h-115v116zM168 709h115v-116h-115v116z" />
    <glyph glyph-name="Amacron" unicode="&#x100;" 
d="M431 176h-242l-51 -176h-134l224 709h168l220 -709h-134zM222 291h175l-87 301zM144 889h332v-102h-332v102z" />
    <glyph glyph-name="amacron" unicode="&#x101;" 
d="M578 7q-11 -5 -29 -10t-41 -5q-46 0 -70 23.5t-27 52.5q-19 -32 -59 -57t-97 -25q-48 0 -84 13.5t-60 36t-36 51.5t-12 61q0 75 49.5 116t136.5 48l150 12v28q0 39 -22 62.5t-73 23.5q-46 0 -71 -21.5t-27 -57.5h-122q3 44 21.5 77t48.5 54.5t69 32.5t83 11q34 0 65 -5.5
t57.5 -18t46 -33t31.5 -49.5q10 -25 12.5 -52t2.5 -53v-192q0 -22 9.5 -28.5t26.5 -6.5q8 0 13.5 1t7.5 2v-92zM268 221q-38 -4 -60.5 -20t-22.5 -48t22 -49.5t61 -17.5q60 0 95.5 32t35.5 90v25zM164 709h300v-97h-300v97z" />
    <glyph glyph-name="Abreve" unicode="&#x102;" 
d="M431 176h-242l-51 -176h-134l224 709h168l220 -709h-134zM222 291h175l-87 301zM312 760q-41 0 -72.5 13.5t-53.5 35t-34 49.5t-13 57h100q2 -30 19.5 -51t53.5 -21t53.5 21t19.5 51h100q-1 -29 -13 -57t-34 -49.5t-53.5 -35t-72.5 -13.5z" />
    <glyph glyph-name="abreve" unicode="&#x103;" 
d="M578 7q-11 -5 -29 -10t-41 -5q-46 0 -70 23.5t-27 52.5q-19 -32 -59 -57t-97 -25q-48 0 -84 13.5t-60 36t-36 51.5t-12 61q0 75 49.5 116t136.5 48l150 12v28q0 39 -22 62.5t-73 23.5q-46 0 -71 -21.5t-27 -57.5h-122q3 44 21.5 77t48.5 54.5t69 32.5t83 11q34 0 65 -5.5
t57.5 -18t46 -33t31.5 -49.5q10 -25 12.5 -52t2.5 -53v-192q0 -22 9.5 -28.5t26.5 -6.5q8 0 13.5 1t7.5 2v-92zM268 221q-38 -4 -60.5 -20t-22.5 -48t22 -49.5t61 -17.5q60 0 95.5 32t35.5 90v25zM315 571q-35 0 -64 11.5t-49.5 32t-32.5 48.5t-12 60h93q2 -32 18 -50.5
t47 -18.5t47 18.5t18 50.5h93q0 -32 -12 -60t-32.5 -48.5t-49.5 -32t-64 -11.5z" />
    <glyph glyph-name="Aogonek" unicode="&#x104;" 
d="M431 176h-242l-51 -176h-134l224 709h168l219 -709q-17 -8 -34 -19t-30 -23.5t-21 -27.5t-8 -32q0 -21 14 -34t39 -13q11 0 21 1t19 3v-81q-10 -4 -23.5 -7t-34.5 -3q-27 0 -51.5 6.5t-43 20.5t-30 35.5t-11.5 50.5q0 45 24 75t55 48h-18zM222 291h175l-87 301z" />
    <glyph glyph-name="aogonek" unicode="&#x105;" 
d="M520 -229q-27 0 -51.5 6.5t-43 20.5t-30 35.5t-11.5 50.5q0 42 21.5 71.5t50.5 47.5q-21 11 -32 28t-13 37q-19 -32 -59 -57t-97 -25q-48 0 -84 13.5t-60 36t-36 51.5t-12 61q0 75 49.5 116t136.5 48l150 12v28q0 39 -22 62.5t-73 23.5q-46 0 -71 -21.5t-27 -57.5h-122
q3 44 21.5 77t48.5 54.5t69 32.5t83 11q34 0 65 -5.5t57.5 -18t46 -33t31.5 -49.5q10 -25 12.5 -52t2.5 -53v-192q0 -22 9.5 -28.5t26.5 -6.5q8 0 13.5 1t7.5 2v-92l-5 -2q-33 -17 -60.5 -42t-27.5 -58q0 -21 14 -34t39 -13q11 0 21 1t19 3v-81q-10 -4 -23.5 -7t-34.5 -3z
M268 221q-38 -4 -60.5 -20t-22.5 -48t22 -49.5t61 -17.5q60 0 95.5 32t35.5 90v25z" />
    <glyph glyph-name="Cacute" unicode="&#x106;" 
d="M325 102q38 0 65 12.5t43.5 32t24.5 44.5t9 50h129q-3 -47 -19.5 -92.5t-49 -81.5t-82.5 -58.5t-120 -22.5q-54 0 -103 17t-88 56q-29 29 -47 63t-28 71.5t-13.5 78t-3.5 82.5t3.5 82.5t13.5 78t28 71.5t47 63q39 39 88 56t103 17q69 0 118.5 -21.5t82.5 -57t50 -80.5
t20 -91h-130q-1 25 -8.5 49t-24 43t-43 30.5t-63.5 11.5q-61 0 -103 -42q-18 -18 -28.5 -45t-15.5 -56.5t-6 -58t-1 -50.5t1 -51t6 -58.5t15.5 -57t28.5 -45.5q21 -21 46 -30.5t55 -9.5zM423 938l49 -101l-234 -92l-34 74z" />
    <glyph glyph-name="cacute" unicode="&#x107;" 
d="M550 182q-2 -31 -12.5 -61t-29.5 -53q-29 -34 -75 -58t-113 -24q-66 0 -113.5 24.5t-76.5 57.5q-31 37 -47.5 86t-16.5 106t17 106t48 86q29 33 76 57.5t113 24.5q67 0 113 -24t75 -58q19 -23 29.5 -53t12.5 -61h-123q-3 40 -31 64t-76 24q-32 0 -52.5 -11.5t-33.5 -25.5
q-24 -26 -33 -59t-9 -70t9 -71t33 -59q14 -14 34 -25t52 -11q43 0 72 22t35 66h123zM401 764l63 -96l-201 -112l-47 69z" />
    <glyph glyph-name="Ccircumflex" unicode="&#x108;" 
d="M325 102q38 0 65 12.5t43.5 32t24.5 44.5t9 50h129q-3 -47 -19.5 -92.5t-49 -81.5t-82.5 -58.5t-120 -22.5q-54 0 -103 17t-88 56q-29 29 -47 63t-28 71.5t-13.5 78t-3.5 82.5t3.5 82.5t13.5 78t28 71.5t47 63q39 39 88 56t103 17q69 0 118.5 -21.5t82.5 -57t50 -80.5
t20 -91h-130q-1 25 -8.5 49t-24 43t-43 30.5t-63.5 11.5q-61 0 -103 -42q-18 -18 -28.5 -45t-15.5 -56.5t-6 -58t-1 -50.5t1 -51t6 -58.5t15.5 -57t28.5 -45.5q21 -21 46 -30.5t55 -9.5zM280 920h79l136 -105l-55 -70l-121 94l-122 -94l-53 70z" />
    <glyph glyph-name="ccircumflex" unicode="&#x109;" 
d="M550 182q-2 -31 -12.5 -61t-29.5 -53q-29 -34 -75 -58t-113 -24q-66 0 -113.5 24.5t-76.5 57.5q-31 37 -47.5 86t-16.5 106t17 106t48 86q29 33 76 57.5t113 24.5q67 0 113 -24t75 -58q19 -23 29.5 -53t12.5 -61h-123q-3 40 -31 64t-76 24q-32 0 -52.5 -11.5t-33.5 -25.5
q-24 -26 -33 -59t-9 -70t9 -71t33 -59q14 -14 34 -25t52 -11q43 0 72 22t35 66h123zM317 665l-109 -104l-62 64l129 122h83l128 -122l-59 -64z" />
    <glyph glyph-name="Cdotaccent" unicode="&#x10a;" 
d="M325 102q38 0 65 12.5t43.5 32t24.5 44.5t9 50h129q-3 -47 -19.5 -92.5t-49 -81.5t-82.5 -58.5t-120 -22.5q-54 0 -103 17t-88 56q-29 29 -47 63t-28 71.5t-13.5 78t-3.5 82.5t3.5 82.5t13.5 78t28 71.5t47 63q39 39 88 56t103 17q69 0 118.5 -21.5t82.5 -57t50 -80.5
t20 -91h-130q-1 25 -8.5 49t-24 43t-43 30.5t-63.5 11.5q-61 0 -103 -42q-18 -18 -28.5 -45t-15.5 -56.5t-6 -58t-1 -50.5t1 -51t6 -58.5t15.5 -57t28.5 -45.5q21 -21 46 -30.5t55 -9.5zM257 902h133v-129h-133v129z" />
    <glyph glyph-name="cdotaccent" unicode="&#x10b;" 
d="M550 182q-2 -31 -12.5 -61t-29.5 -53q-29 -34 -75 -58t-113 -24q-66 0 -113.5 24.5t-76.5 57.5q-31 37 -47.5 86t-16.5 106t17 106t48 86q29 33 76 57.5t113 24.5q67 0 113 -24t75 -58q19 -23 29.5 -53t12.5 -61h-123q-3 40 -31 64t-76 24q-32 0 -52.5 -11.5t-33.5 -25.5
q-24 -26 -33 -59t-9 -70t9 -71t33 -59q14 -14 34 -25t52 -11q43 0 72 22t35 66h123zM243 723h134v-130h-134v130z" />
    <glyph glyph-name="Ccaron" unicode="&#x10c;" 
d="M325 102q38 0 65 12.5t43.5 32t24.5 44.5t9 50h129q-3 -47 -19.5 -92.5t-49 -81.5t-82.5 -58.5t-120 -22.5q-54 0 -103 17t-88 56q-29 29 -47 63t-28 71.5t-13.5 78t-3.5 82.5t3.5 82.5t13.5 78t28 71.5t47 63q39 39 88 56t103 17q69 0 118.5 -21.5t82.5 -57t50 -80.5
t20 -91h-130q-1 25 -8.5 49t-24 43t-43 30.5t-63.5 11.5q-61 0 -103 -42q-18 -18 -28.5 -45t-15.5 -56.5t-6 -58t-1 -50.5t1 -51t6 -58.5t15.5 -57t28.5 -45.5q21 -21 46 -30.5t55 -9.5zM368 760h-79l-136 105l55 70l121 -94l122 94l53 -70z" />
    <glyph glyph-name="ccaron" unicode="&#x10d;" 
d="M550 182q-2 -31 -12.5 -61t-29.5 -53q-29 -34 -75 -58t-113 -24q-66 0 -113.5 24.5t-76.5 57.5q-31 37 -47.5 86t-16.5 106t17 106t48 86q29 33 76 57.5t113 24.5q67 0 113 -24t75 -58q19 -23 29.5 -53t12.5 -61h-123q-3 40 -31 64t-76 24q-32 0 -52.5 -11.5t-33.5 -25.5
q-24 -26 -33 -59t-9 -70t9 -71t33 -59q14 -14 34 -25t52 -11q43 0 72 22t35 66h123zM357 575h-83l-129 122l62 64l109 -104l110 104l59 -64z" />
    <glyph glyph-name="Dcaron" unicode="&#x10e;" 
d="M585 356q0 -72 -12 -134t-42 -110q-30 -49 -88.5 -80.5t-142.5 -31.5h-229v709h229q84 0 143 -33t89 -82q30 -48 41.5 -107t11.5 -131zM454 356q0 60 -9.5 112t-41.5 85q-18 18 -46.5 29t-68.5 11h-88v-477h88q42 0 71 11.5t47 31.5q31 34 39.5 86t8.5 111zM352 760h-79
l-136 105l55 70l121 -94l122 94l53 -70z" />
    <glyph glyph-name="dcaron" unicode="&#x10f;" 
d="M39 259q0 58 14.5 108t43.5 87t72 58t100 21q58 0 90.5 -20t46.5 -43v263h125v-733h-108l-8 62q-23 -36 -60.5 -55.5t-91.5 -19.5q-57 0 -99 23t-69.5 61t-41.5 87t-14 101zM289 93q35 0 58.5 15t38 39t20.5 54t6 60q0 28 -5.5 57.5t-20 54t-38 40t-59.5 15.5
t-59.5 -15.5t-38 -40t-20 -54t-5.5 -57.5q0 -30 6 -60t20.5 -54t38 -39t58.5 -15zM695 609q0 -59 -22 -100t-80 -65l-26 49q41 18 54 44.5t13 71.5h-63v124h124v-124z" />
    <glyph glyph-name="Dcroat" unicode="&#x110;" 
d="M585 356q0 -72 -12 -134t-42 -110q-30 -49 -88.5 -80.5t-142.5 -31.5h-229v333h-62v72h62v304h229q84 0 143 -33t89 -82q30 -48 41.5 -107t11.5 -131zM454 356q0 60 -9.5 112t-41.5 85q-18 18 -46.5 29t-68.5 11h-88v-188h127v-72h-127v-217h88q42 0 71 11.5t47 31.5
q31 34 39.5 86t8.5 111z" />
    <glyph glyph-name="dcroat" unicode="&#x111;" 
d="M39 259q0 58 14.5 108t43.5 87t72 58t100 21q58 0 90.5 -20t46.5 -43v102h-103v89h103v72h125v-72h59v-89h-59v-572h-108l-8 62q-23 -36 -60.5 -55.5t-91.5 -19.5q-57 0 -99 23t-69.5 61t-41.5 87t-14 101zM289 93q35 0 58.5 15t38 39t20.5 54t6 60q0 28 -5.5 57.5
t-20 54t-38 40t-59.5 15.5t-59.5 -15.5t-38 -40t-20 -54t-5.5 -57.5q0 -30 6 -60t20.5 -54t38 -39t58.5 -15z" />
    <glyph glyph-name="Emacron" unicode="&#x112;" 
d="M95 709h473v-117h-344v-167h273v-116h-273v-192h344v-117h-473v709zM184 889h332v-102h-332v102z" />
    <glyph glyph-name="emacron" unicode="&#x113;" 
d="M553 274q0 -23 -1.5 -35t-1.5 -15h-363q0 -27 8 -52t23.5 -44.5t39 -31t53.5 -11.5q45 0 74 19.5t35 51.5h119q-3 -23 -16.5 -51t-28.5 -46q-34 -39 -82 -56t-99 -17q-56 0 -97.5 17.5t-73.5 46.5q-41 38 -61.5 91.5t-20.5 118.5q0 63 20.5 116t59.5 91q30 29 72 48
t97 19q60 0 112.5 -23.5t85.5 -71.5q27 -40 36.5 -80t9.5 -85zM426 315q0 24 -6.5 45.5t-20.5 38t-36 26.5t-53 10q-52 0 -85 -33.5t-37 -86.5h238zM165 709h300v-97h-300v97z" />
    <glyph glyph-name="Ebreve" unicode="&#x114;" 
d="M95 709h473v-117h-344v-167h273v-116h-273v-192h344v-117h-473v709zM350 760q-41 0 -72.5 13.5t-53.5 35t-34 49.5t-13 57h100q2 -30 19.5 -51t53.5 -21t53.5 21t19.5 51h100q-1 -29 -13 -57t-34 -49.5t-53.5 -35t-72.5 -13.5z" />
    <glyph glyph-name="ebreve" unicode="&#x115;" 
d="M553 274q0 -23 -1.5 -35t-1.5 -15h-363q0 -27 8 -52t23.5 -44.5t39 -31t53.5 -11.5q45 0 74 19.5t35 51.5h119q-3 -23 -16.5 -51t-28.5 -46q-34 -39 -82 -56t-99 -17q-56 0 -97.5 17.5t-73.5 46.5q-41 38 -61.5 91.5t-20.5 118.5q0 63 20.5 116t59.5 91q30 29 72 48
t97 19q60 0 112.5 -23.5t85.5 -71.5q27 -40 36.5 -80t9.5 -85zM426 315q0 24 -6.5 45.5t-20.5 38t-36 26.5t-53 10q-52 0 -85 -33.5t-37 -86.5h238zM310 571q-35 0 -64 11.5t-49.5 32t-32.5 48.5t-12 60h93q2 -32 18 -50.5t47 -18.5t47 18.5t18 50.5h93q0 -32 -12 -60
t-32.5 -48.5t-49.5 -32t-64 -11.5z" />
    <glyph glyph-name="Edotaccent" unicode="&#x116;" 
d="M95 709h473v-117h-344v-167h273v-116h-273v-192h344v-117h-473v709zM282 902h133v-129h-133v129z" />
    <glyph glyph-name="edotaccent" unicode="&#x117;" 
d="M553 274q0 -23 -1.5 -35t-1.5 -15h-363q0 -27 8 -52t23.5 -44.5t39 -31t53.5 -11.5q45 0 74 19.5t35 51.5h119q-3 -23 -16.5 -51t-28.5 -46q-34 -39 -82 -56t-99 -17q-56 0 -97.5 17.5t-73.5 46.5q-41 38 -61.5 91.5t-20.5 118.5q0 63 20.5 116t59.5 91q30 29 72 48
t97 19q60 0 112.5 -23.5t85.5 -71.5q27 -40 36.5 -80t9.5 -85zM426 315q0 24 -6.5 45.5t-20.5 38t-36 26.5t-53 10q-52 0 -85 -33.5t-37 -86.5h238zM248 723h134v-130h-134v130z" />
    <glyph glyph-name="Eogonek" unicode="&#x118;" 
d="M95 709h473v-117h-344v-167h273v-116h-273v-192h344v-117q-17 -8 -34 -19t-30 -23.5t-21 -27.5t-8 -32q0 -21 14 -34t39 -13q11 0 21 1t19 3v-81q-10 -4 -23.5 -7t-34.5 -3q-27 0 -51.5 6.5t-43 20.5t-30 35.5t-11.5 50.5q0 45 24 75t55 48h-358v709z" />
    <glyph glyph-name="eogonek" unicode="&#x119;" 
d="M424 8q-32 -19 -58 -47.5t-26 -62.5q0 -21 14 -34t39 -13q11 0 21 1t19 3v-81q-10 -4 -23.5 -7t-34.5 -3q-27 0 -51.5 6.5t-43 20.5t-30 35.5t-11.5 50.5q0 37 17 64t41 45q-50 3 -88 20t-67 44q-41 38 -61.5 91.5t-20.5 118.5q0 63 20.5 116t59.5 91q30 29 72 48t97 19
q60 0 112.5 -23.5t85.5 -71.5q27 -40 36.5 -80t9.5 -85q0 -23 -1.5 -35t-1.5 -15h-363q0 -27 8 -52t23.5 -44.5t39 -31t53.5 -11.5q45 0 74 19.5t35 51.5h119q-3 -23 -16.5 -51t-28.5 -46q-29 -33 -70 -51zM426 315q0 24 -6.5 45.5t-20.5 38t-36 26.5t-53 10
q-52 0 -85 -33.5t-37 -86.5h238z" />
    <glyph glyph-name="Ecaron" unicode="&#x11a;" 
d="M95 709h473v-117h-344v-167h273v-116h-273v-192h344v-117h-473v709zM388 760h-79l-136 105l55 70l121 -94l122 94l53 -70z" />
    <glyph glyph-name="ecaron" unicode="&#x11b;" 
d="M553 274q0 -23 -1.5 -35t-1.5 -15h-363q0 -27 8 -52t23.5 -44.5t39 -31t53.5 -11.5q45 0 74 19.5t35 51.5h119q-3 -23 -16.5 -51t-28.5 -46q-34 -39 -82 -56t-99 -17q-56 0 -97.5 17.5t-73.5 46.5q-41 38 -61.5 91.5t-20.5 118.5q0 63 20.5 116t59.5 91q30 29 72 48
t97 19q60 0 112.5 -23.5t85.5 -71.5q27 -40 36.5 -80t9.5 -85zM426 315q0 24 -6.5 45.5t-20.5 38t-36 26.5t-53 10q-52 0 -85 -33.5t-37 -86.5h238zM352 575h-83l-129 122l62 64l109 -104l110 104l59 -64z" />
    <glyph glyph-name="Gcircumflex" unicode="&#x11c;" 
d="M306 -14q-49 0 -95 15.5t-84 52.5q-30 29 -47.5 63.5t-26.5 73t-12 80t-3 83.5t3.5 82.5t13.5 78t28.5 71.5t47.5 63q39 39 89.5 56t104.5 17q67 0 116 -20.5t80.5 -54t46.5 -76t15 -87.5h-130q-1 22 -7.5 43.5t-21.5 39t-39 28.5t-60 11q-53 0 -84 -25.5t-47 -63.5
t-20.5 -82t-4.5 -81q0 -36 4 -80.5t18.5 -83.5t44 -65t80.5 -26q69 0 105.5 42.5t36.5 117.5h-167v107h290v-366h-84l-20 81q-6 -15 -19.5 -31.5t-35 -30.5t-50.5 -23.5t-66 -9.5zM290 920h79l136 -105l-55 -70l-121 94l-122 -94l-53 70z" />
    <glyph glyph-name="gcircumflex" unicode="&#x11d;" 
d="M96 341q0 45 17.5 81t47 61t69 38t83.5 13q32 0 64 -8.5t58 -23.5q15 35 44 51.5t62 16.5q15 0 23 -1t15 -3v-99q-2 1 -8.5 1.5t-11.5 0.5q-20 0 -35.5 -8t-21.5 -25q27 -44 27 -94q0 -45 -18 -80t-48 -59t-69 -37t-81 -13q-48 0 -88 15q-11 -6 -19.5 -14.5t-8.5 -21.5
q0 -23 16.5 -29.5t36.5 -6.5h96q19 0 41 -0.5t44 -4t43.5 -10.5t39.5 -20q34 -23 47.5 -54t13.5 -69q0 -49 -23.5 -81.5t-60 -51.5t-82 -27t-88.5 -8q-45 0 -90.5 5.5t-82.5 21.5t-60 44.5t-23 74.5q0 35 22 62t55 42q-26 13 -39 36.5t-13 49.5q0 32 19 58t51 41
q-29 24 -46.5 58t-17.5 78zM458 -65q0 22 -11.5 34.5t-28.5 18.5t-37 7.5t-38 1.5h-120q-20 -6 -33.5 -21.5t-13.5 -40.5t15 -39t36.5 -21t46 -8.5t42.5 -1.5q19 0 43.5 1t46.5 8t37 21t15 40zM409 343q0 45 -27 71.5t-69 26.5t-69 -26.5t-27 -71.5t27 -71t69 -26t69 26
t27 71zM311 665l-109 -104l-62 64l129 122h83l128 -122l-59 -64z" />
    <glyph glyph-name="Gbreve" unicode="&#x11e;" 
d="M306 -14q-49 0 -95 15.5t-84 52.5q-30 29 -47.5 63.5t-26.5 73t-12 80t-3 83.5t3.5 82.5t13.5 78t28.5 71.5t47.5 63q39 39 89.5 56t104.5 17q67 0 116 -20.5t80.5 -54t46.5 -76t15 -87.5h-130q-1 22 -7.5 43.5t-21.5 39t-39 28.5t-60 11q-53 0 -84 -25.5t-47 -63.5
t-20.5 -82t-4.5 -81q0 -36 4 -80.5t18.5 -83.5t44 -65t80.5 -26q69 0 105.5 42.5t36.5 117.5h-167v107h290v-366h-84l-20 81q-6 -15 -19.5 -31.5t-35 -30.5t-50.5 -23.5t-66 -9.5zM313 760q-41 0 -72.5 13.5t-53.5 35t-34 49.5t-13 57h100q2 -30 19.5 -51t53.5 -21t53.5 21
t19.5 51h100q-1 -29 -13 -57t-34 -49.5t-53.5 -35t-72.5 -13.5z" />
    <glyph glyph-name="gbreve" unicode="&#x11f;" 
d="M96 341q0 45 17.5 81t47 61t69 38t83.5 13q32 0 64 -8.5t58 -23.5q15 35 44 51.5t62 16.5q15 0 23 -1t15 -3v-99q-2 1 -8.5 1.5t-11.5 0.5q-20 0 -35.5 -8t-21.5 -25q27 -44 27 -94q0 -45 -18 -80t-48 -59t-69 -37t-81 -13q-48 0 -88 15q-11 -6 -19.5 -14.5t-8.5 -21.5
q0 -23 16.5 -29.5t36.5 -6.5h96q19 0 41 -0.5t44 -4t43.5 -10.5t39.5 -20q34 -23 47.5 -54t13.5 -69q0 -49 -23.5 -81.5t-60 -51.5t-82 -27t-88.5 -8q-45 0 -90.5 5.5t-82.5 21.5t-60 44.5t-23 74.5q0 35 22 62t55 42q-26 13 -39 36.5t-13 49.5q0 32 19 58t51 41
q-29 24 -46.5 58t-17.5 78zM458 -65q0 22 -11.5 34.5t-28.5 18.5t-37 7.5t-38 1.5h-120q-20 -6 -33.5 -21.5t-13.5 -40.5t15 -39t36.5 -21t46 -8.5t42.5 -1.5q19 0 43.5 1t46.5 8t37 21t15 40zM409 343q0 45 -27 71.5t-69 26.5t-69 -26.5t-27 -71.5t27 -71t69 -26t69 26
t27 71zM318 571q-35 0 -64 11.5t-49.5 32t-32.5 48.5t-12 60h93q2 -32 18 -50.5t47 -18.5t47 18.5t18 50.5h93q0 -32 -12 -60t-32.5 -48.5t-49.5 -32t-64 -11.5z" />
    <glyph glyph-name="Gdotaccent" unicode="&#x120;" 
d="M306 -14q-49 0 -95 15.5t-84 52.5q-30 29 -47.5 63.5t-26.5 73t-12 80t-3 83.5t3.5 82.5t13.5 78t28.5 71.5t47.5 63q39 39 89.5 56t104.5 17q67 0 116 -20.5t80.5 -54t46.5 -76t15 -87.5h-130q-1 22 -7.5 43.5t-21.5 39t-39 28.5t-60 11q-53 0 -84 -25.5t-47 -63.5
t-20.5 -82t-4.5 -81q0 -36 4 -80.5t18.5 -83.5t44 -65t80.5 -26q69 0 105.5 42.5t36.5 117.5h-167v107h290v-366h-84l-20 81q-6 -15 -19.5 -31.5t-35 -30.5t-50.5 -23.5t-66 -9.5zM258 902h133v-129h-133v129z" />
    <glyph glyph-name="gdotaccent" unicode="&#x121;" 
d="M96 341q0 45 17.5 81t47 61t69 38t83.5 13q32 0 64 -8.5t58 -23.5q15 35 44 51.5t62 16.5q15 0 23 -1t15 -3v-99q-2 1 -8.5 1.5t-11.5 0.5q-20 0 -35.5 -8t-21.5 -25q27 -44 27 -94q0 -45 -18 -80t-48 -59t-69 -37t-81 -13q-48 0 -88 15q-11 -6 -19.5 -14.5t-8.5 -21.5
q0 -23 16.5 -29.5t36.5 -6.5h96q19 0 41 -0.5t44 -4t43.5 -10.5t39.5 -20q34 -23 47.5 -54t13.5 -69q0 -49 -23.5 -81.5t-60 -51.5t-82 -27t-88.5 -8q-45 0 -90.5 5.5t-82.5 21.5t-60 44.5t-23 74.5q0 35 22 62t55 42q-26 13 -39 36.5t-13 49.5q0 32 19 58t51 41
q-29 24 -46.5 58t-17.5 78zM458 -65q0 22 -11.5 34.5t-28.5 18.5t-37 7.5t-38 1.5h-120q-20 -6 -33.5 -21.5t-13.5 -40.5t15 -39t36.5 -21t46 -8.5t42.5 -1.5q19 0 43.5 1t46.5 8t37 21t15 40zM409 343q0 45 -27 71.5t-69 26.5t-69 -26.5t-27 -71.5t27 -71t69 -26t69 26
t27 71zM251 723h134v-130h-134v130z" />
    <glyph glyph-name="uni0122" unicode="&#x122;" 
d="M306 -14q-49 0 -95 15.5t-84 52.5q-30 29 -47.5 63.5t-26.5 73t-12 80t-3 83.5t3.5 82.5t13.5 78t28.5 71.5t47.5 63q39 39 89.5 56t104.5 17q67 0 116 -20.5t80.5 -54t46.5 -76t15 -87.5h-130q-1 22 -7.5 43.5t-21.5 39t-39 28.5t-60 11q-53 0 -84 -25.5t-47 -63.5
t-20.5 -82t-4.5 -81q0 -36 4 -80.5t18.5 -83.5t44 -65t80.5 -26q69 0 105.5 42.5t36.5 117.5h-167v107h290v-366h-84l-20 81q-6 -15 -19.5 -31.5t-35 -30.5t-50.5 -23.5t-66 -9.5zM373 -141q0 -53 -26 -85t-75 -40l-13 49q26 5 41 19.5t15 44.5h-58v99h116v-87z" />
    <glyph glyph-name="uni0123" unicode="&#x123;" 
d="M96 341q0 45 17.5 81t47 61t69 38t83.5 13q32 0 64 -8.5t58 -23.5q15 35 44 51.5t62 16.5q15 0 23 -1t15 -3v-99q-2 1 -8.5 1.5t-11.5 0.5q-20 0 -35.5 -8t-21.5 -25q27 -44 27 -94q0 -45 -18 -80t-48 -59t-69 -37t-81 -13q-48 0 -88 15q-11 -6 -19.5 -14.5t-8.5 -21.5
q0 -23 16.5 -29.5t36.5 -6.5h96q19 0 41 -0.5t44 -4t43.5 -10.5t39.5 -20q34 -23 47.5 -54t13.5 -69q0 -49 -23.5 -81.5t-60 -51.5t-82 -27t-88.5 -8q-45 0 -90.5 5.5t-82.5 21.5t-60 44.5t-23 74.5q0 35 22 62t55 42q-26 13 -39 36.5t-13 49.5q0 32 19 58t51 41
q-29 24 -46.5 58t-17.5 78zM458 -65q0 22 -11.5 34.5t-28.5 18.5t-37 7.5t-38 1.5h-120q-20 -6 -33.5 -21.5t-13.5 -40.5t15 -39t36.5 -21t46 -8.5t42.5 -1.5q19 0 43.5 1t46.5 8t37 21t15 40zM409 343q0 45 -27 71.5t-69 26.5t-69 -26.5t-27 -71.5t27 -71t69 -26t69 26
t27 71zM254 681q0 53 26 85t75 40l13 -49q-26 -5 -41 -19.5t-15 -44.5h58v-99h-116v87z" />
    <glyph glyph-name="Hcircumflex" unicode="&#x124;" 
d="M425 307h-230v-307h-129v709h129v-279h230v279h129v-709h-129v307zM272 920h79l136 -105l-55 -70l-121 94l-122 -94l-53 70z" />
    <glyph glyph-name="hcircumflex" unicode="&#x125;" 
d="M333 865l-109 -104l-62 64l129 122h83l128 -122l-59 -64zM424 315q0 45 -22.5 73.5t-73.5 28.5q-34 0 -58 -18.5t-37 -47.5q-10 -23 -13.5 -50t-3.5 -53v-248h-125v733h125v-266q25 34 63.5 50t83.5 16q44 0 78.5 -14.5t58.5 -40t36.5 -60.5t12.5 -75v-343h-125v315z" />
    <glyph glyph-name="Hbar" unicode="&#x126;" 
d="M66 592v117h129v-117h230v117h129v-117h62v-70h-62v-522h-129v307h-230v-307h-129v522h-62v70h62zM425 522h-230v-92h230v92z" />
    <glyph glyph-name="hbar" unicode="&#x127;" 
d="M424 315q0 45 -22.5 73.5t-73.5 28.5q-34 0 -58 -18.5t-37 -47.5q-10 -23 -13.5 -50t-3.5 -53v-248h-125v565h-69v97h69v71h125v-71h106v-97h-106v-98q25 34 63.5 50t83.5 16q44 0 78.5 -14.5t58.5 -40t36.5 -60.5t12.5 -75v-343h-125v315z" />
    <glyph glyph-name="Itilde" unicode="&#x128;" 
d="M93 107h151v495h-151v107h434v-107h-152v-495h152v-107h-434v107zM485 871q0 -26 -9 -46t-24.5 -33.5t-35.5 -20t-41 -6.5q-25 0 -44 8.5t-33.5 19t-26.5 19t-23 8.5q-9 0 -17 -6t-8 -22v-21h-88v33q0 26 9 46.5t24.5 34t35.5 20.5t42 7q26 0 45 -8.5t34 -18t26 -18
t22 -8.5q24 0 24 27v22h88v-37z" />
    <glyph glyph-name="itilde" unicode="&#x129;" 
d="M488 686q0 -26 -8.5 -46t-22.5 -33t-32.5 -19.5t-38.5 -6.5q-24 0 -42 8.5t-32 18.5t-25.5 18.5t-22.5 8.5q-9 0 -15.5 -6t-6.5 -22v-21h-86v33q0 53 31.5 80.5t73.5 27.5q26 0 44 -8.5t31 -18t23 -18t21 -8.5q22 0 22 25v24h86v-37zM393 520v-417h171v-103h-469v103h171
v314h-143v103h270z" />
    <glyph glyph-name="Imacron" unicode="&#x12a;" 
d="M93 107h151v495h-151v107h434v-107h-152v-495h152v-107h-434v107zM144 889h332v-102h-332v102z" />
    <glyph glyph-name="imacron" unicode="&#x12b;" 
d="M393 520v-417h171v-103h-469v103h171v314h-143v103h270zM184 709h300v-97h-300v97z" />
    <glyph glyph-name="Ibreve" unicode="&#x12c;" 
d="M93 107h151v495h-151v107h434v-107h-152v-495h152v-107h-434v107zM311 760q-41 0 -72.5 13.5t-53.5 35t-34 49.5t-13 57h100q2 -30 19.5 -51t53.5 -21t53.5 21t19.5 51h100q-1 -29 -13 -57t-34 -49.5t-53.5 -35t-72.5 -13.5z" />
    <glyph glyph-name="ibreve" unicode="&#x12d;" 
d="M393 520v-417h171v-103h-469v103h171v314h-143v103h270zM330 571q-35 0 -64 11.5t-49.5 32t-32.5 48.5t-12 60h93q2 -32 18 -50.5t47 -18.5t47 18.5t18 50.5h93q0 -32 -12 -60t-32.5 -48.5t-49.5 -32t-64 -11.5z" />
    <glyph glyph-name="Iogonek" unicode="&#x12e;" 
d="M93 107h151v495h-151v107h434v-107h-152v-495h152v-107q-17 -8 -34 -19t-30 -23.5t-21 -27.5t-8 -32q0 -21 14 -34t39 -13q11 0 21 1t19 3v-81q-10 -4 -23.5 -7t-34.5 -3q-27 0 -51.5 6.5t-43 20.5t-30 35.5t-11.5 50.5q0 45 24 75t55 48h-319v107z" />
    <glyph glyph-name="iogonek" unicode="&#x12f;" 
d="M506 -236q-27 0 -51.5 6.5t-43 20.5t-30 35.5t-11.5 50.5q0 45 24 75t55 48h-354v103h171v314h-143v103h270v-417h171v-103q-17 -8 -34 -19t-30 -23.5t-21 -27.5t-8 -32q0 -21 14 -34t39 -13q11 0 21 1t19 3v-81q-10 -4 -23.5 -7t-34.5 -3zM257 733h144v-132h-144v132z
" />
    <glyph glyph-name="Idotaccent" unicode="&#x130;" 
d="M93 107h151v495h-151v107h434v-107h-152v-495h152v-107h-434v107zM243 902h133v-129h-133v129z" />
    <glyph glyph-name="dotlessi" unicode="&#x131;" 
d="M393 520v-417h171v-103h-469v103h171v314h-143v103h270z" />
    <glyph glyph-name="IJ" unicode="&#x132;" 
d="M66 709h125v-399h-125v399zM305 -13q-53 0 -98 16.5t-77 48.5t-50 80.5t-18 111.5h126q0 -70 31 -106t86 -36q24 0 45 7.5t37 23t25 40.5t9 60v476h129v-473q0 -61 -19.5 -107.5t-53.5 -78t-78.5 -47.5t-93.5 -16z" />
    <glyph glyph-name="ij" unicode="&#x133;" 
d="M98 723h134v-129h-134v129zM102 520h127v-520h-127v520zM380 723h134v-129h-134v129zM511 520v-570q0 -38 -10.5 -70.5t-33.5 -57t-59 -38.5t-87 -14q-53 0 -85.5 9t-49.5 20v107q14 -5 44 -13.5t70 -8.5q42 0 64 18t22 59v559h125z" />
    <glyph glyph-name="Jcircumflex" unicode="&#x134;" 
d="M285 -13q-53 0 -98 16.5t-77 48.5t-50 80.5t-18 111.5h126q0 -70 31 -106t86 -36q24 0 45 7.5t37 23t25 40.5t9 60v476h129v-473q0 -61 -19.5 -107.5t-53.5 -78t-78.5 -47.5t-93.5 -16zM421 920h79l136 -105l-55 -70l-121 94l-122 -94l-53 70z" />
    <glyph glyph-name="jcircumflex" unicode="&#x135;" 
d="M433 520v-560q0 -39 -10.5 -74t-33.5 -60.5t-59 -40.5t-87 -15q-26 0 -46 2.5t-35 6.5t-25.5 9.5t-19.5 10.5v107q14 -5 39.5 -13.5t65.5 -8.5q37 0 61.5 17.5t24.5 67.5v448h-181v103h306zM370 665l-109 -104l-62 64l129 122h83l128 -122l-59 -64z" />
    <glyph glyph-name="uni0136" unicode="&#x136;" 
d="M453 709h162l-248 -297l249 -412h-154l-181 309l-82 -99v-210h-129v709h129v-317zM383 -141q0 -53 -26 -85t-75 -40l-13 49q26 5 41 19.5t15 44.5h-58v99h116v-87z" />
    <glyph glyph-name="uni0137" unicode="&#x137;" 
d="M227 137v-137h-125v733h125v-430l207 217h160l-205 -213l204 -307h-147l-142 217zM394 -151q0 -53 -26 -85t-75 -40l-13 49q26 5 41 19.5t15 44.5h-58v99h116v-87z" />
    <glyph glyph-name="kgreenlandic" unicode="&#x138;" 
d="M227 137v-137h-125v520h125v-216l208 216h159l-202 -212l201 -308h-147l-141 218z" />
    <glyph glyph-name="Lacute" unicode="&#x139;" 
d="M106 709h129v-587h344v-122h-473v709zM326 938l49 -101l-234 -92l-34 74z" />
    <glyph glyph-name="lacute" unicode="&#x13a;" 
d="M86 103h166v527h-141v103h267v-630h169v-103h-461v103zM436 977l63 -96l-201 -112l-47 69z" />
    <glyph glyph-name="uni013B" unicode="&#x13b;" 
d="M106 709h129v-587h344v-122h-473v709zM413 -141q0 -53 -26 -85t-75 -40l-13 49q26 5 41 19.5t15 44.5h-58v99h116v-87z" />
    <glyph glyph-name="uni013C" unicode="&#x13c;" 
d="M86 103h166v527h-141v103h267v-630h169v-103h-461v103zM374 -151q0 -53 -26 -85t-75 -40l-13 49q26 5 41 19.5t15 44.5h-58v99h116v-87z" />
    <glyph glyph-name="Lcaron" unicode="&#x13d;" 
d="M106 709h129v-587h344v-122h-473v709zM484 585q0 -59 -22 -100t-80 -65l-26 49q41 18 54 44.5t13 71.5h-63v124h124v-124z" />
    <glyph glyph-name="lcaron" unicode="&#x13e;" 
d="M86 103h166v527h-141v103h267v-630h169v-103h-461v103zM563 609q0 -59 -22 -100t-80 -65l-26 49q41 18 54 44.5t13 71.5h-63v124h124v-124z" />
    <glyph glyph-name="Ldot" unicode="&#x13f;" 
d="M106 709h129v-587h344v-122h-473v709zM407 461h148v-152h-148v152z" />
    <glyph glyph-name="ldot" unicode="&#x140;" 
d="M86 103h166v527h-141v103h267v-630h169v-103h-461v103zM548 461h148v-152h-148v152z" />
    <glyph glyph-name="Lslash" unicode="&#x141;" 
d="M106 253l-75 -46v118l75 47v337h129v-255l140 89v-122l-140 -87v-212h344v-122h-473v253z" />
    <glyph glyph-name="lslash" unicode="&#x142;" 
d="M86 103h166v195l-106 -66v118l106 68v212h-141v103h267v-234l108 69v-122l-108 -68v-275h169v-103h-461v103z" />
    <glyph glyph-name="Nacute" unicode="&#x143;" 
d="M188 514v-514h-127v709h170l200 -468v468h127v-709h-143zM453 938l49 -101l-234 -92l-34 74z" />
    <glyph glyph-name="nacute" unicode="&#x144;" 
d="M417 315q0 45 -22.5 73.5t-73.5 28.5q-34 0 -58 -18.5t-37 -47.5t-15 -65t-2 -68v-218h-125v520h105l10 -68q23 42 65.5 61.5t91.5 19.5q44 0 78.5 -14.5t58.5 -40t36.5 -60.5t12.5 -75v-343h-125v315zM407 764l63 -96l-201 -112l-47 69z" />
    <glyph glyph-name="uni0145" unicode="&#x145;" 
d="M188 514v-514h-127v709h170l200 -468v468h127v-709h-143zM375 -141q0 -53 -26 -85t-75 -40l-13 49q26 5 41 19.5t15 44.5h-58v99h116v-87z" />
    <glyph glyph-name="uni0146" unicode="&#x146;" 
d="M417 315q0 45 -22.5 73.5t-73.5 28.5q-34 0 -58 -18.5t-37 -47.5t-15 -65t-2 -68v-218h-125v520h105l10 -68q23 42 65.5 61.5t91.5 19.5q44 0 78.5 -14.5t58.5 -40t36.5 -60.5t12.5 -75v-343h-125v315zM376 -151q0 -53 -26 -85t-75 -40l-13 49q26 5 41 19.5t15 44.5h-58
v99h116v-87z" />
    <glyph glyph-name="Ncaron" unicode="&#x147;" 
d="M188 514v-514h-127v709h170l200 -468v468h127v-709h-143zM358 760h-79l-136 105l55 70l121 -94l122 94l53 -70z" />
    <glyph glyph-name="ncaron" unicode="&#x148;" 
d="M417 315q0 45 -22.5 73.5t-73.5 28.5q-34 0 -58 -18.5t-37 -47.5t-15 -65t-2 -68v-218h-125v520h105l10 -68q23 42 65.5 61.5t91.5 19.5q44 0 78.5 -14.5t58.5 -40t36.5 -60.5t12.5 -75v-343h-125v315zM376 575h-83l-129 122l62 64l109 -104l110 104l59 -64z" />
    <glyph glyph-name="napostrophe" unicode="&#x149;" 
d="M417 315q0 45 -22.5 73.5t-73.5 28.5q-34 0 -58 -18.5t-37 -47.5t-15 -65t-2 -68v-218h-125v520h105l10 -68q23 42 65.5 61.5t91.5 19.5q44 0 78.5 -14.5t58.5 -40t36.5 -60.5t12.5 -75v-343h-125v315zM211 701q0 -53 -26 -85t-75 -40l-13 49q26 5 41 19.5t15 44.5h-58
v99h116v-87z" />
    <glyph glyph-name="Eng" unicode="&#x14a;" 
d="M558 -74q0 -71 -42 -110t-120 -39q-26 0 -49 3.5t-43 9.5v110q20 -6 33.5 -8t27.5 -2q29 0 44.5 17t15.5 43v30l-237 534v-514h-127v709h168l202 -462v462h127v-783z" />
    <glyph glyph-name="eng" unicode="&#x14b;" 
d="M542 -85q0 -67 -38 -106t-108 -39h-21.5t-22.5 2t-25.5 4t-30.5 7v106q22 -4 34.5 -5t26.5 -1q29 0 44.5 15t15.5 41v376q0 45 -22.5 73.5t-73.5 28.5q-34 0 -58 -18.5t-37 -47.5t-15 -65t-2 -68v-218h-125v520h105l10 -68q23 42 65.5 61.5t91.5 19.5q44 0 78.5 -14.5
t58.5 -40t36.5 -60.5t12.5 -75v-428z" />
    <glyph glyph-name="Omacron" unicode="&#x14c;" 
d="M310 102q61 0 100 39q18 18 28 45.5t14.5 57.5t5.5 59t1 51t-1 51t-5.5 59t-14.5 57.5t-28 45.5q-39 39 -100 39t-100 -39q-18 -18 -28 -45.5t-14.5 -57.5t-5.5 -59t-1 -51t1 -51t5.5 -59t14.5 -57.5t28 -45.5q39 -39 100 -39zM310 -14q-54 0 -102 17.5t-87 56.5
q-29 29 -47 63t-28 71t-13 77.5t-3 82.5t3 82.5t13 77.5t28 71t47 63q39 39 87 56.5t102 17.5t102 -17.5t87 -56.5q29 -29 47 -63t27.5 -71t13 -77.5t3.5 -82.5t-3.5 -82.5t-13 -77.5t-27.5 -71t-47 -63q-39 -39 -87 -56.5t-102 -17.5zM148 889h332v-102h-332v102z" />
    <glyph glyph-name="omacron" unicode="&#x14d;" 
d="M180 260q0 -79 35 -122t95 -43t95 43t35 122t-35 122t-95 43t-95 -43t-35 -122zM53 260q0 64 19.5 114.5t54 86t81.5 54.5t102 19t102 -19t81.5 -54.5t54 -86t19.5 -114.5t-19.5 -114.5t-54 -86t-81.5 -54.5t-102 -19t-102 19t-81.5 54.5t-54 86t-19.5 114.5zM164 709
h300v-97h-300v97z" />
    <glyph glyph-name="Obreve" unicode="&#x14e;" 
d="M310 102q61 0 100 39q18 18 28 45.5t14.5 57.5t5.5 59t1 51t-1 51t-5.5 59t-14.5 57.5t-28 45.5q-39 39 -100 39t-100 -39q-18 -18 -28 -45.5t-14.5 -57.5t-5.5 -59t-1 -51t1 -51t5.5 -59t14.5 -57.5t28 -45.5q39 -39 100 -39zM310 -14q-54 0 -102 17.5t-87 56.5
q-29 29 -47 63t-28 71t-13 77.5t-3 82.5t3 82.5t13 77.5t28 71t47 63q39 39 87 56.5t102 17.5t102 -17.5t87 -56.5q29 -29 47 -63t27.5 -71t13 -77.5t3.5 -82.5t-3.5 -82.5t-13 -77.5t-27.5 -71t-47 -63q-39 -39 -87 -56.5t-102 -17.5zM313 760q-41 0 -72.5 13.5t-53.5 35
t-34 49.5t-13 57h100q2 -30 19.5 -51t53.5 -21t53.5 21t19.5 51h100q-1 -29 -13 -57t-34 -49.5t-53.5 -35t-72.5 -13.5z" />
    <glyph glyph-name="obreve" unicode="&#x14f;" 
d="M180 260q0 -79 35 -122t95 -43t95 43t35 122t-35 122t-95 43t-95 -43t-35 -122zM53 260q0 64 19.5 114.5t54 86t81.5 54.5t102 19t102 -19t81.5 -54.5t54 -86t19.5 -114.5t-19.5 -114.5t-54 -86t-81.5 -54.5t-102 -19t-102 19t-81.5 54.5t-54 86t-19.5 114.5zM311 571
q-35 0 -64 11.5t-49.5 32t-32.5 48.5t-12 60h93q2 -32 18 -50.5t47 -18.5t47 18.5t18 50.5h93q0 -32 -12 -60t-32.5 -48.5t-49.5 -32t-64 -11.5z" />
    <glyph glyph-name="Ohungarumlaut" unicode="&#x150;" 
d="M310 102q61 0 100 39q18 18 28 45.5t14.5 57.5t5.5 59t1 51t-1 51t-5.5 59t-14.5 57.5t-28 45.5q-39 39 -100 39t-100 -39q-18 -18 -28 -45.5t-14.5 -57.5t-5.5 -59t-1 -51t1 -51t5.5 -59t14.5 -57.5t28 -45.5q39 -39 100 -39zM310 -14q-54 0 -102 17.5t-87 56.5
q-29 29 -47 63t-28 71t-13 77.5t-3 82.5t3 82.5t13 77.5t28 71t47 63q39 39 87 56.5t102 17.5t102 -17.5t87 -56.5q29 -29 47 -63t27.5 -71t13 -77.5t3.5 -82.5t-3.5 -82.5t-13 -77.5t-27.5 -71t-47 -63q-39 -39 -87 -56.5t-102 -17.5zM269 947l87 -68l-128 -137l-64 48z
M462 946l84 -71l-133 -132l-62 51z" />
    <glyph glyph-name="ohungarumlaut" unicode="&#x151;" 
d="M180 260q0 -79 35 -122t95 -43t95 43t35 122t-35 122t-95 43t-95 -43t-35 -122zM53 260q0 64 19.5 114.5t54 86t81.5 54.5t102 19t102 -19t81.5 -54.5t54 -86t19.5 -114.5t-19.5 -114.5t-54 -86t-81.5 -54.5t-102 -19t-102 19t-81.5 54.5t-54 86t-19.5 114.5zM262 762
l87 -68l-128 -137l-64 48zM455 761l84 -71l-133 -132l-62 51z" />
    <glyph glyph-name="OE" unicode="&#x152;" 
d="M312 0q-51 0 -97.5 17t-83.5 56q-28 29 -45.5 61t-27 66.5t-13 73t-3.5 80.5t3.5 80.5t13.5 73.5t27.5 67t45.5 61q35 37 84 55t96 18h290v-117h-164v-165h141v-116h-141v-194h164v-117h-290zM165 354q0 -35 4.5 -76.5t19.5 -77.5t44 -60t79 -24v477q-48 0 -77 -24.5
t-44.5 -60.5t-20.5 -77.5t-5 -76.5z" />
    <glyph glyph-name="oe" unicode="&#x153;" 
d="M368 97q30 8 49.5 24t24.5 39h122q-6 -42 -28 -74.5t-55 -54.5t-74.5 -33.5t-86.5 -11.5q-63 0 -114 20t-87.5 56.5t-56 87t-19.5 110.5q0 59 21 109.5t58 87t87 57t108 20.5q60 0 108 -19.5t82 -55.5t52 -86.5t18 -113.5q0 -12 -1 -22t-2 -13h-206v-127zM167 260
q0 -61 24 -101.5t68 -57.5v317q-44 -17 -68 -58t-24 -100zM449 315q0 36 -20 65t-61 42v-107h81z" />
    <glyph glyph-name="Racute" unicode="&#x154;" 
d="M320 268h-109v-268h-130v709h255q63 0 109 -18.5t76 -49t44.5 -70t14.5 -82.5q0 -72 -37.5 -124t-97.5 -70l131 -295h-141zM451 491q0 43 -30 74t-85 31h-126v-212h126q55 0 85 28t30 79zM425 938l49 -101l-234 -92l-34 74z" />
    <glyph glyph-name="racute" unicode="&#x155;" 
d="M443 323q0 21 -5 39.5t-15.5 32.5t-28 22.5t-42.5 8.5q-49 0 -77.5 -36t-28.5 -102v-288h-126v520h113l10 -68q16 35 53.5 58t89.5 23q46 0 80 -14.5t56.5 -41t34 -63.5t12.5 -81v-10h-126zM431 764l63 -96l-201 -112l-47 69z" />
    <glyph glyph-name="uni0156" unicode="&#x156;" 
d="M320 268h-109v-268h-130v709h255q63 0 109 -18.5t76 -49t44.5 -70t14.5 -82.5q0 -72 -37.5 -124t-97.5 -70l131 -295h-141zM451 491q0 43 -30 74t-85 31h-126v-212h126q55 0 85 28t30 79zM382 -141q0 -53 -26 -85t-75 -40l-13 49q26 5 41 19.5t15 44.5h-58v99h116v-87z
" />
    <glyph glyph-name="uni0157" unicode="&#x157;" 
d="M443 323q0 21 -5 39.5t-15.5 32.5t-28 22.5t-42.5 8.5q-49 0 -77.5 -36t-28.5 -102v-288h-126v520h113l10 -68q16 35 53.5 58t89.5 23q46 0 80 -14.5t56.5 -41t34 -63.5t12.5 -81v-10h-126zM242 -151q0 -53 -26 -85t-75 -40l-13 49q26 5 41 19.5t15 44.5h-58v99h116v-87z
" />
    <glyph glyph-name="Rcaron" unicode="&#x158;" 
d="M320 268h-109v-268h-130v709h255q63 0 109 -18.5t76 -49t44.5 -70t14.5 -82.5q0 -72 -37.5 -124t-97.5 -70l131 -295h-141zM451 491q0 43 -30 74t-85 31h-126v-212h126q55 0 85 28t30 79zM339 760h-79l-136 105l55 70l121 -94l122 94l53 -70z" />
    <glyph glyph-name="rcaron" unicode="&#x159;" 
d="M443 323q0 21 -5 39.5t-15.5 32.5t-28 22.5t-42.5 8.5q-49 0 -77.5 -36t-28.5 -102v-288h-126v520h113l10 -68q16 35 53.5 58t89.5 23q46 0 80 -14.5t56.5 -41t34 -63.5t12.5 -81v-10h-126zM410 575h-83l-129 122l62 64l109 -104l110 104l59 -64z" />
    <glyph glyph-name="Sacute" unicode="&#x15a;" 
d="M580 210q0 -57 -23.5 -99t-61.5 -70t-87 -41.5t-100 -13.5q-49 0 -97.5 14.5t-87 44.5t-62.5 75t-24 107h132q0 -35 12 -59.5t32 -40t45 -23t52 -7.5q26 0 51.5 5.5t45.5 18.5t32.5 32.5t12.5 48.5q0 38 -27 58.5t-65 27.5l-107 18q-91 16 -144 63.5t-53 132.5
q0 48 20 88.5t54.5 70t81 46t99.5 16.5q55 0 102 -17t81.5 -46.5t54 -70.5t20.5 -89h-130q-2 48 -34.5 80.5t-95.5 32.5q-24 0 -47 -6t-40.5 -19t-28 -32t-10.5 -44q0 -65 98 -82l99 -16q43 -7 80 -23t63.5 -41.5t41.5 -60t15 -79.5zM405 938l49 -101l-234 -92l-34 74z" />
    <glyph glyph-name="sacute" unicode="&#x15b;" 
d="M545 160q0 -46 -19.5 -79t-51.5 -54t-74.5 -31t-88.5 -10q-47 0 -90 11.5t-75.5 34t-52 56.5t-19.5 79h120q2 -42 37 -63.5t84 -21.5q53 0 83.5 18t30.5 48q0 22 -13.5 36.5t-47.5 19.5l-118 18q-42 6 -71.5 20.5t-48 34t-26.5 43t-8 46.5q0 36 16 67t44.5 53.5t69 35
t89.5 12.5q47 0 87 -12.5t68.5 -34.5t44.5 -53t16 -68h-119q-2 32 -26.5 53t-70.5 21q-45 0 -73 -17t-28 -46q0 -27 19 -38t44 -15l119 -17q67 -9 108 -47t41 -100zM402 764l63 -96l-201 -112l-47 69z" />
    <glyph glyph-name="Scircumflex" unicode="&#x15c;" 
d="M580 210q0 -57 -23.5 -99t-61.5 -70t-87 -41.5t-100 -13.5q-49 0 -97.5 14.5t-87 44.5t-62.5 75t-24 107h132q0 -35 12 -59.5t32 -40t45 -23t52 -7.5q26 0 51.5 5.5t45.5 18.5t32.5 32.5t12.5 48.5q0 38 -27 58.5t-65 27.5l-107 18q-91 16 -144 63.5t-53 132.5
q0 48 20 88.5t54.5 70t81 46t99.5 16.5q55 0 102 -17t81.5 -46.5t54 -70.5t20.5 -89h-130q-2 48 -34.5 80.5t-95.5 32.5q-24 0 -47 -6t-40.5 -19t-28 -32t-10.5 -44q0 -65 98 -82l99 -16q43 -7 80 -23t63.5 -41.5t41.5 -60t15 -79.5zM278 920h79l136 -105l-55 -70l-121 94
l-122 -94l-53 70z" />
    <glyph glyph-name="scircumflex" unicode="&#x15d;" 
d="M545 160q0 -46 -19.5 -79t-51.5 -54t-74.5 -31t-88.5 -10q-47 0 -90 11.5t-75.5 34t-52 56.5t-19.5 79h120q2 -42 37 -63.5t84 -21.5q53 0 83.5 18t30.5 48q0 22 -13.5 36.5t-47.5 19.5l-118 18q-42 6 -71.5 20.5t-48 34t-26.5 43t-8 46.5q0 36 16 67t44.5 53.5t69 35
t89.5 12.5q47 0 87 -12.5t68.5 -34.5t44.5 -53t16 -68h-119q-2 32 -26.5 53t-70.5 21q-45 0 -73 -17t-28 -46q0 -27 19 -38t44 -15l119 -17q67 -9 108 -47t41 -100zM325 665l-109 -104l-62 64l129 122h83l128 -122l-59 -64z" />
    <glyph glyph-name="Scedilla" unicode="&#x15e;" 
d="M256 -123q0 -12 13 -25.5t41 -13.5q24 0 36.5 11t12.5 27q0 17 -14.5 29t-42.5 12q-17 0 -33 -4v76q-44 5 -86 22t-74.5 46.5t-52 71.5t-19.5 98h132q0 -35 12 -59.5t32 -40t45 -23t52 -7.5q26 0 51.5 5.5t45.5 18.5t32.5 32.5t12.5 48.5q0 38 -27 58.5t-65 27.5l-107 18
q-91 16 -144 63.5t-53 132.5q0 48 20 88.5t54.5 70t81 46t99.5 16.5q55 0 102 -17t81.5 -46.5t54 -70.5t20.5 -89h-130q-2 48 -34.5 80.5t-95.5 32.5q-24 0 -47 -6t-40.5 -19t-28 -32t-10.5 -44q0 -65 98 -82l99 -16q43 -7 80 -23t63.5 -41.5t41.5 -60t15 -79.5
q0 -50 -18 -88t-48 -65.5t-70 -44t-83 -22.5v-22q16 -2 32 -9t29 -19t20.5 -29t7.5 -38q0 -26 -11 -46t-29.5 -34t-44 -21.5t-55.5 -7.5q-27 0 -52.5 7.5t-45 22t-31.5 35.5t-13 48h88z" />
    <glyph glyph-name="scedilla" unicode="&#x15f;" 
d="M249 -123q0 -12 13 -25.5t41 -13.5q24 0 36.5 11t12.5 27q0 17 -14.5 29t-42.5 12q-17 0 -33 -4v77q-39 5 -73.5 18.5t-60 36t-40 53t-14.5 69.5h120q2 -42 37 -63.5t84 -21.5q53 0 83.5 18t30.5 48q0 22 -13.5 36.5t-47.5 19.5l-118 18q-42 6 -71.5 21t-48 34.5
t-26.5 42.5t-8 46q0 36 16 67t44.5 53.5t69 35t89.5 12.5q47 0 87 -12.5t68.5 -34.5t44.5 -53t16 -68h-119q-2 32 -26.5 53t-70.5 21q-45 0 -73 -17t-28 -46q0 -27 19 -38t44 -15l119 -17q67 -9 108 -47t41 -100q0 -41 -15 -71t-41 -51t-61 -33.5t-74 -16.5v-20q16 -2 32 -9
t29 -19t20.5 -29t7.5 -38q0 -26 -11 -46t-29.5 -34t-44 -21.5t-55.5 -7.5q-27 0 -52.5 7.5t-45 22t-31.5 35.5t-13 48h88z" />
    <glyph glyph-name="Scaron" unicode="&#x160;" 
d="M580 210q0 -57 -23.5 -99t-61.5 -70t-87 -41.5t-100 -13.5q-49 0 -97.5 14.5t-87 44.5t-62.5 75t-24 107h132q0 -35 12 -59.5t32 -40t45 -23t52 -7.5q26 0 51.5 5.5t45.5 18.5t32.5 32.5t12.5 48.5q0 38 -27 58.5t-65 27.5l-107 18q-91 16 -144 63.5t-53 132.5
q0 48 20 88.5t54.5 70t81 46t99.5 16.5q55 0 102 -17t81.5 -46.5t54 -70.5t20.5 -89h-130q-2 48 -34.5 80.5t-95.5 32.5q-24 0 -47 -6t-40.5 -19t-28 -32t-10.5 -44q0 -65 98 -82l99 -16q43 -7 80 -23t63.5 -41.5t41.5 -60t15 -79.5zM356 760h-79l-136 105l55 70l121 -94
l122 94l53 -70z" />
    <glyph glyph-name="scaron" unicode="&#x161;" 
d="M545 160q0 -46 -19.5 -79t-51.5 -54t-74.5 -31t-88.5 -10q-47 0 -90 11.5t-75.5 34t-52 56.5t-19.5 79h120q2 -42 37 -63.5t84 -21.5q53 0 83.5 18t30.5 48q0 22 -13.5 36.5t-47.5 19.5l-118 18q-42 6 -71.5 20.5t-48 34t-26.5 43t-8 46.5q0 36 16 67t44.5 53.5t69 35
t89.5 12.5q47 0 87 -12.5t68.5 -34.5t44.5 -53t16 -68h-119q-2 32 -26.5 53t-70.5 21q-45 0 -73 -17t-28 -46q0 -27 19 -38t44 -15l119 -17q67 -9 108 -47t41 -100zM363 575h-83l-129 122l62 64l109 -104l110 104l59 -64z" />
    <glyph glyph-name="uni0162" unicode="&#x162;" 
d="M253 -123q0 -12 13 -25.5t41 -13.5q24 0 36.5 11t12.5 27q0 17 -14.5 29t-42.5 12q-17 0 -33 -4v87h-20v589h-221v120h570v-120h-221v-589h-16v-32q16 -2 32 -9t29 -19t20.5 -29t7.5 -38q0 -26 -11 -46t-29.5 -34t-44 -21.5t-55.5 -7.5q-27 0 -52.5 7.5t-45 22
t-31.5 35.5t-13 48h88z" />
    <glyph glyph-name="uni0163" unicode="&#x163;" 
d="M327 -123q0 -12 13 -25.5t41 -13.5q24 0 36.5 11t12.5 27q0 17 -14.5 29t-42.5 12q-17 0 -33 -4v89q-60 17 -87.5 63t-27.5 110v242h-142v103h142v137l125 36v-173h203v-103h-203v-227q0 -46 23.5 -65t61.5 -19q42 0 74.5 8.5t46.5 13.5v-107q-16 -10 -48 -18t-76 -10
v-25q16 -2 32 -9t29 -19t20.5 -29t7.5 -38q0 -26 -11 -46t-29.5 -34t-44 -21.5t-55.5 -7.5q-27 0 -52.5 7.5t-45 22t-31.5 35.5t-13 48h88z" />
    <glyph glyph-name="Tcaron" unicode="&#x164;" 
d="M374 0h-128v589h-221v120h570v-120h-221v-589zM351 760h-79l-136 105l55 70l121 -94l122 94l53 -70z" />
    <glyph glyph-name="tcaron" unicode="&#x165;" 
d="M556 21q-17 -11 -54 -19.5t-88 -8.5q-50 0 -85.5 13t-58.5 37t-34 57.5t-11 74.5v242h-142v103h142v137l125 36v-173h203v-103h-203v-227q0 -46 23.5 -65t61.5 -19q42 0 74.5 8.5t46.5 13.5v-107zM530 701q0 -53 -26 -85t-75 -40l-13 49q26 5 41 19.5t15 44.5h-58v99h116
v-87z" />
    <glyph glyph-name="Tbar" unicode="&#x166;" 
d="M374 379h132v-97h-132v-282h-128v282h-131v97h131v210h-221v120h570v-120h-221v-210z" />
    <glyph glyph-name="tbar" unicode="&#x167;" 
d="M556 21q-17 -11 -54 -19.5t-88 -8.5q-50 0 -85.5 13t-58.5 37t-34 57.5t-11 74.5v58h-143v87h143v97h-142v103h142v132l125 36v-168h203v-103h-203v-97h201v-87h-201v-43q0 -46 23.5 -65t61.5 -19q42 0 74.5 8.5t46.5 13.5v-107z" />
    <glyph glyph-name="Utilde" unicode="&#x168;" 
d="M568 239q0 -119 -68 -185.5t-190 -66.5t-190 66.5t-68 185.5v470h129v-460q0 -76 34.5 -110.5t94.5 -34.5t94.5 34.5t34.5 110.5v460h129v-470zM486 871q0 -26 -9 -46t-24.5 -33.5t-35.5 -20t-41 -6.5q-25 0 -44 8.5t-33.5 19t-26.5 19t-23 8.5q-9 0 -17 -6t-8 -22v-21
h-88v33q0 26 9 46.5t24.5 34t35.5 20.5t42 7q26 0 45 -8.5t34 -18t26 -18t22 -8.5q24 0 24 27v22h88v-37z" />
    <glyph glyph-name="utilde" unicode="&#x169;" 
d="M418 69q-19 -38 -60 -60t-91 -22q-43 0 -78 14.5t-60 40.5t-39 61.5t-14 77.5v339h125v-311q0 -46 24 -76.5t77 -30.5q28 0 47.5 10.5t32.5 28.5t19 41t6 48v290h125v-520h-104zM476 686q0 -26 -8.5 -46t-22.5 -33t-32.5 -19.5t-38.5 -6.5q-24 0 -42 8.5t-32 18.5
t-25.5 18.5t-22.5 8.5q-9 0 -15.5 -6t-6.5 -22v-21h-86v33q0 53 31.5 80.5t73.5 27.5q26 0 44 -8.5t31 -18t23 -18t21 -8.5q22 0 22 25v24h86v-37z" />
    <glyph glyph-name="Umacron" unicode="&#x16a;" 
d="M568 239q0 -119 -68 -185.5t-190 -66.5t-190 66.5t-68 185.5v470h129v-460q0 -76 34.5 -110.5t94.5 -34.5t94.5 34.5t34.5 110.5v460h129v-470zM144 889h332v-102h-332v102z" />
    <glyph glyph-name="umacron" unicode="&#x16b;" 
d="M418 69q-19 -38 -60 -60t-91 -22q-43 0 -78 14.5t-60 40.5t-39 61.5t-14 77.5v339h125v-311q0 -46 24 -76.5t77 -30.5q28 0 47.5 10.5t32.5 28.5t19 41t6 48v290h125v-520h-104zM163 709h300v-97h-300v97z" />
    <glyph glyph-name="Ubreve" unicode="&#x16c;" 
d="M568 239q0 -119 -68 -185.5t-190 -66.5t-190 66.5t-68 185.5v470h129v-460q0 -76 34.5 -110.5t94.5 -34.5t94.5 34.5t34.5 110.5v460h129v-470zM311 760q-41 0 -72.5 13.5t-53.5 35t-34 49.5t-13 57h100q2 -30 19.5 -51t53.5 -21t53.5 21t19.5 51h100q-1 -29 -13 -57
t-34 -49.5t-53.5 -35t-72.5 -13.5z" />
    <glyph glyph-name="ubreve" unicode="&#x16d;" 
d="M418 69q-19 -38 -60 -60t-91 -22q-43 0 -78 14.5t-60 40.5t-39 61.5t-14 77.5v339h125v-311q0 -46 24 -76.5t77 -30.5q28 0 47.5 10.5t32.5 28.5t19 41t6 48v290h125v-520h-104zM310 571q-35 0 -64 11.5t-49.5 32t-32.5 48.5t-12 60h93q2 -32 18 -50.5t47 -18.5t47 18.5
t18 50.5h93q0 -32 -12 -60t-32.5 -48.5t-49.5 -32t-64 -11.5z" />
    <glyph glyph-name="Uring" unicode="&#x16e;" 
d="M568 239q0 -119 -68 -185.5t-190 -66.5t-190 66.5t-68 185.5v470h129v-460q0 -76 34.5 -110.5t94.5 -34.5t94.5 34.5t34.5 110.5v460h129v-470zM444 879q0 -28 -10.5 -52.5t-28.5 -42.5t-42.5 -28.5t-52.5 -10.5t-52.5 10.5t-42.5 28.5t-28.5 42.5t-10.5 52.5t10.5 52.5
t28.5 42.5t42.5 28t52.5 10t52.5 -10t42.5 -28t28.5 -42.5t10.5 -52.5zM262 879q0 -23 14 -36.5t34 -13.5t34 13.5t14 36.5t-14 36.5t-34 13.5t-34 -13.5t-14 -36.5z" />
    <glyph glyph-name="uring" unicode="&#x16f;" 
d="M418 69q-19 -38 -60 -60t-91 -22q-43 0 -78 14.5t-60 40.5t-39 61.5t-14 77.5v339h125v-311q0 -46 24 -76.5t77 -30.5q28 0 47.5 10.5t32.5 28.5t19 41t6 48v290h125v-520h-104zM438 695q0 -27 -10.5 -50t-28 -40.5t-41 -27.5t-50.5 -10t-50.5 10t-41 27.5t-28 40.5
t-10.5 50t10.5 50t28 40t41 27t50.5 10t50.5 -10t41 -27t28 -40t10.5 -50zM261 695q0 -23 14 -35t33 -12t33 12t14 35t-14 35t-33 12t-33 -12t-14 -35z" />
    <glyph glyph-name="Uhungarumlaut" unicode="&#x170;" 
d="M568 239q0 -119 -68 -185.5t-190 -66.5t-190 66.5t-68 185.5v470h129v-460q0 -76 34.5 -110.5t94.5 -34.5t94.5 34.5t34.5 110.5v460h129v-470zM261 947l87 -68l-128 -137l-64 48zM454 946l84 -71l-133 -132l-62 51z" />
    <glyph glyph-name="uhungarumlaut" unicode="&#x171;" 
d="M418 69q-19 -38 -60 -60t-91 -22q-43 0 -78 14.5t-60 40.5t-39 61.5t-14 77.5v339h125v-311q0 -46 24 -76.5t77 -30.5q28 0 47.5 10.5t32.5 28.5t19 41t6 48v290h125v-520h-104zM255 762l87 -68l-128 -137l-64 48zM448 761l84 -71l-133 -132l-62 51z" />
    <glyph glyph-name="Uogonek" unicode="&#x172;" 
d="M568 239q0 -76 -28 -130.5t-81 -84.5q-42 -24 -67.5 -54.5t-25.5 -71.5q0 -21 14 -34t39 -13q11 0 21 1t19 3v-81q-10 -4 -23.5 -7t-34.5 -3q-27 0 -51.5 6.5t-43 20.5t-30 35.5t-11.5 50.5q0 37 14.5 64t36.5 46h-6q-122 0 -190 66.5t-68 185.5v470h129v-460
q0 -76 34.5 -110.5t94.5 -34.5t94.5 34.5t34.5 110.5v460h129v-470z" />
    <glyph glyph-name="uogonek" unicode="&#x173;" 
d="M474 -236q-27 0 -51.5 6.5t-43 20.5t-30 35.5t-11.5 50.5q0 24 7.5 44t20 35.5t28.5 27.5t33 21l-9 64q-19 -38 -60 -60t-91 -22q-43 0 -78 14.5t-60 40.5t-39 61.5t-14 77.5v339h125v-311q0 -46 24 -76.5t77 -30.5q28 0 47.5 10.5t32.5 28.5t19 41t6 48v290h125v-520
q-17 -8 -34 -19t-30 -23.5t-21 -27.5t-8 -32q0 -21 14 -34t39 -13q11 0 21 1t19 3v-81q-10 -4 -23.5 -7t-34.5 -3z" />
    <glyph glyph-name="Wcircumflex" unicode="&#x174;" 
d="M313 381l-81 -381h-142l-72 709h131l34 -517l64 328h132l63 -323l29 512h131l-67 -709h-141zM273 920h79l136 -105l-55 -70l-121 94l-122 -94l-53 70z" />
    <glyph glyph-name="wcircumflex" unicode="&#x175;" 
d="M96 0l-81 520h121l46 -396l63 303h130l63 -303l46 396h121l-83 -520h-144l-68 306l-68 -306h-146zM313 665l-109 -104l-62 64l129 122h83l128 -122l-59 -64z" />
    <glyph glyph-name="Ycircumflex" unicode="&#x176;" 
d="M375 0h-130v302l-237 407h142l164 -289l162 289h136l-237 -407v-302zM275 920h79l136 -105l-55 -70l-121 94l-122 -94l-53 70z" />
    <glyph glyph-name="ycircumflex" unicode="&#x177;" 
d="M36 520h139l146 -360l138 360h129l-252 -623q-23 -57 -65 -90.5t-116 -33.5q-27 0 -53 6t-46 16v106q12 -7 36.5 -13t46.5 -6q34 0 58 14.5t38 51.5l24 61zM313 665l-109 -104l-62 64l129 122h83l128 -122l-59 -64z" />
    <glyph glyph-name="Ydieresis" unicode="&#x178;" 
d="M375 0h-130v302l-237 407h142l164 -289l162 289h136l-237 -407v-302zM366 896h115v-117h-115v117zM144 896h115v-117h-115v117z" />
    <glyph glyph-name="Zacute" unicode="&#x179;" 
d="M58 127l365 465h-359v117h503v-127l-362 -465h367v-117h-514v127zM427 938l49 -101l-234 -92l-34 74z" />
    <glyph glyph-name="zacute" unicode="&#x17a;" 
d="M83 110l302 307h-300v103h450v-113l-299 -304h301v-103h-454v110zM401 764l63 -96l-201 -112l-47 69z" />
    <glyph glyph-name="Zdotaccent" unicode="&#x17b;" 
d="M58 127l365 465h-359v117h503v-127l-362 -465h367v-117h-514v127zM251 902h133v-129h-133v129z" />
    <glyph glyph-name="zdotaccent" unicode="&#x17c;" 
d="M83 110l302 307h-300v103h450v-113l-299 -304h301v-103h-454v110zM255 723h134v-130h-134v130z" />
    <glyph glyph-name="Zcaron" unicode="&#x17d;" 
d="M58 127l365 465h-359v117h503v-127l-362 -465h367v-117h-514v127zM363 760h-79l-136 105l55 70l121 -94l122 94l53 -70z" />
    <glyph glyph-name="zcaron" unicode="&#x17e;" 
d="M83 110l302 307h-300v103h450v-113l-299 -304h301v-103h-454v110zM371 575h-83l-129 122l62 64l109 -104l110 104l59 -64z" />
    <glyph glyph-name="uni018F" unicode="&#x18f;" 
d="M457 390q0 39 -6 77.5t-22.5 69t-45 50t-74.5 19.5q-57 0 -93.5 -32.5t-44.5 -86.5h-127q4 49 24 91.5t54 74.5t81 50.5t106 18.5q54 0 101.5 -16.5t86.5 -55.5q29 -29 46.5 -63t27 -71.5t12.5 -78.5t3 -83t-3 -82.5t-12.5 -77.5t-27 -70.5t-46.5 -62.5
q-39 -39 -86.5 -57t-101.5 -18t-103.5 18t-87.5 58q-25 26 -41 58t-25.5 66.5t-13 70.5t-3.5 71v21t1 21h421v20zM309 97q70 0 105.5 45t37.5 124h-286q0 -37 8.5 -68t25.5 -53.5t44 -35t65 -12.5z" />
    <glyph glyph-name="florin" unicode="&#x192;" 
d="M542 590q-11 2 -21.5 4t-21.5 2q-39 0 -63 -16.5t-31 -55.5l-16 -90h133v-112h-158l-62 -310q-14 -70 -58 -110.5t-117 -40.5q-43 0 -83 12v106q27 -6 55 -6q42 0 59 19t25 57l55 273h-91v112h114l23 118q14 69 61 112t119 43q20 0 40.5 -2t37.5 -6v-109z" />
    <glyph glyph-name="uni01B5" unicode="&#x1b5;" 
d="M58 127l138 176h-127v114h216l138 175h-359v117h503v-127l-129 -165h125v-114h-213l-145 -186h367v-117h-514v127z" />
    <glyph glyph-name="uni01B6" unicode="&#x1b6;" 
d="M83 110l103 105h-94v96h189l104 106h-300v103h450v-113l-95 -96h86v-96h-180l-110 -112h301v-103h-454v110z" />
    <glyph glyph-name="Aringacute" unicode="&#x1fa;" 
d="M214 664h-1q-38 38 -38 95q0 28 10.5 52.5t28.5 42.5t42.5 28t52.5 10t52.5 -10t42.5 -28t28.5 -42.5t10.5 -52.5q0 -26 -9 -49.5t-26 -40.5l208 -669h-134l-51 176h-242l-51 -176h-134zM397 291l-87 301l-87 -301h174zM309 709q20 0 34 13.5t14 36.5t-14 36.5t-34 13.5
t-34 -13.5t-14 -36.5t14 -36.5t34 -13.5zM172 966l219 119l49 -101l-234 -92z" />
    <glyph glyph-name="aringacute" unicode="&#x1fb;" 
d="M578 7q-11 -5 -29 -10t-41 -5q-46 0 -70 23.5t-27 52.5q-19 -32 -59 -57t-97 -25q-48 0 -84 13.5t-60 36t-36 51.5t-12 61q0 75 49.5 116t136.5 48l150 12v28q0 39 -22 62.5t-73 23.5q-46 0 -71 -21.5t-27 -57.5h-122q3 44 21.5 77t48.5 54.5t69 32.5t83 11q34 0 65 -5.5
t57.5 -18t46 -33t31.5 -49.5q10 -25 12.5 -52t2.5 -53v-192q0 -22 9.5 -28.5t26.5 -6.5q8 0 13.5 1t7.5 2v-92zM268 221q-38 -4 -60.5 -20t-22.5 -48t22 -49.5t61 -17.5q60 0 95.5 32t35.5 90v25zM445 695q0 -27 -10.5 -50t-28 -40.5t-41 -27.5t-50.5 -10t-50.5 10t-41 27.5
t-28 40.5t-10.5 50t10.5 50t28 40t41 27t50.5 10t50.5 -10t41 -27t28 -40t10.5 -50zM268 695q0 -23 14 -35t33 -12t33 12t14 35t-14 35t-33 12t-33 -12t-14 -35zM393 1049l63 -96l-201 -112l-47 69z" />
    <glyph glyph-name="AEacute" unicode="&#x1fc;" 
d="M321 176h-144l-50 -176h-127l216 709h394v-117h-167v-165h139v-116h-139v-194h167v-117h-289v176zM321 291v301h-24l-87 -301h111zM475 938l49 -101l-234 -92l-34 74z" />
    <glyph glyph-name="aeacute" unicode="&#x1fd;" 
d="M372 87q33 5 56 23.5t28 44.5h117q-6 -43 -28 -75t-54 -53t-70 -31t-76 -10h-91q-57 0 -98 13.5t-68 36t-39.5 52t-12.5 61.5q0 37 14.5 68t40.5 52.5t62 33.5t80 12h29v121q-38 -5 -59.5 -24.5t-23.5 -50.5h-120q3 43 23.5 75t52.5 54t73 33t86 11h47q58 0 103.5 -21
t77 -56.5t48 -83t16.5 -99.5q0 -11 -0.5 -24.5t-2.5 -25.5h-211v-137zM149 154q0 -30 21.5 -49.5t58.5 -19.5h33v139h-33q-38 0 -59 -19.5t-21 -50.5zM461 315q0 20 -5 40t-16 36.5t-27.5 28.5t-40.5 16v-121h89zM396 764l63 -96l-201 -112l-47 69z" />
    <glyph glyph-name="Oslashacute" unicode="&#x1fe;" 
d="M310 -14q-88 0 -154 44l-52 -81l-70 51l59 92q-20 27 -32.5 58t-19.5 64t-9 68t-2 72q0 42 3 82.5t13 77.5t28 71t47 63q39 39 87 56.5t102 17.5q43 0 82.5 -11t73.5 -36l53 82l71 -46l-62 -97q39 -55 50.5 -121t11.5 -139q0 -42 -3.5 -82.5t-13 -77.5t-27.5 -71t-47 -63
q-39 -39 -87 -56.5t-102 -17.5zM161 354q0 -28 1.5 -65t9.5 -73l230 358q-38 32 -92 32q-61 0 -100 -39q-18 -18 -28 -45.5t-14.5 -57.5t-5.5 -59t-1 -51zM310 102q61 0 100 39q18 18 28 45.5t14.5 57.5t5.5 59t1 51q0 26 -1.5 63t-9.5 72l-228 -358q19 -15 41.5 -22
t48.5 -7zM415 938l49 -101l-234 -92l-34 74z" />
    <glyph glyph-name="oslashacute" unicode="&#x1ff;" 
d="M53 260q0 64 19.5 114.5t54 86t81.5 54.5t102 19q80 0 142 -40l59 71l56 -45l-61 -74q29 -35 45 -81.5t16 -104.5q0 -64 -19.5 -114.5t-54 -86t-81.5 -54.5t-102 -19q-86 0 -150 44l-64 -78l-56 46l68 83q-26 34 -40.5 79t-14.5 100zM440 260q0 50 -16 88l-190 -229
q31 -24 76 -24q60 0 95 43t35 122zM180 260q0 -46 12 -79l187 224q-31 20 -69 20q-60 0 -95 -43t-35 -122zM391 764l63 -96l-201 -112l-47 69z" />
    <glyph glyph-name="uni0218" unicode="&#x218;" 
d="M580 210q0 -57 -23.5 -99t-61.5 -70t-87 -41.5t-100 -13.5q-49 0 -97.5 14.5t-87 44.5t-62.5 75t-24 107h132q0 -35 12 -59.5t32 -40t45 -23t52 -7.5q26 0 51.5 5.5t45.5 18.5t32.5 32.5t12.5 48.5q0 38 -27 58.5t-65 27.5l-107 18q-91 16 -144 63.5t-53 132.5
q0 48 20 88.5t54.5 70t81 46t99.5 16.5q55 0 102 -17t81.5 -46.5t54 -70.5t20.5 -89h-130q-2 48 -34.5 80.5t-95.5 32.5q-24 0 -47 -6t-40.5 -19t-28 -32t-10.5 -44q0 -65 98 -82l99 -16q43 -7 80 -23t63.5 -41.5t41.5 -60t15 -79.5zM366 -141q0 -53 -26 -85t-75 -40l-13 49
q26 5 41 19.5t15 44.5h-58v99h116v-87z" />
    <glyph glyph-name="uni0219" unicode="&#x219;" 
d="M545 160q0 -46 -19.5 -79t-51.5 -54t-74.5 -31t-88.5 -10q-47 0 -90 11.5t-75.5 34t-52 56.5t-19.5 79h120q2 -42 37 -63.5t84 -21.5q53 0 83.5 18t30.5 48q0 22 -13.5 36.5t-47.5 19.5l-118 18q-42 6 -71.5 20.5t-48 34t-26.5 43t-8 46.5q0 36 16 67t44.5 53.5t69 35
t89.5 12.5q47 0 87 -12.5t68.5 -34.5t44.5 -53t16 -68h-119q-2 32 -26.5 53t-70.5 21q-45 0 -73 -17t-28 -46q0 -27 19 -38t44 -15l119 -17q67 -9 108 -47t41 -100zM369 -151q0 -53 -26 -85t-75 -40l-13 49q26 5 41 19.5t15 44.5h-58v99h116v-87z" />
    <glyph glyph-name="uni021A" unicode="&#x21a;" 
d="M374 0h-128v589h-221v120h570v-120h-221v-589zM368 -141q0 -53 -26 -85t-75 -40l-13 49q26 5 41 19.5t15 44.5h-58v99h116v-87z" />
    <glyph glyph-name="uni021B" unicode="&#x21b;" 
d="M556 21q-17 -11 -54 -19.5t-88 -8.5q-50 0 -85.5 13t-58.5 37t-34 57.5t-11 74.5v242h-142v103h142v137l125 36v-173h203v-103h-203v-227q0 -46 23.5 -65t61.5 -19q42 0 74.5 8.5t46.5 13.5v-107zM460 -151q0 -53 -26 -85t-75 -40l-13 49q26 5 41 19.5t15 44.5h-58v99
h116v-87z" />
    <glyph glyph-name="uni0237" unicode="&#x237;" 
d="M433 520v-560q0 -39 -10.5 -74t-33.5 -60.5t-59 -40.5t-87 -15q-26 0 -46 2.5t-35 6.5t-25.5 9.5t-19.5 10.5v107q14 -5 39.5 -13.5t65.5 -8.5q37 0 61.5 17.5t24.5 67.5v448h-181v103h306z" />
    <glyph glyph-name="uni0259" unicode="&#x259;" 
d="M315 -14q-62 0 -107.5 20t-76.5 55.5t-46 83t-15 101.5q0 24 3 50h357q0 28 -7.5 52.5t-22 43t-36.5 29.5t-52 11q-26 0 -44.5 -6.5t-31 -16.5t-20 -21.5t-11.5 -21.5h-124q9 36 28.5 66.5t49.5 53t69.5 35.5t86.5 13q59 0 104.5 -20t76 -56.5t46.5 -87.5t16 -112
q0 -64 -19 -114.5t-51.5 -85.5t-77 -53.5t-95.5 -18.5zM314 88q50 0 81 33.5t33 83.5h-235q0 -24 7.5 -45t22.5 -37t37.5 -25.5t53.5 -9.5z" />
    <glyph glyph-name="circumflex" unicode="&#x2c6;" 
d="M311 665l-109 -104l-62 64l129 122h83l128 -122l-59 -64z" />
    <glyph glyph-name="caron" unicode="&#x2c7;" 
d="M352 575h-83l-129 122l62 64l109 -104l110 104l59 -64z" />
    <glyph glyph-name="breve" unicode="&#x2d8;" 
d="M310 571q-35 0 -64 11.5t-49.5 32t-32.5 48.5t-12 60h93q2 -32 18 -50.5t47 -18.5t47 18.5t18 50.5h93q0 -32 -12 -60t-32.5 -48.5t-49.5 -32t-64 -11.5z" />
    <glyph glyph-name="dotaccent" unicode="&#x2d9;" 
d="M243 723h134v-130h-134v130z" />
    <glyph glyph-name="ring" unicode="&#x2da;" 
d="M440 695q0 -27 -10.5 -50t-28 -40.5t-41 -27.5t-50.5 -10t-50.5 10t-41 27.5t-28 40.5t-10.5 50t10.5 50t28 40t41 27t50.5 10t50.5 -10t41 -27t28 -40t10.5 -50zM263 695q0 -23 14 -35t33 -12t33 12t14 35t-14 35t-33 12t-33 -12t-14 -35z" />
    <glyph glyph-name="ogonek" unicode="&#x2db;" 
d="M349 -236q-27 0 -51.5 6.5t-43 20.5t-30 35.5t-11.5 50.5q0 31 12.5 55t31 41.5t41 29.5t43.5 18l66 -21q-17 -8 -34 -19t-30 -23.5t-21 -27.5t-8 -32q0 -21 14 -34t39 -13q11 0 21 1t19 3v-81q-10 -4 -23.5 -7t-34.5 -3z" />
    <glyph glyph-name="tilde" unicode="&#x2dc;" 
d="M476 686q0 -26 -8.5 -46t-22.5 -33t-32.5 -19.5t-38.5 -6.5q-24 0 -42 8.5t-32 18.5t-25.5 18.5t-22.5 8.5q-9 0 -15.5 -6t-6.5 -22v-21h-86v33q0 53 31.5 80.5t73.5 27.5q26 0 44 -8.5t31 -18t23 -18t21 -8.5q22 0 22 25v24h86v-37z" />
    <glyph glyph-name="hungarumlaut" unicode="&#x2dd;" 
d="M224 762l87 -68l-128 -137l-64 48zM417 761l84 -71l-133 -132l-62 51z" />
    <glyph glyph-name="gravecomb" unicode="&#x300;" 
d="M186 669l63 96l185 -139l-47 -69z" />
    <glyph glyph-name="acutecomb" unicode="&#x301;" 
d="M371 764l63 -96l-201 -112l-47 69z" />
    <glyph glyph-name="uni0302" unicode="&#x302;" 
d="M311 665l-109 -104l-62 64l129 122h83l128 -122l-59 -64z" />
    <glyph glyph-name="tildecomb" unicode="&#x303;" 
d="M476 686q0 -26 -8.5 -46t-22.5 -33t-32.5 -19.5t-38.5 -6.5q-24 0 -42 8.5t-32 18.5t-25.5 18.5t-22.5 8.5q-9 0 -15.5 -6t-6.5 -22v-21h-86v33q0 53 31.5 80.5t73.5 27.5q26 0 44 -8.5t31 -18t23 -18t21 -8.5q22 0 22 25v24h86v-37z" />
    <glyph glyph-name="uni0304" unicode="&#x304;" 
d="M160 709h300v-97h-300v97z" />
    <glyph glyph-name="uni0306" unicode="&#x306;" 
d="M310 571q-35 0 -64 11.5t-49.5 32t-32.5 48.5t-12 60h93q2 -32 18 -50.5t47 -18.5t47 18.5t18 50.5h93q0 -32 -12 -60t-32.5 -48.5t-49.5 -32t-64 -11.5z" />
    <glyph glyph-name="uni0307" unicode="&#x307;" 
d="M243 723h134v-130h-134v130z" />
    <glyph glyph-name="uni0308" unicode="&#x308;" 
d="M353 709h115v-116h-115v116zM151 709h115v-116h-115v116z" />
    <glyph glyph-name="uni030A" unicode="&#x30a;" 
d="M440 695q0 -27 -10.5 -50t-28 -40.5t-41 -27.5t-50.5 -10t-50.5 10t-41 27.5t-28 40.5t-10.5 50t10.5 50t28 40t41 27t50.5 10t50.5 -10t41 -27t28 -40t10.5 -50zM263 695q0 -23 14 -35t33 -12t33 12t14 35t-14 35t-33 12t-33 -12t-14 -35z" />
    <glyph glyph-name="uni030B" unicode="&#x30b;" 
d="M224 762l87 -68l-128 -137l-64 48zM417 761l84 -71l-133 -132l-62 51z" />
    <glyph glyph-name="uni030C" unicode="&#x30c;" 
d="M352 575h-83l-129 122l62 64l109 -104l110 104l59 -64z" />
    <glyph glyph-name="uni0312" unicode="&#x312;" 
d="M252 681q0 53 26 85t75 40l13 -49q-26 -5 -41 -19.5t-15 -44.5h58v-99h-116v87z" />
    <glyph glyph-name="uni0313" unicode="&#x313;" 
d="M211 701q0 -53 -26 -85t-75 -40l-13 49q26 5 41 19.5t15 44.5h-58v99h116v-87z" />
    <glyph glyph-name="uni0326" unicode="&#x326;" 
d="M368 -151q0 -53 -26 -85t-75 -40l-13 49q26 5 41 19.5t15 44.5h-58v99h116v-87z" />
    <glyph glyph-name="uni0335" unicode="&#x335;" 
d="M160 309h300v-97h-300v97z" />
    <glyph glyph-name="uni0394" unicode="&#x394;" 
d="M48 114l186 595h153l187 -595v-114h-526v114zM441 114l-133 453l-133 -453h266z" />
    <glyph glyph-name="uni03A9" unicode="&#x3a9;" 
d="M310 606q-32 0 -61.5 -12t-52.5 -38.5t-37 -68t-14 -99.5q0 -54 11 -97.5t29.5 -76t43.5 -54.5t53 -33v-127h-260v113h121q-25 15 -48.5 40.5t-41.5 61t-28.5 80t-10.5 96.5q0 79 22 141t61.5 104.5t94 64.5t118.5 22t118.5 -22t94 -64.5t61.5 -104.5t22 -141
q0 -52 -10.5 -96.5t-28.5 -80t-41.5 -61t-48.5 -40.5h121v-113h-260v127q27 11 52 32.5t43.5 54t30 75.5t11.5 96q0 59 -13.5 101t-36.5 68.5t-52.5 39t-62.5 12.5z" />
    <glyph glyph-name="uni03BC" unicode="&#x3bc;" 
d="M271 -4q-23 0 -45 6.5t-34 18.5v-236h-125v735h125v-325q0 -40 21.5 -66.5t61.5 -26.5q34 0 55 13.5t33 36t16.5 51.5t4.5 60v257h125v-376q0 -40 39 -40q15 0 31 4v-98q-2 -1 -19.5 -7t-45.5 -6q-46 0 -74 21.5t-35 59.5q-19 -44 -54.5 -63t-79.5 -19z" />
    <glyph glyph-name="pi" unicode="&#x3c0;" 
d="M561 4q-4 -1 -20.5 -5t-45.5 -4q-63 0 -99 33.5t-36 103.5v283h-109v-415h-125v415h-76v105h510v-105h-75v-268q0 -19 10.5 -30t31.5 -11q19 0 34 3v-105z" />
    <glyph glyph-name="uni0E3F" unicode="&#xe3f;" 
d="M91 693h192v106h70v-107q43 -2 79.5 -14t63.5 -33.5t42 -53.5t15 -74q0 -33 -9.5 -59.5t-25 -46t-35.5 -32.5t-40 -18q24 -5 46.5 -18t40 -34t28 -49.5t10.5 -64.5q0 -47 -16.5 -83t-45.5 -60.5t-68.5 -37.5t-84.5 -14v-99h-70v99h-192v693zM455 206q0 28 -8.5 47.5
t-23 32.5t-33 19.5t-37.5 8.5v-212q48 5 75 33t27 71zM283 102v213h-79v-213h79zM283 409v185h-79v-185h79zM440 502q0 38 -22 62t-65 29v-184q34 4 60.5 27t26.5 66z" />
    <glyph glyph-name="Wgrave" unicode="&#x1e80;" 
d="M313 381l-81 -381h-142l-72 709h131l34 -517l64 328h132l63 -323l29 512h131l-67 -709h-141zM175 837l49 101l219 -119l-34 -74z" />
    <glyph glyph-name="wgrave" unicode="&#x1e81;" 
d="M96 0l-81 520h121l46 -396l63 303h130l63 -303l46 396h121l-83 -520h-144l-68 306l-68 -306h-146zM181 669l63 96l185 -139l-47 -69z" />
    <glyph glyph-name="Wacute" unicode="&#x1e82;" 
d="M313 381l-81 -381h-142l-72 709h131l34 -517l64 328h132l63 -323l29 512h131l-67 -709h-141zM410 938l49 -101l-234 -92l-34 74z" />
    <glyph glyph-name="wacute" unicode="&#x1e83;" 
d="M96 0l-81 520h121l46 -396l63 303h130l63 -303l46 396h121l-83 -520h-144l-68 306l-68 -306h-146zM400 764l63 -96l-201 -112l-47 69z" />
    <glyph glyph-name="Wdieresis" unicode="&#x1e84;" 
d="M313 381l-81 -381h-142l-72 709h131l34 -517l64 328h132l63 -323l29 512h131l-67 -709h-141zM365 896h115v-117h-115v117zM143 896h115v-117h-115v117z" />
    <glyph glyph-name="wdieresis" unicode="&#x1e85;" 
d="M96 0l-81 520h121l46 -396l63 303h130l63 -303l46 396h121l-83 -520h-144l-68 306l-68 -306h-146zM353 709h115v-116h-115v116zM151 709h115v-116h-115v116z" />
    <glyph glyph-name="uni1E8A" unicode="&#x1e8a;" 
d="M308 254l-155 -254h-148l232 361l-228 348h150l153 -244l148 244h149l-225 -349l230 -360h-151zM243 902h133v-129h-133v129z" />
    <glyph glyph-name="uni1E8B" unicode="&#x1e8b;" 
d="M582 0h-147l-128 176l-126 -176h-143l202 265l-199 255h149l125 -169l123 169h142l-196 -256zM243 723h134v-130h-134v130z" />
    <glyph glyph-name="Ygrave" unicode="&#x1ef2;" 
d="M375 0h-130v302l-237 407h142l164 -289l162 289h136l-237 -407v-302zM180 837l49 101l219 -119l-34 -74z" />
    <glyph glyph-name="ygrave" unicode="&#x1ef3;" 
d="M36 520h139l146 -360l138 360h129l-252 -623q-23 -57 -65 -90.5t-116 -33.5q-27 0 -53 6t-46 16v106q12 -7 36.5 -13t46.5 -6q34 0 58 14.5t38 51.5l24 61zM169 669l63 96l185 -139l-47 -69z" />
    <glyph glyph-name="uni2007" unicode="&#x2007;" 
 />
    <glyph glyph-name="uni2008" unicode="&#x2008;" 
 />
    <glyph glyph-name="uni200B" unicode="&#x200b;" horiz-adv-x="0" 
 />
    <glyph glyph-name="endash" unicode="&#x2013;" 
d="M62 364h496v-112h-496v112z" />
    <glyph glyph-name="emdash" unicode="&#x2014;" 
d="M0 364h620v-112h-620v112z" />
    <glyph glyph-name="quoteleft" unicode="&#x2018;" 
d="M235 528q0 69 26 117.5t94 77.5l31 -58q-24 -11 -39.5 -23.5t-24.5 -29t-12 -37t-3 -47.5h74v-145h-146v145z" />
    <glyph glyph-name="quoteright" unicode="&#x2019;" 
d="M386 564q0 -69 -26 -118t-94 -77l-31 58q24 10 39.5 23t24.5 29.5t12 37t3 47.5h-74v145h146v-145z" />
    <glyph glyph-name="quotesinglbase" unicode="&#x201a;" 
d="M386 0q0 -69 -26 -118t-94 -77l-31 58q24 10 39.5 23t24.5 29.5t12 37t3 47.5h-74v145h146v-145z" />
    <glyph glyph-name="quotedblleft" unicode="&#x201c;" 
d="M130 528q0 69 26 117.5t94 77.5l31 -58q-24 -11 -39.5 -23.5t-24.5 -29t-12 -37t-3 -47.5h74v-145h-146v145zM339 528q0 69 26 117.5t94 77.5l31 -58q-24 -11 -39.5 -23.5t-24.5 -29t-12 -37t-3 -47.5h74v-145h-146v145z" />
    <glyph glyph-name="quotedblright" unicode="&#x201d;" 
d="M281 564q0 -69 -26 -118t-94 -77l-31 58q24 10 39.5 23t24.5 29.5t12 37t3 47.5h-74v145h146v-145zM490 564q0 -69 -26 -118t-94 -77l-31 58q24 10 39.5 23t24.5 29.5t12 37t3 47.5h-74v145h146v-145z" />
    <glyph glyph-name="quotedblbase" unicode="&#x201e;" 
d="M281 0q0 -69 -26 -118t-94 -77l-31 58q24 10 39.5 23t24.5 29.5t12 37t3 47.5h-74v145h146v-145zM490 0q0 -69 -26 -118t-94 -77l-31 58q24 10 39.5 23t24.5 29.5t12 37t3 47.5h-74v145h146v-145z" />
    <glyph glyph-name="dagger" unicode="&#x2020;" 
d="M367 -125h-114v540h-184v105h184v189h114v-189h184v-105h-184v-540z" />
    <glyph glyph-name="daggerdbl" unicode="&#x2021;" 
d="M367 -125h-114v189h-184v105h184v246h-184v105h184v189h114v-189h184v-105h-184v-246h184v-105h-184v-189z" />
    <glyph glyph-name="bullet" unicode="&#x2022;" 
d="M450 292q0 -29 -11 -55t-30 -45t-45 -30t-55 -11t-55 11t-45 30t-30 45t-11 55t11 55t30 45t45 30t55 11t55 -11t45 -30t30 -45t11 -55z" />
    <glyph glyph-name="ellipsis" unicode="&#x2026;" 
d="M35 141h132v-141h-132v141zM244 141h132v-141h-132v141zM452 141h132v-141h-132v141z" />
    <glyph glyph-name="perthousand" unicode="&#x2030;" 
d="M141 118q0 27 10.5 51t28.5 42t42 28.5t51 10.5q29 0 54 -11.5t43 -31.5q18 20 43.5 31.5t54.5 11.5q27 0 51 -10.5t42 -28.5t28.5 -42t10.5 -51t-10.5 -51t-28.5 -42t-42 -28.5t-51 -10.5q-29 0 -54.5 11.5t-43.5 31.5q-18 -20 -43 -31.5t-54 -11.5q-27 0 -51 10.5
t-42 28.5t-28.5 42t-10.5 51zM45 575q0 27 10.5 51t28.5 42t42 28.5t51 10.5t51 -10.5t42 -28.5t28.5 -42t10.5 -51t-10.5 -51t-28.5 -42t-42 -28.5t-51 -10.5t-51 10.5t-42 28.5t-28.5 42t-10.5 51zM20 242l482 353l43 -61l-482 -353zM214 118q0 -24 17.5 -41.5t41.5 -17.5
t41.5 17.5t17.5 41.5t-17.5 41.5t-41.5 17.5t-41.5 -17.5t-17.5 -41.5zM409 118q0 -24 17.5 -41.5t41.5 -17.5t41.5 17.5t17.5 41.5t-17.5 41.5t-41.5 17.5t-41.5 -17.5t-17.5 -41.5zM118 575q0 -24 17.5 -41.5t41.5 -17.5t41.5 17.5t17.5 41.5t-17.5 41.5t-41.5 17.5
t-41.5 -17.5t-17.5 -41.5z" />
    <glyph glyph-name="guilsinglleft" unicode="&#x2039;" 
d="M167 298l193 247l73 -52l-134 -194l134 -194l-73 -51z" />
    <glyph glyph-name="guilsinglright" unicode="&#x203a;" 
d="M321 299l-134 194l73 52l193 -247l-193 -244l-73 51z" />
    <glyph glyph-name="fraction" unicode="&#x2044;" 
d="M75 219l465 329l40 -62l-463 -328z" />
    <glyph glyph-name="uni2070" unicode="&#x2070;" 
d="M139 522q0 48 13 87.5t48 69.5q17 14 43.5 25.5t66.5 11.5t66.5 -11.5t43.5 -25.5q35 -30 48 -69.5t13 -87.5t-13 -88t-48 -70q-17 -14 -43.5 -25.5t-66.5 -11.5t-66.5 11.5t-43.5 25.5q-35 30 -48 70t-13 88zM234 522q0 -26 3 -42l117 139q-8 6 -18.5 10t-25.5 4
q-19 0 -30.5 -5.5t-19.5 -13.5q-10 -11 -18 -30t-8 -62zM386 522q0 23 -3 40l-116 -140q8 -5 18 -8.5t25 -3.5q19 0 30.5 5.5t19.5 13.5q10 11 18 30.5t8 62.5z" />
    <glyph glyph-name="uni2074" unicode="&#x2074;" 
d="M497 488v-85h-64v-70h-95v70h-205v110l153 196h103l-166 -221h115v94h95v-94h64z" />
    <glyph glyph-name="uni2075" unicode="&#x2075;" 
d="M333 590q24 0 48 -7t42.5 -22.5t30 -39.5t11.5 -58q0 -29 -10.5 -53.5t-30.5 -43t-49.5 -29t-66.5 -10.5q-64 0 -106 33t-48 93h95q3 -20 20.5 -33.5t41.5 -13.5q27 0 43 15t16 40q0 26 -15 40.5t-41 14.5q-19 0 -34.5 -8.5t-23.5 -19.5h-96l12 221h269v-79h-190l-4 -71
q14 17 36 24t50 7z" />
    <glyph glyph-name="uni2076" unicode="&#x2076;" 
d="M326 716q63 0 99 -28.5t40 -73.5h-100q-2 11 -12.5 20t-34.5 9q-29 0 -47 -24.5t-18 -63.5q15 16 38.5 24.5t52.5 8.5q58 0 92.5 -34.5t34.5 -92.5q0 -60 -43 -97t-111 -37q-78 0 -123.5 50.5t-45.5 138.5q0 94 46.5 147t131.5 53zM376 461q0 27 -16 42.5t-44 15.5
t-45 -15.5t-17 -41.5q0 -25 17.5 -41t44.5 -16t43.5 15.5t16.5 40.5z" />
    <glyph glyph-name="uni2077" unicode="&#x2077;" 
d="M197 333l161 293h-195v83h294v-82l-152 -294h-108z" />
    <glyph glyph-name="uni2078" unicode="&#x2078;" 
d="M310 566q22 0 36 10.5t14 28.5t-13.5 28t-36.5 10t-36.5 -10t-13.5 -28t14 -28.5t36 -10.5zM310 401q26 0 43 12.5t17 35.5q0 20 -16.5 33.5t-43.5 13.5q-28 0 -44 -13.5t-16 -33.5q0 -23 17 -35.5t43 -12.5zM310 716q41 0 69 -9.5t45 -24t24.5 -32.5t7.5 -34
q0 -35 -19 -56t-42 -30q13 -3 26.5 -10.5t24 -19.5t17 -28t6.5 -36q0 -15 -7 -34t-25 -35.5t-48.5 -28t-78.5 -11.5t-79 11.5t-49 28t-24.5 35.5t-6.5 34q0 20 6.5 36t17 28t23.5 19.5t26 10.5q-23 11 -42 31t-19 55q0 16 7.5 34t24.5 32.5t45 24t70 9.5z" />
    <glyph glyph-name="uni2079" unicode="&#x2079;" 
d="M149 580q0 30 11 55t31 43t47.5 28t61.5 10q27 0 56.5 -8t55 -29t42 -58t16.5 -95q0 -29 -6 -63.5t-23.5 -64.5t-49.5 -50.5t-84 -20.5q-62 0 -101 28.5t-47 73.5h97q0 -2 2 -6t7.5 -9t14.5 -8.5t24 -3.5q28 0 44.5 18t16.5 65q-11 -11 -32.5 -21t-52.5 -10
q-26 0 -49.5 8t-41.5 24t-29 39.5t-11 54.5zM245 582q0 -26 17 -41t43 -15q23 0 42 13.5t19 42.5q0 30 -19 44t-42 14q-26 0 -43 -16t-17 -42z" />
    <glyph glyph-name="uni207F" unicode="&#x207f;" 
d="M383 545q0 33 -15.5 53t-49.5 20t-58 -26.5t-24 -77.5v-190h-94v369h77l7 -49q17 29 48.5 44t67.5 15q64 0 99.5 -38.5t35.5 -95.5v-245h-94v221z" />
    <glyph glyph-name="uni2080" unicode="&#x2080;" 
d="M139 83q0 48 13 87.5t48 69.5q17 14 43.5 25.5t66.5 11.5t66.5 -11.5t43.5 -25.5q35 -30 48 -69.5t13 -87.5t-13 -88t-48 -70q-17 -14 -43.5 -25.5t-66.5 -11.5t-66.5 11.5t-43.5 25.5q-35 30 -48 70t-13 88zM234 83q0 -26 3 -42l117 139q-8 6 -18.5 10t-25.5 4
q-19 0 -30.5 -5.5t-19.5 -13.5q-10 -11 -18 -30t-8 -62zM386 83q0 23 -3 40l-116 -139q8 -5 18 -9t25 -4q19 0 30.5 5.5t19.5 13.5q10 11 18 30.5t8 62.5z" />
    <glyph glyph-name="uni2081" unicode="&#x2081;" 
d="M262 -22v190l-107 -66v95l117 73h85v-292h107v-84h-309v84h107z" />
    <glyph glyph-name="uni2082" unicode="&#x2082;" 
d="M163 -31l160 127q14 11 25 24t11 31t-13 32t-39 14q-32 0 -45 -18.5t-13 -42.5h-93q0 69 42 105t113 36q30 0 56 -8.5t46 -24.5t31.5 -39t11.5 -53q0 -40 -22.5 -67t-53.5 -50l-75 -55h159v-86h-301v75z" />
    <glyph glyph-name="uni2083" unicode="&#x2083;" 
d="M468 1q0 -28 -13.5 -49t-36 -35.5t-51 -21.5t-57.5 -7t-57 7.5t-49.5 23t-35.5 40t-16 57.5h91q2 -26 21.5 -37.5t44.5 -11.5q10 0 21.5 2t21.5 7t16.5 13t6.5 21q0 21 -17.5 30.5t-43.5 9.5h-37v73h37q21 0 36.5 8.5t15.5 28.5q0 23 -18.5 31.5t-38.5 8.5q-25 0 -43 -12
t-21 -39h-90q2 30 13 52.5t28 37.5q22 20 52 29t63 9q28 0 55 -6.5t48 -20t34 -34t13 -48.5q0 -26 -14 -48.5t-46 -30.5q32 -8 49.5 -32.5t17.5 -55.5z" />
    <glyph glyph-name="uni2084" unicode="&#x2084;" 
d="M497 49v-85h-64v-70h-95v70h-205v110l153 196h103l-166 -221h115v94h95v-94h64z" />
    <glyph glyph-name="uni2085" unicode="&#x2085;" 
d="M333 151q24 0 48 -7t42.5 -22.5t30 -39.5t11.5 -58q0 -29 -10.5 -53.5t-30.5 -43t-49.5 -29t-66.5 -10.5q-64 0 -106 33t-48 93h95q3 -20 20.5 -33.5t41.5 -13.5q27 0 43 15t16 40q0 26 -15 40.5t-41 14.5q-19 0 -34.5 -8.5t-23.5 -19.5h-96l12 221h269v-79h-190l-4 -71
q14 17 36 24t50 7z" />
    <glyph glyph-name="uni2086" unicode="&#x2086;" 
d="M326 277q63 0 99 -28.5t40 -73.5h-100q-2 11 -12.5 20t-34.5 9q-29 0 -47 -24.5t-18 -63.5q15 16 38.5 24.5t52.5 8.5q58 0 92.5 -34.5t34.5 -92.5q0 -60 -43 -97t-111 -37q-78 0 -123.5 50.5t-45.5 138.5q0 94 46.5 147t131.5 53zM376 22q0 27 -16 42.5t-44 15.5
t-45 -15.5t-17 -41.5q0 -25 17.5 -41t44.5 -16t43.5 15.5t16.5 40.5z" />
    <glyph glyph-name="uni2087" unicode="&#x2087;" 
d="M197 -106l161 293h-195v83h294v-82l-152 -294h-108z" />
    <glyph glyph-name="uni2088" unicode="&#x2088;" 
d="M310 127q22 0 36 10.5t14 28.5t-13.5 28t-36.5 10t-36.5 -10t-13.5 -28t14 -28.5t36 -10.5zM310 -38q26 0 43 12.5t17 35.5q0 20 -16.5 33.5t-43.5 13.5q-28 0 -44 -13.5t-16 -33.5q0 -23 17 -35.5t43 -12.5zM310 277q41 0 69 -9.5t45 -24t24.5 -32.5t7.5 -34
q0 -35 -19 -56t-42 -30q13 -3 26.5 -10.5t24 -19.5t17 -28t6.5 -36q0 -15 -7 -34t-25 -35.5t-48.5 -28t-78.5 -11.5t-79 11.5t-49 28t-24.5 35.5t-6.5 34q0 20 6.5 36t17 28t23.5 19.5t26 10.5q-23 11 -42 31t-19 55q0 16 7.5 34t24.5 32.5t45 24t70 9.5z" />
    <glyph glyph-name="uni2089" unicode="&#x2089;" 
d="M149 141q0 30 11 55t31 43t47.5 28t61.5 10q27 0 56.5 -8t55 -29t42 -58t16.5 -95q0 -29 -6 -63.5t-23.5 -64.5t-49.5 -50.5t-84 -20.5q-62 0 -101 28.5t-47 73.5h97q0 -2 2 -6t7.5 -9t14.5 -8.5t24 -3.5q28 0 44.5 18t16.5 65q-11 -11 -32.5 -21t-52.5 -10
q-26 0 -49.5 8t-41.5 24t-29 39.5t-11 54.5zM245 143q0 -26 17 -41t43 -15q23 0 42 13.5t19 42.5q0 30 -19 44t-42 14q-26 0 -43 -16t-17 -42z" />
    <glyph glyph-name="colonmonetary" unicode="&#x20a1;" 
d="M147 65q-42 52 -52.5 120t-10.5 154q0 88 11.5 154.5t51.5 117.5q29 38 72.5 60t102.5 24l29 104h66l-30 -109q37 -6 69 -24l37 133h67l-50 -177q50 -60 51 -164h-96v3l-108 -386q102 12 109 144h95q-2 -60 -19.5 -104t-48.5 -73.5t-72 -44t-89 -14.5l-23 -82h-66l25 89
q-38 9 -68 27l-32 -116h-68zM229 122q25 -34 63 -44l137 492q-23 25 -67 32zM184 339q0 -32 2 -61t6 -54l104 376q-24 -7 -40.5 -20.5t-29.5 -32.5q-23 -33 -32.5 -81t-9.5 -127z" />
    <glyph glyph-name="uni20A6" unicode="&#x20a6;" 
d="M587 335h-69v-335h-151l-90 335h-77v-335h-98v335h-69v85h69v274h159l72 -274h88v274h97v-274h69v-85zM254 420l-54 201v-201h54zM421 335h-66l66 -254v254z" />
    <glyph glyph-name="uni20A9" unicode="&#x20a9;" 
d="M593 339h-67l-26 -339h-122l-36 339h-57l-38 -339h-125l-27 339h-67v85h60l-21 270h92l14 -270h57l31 264h109l30 -264h56l14 270h84l-21 -270h60v-85zM334 424l-20 184l-20 -184h40zM221 339h-43l13 -256zM451 339h-42l29 -256z" />
    <glyph glyph-name="uni20AA" unicode="&#x20aa;" 
d="M286 554v-467h98q38 0 59 20t21 65v521h91v-522q0 -83 -38.5 -127t-119.5 -44h-195v554h84zM268 693q78 0 113.5 -43t35.5 -125v-387h-83v386q0 45 -22 63t-59 18h-98v-605h-90v693h203z" />
    <glyph glyph-name="dong" unicode="&#x20ab;" 
d="M298 124q-47 0 -85 15t-65 41.5t-41.5 63.5t-14.5 81q0 45 14 83.5t40.5 66t64 43.5t85.5 16q30 0 53 -7t39.5 -18t26.5 -24.5t15 -27.5v109h-108v69h108v60h111v-60h68v-69h-68v-432h-91l-3 81q-15 -36 -51 -63.5t-98 -27.5zM107 83h435v-83h-435v83zM322 211
q52 0 82.5 33.5t30.5 83.5q0 51 -29.5 85t-83.5 34t-85 -33t-31 -84q0 -54 31.5 -86.5t84.5 -32.5z" />
    <glyph glyph-name="Euro" unicode="&#x20ac;" 
d="M418 236h-191q11 -52 44 -88q25 -26 58 -38t69 -12q45 0 83.5 14.5t65.5 36.5l47 -101q-39 -29 -88 -46t-109 -17q-63 0 -117 21t-94 61q-38 38 -57.5 80.5t-27.5 88.5h-66v73h58q-1 9 -1 18.5v18.5q0 8 0.5 17t0.5 17h-58v73h65q8 47 28 89.5t58 80.5q40 40 93.5 61
t116.5 21q65 0 110.5 -15.5t87.5 -47.5l-47 -101q-38 29 -72 40t-78 11q-36 0 -68.5 -12t-57.5 -38q-18 -20 -28.5 -41.5t-15.5 -47.5h281l-35 -73h-254q0 -8 -0.5 -17t-0.5 -17v-18.5t1 -18.5h234z" />
    <glyph glyph-name="uni20AD" unicode="&#x20ad;" 
d="M265 325h-23v-325h-117v325h-78v90h78v279h117v-279h31l181 279h131l-191 -279h154v-90h-158l199 -325h-138z" />
    <glyph glyph-name="uni20AE" unicode="&#x20ae;" 
d="M374 582v-130l136 57v-87l-136 -57v-85l136 56v-87l-136 -57v-192h-125v140l-136 -57v89l136 56v86l-136 -57v87l136 57v181h-188v112h499v-112h-186z" />
    <glyph glyph-name="uni20B2" unicode="&#x20b2;" 
d="M283 -15q-46 5 -84 24.5t-66 54.5q-41 52 -51 120.5t-10 154.5q0 44 2 82t9 71.5t19 63t32 55.5q28 37 66 57t83 25v106h73v-106q98 -11 145 -73.5t49 -159.5h-112q-2 54 -19.5 89t-62.5 46v-243h193v-354h-74l-3 108q-7 -38 -36.5 -72.5t-79.5 -46.5v-86h-73v84z
M283 593q-37 -11 -58 -48q-18 -31 -27 -78.5t-9 -124.5q0 -71 8 -125t27 -87q11 -20 26.5 -31t32.5 -16v510zM356 84q44 12 67 55.5t23 121.5h-90v-177z" />
    <glyph glyph-name="uni20B4" unicode="&#x20b4;" 
d="M317 -14q-48 0 -88 13.5t-69 39t-45.5 62t-16.5 83.5q0 14 2 32t7 28h-57v83h520v-83h-343q-10 -20 -10 -51q0 -44 26.5 -70t75.5 -26q51 0 76.5 23.5t26.5 65.5h127q-1 -45 -17.5 -82t-46.5 -63.5t-72.5 -40.5t-95.5 -14zM383 473q16 19 16 51q0 35 -22.5 54.5
t-63.5 19.5q-42 0 -65.5 -19.5t-25.5 -54.5h-125q1 40 17 74t44 58.5t67 38t87 13.5q45 0 83 -11.5t65.5 -33.5t43.5 -54.5t16 -74.5q0 -15 -2.5 -32.5t-9.5 -28.5h62v-83h-520v83h333z" />
    <glyph glyph-name="uni20B5" unicode="&#x20b5;" 
d="M369 86q43 11 61.5 47t20.5 86h110q-2 -97 -50.5 -159.5t-141.5 -74.5v-84h-70v84q-95 9 -152 80q-42 52 -52.5 120t-10.5 154q0 88 11.5 154.5t51.5 117.5q29 37 67.5 57t84.5 25v106h70v-106q49 -6 84.5 -25t59.5 -50t35.5 -71.5t12.5 -88.5h-111q-2 54 -19 88.5
t-62 44.5v-505zM237 133q13 -21 28.5 -32t33.5 -15v505q-18 -5 -33.5 -17t-28.5 -32q-20 -32 -27.5 -79t-7.5 -124q0 -71 8 -122.5t27 -83.5z" />
    <glyph glyph-name="uni20B8" unicode="&#x20b8;" 
d="M69 416v98h483v-98h-176v-416h-130v416h-177zM552 693v-98h-483v98h483z" />
    <glyph glyph-name="uni20B9" unicode="&#x20b9;" 
d="M554 598h-177q38 -35 52 -88h125v-95h-121q-6 -41 -25.5 -72t-47 -53.5t-60 -36t-64.5 -18.5l223 -235h-167l-226 242v84h104q53 0 87.5 21.5t46.5 67.5h-238v95h239q-10 40 -38.5 61.5t-73.5 26.5h-127v95h488v-95z" />
    <glyph glyph-name="uni20BA" unicode="&#x20ba;" 
d="M579 305q0 -149 -80.5 -227t-238.5 -78h-133v207l-85 -48v87l85 48v87l-85 -48v87l85 48v225h129v-153l138 78v-87l-138 -78v-87l138 78v-87l-138 -78v-159h43q82 0 120 50.5t41 134.5h119z" />
    <glyph glyph-name="uni20BC" unicode="&#x20bc;" 
d="M56 291q0 69 17 119t45.5 83.5t65.5 52.5t76 25v123h102v-122q39 -6 75.5 -25t65 -53t45.5 -84t17 -119v-291h-103v289q0 44 -8.5 76t-23 53.5t-33 33.5t-38.5 16v-378h-97v378q-21 -4 -39.5 -16t-33 -33.5t-23 -53.5t-8.5 -76v-289h-102v291z" />
    <glyph glyph-name="uni20BD" unicode="&#x20bd;" 
d="M44 135v97h92v81h-92v101h92v279h206q115 0 174.5 -48t59.5 -144q0 -94 -60.5 -141t-173.5 -47h-80v-81h221v-97h-221v-135h-126v135h-92zM340 414q55 0 80.5 22.5t25.5 62.5q0 42 -24.5 64.5t-81.5 22.5h-78v-172h78z" />
    <glyph glyph-name="uni20BF" unicode="&#x20bf;" 
d="M92 693h106v106h73v-106h84v106h73v-111q25 -6 48 -19.5t40.5 -34.5t27.5 -50.5t10 -66.5q0 -33 -9.5 -59.5t-25 -46t-35.5 -32.5t-40 -18q24 -5 46.5 -18t40 -34t28 -49.5t10.5 -64.5q0 -42 -11.5 -75.5t-31 -57.5t-45 -39t-53.5 -20v-108h-73v105h-84v-105h-73v105
h-106v693zM338 102q55 0 86.5 29t31.5 75q0 30 -10 51t-26 33.5t-36.5 18.5t-41.5 6h-137v-213h133zM342 409q19 0 36.5 6t31.5 17.5t22.5 29t8.5 40.5q0 42 -27 67t-80 25h-129v-185h137z" />
    <glyph glyph-name="uni2113" unicode="&#x2113;" 
d="M133 306q10 2 24 6.5t42 18.5v213q0 38 11 68.5t30 52t45.5 33t58.5 11.5q67 0 107 -41.5t40 -115.5q0 -37 -12.5 -76t-36 -76t-56.5 -71t-73 -61v-103q0 -34 16 -49.5t39 -15.5q18 0 34.5 5t29.5 12t22 14t14 11v-113q-3 -3 -10 -9t-19.5 -12t-32 -10.5t-46.5 -4.5
q-42 0 -72.5 12.5t-50 35t-29 53t-9.5 66.5v54q-16 -5 -32.5 -9t-33.5 -7v108zM376 554q0 27 -8.5 37t-21.5 10q-12 0 -22.5 -11t-10.5 -43v-139q26 27 44.5 64t18.5 82z" />
    <glyph glyph-name="trademark" unicode="&#x2122;" 
d="M161 407h-73v231h-80v71h233v-71h-80v-231zM580 709v-302h-71v199l-45 -137h-59l-45 138v-200h-72v302h103l44 -152l43 152h102z" />
    <glyph glyph-name="Omega" unicode="&#x2126;" 
d="M310 606q-32 0 -61.5 -12t-52.5 -38.5t-37 -68t-14 -99.5q0 -54 11 -97.5t29.5 -76t43.5 -54.5t53 -33v-127h-260v113h121q-25 15 -48.5 40.5t-41.5 61t-28.5 80t-10.5 96.5q0 79 22 141t61.5 104.5t94 64.5t118.5 22t118.5 -22t94 -64.5t61.5 -104.5t22 -141
q0 -52 -10.5 -96.5t-28.5 -80t-41.5 -61t-48.5 -40.5h121v-113h-260v127q27 11 52 32.5t43.5 54t30 75.5t11.5 96q0 59 -13.5 101t-36.5 68.5t-52.5 39t-62.5 12.5z" />
    <glyph glyph-name="partialdiff" unicode="&#x2202;" 
d="M283 461q49 0 86 -16.5t57 -39.5q-4 39 -22.5 75.5t-51.5 64.5t-81.5 45t-111.5 17v116q97 0 171 -29t124 -81t75 -123t25 -155q0 -71 -17.5 -133.5t-52.5 -110t-87 -75t-121 -27.5q-50 0 -92.5 15.5t-73 44t-47.5 69t-17 90.5q0 51 17.5 97t49 80.5t75 55t95.5 20.5z
M308 357q-30 0 -54.5 -11.5t-42 -31t-27.5 -45.5t-10 -56q0 -53 29.5 -85t78.5 -32q30 0 54.5 12t42 32t27.5 47t10 56q0 51 -28.5 82.5t-79.5 31.5z" />
    <glyph glyph-name="Delta" unicode="&#x2206;" 
d="M48 114l186 595h153l187 -595v-114h-526v114zM441 114l-133 453l-133 -453h266z" />
    <glyph glyph-name="product" unicode="&#x220f;" 
d="M436 591h-252v-591h-129v709h510v-709h-129v591z" />
    <glyph glyph-name="summation" unicode="&#x2211;" 
d="M557 0h-507v103l226 254l-221 235v117h500v-115h-330l217 -230l-219 -247h334v-117z" />
    <glyph glyph-name="minus" unicode="&#x2212;" 
d="M53 364h515v-112h-515v112z" />
    <glyph glyph-name="radical" unicode="&#x221a;" 
d="M325 0h-106l-189 528h133l109 -321l211 633h187v-104h-91z" />
    <glyph glyph-name="infinity" unicode="&#x221e;" 
d="M310 235q-12 -13 -26 -28t-31.5 -27.5t-40 -20.5t-50.5 -8q-32 0 -59 11.5t-46.5 31.5t-30 47.5t-10.5 59.5q0 30 10 57.5t29 48t46 32.5t60 12q28 0 51 -8.5t41 -21t32 -27.5t25 -27q11 13 24.5 27.5t31.5 27t40.5 21t50.5 8.5q32 0 59 -11.5t46.5 -31.5t30.5 -47.5
t11 -59.5q0 -31 -10 -58t-29 -47.5t-45.5 -32.5t-59.5 -12q-30 0 -53.5 9t-42 22t-32 27.5t-22.5 25.5zM253 301q-23 29 -43.5 43.5t-41.5 14.5q-20 0 -38.5 -13.5t-18.5 -44.5t18.5 -44.5t38.5 -13.5q21 0 41.5 14.5t43.5 43.5zM367 301q23 -29 43.5 -43.5t41.5 -14.5
q20 0 38.5 13.5t18.5 44.5t-18.5 44.5t-38.5 13.5q-21 0 -41.5 -14.5t-43.5 -43.5z" />
    <glyph glyph-name="integral" unicode="&#x222b;" 
d="M343 -56q-1 -44 -15.5 -72.5t-39 -45.5t-56.5 -24t-67 -7h-49v117h41q29 0 44.5 15t15.5 41v578q0 44 14.5 72.5t39.5 45.5t57 24t67 7h49v-117h-41q-29 0 -44.5 -15t-15.5 -41v-578z" />
    <glyph glyph-name="approxequal" unicode="&#x2248;" 
d="M565 371q-35 -37 -71.5 -62t-89.5 -25q-29 0 -54.5 9t-48.5 20.5t-44.5 20.5t-41.5 9q-30 0 -52 -15t-42 -35l-66 77q34 37 71 62t90 25q27 0 52.5 -9t49 -19.5t45 -19t41.5 -8.5q30 0 51.5 13.5t41.5 34.5zM565 158q-35 -36 -71.5 -61t-89.5 -25q-29 0 -54.5 9t-49 20.5
t-44.5 20.5t-41 9q-30 0 -52 -14.5t-42 -34.5l-66 76q34 37 71 62t90 25q28 0 53.5 -9t49 -19.5t44.5 -19.5t41 -9q30 0 51.5 13.5t41.5 34.5z" />
    <glyph glyph-name="notequal" unicode="&#x2260;" 
d="M139 -2l-58 44l67 87h-79v99h155l77 100h-232v98h308l97 126l57 -45l-62 -81h83v-98h-159l-77 -100h236v-99h-312z" />
    <glyph glyph-name="lessequal" unicode="&#x2264;" 
d="M98 106h424v-106h-424v106zM97 327v89l423 202v-107l-301 -136l302 -138v-110z" />
    <glyph glyph-name="greaterequal" unicode="&#x2265;" 
d="M97 106h424v-106h-424v106zM400 375l-301 136v107l423 -202v-89l-424 -200v110z" />
    <glyph glyph-name="uni2300" unicode="&#x2300;" 
d="M310 72q-42 0 -78 10l-62 -125l-87 43l63 125q-51 37 -81.5 94.5t-30.5 126.5q0 57 21.5 107.5t59 87.5t87.5 58.5t108 21.5q39 0 78 -11l62 124l86 -42l-62 -124q51 -38 81.5 -95.5t30.5 -126.5q0 -57 -21.5 -107t-59 -87t-87.5 -58.5t-108 -21.5zM136 346
q0 -40 14.5 -73.5t40.5 -57.5l152 306q-17 3 -33 3q-37 0 -69 -13.5t-55 -37.5t-36.5 -56.5t-13.5 -70.5zM310 169q37 0 69 13.5t55 37t36.5 56t13.5 70.5q0 40 -14.5 74t-40.5 58l-152 -306q15 -3 33 -3z" />
    <glyph glyph-name="uni24C5" unicode="&#x24c5;" 
d="M309 84q-59 0 -108.5 20t-85.5 56t-56.5 85.5t-20.5 108.5q0 58 20.5 107.5t57 85.5t86 56.5t107.5 20.5t107.5 -20.5t86 -56.5t57 -85.5t20.5 -107.5q0 -59 -20.5 -108.5t-56.5 -85.5t-85.5 -56t-108.5 -20zM309 146q45 0 82 16t64 44t41.5 66t14.5 82q0 45 -14.5 83
t-41.5 65.5t-64 43.5t-82 16t-82 -16t-64 -43.5t-41.5 -65.5t-14.5 -83t14.5 -83t41 -66t64 -43.5t82.5 -15.5zM215 492h115q51 0 75.5 -25.5t24.5 -60.5t-24.5 -60t-75.5 -25h-47v-96h-68v267zM335 377q14 0 23.5 7.5t9.5 22.5q0 14 -9.5 21t-23.5 7h-52v-58h52z" />
    <glyph glyph-name="uni25AF" unicode="&#x25af;" 
d="M516 709v-709h-412v709h412zM416 613h-212v-518h212v518z" />
    <glyph glyph-name="lozenge" unicode="&#x25ca;" 
d="M436 360l-134 225l-119 -222l129 -231zM235 707h135l200 -347l-195 -360h-127l-199 363z" />
    <glyph glyph-name="uniF8FF" unicode="&#xf8ff;" 
d="M565 364q0 -41 -26 -67.5t-67 -26.5h-72q17 -23 17 -54q0 -41 -26 -67t-67 -26h-249v248q0 41 26 67.5t67 26.5q30 0 55 -17v71q0 41 26 67.5t67 26.5t67 -26.5t26 -67.5v-62h63q41 0 67 -26.5t26 -66.5zM548 364q0 34 -21 55t-55 21h-79v79q0 34 -21.5 55.5t-55.5 21.5
t-55 -21.5t-21 -55.5v-232h232q34 0 55 21.5t21 55.5z" />
    <glyph glyph-name="uniFEFF" unicode="&#xfeff;" horiz-adv-x="0" 
 />
    <glyph glyph-name="i.latn_TRK" 
d="M393 520v-417h171v-103h-469v103h171v314h-143v103h270zM257 733h144v-132h-144v132z" />
    <glyph glyph-name="Ldot.latn_CAT" 
d="M106 709h129v-587h344v-122h-473v709zM407 461h148v-152h-148v152z" />
    <glyph glyph-name="ldot.latn_CAT" 
d="M86 103h166v527h-141v103h267v-630h169v-103h-461v103zM548 461h148v-152h-148v152z" />
    <glyph glyph-name="a.sups" 
d="M498 329q-8 -4 -21 -7.5t-30 -3.5q-34 0 -51.5 17t-19.5 37q-15 -24 -45 -41t-75 -17q-59 0 -96.5 30.5t-37.5 85.5q0 53 36 83t97 35l108 8v16q0 28 -15 44t-51 16q-35 0 -51.5 -14.5t-18.5 -38.5h-93q5 61 50.5 92.5t115.5 31.5q23 0 45.5 -4t41.5 -12.5t33.5 -23
t23.5 -35.5q8 -18 9.5 -37t1.5 -38v-136q0 -16 8 -20.5t19 -4.5q8 0 10.5 1t5.5 1v-65zM272 479q-26 -2 -41.5 -13t-15.5 -34q0 -20 14 -32.5t46 -12.5q41 0 64.5 21.5t23.5 63.5v15z" />
    <glyph glyph-name="b.sups" 
d="M493 508q0 -37 -10.5 -72t-31 -62t-52 -43.5t-73.5 -16.5q-36 0 -66 14t-45 40l-6 -44h-83v520h96v-186q12 17 36.5 31t66.5 14t73.5 -15t52.5 -41.5t31.5 -62t10.5 -76.5zM307 392q24 0 41 10t27.5 26.5t15.5 37.5t5 43q0 21 -4.5 41.5t-15 37.5t-27.5 27.5t-42 10.5
t-42.5 -10.5t-28 -27t-15 -37.5t-4.5 -42q0 -23 5 -44t15.5 -37t28 -26t41.5 -10z" />
    <glyph glyph-name="c.sups" 
d="M486 453q-2 -46 -30 -81q-21 -24 -54.5 -41t-82.5 -17q-41 0 -75 13.5t-58.5 39t-38.5 61.5t-14 81q0 41 12.5 76.5t36.5 61.5t58.5 41t78.5 15q51 0 83.5 -17t53.5 -41q28 -35 30 -81h-93q-5 58 -74 58q-39 0 -64.5 -30.5t-25.5 -82.5q0 -33 8.5 -55t21.5 -35t29 -18.5
t31 -5.5q31 0 50 13.5t24 44.5h93z" />
    <glyph glyph-name="d.sups" 
d="M127 510q0 40 11.5 75.5t33 61.5t52.5 41t71 15q42 0 67.5 -14t35.5 -31v186h94v-520h-81l-6 44q-17 -26 -45.5 -40t-66.5 -14q-42 0 -73 15.5t-51.5 42.5t-31 62.5t-10.5 75.5zM313 389q25 0 42.5 11t28 28t15 38t4.5 42q0 20 -4.5 41.5t-14.5 39t-27 28.5t-42 11
q-44 0 -68 -34t-24 -85q0 -21 4.5 -42.5t15 -38.5t27.5 -28t43 -11z" />
    <glyph glyph-name="e.sups" 
d="M490 519q0 -17 -1.5 -26.5t-1.5 -11.5h-260q0 -18 5.5 -34.5t16.5 -29t27 -20.5t37 -8q67 0 76 47h92q-9 -57 -53 -89.5t-115 -32.5q-42 0 -76 14t-58 39.5t-36.5 61t-12.5 79.5q0 45 13.5 82.5t42.5 65.5q22 20 53.5 33.5t72.5 13.5q44 0 82.5 -16t62.5 -50
q20 -29 26.5 -58t6.5 -60zM393 551q0 32 -20 55.5t-61 23.5q-35 0 -58.5 -21.5t-26.5 -57.5h166z" />
    <glyph glyph-name="f.sups" 
d="M478 693v-74h-136v-295h-96v295h-106v74h106v25q0 60 38 97.5t105 37.5q32 0 55.5 -7t34.5 -12v-82q-9 5 -29.5 12t-46.5 7q-28 0 -44.5 -13.5t-16.5 -44.5v-20h136z" />
    <glyph glyph-name="g.sups" 
d="M143 560q0 31 12.5 56t34.5 42.5t51 27t61 9.5q25 0 49.5 -6t43.5 -17q11 25 32 37t47 12q9 0 15 -1t11 -2v-70q-3 0 -7 0.5t-9 0.5q-15 0 -26 -6t-15 -17q20 -31 20 -67q0 -32 -13.5 -57t-36 -42t-51 -26t-59.5 -9q-34 0 -63 10q-7 -4 -12 -9.5t-5 -14.5q0 -16 12.5 -20
t24.5 -4h70q29 0 61.5 -4t59.5 -22q26 -17 36 -41t10 -47q0 -35 -16.5 -59t-44 -38t-62 -20t-70.5 -6q-31 0 -63.5 4.5t-59.5 16t-44 31.5t-17 51q0 30 17.5 49t40.5 30q-19 9 -29 26t-10 35q0 21 13 40t36 30q-20 17 -32.5 41.5t-12.5 55.5zM407 273q0 15 -8 23.5t-20 12.5
t-26.5 5t-27.5 1h-85q-35 -11 -35 -43q0 -16 10 -25.5t25.5 -15t34 -7t35.5 -1.5q12 0 28.5 1t31.5 6t26 15t11 28zM372 560q0 31 -19 50t-49 19q-31 0 -50 -19t-19 -50q0 -32 19.5 -50.5t49.5 -18.5q29 0 48.5 18.5t19.5 50.5z" />
    <glyph glyph-name="h.sups" 
d="M387 546q0 32 -16.5 52t-54.5 20q-24 0 -42 -13.5t-27 -33.5t-10.5 -45.5t-1.5 -48.5v-153h-96v520h96v-189q19 24 48.5 36t61.5 12q64 0 100 -38.5t36 -95.5v-245h-94v222z" />
    <glyph glyph-name="i.sups" 
d="M357 693v-295h124v-74h-343v74h125v221h-104v74h198zM258 844h103v-93h-103v93z" />
    <glyph glyph-name="j.sups" 
d="M428 693v-392q0 -29 -8.5 -54t-26 -43.5t-44.5 -29t-65 -10.5q-37 0 -61.5 6t-35.5 11v79q11 -4 32 -9t50 -5t47 14t18 52v307h-143v74h237zM328 844h105v-93h-105v93z" />
    <glyph glyph-name="k.sups" 
d="M221 421v-97h-94v520h94v-300l147 149h121l-147 -149l150 -220h-111l-104 154z" />
    <glyph glyph-name="l.sups" 
d="M139 398h126v372h-105v74h199v-446h122v-74h-342v74z" />
    <glyph glyph-name="m.sups" 
d="M263 588q0 12 -8 22.5t-25 10.5q-22 0 -32 -16.5t-10 -33.5v-247h-94v369h73l8 -42q5 20 26.5 36t51.5 16q38 0 57.5 -19t22.5 -39q7 20 31.5 39t64.5 19q43 0 70 -28t27 -78v-273h-94v264q0 12 -8.5 22.5t-25.5 10.5q-22 0 -31.5 -16.5t-9.5 -33.5v-247h-94v264z" />
    <glyph glyph-name="o.sups" 
d="M310 394q42 0 69 29t27 86q0 56 -27 85t-69 29t-69 -29t-27 -85q0 -57 27 -86t69 -29zM310 314q-40 0 -75 13.5t-61 38.5t-41 61t-15 82q0 45 15 81t41 61t61 38.5t75 13.5t75 -13.5t61 -38.5t41 -61t15 -81q0 -46 -15 -82t-41 -61t-61 -38.5t-75 -13.5z" />
    <glyph glyph-name="p.sups" 
d="M493 509q0 -41 -10.5 -76.5t-32 -61.5t-53 -41.5t-73.5 -15.5q-38 0 -64 12t-40 34v-189h-94v522h82l5 -44q18 26 49 40t66 14q42 0 73 -16.5t51.5 -43.5t30.5 -62t10 -72zM306 626q-26 0 -43 -10.5t-27 -27t-14.5 -38t-4.5 -42.5q0 -20 4 -40.5t14 -37.5t27.5 -27.5
t43.5 -10.5t43.5 10.5t28 27.5t14.5 37.5t4 40.5q0 21 -4.5 42.5t-15 38t-28 27t-42.5 10.5z" />
    <glyph glyph-name="q.sups" 
d="M127 507q0 43 12 79t34 62t54 40.5t71 14.5t66.5 -16.5t39.5 -39.5l6 46h82v-522h-94v190q-12 -19 -40.5 -33t-68.5 -14q-39 0 -69 14.5t-51 40.5t-31.5 61t-10.5 77zM314 628q-23 0 -40.5 -10t-28.5 -26.5t-16.5 -38t-5.5 -45.5q0 -20 4 -41t14.5 -38.5t27.5 -28.5
t43 -11q24 0 41 9.5t28 26t16.5 38t5.5 46.5q0 24 -5 45.5t-16 38t-28 26t-40 9.5z" />
    <glyph glyph-name="r.sups" 
d="M379 553q0 31 -15.5 50.5t-46.5 19.5q-34 0 -56.5 -25t-22.5 -73v-201h-94v369h84l7 -48q12 25 39 41t68 16q66 0 99.5 -40.5t33.5 -101.5v-7h-96z" />
    <glyph glyph-name="s.sups" 
d="M484 438q0 -29 -13 -52t-36.5 -39t-55.5 -24.5t-70 -8.5q-35 0 -66.5 7.5t-55 23.5t-37.5 40.5t-14 57.5h94q1 -30 25.5 -44t58.5 -14q35 0 55 10.5t20 32.5q0 33 -46 39l-86 12q-57 8 -83 38t-26 67q0 25 11.5 46.5t33 37.5t52 25.5t68.5 9.5q39 0 69 -9.5t51 -26
t31.5 -37.5t10.5 -44h-94q-2 23 -20.5 34t-49.5 11t-50 -10t-19 -29q0 -17 13 -25t30 -10l87 -12q49 -7 80.5 -33.5t31.5 -73.5z" />
    <glyph glyph-name="t.sups" 
d="M482 339q-13 -8 -40 -14.5t-64 -6.5q-73 0 -105.5 36.5t-32.5 93.5v171h-103v74h103v94l94 25v-119h146v-74h-146v-157q0 -32 16 -46t44 -14q30 0 53.5 6t34.5 10v-79z" />
    <glyph glyph-name="u.sups" 
d="M393 373q-14 -28 -44 -43t-69 -15q-28 0 -53.5 9.5t-44.5 27.5t-30.5 43.5t-11.5 57.5v240h95v-218q0 -32 17.5 -54.5t54.5 -22.5q21 0 36 8t24 20.5t13.5 29t4.5 34.5v203h95v-369h-80z" />
    <glyph glyph-name="v.sups" 
d="M256 324l-151 369h101l107 -274l100 274h101l-148 -369h-110z" />
    <glyph glyph-name="w.sups" 
d="M145 324l-59 369h90l33 -282l47 216h107l45 -214l34 280h91l-61 -369h-113l-50 216l-49 -216h-115z" />
    <glyph glyph-name="x.sups" 
d="M512 324h-111l-94 124l-92 -124h-108l147 188l-145 181h113l91 -119l90 119h107l-143 -182z" />
    <glyph glyph-name="y.sups" 
d="M104 693h106l104 -250l101 250h100l-184 -440q-20 -48 -52.5 -69.5t-83.5 -21.5q-25 0 -42.5 5t-31.5 12v80q9 -5 25.5 -10t35.5 -5q28 0 45 12t28 39l13 33z" />
    <glyph glyph-name="z.sups" 
d="M144 402l218 215h-217v76h329v-80l-217 -213h218v-76h-331v78z" />
    <glyph glyph-name="registered.sups" 
d="M310 318q-45 0 -82.5 15t-64.5 41.5t-42 63.5t-15 81t15.5 81.5t42.5 64.5t64.5 42t81.5 15t81.5 -15t64.5 -42t42.5 -64.5t15.5 -81.5t-15 -81t-42 -63.5t-64.5 -41.5t-82.5 -15zM310 365q34 0 62 12t48 33t31 49t11 60q0 33 -11 61.5t-31 49.5t-48 33t-62 12t-62 -12
t-48 -33t-31 -49.5t-11 -61.5q0 -32 11 -60t31 -49t48 -33t62 -12zM235 625h82q33 0 55 -17.5t22 -52.5q0 -16 -9 -30.5t-28 -23.5l38 -79h-57l-27 65h-24v-65h-52v203zM317 534q9 0 17 5.5t8 17.5q0 11 -8 16t-17 5h-30v-44h30z" />
    <glyph glyph-name="zero.sc" 
d="M310 -14q-99 0 -165 57q-45 38 -66.5 97t-21.5 148q0 88 21.5 147t66.5 97q66 57 165 57t165 -57q45 -38 66.5 -97t21.5 -147q0 -89 -21.5 -148t-66.5 -97q-66 -57 -165 -57zM310 90q52 0 86 34q12 12 20.5 26t14 33.5t8.5 45t3 59.5q0 28 -2 50t-6 40l-214 -250
q1 -3 4 -4q18 -18 39 -26t47 -8zM178 288q0 -20 1 -37t3 -31l205 239q-32 26 -77 26q-26 0 -47 -8t-39 -26q-23 -23 -34.5 -59.5t-11.5 -103.5z" />
    <glyph glyph-name="one.sc" 
d="M293 109v330l-175 -110v122l195 124h100v-466h143v-109h-434v109h171z" />
    <glyph glyph-name="two.sc" 
d="M352 302q33 26 45 49.5t12 46.5q0 37 -24 63t-74 26q-48 0 -77 -29.5t-30 -89.5h-116q0 50 15.5 90.5t44.5 69.5t70.5 45t94.5 16q54 0 95 -15t68 -40.5t40.5 -59.5t13.5 -73q0 -47 -21 -87t-78 -85l-164 -127h265v-102h-437v105z" />
    <glyph glyph-name="three.sc" 
d="M318 -14q-47 0 -90.5 12t-76.5 36.5t-53 61.5t-20 87h117q0 -19 7.5 -37t22.5 -32.5t38 -23t55 -8.5q57 0 86 24.5t29 62.5q0 42 -30 61.5t-84 19.5h-70v93h70q48 0 74.5 17t26.5 54q0 42 -31.5 61.5t-75.5 19.5q-32 0 -53 -8.5t-34 -22t-19 -31t-6 -34.5h-117
q0 34 14 68t42.5 61t72 44t103.5 17q53 0 94.5 -12.5t70.5 -34t44.5 -51.5t15.5 -66q0 -51 -29 -82.5t-75 -43.5q54 -10 85.5 -47t31.5 -94q0 -39 -17 -71t-47.5 -54.5t-74 -34.5t-97.5 -12z" />
    <glyph glyph-name="four.sc" 
d="M357 126h-297v128l232 321h136l-257 -349h187v146h119v-146h97v-100h-97v-126h-120v126z" />
    <glyph glyph-name="five.sc" 
d="M316 -14q-55 0 -98 15.5t-72.5 42t-46 62t-17.5 75.5h118q2 -42 33 -70.5t81 -28.5q54 0 84 30t30 83q0 47 -29.5 77t-83.5 30q-42 0 -67 -16.5t-38 -36.5h-114l24 326h398v-99h-303l-10 -135q15 19 47 37t90 18q94 0 150 -52t56 -146q0 -47 -16 -86t-46 -67t-73 -43.5
t-97 -15.5z" />
    <glyph glyph-name="six.sc" 
d="M318 -14q-103 0 -166 58q-83 75 -83 239q0 65 15 121t46 97t79.5 64.5t116.5 23.5q54 0 94 -14t66.5 -37t40 -52.5t14.5 -59.5h-115q0 12 -6 25t-18 23t-31.5 16.5t-46.5 6.5q-66 0 -100.5 -50t-34.5 -139q17 35 55 58t97 23q47 0 85.5 -13.5t66 -38.5t42.5 -61t15 -81
q0 -47 -16.5 -85.5t-46.5 -66t-73 -42.5t-96 -15zM317 81q28 0 49 9t35.5 24t22 35t7.5 42q0 21 -7.5 40.5t-22 34.5t-36 24t-49.5 9q-53 0 -84.5 -29.5t-31.5 -77.5q0 -46 30.5 -78.5t86.5 -32.5z" />
    <glyph glyph-name="seven.sc" 
d="M416 475h-339v100h466v-102l-253 -473h-131z" />
    <glyph glyph-name="eight.sc" 
d="M310 -14q-47 0 -90.5 10t-77 30.5t-53.5 52.5t-20 76q0 29 9 53t25 42t36.5 30t43.5 18q-43 13 -71.5 46t-28.5 83q0 34 14.5 63.5t43.5 51.5t71 34.5t98 12.5q55 0 97.5 -12.5t71 -34.5t43 -51.5t14.5 -63.5q0 -50 -28.5 -83t-71.5 -46q23 -6 43.5 -18t36.5 -30t25 -42
t9 -53q0 -44 -20 -76t-53 -52.5t-76.5 -30.5t-90.5 -10zM310 79q54 0 87.5 21.5t33.5 67.5q0 41 -31 65t-90 24q-60 0 -91 -24t-31 -65q0 -46 33.5 -67.5t88.5 -21.5zM310 340q49 0 77.5 20.5t28.5 58.5t-28 58t-78 20q-51 0 -79 -20t-28 -58t28.5 -58.5t78.5 -20.5z" />
    <glyph glyph-name="nine.sc" 
d="M300 -14q-56 0 -97 16t-68 40.5t-40.5 55.5t-14.5 61h115q1 -15 7 -30t19 -26.5t32.5 -18.5t46.5 -7q69 0 99.5 49t30.5 143q-5 -15 -16.5 -29t-29.5 -25t-42 -18t-54 -7q-47 0 -86.5 14t-67.5 39.5t-43.5 61t-15.5 79.5t16 81.5t45 65t71 43t95 15.5q118 0 183 -73.5
t65 -219.5q0 -63 -13 -119.5t-43 -99t-77.5 -67t-116.5 -24.5zM306 279q51 0 81.5 29t30.5 77q0 46 -29.5 77t-83.5 31t-82.5 -31t-28.5 -76t28.5 -76t83.5 -31z" />
    <glyph glyph-name="a.sc" 
d="M428 127h-236l-44 -127h-128l214 575h152l214 -575h-128zM227 228h166l-83 242z" />
    <glyph glyph-name="b.sc" 
d="M565 170q0 -40 -15 -75.5t-53 -60.5t-77.5 -29.5t-81.5 -4.5h-248v576h240q35 0 70.5 -4t69.5 -21q40 -20 61 -57.5t21 -77.5q0 -17 -4.5 -34.5t-13.5 -34t-23 -30t-33 -21.5q42 -20 64.5 -54t22.5 -72zM426 410q0 20 -7.5 33t-20 20.5t-29 10.5t-34.5 3h-121v-132h124
q17 0 33 3t28 10.5t19.5 20t7.5 31.5zM439 172q0 23 -7.5 38t-21 23.5t-32 12t-39.5 3.5h-125v-146h121q18 0 36.5 3t33.5 11t24.5 21t9.5 34z" />
    <glyph glyph-name="c.sc" 
d="M565 195q-5 -45 -22.5 -83.5t-47.5 -66t-71 -43.5t-93 -16q-54 0 -94.5 11.5t-78.5 45.5q-52 47 -72.5 110t-20.5 135q0 67 19.5 127.5t70.5 108.5q38 35 81 48.5t96 13.5q46 0 86 -13.5t71 -39.5t50.5 -63.5t25.5 -85.5h-127q-4 43 -29.5 68t-76.5 25q-42 0 -69.5 -15
t-43 -40.5t-21.5 -60t-6 -73.5q0 -41 5.5 -76t21 -61t42.5 -41t70 -15q54 0 77.5 27t29.5 73h127z" />
    <glyph glyph-name="d.sc" 
d="M308 575q134 0 202 -77q63 -74 63 -211q0 -138 -62 -209q-66 -78 -203 -78h-218v575h218zM215 103h78q85 0 122 51q18 24 26 57.5t8 75.5q0 49 -10 85t-33 59q-37 40 -113 40h-78v-368z" />
    <glyph glyph-name="e.sc" 
d="M105 575h435v-105h-310v-120h271v-102h-271v-144h310v-104h-435v575z" />
    <glyph glyph-name="f.sc" 
d="M230 328h286v-103h-286v-225h-125v575h435v-105h-310v-142z" />
    <glyph glyph-name="g.sc" 
d="M464 64q-5 -11 -17.5 -24.5t-32 -25.5t-45.5 -20t-59 -8q-54 0 -93.5 14t-69.5 40q-47 39 -69.5 102.5t-22.5 143.5q0 67 20 126t58 100q71 74 195 74q44 0 83.5 -12.5t70.5 -36.5t51 -59.5t26 -81.5h-126q-8 43 -37.5 62t-72.5 19q-68 0 -103 -46q-20 -27 -29 -65
t-9 -80q0 -47 9 -86.5t32 -65.5q16 -19 39 -29t58 -10q50 0 81 29.5t35 80.5h-126v93h250v-298h-82z" />
    <glyph glyph-name="h.sc" 
d="M416 245h-211v-245h-125v575h125v-220h211v220h124v-575h-124v245z" />
    <glyph glyph-name="i.sc" 
d="M110 107h136v361h-136v107h400v-107h-138v-361h138v-107h-400v107z" />
    <glyph glyph-name="j.sc" 
d="M515 200q0 -47 -17 -86t-47.5 -67.5t-73 -44.5t-92.5 -16q-51 0 -92 16t-70.5 45.5t-45.5 70t-16 89.5h127q0 -45 26 -76.5t74 -31.5q44 0 70.5 26t26.5 80v370h130v-375z" />
    <glyph glyph-name="k.sc" 
d="M378 337l217 -337h-152l-153 242l-75 -82v-160h-125v575h125v-252l226 252h157z" />
    <glyph glyph-name="l.sc" 
d="M110 575h125v-465h310v-110h-435v575z" />
    <glyph glyph-name="m.sc" 
d="M439 454l-79 -306h-101l-78 311v-459h-116v575h177l72 -300l73 300h168v-575h-116v454z" />
    <glyph glyph-name="n.sc" 
d="M203 385v-385h-123v575h152l185 -360v360h123v-575h-136z" />
    <glyph glyph-name="o.sc" 
d="M171 286q0 -52 10.5 -88.5t33.5 -63.5q34 -40 95 -40t95 40q23 27 33.5 63.5t10.5 88.5t-10.5 88.5t-33.5 63.5q-34 40 -95 40t-95 -40q-23 -27 -33.5 -63.5t-10.5 -88.5zM45 286q0 32 4.5 65t15 64t28.5 59.5t45 51.5q39 33 81 46.5t91 13.5t91 -13.5t81 -46.5
q27 -23 45 -51.5t28.5 -59.5t15 -64t4.5 -65t-4.5 -65t-15 -64t-28.5 -59.5t-45 -51.5q-39 -33 -81 -46.5t-91 -13.5t-91 13.5t-81 46.5q-27 23 -45 51.5t-28.5 59.5t-15 64t-4.5 65z" />
    <glyph glyph-name="p.sc" 
d="M555 397q0 -38 -12.5 -70.5t-38 -56.5t-65.5 -38t-95 -14h-131v-218h-123v575h254q55 0 95 -14t65.5 -38t38 -56.5t12.5 -69.5zM429 396q0 35 -20.5 56.5t-75.5 21.5h-120v-155h120q55 0 75.5 21t20.5 56z" />
    <glyph glyph-name="q.sc" 
d="M45 286q0 32 4.5 65t15 64t28.5 59.5t45 51.5q39 33 81 46.5t91 13.5t91 -13.5t81 -46.5q27 -23 45 -51.5t28.5 -59.5t15 -64t4.5 -65q0 -59 -16 -119t-61 -106l56 -66l-70 -55l-59 69q-50 -23 -115 -23q-49 0 -91 13.5t-81 46.5q-27 23 -45 51.5t-28.5 59.5t-15 64
t-4.5 65zM355 233l65 -78q29 48 29 131q0 52 -10.5 88.5t-33.5 63.5q-34 40 -95 40t-95 -40q-23 -27 -33.5 -63.5t-10.5 -88.5t10.5 -88.5t33.5 -63.5q34 -40 95 -40q11 0 20.5 1t18.5 4l-66 77z" />
    <glyph glyph-name="r.sc" 
d="M311 210h-95v-210h-126v575h247q98 0 155.5 -47.5t57.5 -134.5q0 -122 -116 -164l116 -229h-136zM425 393q0 35 -24 58t-69 23h-117v-161h119q46 0 68.5 23t22.5 57z" />
    <glyph glyph-name="s.sc" 
d="M555 175q0 -50 -21.5 -85t-56 -57.5t-78.5 -33t-90 -10.5q-47 0 -93.5 13t-86.5 47q-27 23 -45.5 57t-18.5 76h126q1 -24 11.5 -41.5t27 -29t37.5 -17t44 -5.5q19 0 40 3.5t39 12t29.5 24t11.5 39.5q0 15 -6.5 25t-16.5 17t-21.5 10.5t-21.5 5.5l-131 22q-32 5 -60 17
t-49 31t-33 46t-12 63q0 43 19.5 76.5t51.5 57t74 35.5t87 12q42 0 83 -10.5t73.5 -32.5t53.5 -55.5t24 -79.5h-127q0 20 -9.5 35t-24.5 24.5t-34 14.5t-39 5q-53 0 -80.5 -19t-27.5 -54q0 -46 60 -56l119 -20q33 -6 64 -18t55 -32t38.5 -48t14.5 -65z" />
    <glyph glyph-name="t.sc" 
d="M372 0h-124v467h-193v108h510v-108h-193v-467z" />
    <glyph glyph-name="u.sc" 
d="M545 220q0 -51 -14.5 -93.5t-44 -74t-73.5 -49t-103 -17.5t-103.5 17.5t-73.5 49t-43.5 74t-14.5 93.5v355h124v-353q0 -59 25 -93t86 -34q58 0 84.5 34t26.5 93v353h124v-355z" />
    <glyph glyph-name="v.sc" 
d="M241 0l-201 575h132l141 -433l142 433h125l-200 -575h-139z" />
    <glyph glyph-name="w.sc" 
d="M595 575l-81 -575h-120l-84 294l-84 -294h-120l-81 575h112l50 -409l73 255h110l63 -254l50 408h112z" />
    <glyph glyph-name="x.sc" 
d="M308 205l-130 -205h-133l191 293l-190 282h135l130 -196l126 196h135l-187 -283l190 -292h-136z" />
    <glyph glyph-name="y.sc" 
d="M371 0h-125v216l-211 359h134l143 -245l145 245h128l-214 -359v-216z" />
    <glyph glyph-name="z.sc" 
d="M70 113l337 357h-331v105h469v-114l-331 -357h336v-104h-480v113z" />
    <glyph glyph-name="agrave.sc" 
d="M428 127h-236l-44 -127h-128l214 575h152l214 -575h-128zM227 228h166l-83 242zM136 734l63 96l185 -139l-47 -69z" />
    <glyph glyph-name="aacute.sc" 
d="M428 127h-236l-44 -127h-128l214 575h152l214 -575h-128zM227 228h166l-83 242zM404 829l63 -96l-201 -112l-47 69z" />
    <glyph glyph-name="acircumflex.sc" 
d="M428 127h-236l-44 -127h-128l214 575h152l214 -575h-128zM227 228h166l-83 242zM311 719l-109 -104l-62 64l129 122h83l128 -122l-59 -64z" />
    <glyph glyph-name="atilde.sc" 
d="M428 127h-236l-44 -127h-128l214 575h152l214 -575h-128zM227 228h166l-83 242zM476 746q0 -26 -8.5 -46t-22.5 -33t-32.5 -19.5t-38.5 -6.5q-24 0 -42 8.5t-32 18.5t-25.5 18.5t-22.5 8.5q-9 0 -15.5 -6t-6.5 -22v-21h-86v33q0 53 31.5 80.5t73.5 27.5q26 0 44 -8.5
t31 -18t23 -18t21 -8.5q22 0 22 25v24h86v-37z" />
    <glyph glyph-name="adieresis.sc" 
d="M428 127h-236l-44 -127h-128l214 575h152l214 -575h-128zM227 228h166l-83 242zM353 764h115v-117h-115v117zM151 764h115v-117h-115v117z" />
    <glyph glyph-name="aring.sc" 
d="M441 622q0 -27 -10.5 -50.5t-28.5 -40.5l198 -531h-128l-44 127h-236l-44 -127h-128l198 532q-17 17 -27 40.5t-10 49.5q0 27 10.5 50t28 40t41 27t50.5 10t50.5 -10t41 -27t28 -40t10.5 -50zM227 228h166l-83 242zM264 622q0 -23 14 -35t33 -12t33 12t14 35t-14 35
t-33 12t-33 -12t-14 -35z" />
    <glyph glyph-name="ae.sc" 
d="M324 132h-138l-42 -132h-124l201 575h374v-105h-154v-120h115v-102h-115v-144h154v-104h-271v132zM324 233v237h-28l-77 -237h105z" />
    <glyph glyph-name="ccedilla.sc" 
d="M259 -123q0 -12 13 -25.5t41 -13.5q24 0 36.5 11t12.5 27q0 17 -14.5 29t-42.5 12q-17 0 -33 -4v77q-32 5 -60 17t-54 36q-52 47 -72.5 110t-20.5 135q0 67 19.5 127.5t70.5 108.5q38 35 81 48.5t96 13.5q46 0 86 -13.5t71 -39.5t50.5 -63.5t25.5 -85.5h-127
q-4 43 -29.5 68t-76.5 25q-42 0 -69.5 -15t-43 -40.5t-21.5 -60t-6 -73.5q0 -41 5.5 -76t21 -61t42.5 -41t70 -15q54 0 77.5 27t29.5 73h127q-8 -83 -60 -140t-141 -67v-20q16 -2 32 -9t29 -19t20.5 -29t7.5 -38q0 -26 -11 -46t-29.5 -34t-44 -21.5t-55.5 -7.5
q-27 0 -52.5 7.5t-45 22t-31.5 35.5t-13 48h88z" />
    <glyph glyph-name="egrave.sc" 
d="M105 575h435v-105h-310v-120h271v-102h-271v-144h310v-104h-435v575zM185 734l63 96l185 -139l-47 -69z" />
    <glyph glyph-name="eacute.sc" 
d="M423 829l63 -96l-201 -112l-47 69zM105 575h435v-105h-310v-120h271v-102h-271v-144h310v-104h-435v575z" />
    <glyph glyph-name="ecircumflex.sc" 
d="M105 575h435v-105h-310v-120h271v-102h-271v-144h310v-104h-435v575zM338 719l-109 -104l-62 64l129 122h83l128 -122l-59 -64z" />
    <glyph glyph-name="edieresis.sc" 
d="M105 575h435v-105h-310v-120h271v-102h-271v-144h310v-104h-435v575zM371 764h115v-117h-115v117zM169 764h115v-117h-115v117z" />
    <glyph glyph-name="igrave.sc" 
d="M110 107h136v361h-136v107h400v-107h-138v-361h138v-107h-400v107zM177 734l63 96l185 -139l-47 -69z" />
    <glyph glyph-name="iacute.sc" 
d="M110 107h136v361h-136v107h400v-107h-138v-361h138v-107h-400v107zM382 829l63 -96l-201 -112l-47 69z" />
    <glyph glyph-name="icircumflex.sc" 
d="M110 107h136v361h-136v107h400v-107h-138v-361h138v-107h-400v107zM312 719l-109 -104l-62 64l129 122h83l128 -122l-59 -64z" />
    <glyph glyph-name="idieresis.sc" 
d="M110 107h136v361h-136v107h400v-107h-138v-361h138v-107h-400v107zM353 764h115v-117h-115v117zM151 764h115v-117h-115v117z" />
    <glyph glyph-name="eth.sc" 
d="M23 332h67v243h218q134 0 202 -77q63 -74 63 -211q0 -138 -62 -209q-66 -78 -203 -78h-218v249h-67v83zM215 332h101v-83h-101v-146h78q85 0 122 51q18 24 26 57.5t8 75.5q0 100 -42 145q-39 39 -114 39h-78v-139z" />
    <glyph glyph-name="ntilde.sc" 
d="M203 385v-385h-123v575h152l185 -360v360h123v-575h-136zM485 746q0 -26 -8.5 -46t-22.5 -33t-32.5 -19.5t-38.5 -6.5q-24 0 -42 8.5t-32 18.5t-25.5 18.5t-22.5 8.5q-9 0 -15.5 -6t-6.5 -22v-21h-86v33q0 53 31.5 80.5t73.5 27.5q26 0 44 -8.5t31 -18t23 -18t21 -8.5
q22 0 22 25v24h86v-37z" />
    <glyph glyph-name="ograve.sc" 
d="M171 286q0 -52 10.5 -88.5t33.5 -63.5q34 -40 95 -40t95 40q23 27 33.5 63.5t10.5 88.5t-10.5 88.5t-33.5 63.5q-34 40 -95 40t-95 -40q-23 -27 -33.5 -63.5t-10.5 -88.5zM45 286q0 32 4.5 65t15 64t28.5 59.5t45 51.5q39 33 81 46.5t91 13.5t91 -13.5t81 -46.5
q27 -23 45 -51.5t28.5 -59.5t15 -64t4.5 -65t-4.5 -65t-15 -64t-28.5 -59.5t-45 -51.5q-39 -33 -81 -46.5t-91 -13.5t-91 13.5t-81 46.5q-27 23 -45 51.5t-28.5 59.5t-15 64t-4.5 65zM163 734l63 96l185 -139l-47 -69z" />
    <glyph glyph-name="oacute.sc" 
d="M171 286q0 -52 10.5 -88.5t33.5 -63.5q34 -40 95 -40t95 40q23 27 33.5 63.5t10.5 88.5t-10.5 88.5t-33.5 63.5q-34 40 -95 40t-95 -40q-23 -27 -33.5 -63.5t-10.5 -88.5zM45 286q0 32 4.5 65t15 64t28.5 59.5t45 51.5q39 33 81 46.5t91 13.5t91 -13.5t81 -46.5
q27 -23 45 -51.5t28.5 -59.5t15 -64t4.5 -65t-4.5 -65t-15 -64t-28.5 -59.5t-45 -51.5q-39 -33 -81 -46.5t-91 -13.5t-91 13.5t-81 46.5q-27 23 -45 51.5t-28.5 59.5t-15 64t-4.5 65zM399 829l63 -96l-201 -112l-47 69z" />
    <glyph glyph-name="ocircumflex.sc" 
d="M171 286q0 -52 10.5 -88.5t33.5 -63.5q34 -40 95 -40t95 40q23 27 33.5 63.5t10.5 88.5t-10.5 88.5t-33.5 63.5q-34 40 -95 40t-95 -40q-23 -27 -33.5 -63.5t-10.5 -88.5zM45 286q0 32 4.5 65t15 64t28.5 59.5t45 51.5q39 33 81 46.5t91 13.5t91 -13.5t81 -46.5
q27 -23 45 -51.5t28.5 -59.5t15 -64t4.5 -65t-4.5 -65t-15 -64t-28.5 -59.5t-45 -51.5q-39 -33 -81 -46.5t-91 -13.5t-91 13.5t-81 46.5q-27 23 -45 51.5t-28.5 59.5t-15 64t-4.5 65zM312 719l-109 -104l-62 64l129 122h83l128 -122l-59 -64z" />
    <glyph glyph-name="otilde.sc" 
d="M171 286q0 -52 10.5 -88.5t33.5 -63.5q34 -40 95 -40t95 40q23 27 33.5 63.5t10.5 88.5t-10.5 88.5t-33.5 63.5q-34 40 -95 40t-95 -40q-23 -27 -33.5 -63.5t-10.5 -88.5zM45 286q0 32 4.5 65t15 64t28.5 59.5t45 51.5q39 33 81 46.5t91 13.5t91 -13.5t81 -46.5
q27 -23 45 -51.5t28.5 -59.5t15 -64t4.5 -65t-4.5 -65t-15 -64t-28.5 -59.5t-45 -51.5q-39 -33 -81 -46.5t-91 -13.5t-91 13.5t-81 46.5q-27 23 -45 51.5t-28.5 59.5t-15 64t-4.5 65zM480 746q0 -26 -8.5 -46t-22.5 -33t-32.5 -19.5t-38.5 -6.5q-24 0 -42 8.5t-32 18.5
t-25.5 18.5t-22.5 8.5q-9 0 -15.5 -6t-6.5 -22v-21h-86v33q0 53 31.5 80.5t73.5 27.5q26 0 44 -8.5t31 -18t23 -18t21 -8.5q22 0 22 25v24h86v-37z" />
    <glyph glyph-name="odieresis.sc" 
d="M171 286q0 -52 10.5 -88.5t33.5 -63.5q34 -40 95 -40t95 40q23 27 33.5 63.5t10.5 88.5t-10.5 88.5t-33.5 63.5q-34 40 -95 40t-95 -40q-23 -27 -33.5 -63.5t-10.5 -88.5zM45 286q0 32 4.5 65t15 64t28.5 59.5t45 51.5q39 33 81 46.5t91 13.5t91 -13.5t81 -46.5
q27 -23 45 -51.5t28.5 -59.5t15 -64t4.5 -65t-4.5 -65t-15 -64t-28.5 -59.5t-45 -51.5q-39 -33 -81 -46.5t-91 -13.5t-91 13.5t-81 46.5q-27 23 -45 51.5t-28.5 59.5t-15 64t-4.5 65zM355 764h115v-117h-115v117zM153 764h115v-117h-115v117z" />
    <glyph glyph-name="oslash.sc" 
d="M45 286q0 64 20 127.5t73 110.5q38 33 80.5 47.5t91.5 14.5q43 0 81 -11t73 -37l53 73l49 -34l-58 -80q38 -45 52.5 -100.5t14.5 -110.5q0 -32 -4.5 -64.5t-15.5 -63t-28.5 -59t-44.5 -51.5q-38 -33 -80.5 -47.5t-91.5 -14.5q-41 0 -76.5 9.5t-68.5 31.5l-48 -67l-51 36
l52 71q-42 45 -57.5 103t-15.5 116zM171 286q0 -32 5.5 -61.5t16.5 -54.5l203 275q-17 16 -38 24.5t-48 8.5q-59 0 -94 -41q-23 -27 -34 -66.5t-11 -84.5zM449 286q0 58 -18 105l-199 -272q31 -25 78 -25q31 0 54 10.5t40 30.5q23 27 34 66.5t11 84.5z" />
    <glyph glyph-name="ugrave.sc" 
d="M545 220q0 -51 -14.5 -93.5t-44 -74t-73.5 -49t-103 -17.5t-103.5 17.5t-73.5 49t-43.5 74t-14.5 93.5v355h124v-353q0 -59 25 -93t86 -34q58 0 84.5 34t26.5 93v353h124v-355zM149 734l63 96l185 -139l-47 -69z" />
    <glyph glyph-name="uacute.sc" 
d="M545 220q0 -51 -14.5 -93.5t-44 -74t-73.5 -49t-103 -17.5t-103.5 17.5t-73.5 49t-43.5 74t-14.5 93.5v355h124v-353q0 -59 25 -93t86 -34q58 0 84.5 34t26.5 93v353h124v-355zM398 829l63 -96l-201 -112l-47 69z" />
    <glyph glyph-name="ucircumflex.sc" 
d="M545 220q0 -51 -14.5 -93.5t-44 -74t-73.5 -49t-103 -17.5t-103.5 17.5t-73.5 49t-43.5 74t-14.5 93.5v355h124v-353q0 -59 25 -93t86 -34q58 0 84.5 34t26.5 93v353h124v-355zM312 719l-109 -104l-62 64l129 122h83l128 -122l-59 -64z" />
    <glyph glyph-name="udieresis.sc" 
d="M545 220q0 -51 -14.5 -93.5t-44 -74t-73.5 -49t-103 -17.5t-103.5 17.5t-73.5 49t-43.5 74t-14.5 93.5v355h124v-353q0 -59 25 -93t86 -34q58 0 84.5 34t26.5 93v353h124v-355zM353 764h115v-117h-115v117zM151 764h115v-117h-115v117z" />
    <glyph glyph-name="yacute.sc" 
d="M371 0h-125v216l-211 359h134l143 -245l145 245h128l-214 -359v-216zM426 829l63 -96l-201 -112l-47 69z" />
    <glyph glyph-name="thorn.sc" 
d="M555 292q0 -42 -14.5 -77.5t-44 -61t-74 -39.5t-105.5 -14h-109v-100h-125v575h125v-97h109q61 0 106 -14t74 -39t43.5 -59t14.5 -74zM426 291q0 77 -113 77h-105v-159h105q59 0 86 18t27 64z" />
    <glyph glyph-name="ydieresis.sc" 
d="M371 0h-125v216l-211 359h134l143 -245l145 245h128l-214 -359v-216zM356 764h115v-117h-115v117zM154 764h115v-117h-115v117z" />
    <glyph glyph-name="amacron.sc" 
d="M428 127h-236l-44 -127h-128l214 575h152l214 -575h-128zM227 228h166l-83 242zM160 763h300v-97h-300v97z" />
    <glyph glyph-name="abreve.sc" 
d="M428 127h-236l-44 -127h-128l214 575h152l214 -575h-128zM227 228h166l-83 242zM310 626q-35 0 -64 11.5t-49.5 32t-32.5 48.5t-12 60h92q3 -67 66 -67t66 67h92q0 -32 -12 -60t-32.5 -48.5t-49.5 -32t-64 -11.5z" />
    <glyph glyph-name="aogonek.sc" 
d="M428 127h-236l-44 -127h-128l214 575h152l214 -575q-17 -8 -34 -19t-30 -23.5t-21 -27.5t-8 -32q0 -21 14 -34t39 -13q11 0 21 1t19 3v-81q-10 -4 -23.5 -7t-34.5 -3q-27 0 -51.5 6.5t-43 20.5t-30 35.5t-11.5 50.5q0 45 24 75t55 48h-13zM227 228h166l-83 242z" />
    <glyph glyph-name="cacute.sc" 
d="M565 195q-5 -45 -22.5 -83.5t-47.5 -66t-71 -43.5t-93 -16q-54 0 -94.5 11.5t-78.5 45.5q-52 47 -72.5 110t-20.5 135q0 67 19.5 127.5t70.5 108.5q38 35 81 48.5t96 13.5q46 0 86 -13.5t71 -39.5t50.5 -63.5t25.5 -85.5h-127q-4 43 -29.5 68t-76.5 25q-42 0 -69.5 -15
t-43 -40.5t-21.5 -60t-6 -73.5q0 -41 5.5 -76t21 -61t42.5 -41t70 -15q54 0 77.5 27t29.5 73h127zM433 829l63 -96l-201 -112l-47 69z" />
    <glyph glyph-name="ccircumflex.sc" 
d="M565 195q-5 -45 -22.5 -83.5t-47.5 -66t-71 -43.5t-93 -16q-54 0 -94.5 11.5t-78.5 45.5q-52 47 -72.5 110t-20.5 135q0 67 19.5 127.5t70.5 108.5q38 35 81 48.5t96 13.5q46 0 86 -13.5t71 -39.5t50.5 -63.5t25.5 -85.5h-127q-4 43 -29.5 68t-76.5 25q-42 0 -69.5 -15
t-43 -40.5t-21.5 -60t-6 -73.5q0 -41 5.5 -76t21 -61t42.5 -41t70 -15q54 0 77.5 27t29.5 73h127zM327 719l-109 -104l-62 64l129 122h83l128 -122l-59 -64z" />
    <glyph glyph-name="cdotaccent.sc" 
d="M565 195q-5 -45 -22.5 -83.5t-47.5 -66t-71 -43.5t-93 -16q-54 0 -94.5 11.5t-78.5 45.5q-52 47 -72.5 110t-20.5 135q0 67 19.5 127.5t70.5 108.5q38 35 81 48.5t96 13.5q46 0 86 -13.5t71 -39.5t50.5 -63.5t25.5 -85.5h-127q-4 43 -29.5 68t-76.5 25q-42 0 -69.5 -15
t-43 -40.5t-21.5 -60t-6 -73.5q0 -41 5.5 -76t21 -61t42.5 -41t70 -15q54 0 77.5 27t29.5 73h127zM255 770h133v-129h-133v129z" />
    <glyph glyph-name="ccaron.sc" 
d="M565 195q-5 -45 -22.5 -83.5t-47.5 -66t-71 -43.5t-93 -16q-54 0 -94.5 11.5t-78.5 45.5q-52 47 -72.5 110t-20.5 135q0 67 19.5 127.5t70.5 108.5q38 35 81 48.5t96 13.5q46 0 86 -13.5t71 -39.5t50.5 -63.5t25.5 -85.5h-127q-4 43 -29.5 68t-76.5 25q-42 0 -69.5 -15
t-43 -40.5t-21.5 -60t-6 -73.5q0 -41 5.5 -76t21 -61t42.5 -41t70 -15q54 0 77.5 27t29.5 73h127zM371 626h-83l-129 122l62 64l109 -104l110 104l59 -64z" />
    <glyph glyph-name="dcaron.sc" 
d="M308 575q134 0 202 -77q63 -74 63 -211q0 -138 -62 -209q-66 -78 -203 -78h-218v575h218zM215 103h78q85 0 122 51q18 24 26 57.5t8 75.5q0 49 -10 85t-33 59q-37 40 -113 40h-78v-368zM352 626h-83l-129 122l62 64l109 -104l110 104l59 -64z" />
    <glyph glyph-name="dcroat.sc" 
d="M23 332h67v243h218q134 0 202 -77q63 -74 63 -211q0 -138 -62 -209q-66 -78 -203 -78h-218v249h-67v83zM215 332h101v-83h-101v-146h78q85 0 122 51q18 24 26 57.5t8 75.5q0 100 -42 145q-39 39 -114 39h-78v-139z" />
    <glyph glyph-name="emacron.sc" 
d="M105 575h435v-105h-310v-120h271v-102h-271v-144h310v-104h-435v575zM177 763h300v-97h-300v97z" />
    <glyph glyph-name="ebreve.sc" 
d="M105 575h435v-105h-310v-120h271v-102h-271v-144h310v-104h-435v575zM324 626q-35 0 -64 11.5t-49.5 32t-32.5 48.5t-12 60h92q3 -67 66 -67t66 67h92q0 -32 -12 -60t-32.5 -48.5t-49.5 -32t-64 -11.5z" />
    <glyph glyph-name="edotaccent.sc" 
d="M105 575h435v-105h-310v-120h271v-102h-271v-144h310v-104h-435v575zM264 770h133v-129h-133v129z" />
    <glyph glyph-name="eogonek.sc" 
d="M105 575h435v-105h-310v-120h271v-102h-271v-144h310v-104q-17 -8 -34 -19t-30 -23.5t-21 -27.5t-8 -32q0 -21 14 -34t39 -13q11 0 21 1t19 3v-81q-10 -4 -23.5 -7t-34.5 -3q-27 0 -51.5 6.5t-43 20.5t-30 35.5t-11.5 50.5q0 45 24 75t55 48h-320v575z" />
    <glyph glyph-name="ecaron.sc" 
d="M105 575h435v-105h-310v-120h271v-102h-271v-144h310v-104h-435v575zM373 626h-83l-129 122l62 64l109 -104l110 104l59 -64z" />
    <glyph glyph-name="gcircumflex.sc" 
d="M464 64q-5 -11 -17.5 -24.5t-32 -25.5t-45.5 -20t-59 -8q-54 0 -93.5 14t-69.5 40q-47 39 -69.5 102.5t-22.5 143.5q0 67 20 126t58 100q71 74 195 74q44 0 83.5 -12.5t70.5 -36.5t51 -59.5t26 -81.5h-126q-8 43 -37.5 62t-72.5 19q-68 0 -103 -46q-20 -27 -29 -65
t-9 -80q0 -47 9 -86.5t32 -65.5q16 -19 39 -29t58 -10q50 0 81 29.5t35 80.5h-126v93h250v-298h-82zM324 719l-109 -104l-62 64l129 122h83l128 -122l-59 -64z" />
    <glyph glyph-name="gbreve.sc" 
d="M464 64q-5 -11 -17.5 -24.5t-32 -25.5t-45.5 -20t-59 -8q-54 0 -93.5 14t-69.5 40q-47 39 -69.5 102.5t-22.5 143.5q0 67 20 126t58 100q71 74 195 74q44 0 83.5 -12.5t70.5 -36.5t51 -59.5t26 -81.5h-126q-8 43 -37.5 62t-72.5 19q-68 0 -103 -46q-20 -27 -29 -65
t-9 -80q0 -47 9 -86.5t32 -65.5q16 -19 39 -29t58 -10q50 0 81 29.5t35 80.5h-126v93h250v-298h-82zM325 626q-35 0 -64 11.5t-49.5 32t-32.5 48.5t-12 60h92q3 -67 66 -67t66 67h92q0 -32 -12 -60t-32.5 -48.5t-49.5 -32t-64 -11.5z" />
    <glyph glyph-name="gdotaccent.sc" 
d="M464 64q-5 -11 -17.5 -24.5t-32 -25.5t-45.5 -20t-59 -8q-54 0 -93.5 14t-69.5 40q-47 39 -69.5 102.5t-22.5 143.5q0 67 20 126t58 100q71 74 195 74q44 0 83.5 -12.5t70.5 -36.5t51 -59.5t26 -81.5h-126q-8 43 -37.5 62t-72.5 19q-68 0 -103 -46q-20 -27 -29 -65
t-9 -80q0 -47 9 -86.5t32 -65.5q16 -19 39 -29t58 -10q50 0 81 29.5t35 80.5h-126v93h250v-298h-82zM255 770h133v-129h-133v129z" />
    <glyph glyph-name="uni0123.sc" 
d="M464 64q-5 -11 -17.5 -24.5t-32 -25.5t-45.5 -20t-59 -8q-54 0 -93.5 14t-69.5 40q-47 39 -69.5 102.5t-22.5 143.5q0 67 20 126t58 100q71 74 195 74q44 0 83.5 -12.5t70.5 -36.5t51 -59.5t26 -81.5h-126q-8 43 -37.5 62t-72.5 19q-68 0 -103 -46q-20 -27 -29 -65
t-9 -80q0 -47 9 -86.5t32 -65.5q16 -19 39 -29t58 -10q50 0 81 29.5t35 80.5h-126v93h250v-298h-82zM368 -141q0 -53 -26 -85t-75 -40l-13 49q26 5 41 19.5t15 44.5h-58v99h116v-87z" />
    <glyph glyph-name="hcircumflex.sc" 
d="M416 245h-211v-245h-125v575h125v-220h211v220h124v-575h-124v245zM312 719l-109 -104l-62 64l129 122h83l128 -122l-59 -64z" />
    <glyph glyph-name="hbar.sc" 
d="M80 502v73h125v-73h211v73h124v-73h50v-80h-50v-422h-124v245h-211v-245h-125v422h-50v80h50zM416 422h-211v-67h211v67z" />
    <glyph glyph-name="itilde.sc" 
d="M110 107h136v361h-136v107h400v-107h-138v-361h138v-107h-400v107zM479 746q0 -26 -8.5 -46t-22.5 -33t-32.5 -19.5t-38.5 -6.5q-24 0 -42 8.5t-32 18.5t-25.5 18.5t-22.5 8.5q-9 0 -15.5 -6t-6.5 -22v-21h-86v33q0 53 31.5 80.5t73.5 27.5q26 0 44 -8.5t31 -18t23 -18
t21 -8.5q22 0 22 25v24h86v-37z" />
    <glyph glyph-name="imacron.sc" 
d="M110 107h136v361h-136v107h400v-107h-138v-361h138v-107h-400v107zM160 763h300v-97h-300v97z" />
    <glyph glyph-name="ibreve.sc" 
d="M110 107h136v361h-136v107h400v-107h-138v-361h138v-107h-400v107zM310 626q-35 0 -64 11.5t-49.5 32t-32.5 48.5t-12 60h92q3 -67 66 -67t66 67h92q0 -32 -12 -60t-32.5 -48.5t-49.5 -32t-64 -11.5z" />
    <glyph glyph-name="iogonek.sc" 
d="M110 107h136v361h-136v107h400v-107h-138v-361h138v-107q-17 -8 -34 -19t-30 -23.5t-21 -27.5t-8 -32q0 -21 14 -34t39 -13q11 0 21 1t19 3v-81q-10 -4 -23.5 -7t-34.5 -3q-27 0 -51.5 6.5t-43 20.5t-30 35.5t-11.5 50.5q0 45 24 75t55 48h-285v107z" />
    <glyph glyph-name="Idotaccent.sc" 
d="M110 107h136v361h-136v107h400v-107h-138v-361h138v-107h-400v107zM243 770h133v-129h-133v129z" />
    <glyph glyph-name="dotlessi.sc" 
d="M110 107h136v361h-136v107h400v-107h-138v-361h138v-107h-400v107z" />
    <glyph glyph-name="ij.sc" 
d="M61 575h127v-317h-127v317zM515 200q0 -47 -17 -86t-47.5 -67.5t-73 -44.5t-92.5 -16q-51 0 -92 16t-70.5 45.5t-45.5 70t-16 89.5h127q0 -45 26 -76.5t74 -31.5q44 0 70.5 26t26.5 80v370h130v-375z" />
    <glyph glyph-name="jcircumflex.sc" 
d="M515 200q0 -47 -17 -86t-47.5 -67.5t-73 -44.5t-92.5 -16q-51 0 -92 16t-70.5 45.5t-45.5 70t-16 89.5h127q0 -45 26 -76.5t74 -31.5q44 0 70.5 26t26.5 80v370h130v-375zM450 719l-109 -104l-62 64l129 122h83l128 -122l-59 -64z" />
    <glyph glyph-name="uni0137.sc" 
d="M378 337l217 -337h-152l-153 242l-75 -82v-160h-125v575h125v-252l226 252h157zM387 -141q0 -53 -26 -85t-75 -40l-13 49q26 5 41 19.5t15 44.5h-58v99h116v-87z" />
    <glyph glyph-name="kgreenlandic.sc" 
d="M378 337l217 -337h-152l-153 242l-75 -82v-160h-125v575h125v-252l226 252h157z" />
    <glyph glyph-name="lacute.sc" 
d="M110 575h125v-465h310v-110h-435v575zM276 829l63 -96l-201 -112l-47 69z" />
    <glyph glyph-name="uni013C.sc" 
d="M110 575h125v-465h310v-110h-435v575zM385 -141q0 -53 -26 -85t-75 -40l-13 49q26 5 41 19.5t15 44.5h-58v99h116v-87z" />
    <glyph glyph-name="lcaron.sc" 
d="M110 575h125v-465h310v-110h-435v575zM458 451q0 -59 -22 -100t-80 -65l-26 49q41 18 54 44.5t13 71.5h-63v124h124v-124z" />
    <glyph glyph-name="ldot.sc" 
d="M110 575h125v-465h310v-110h-435v575zM410 404h148v-152h-148v152z" />
    <glyph glyph-name="lslash.sc" 
d="M50 247l80 49v279h125v-201l124 77v-96l-124 -77v-168h310v-110h-435v200l-80 -49v96z" />
    <glyph glyph-name="nacute.sc" 
d="M203 385v-385h-123v575h152l185 -360v360h123v-575h-136zM426 829l63 -96l-201 -112l-47 69z" />
    <glyph glyph-name="uni0146.sc" 
d="M203 385v-385h-123v575h152l185 -360v360h123v-575h-136zM374 -141q0 -53 -26 -85t-75 -40l-13 49q26 5 41 19.5t15 44.5h-58v99h116v-87z" />
    <glyph glyph-name="ncaron.sc" 
d="M203 385v-385h-123v575h152l185 -360v360h123v-575h-136zM354 626h-83l-129 122l62 64l109 -104l110 104l59 -64z" />
    <glyph glyph-name="napostrophe.sc" 
d="M303 359v-359h-118v575h131l161 -351v351h118v-575h-128zM123 451q0 -59 -22 -100t-80 -65l-26 49q41 18 54 44.5t13 71.5h-63v124h124v-124z" />
    <glyph glyph-name="eng.sc" 
d="M540 -74q0 -67 -38 -106t-108 -39q-26 0 -49 3t-52 10v106q22 -4 34.5 -5t26.5 -1q29 0 44.5 15t15.5 41v28l-211 391v-369h-123v575h142l195 -360v360h123v-649z" />
    <glyph glyph-name="omacron.sc" 
d="M171 286q0 -52 10.5 -88.5t33.5 -63.5q34 -40 95 -40t95 40q23 27 33.5 63.5t10.5 88.5t-10.5 88.5t-33.5 63.5q-34 40 -95 40t-95 -40q-23 -27 -33.5 -63.5t-10.5 -88.5zM45 286q0 32 4.5 65t15 64t28.5 59.5t45 51.5q39 33 81 46.5t91 13.5t91 -13.5t81 -46.5
q27 -23 45 -51.5t28.5 -59.5t15 -64t4.5 -65t-4.5 -65t-15 -64t-28.5 -59.5t-45 -51.5q-39 -33 -81 -46.5t-91 -13.5t-91 13.5t-81 46.5q-27 23 -45 51.5t-28.5 59.5t-15 64t-4.5 65zM166 763h300v-97h-300v97z" />
    <glyph glyph-name="obreve.sc" 
d="M171 286q0 -52 10.5 -88.5t33.5 -63.5q34 -40 95 -40t95 40q23 27 33.5 63.5t10.5 88.5t-10.5 88.5t-33.5 63.5q-34 40 -95 40t-95 -40q-23 -27 -33.5 -63.5t-10.5 -88.5zM45 286q0 32 4.5 65t15 64t28.5 59.5t45 51.5q39 33 81 46.5t91 13.5t91 -13.5t81 -46.5
q27 -23 45 -51.5t28.5 -59.5t15 -64t4.5 -65t-4.5 -65t-15 -64t-28.5 -59.5t-45 -51.5q-39 -33 -81 -46.5t-91 -13.5t-91 13.5t-81 46.5q-27 23 -45 51.5t-28.5 59.5t-15 64t-4.5 65zM312 626q-35 0 -64 11.5t-49.5 32t-32.5 48.5t-12 60h92q3 -67 66 -67t66 67h92
q0 -32 -12 -60t-32.5 -48.5t-49.5 -32t-64 -11.5z" />
    <glyph glyph-name="ohungarumlaut.sc" 
d="M171 286q0 -52 10.5 -88.5t33.5 -63.5q34 -40 95 -40t95 40q23 27 33.5 63.5t10.5 88.5t-10.5 88.5t-33.5 63.5q-34 40 -95 40t-95 -40q-23 -27 -33.5 -63.5t-10.5 -88.5zM45 286q0 32 4.5 65t15 64t28.5 59.5t45 51.5q39 33 81 46.5t91 13.5t91 -13.5t81 -46.5
q27 -23 45 -51.5t28.5 -59.5t15 -64t4.5 -65t-4.5 -65t-15 -64t-28.5 -59.5t-45 -51.5q-39 -33 -81 -46.5t-91 -13.5t-91 13.5t-81 46.5q-27 23 -45 51.5t-28.5 59.5t-15 64t-4.5 65zM272 825l87 -68l-128 -137l-64 48zM465 824l84 -71l-133 -132l-62 51z" />
    <glyph glyph-name="oe.sc" 
d="M156 286q0 -83 38.5 -132t105.5 -50v366q-34 -2 -61 -16.5t-45.5 -39.5t-28 -58t-9.5 -70zM293 0q-62 0 -110.5 21t-82.5 59t-52 90.5t-18 115.5q0 60 19.5 113t55 92t83.5 61.5t105 22.5h307v-105h-174v-120h135v-102h-135v-144h174v-104h-307z" />
    <glyph glyph-name="racute.sc" 
d="M311 210h-95v-210h-126v575h247q98 0 155.5 -47.5t57.5 -134.5q0 -122 -116 -164l116 -229h-136zM425 393q0 35 -24 58t-69 23h-117v-161h119q46 0 68.5 23t22.5 57zM394 829l63 -96l-201 -112l-47 69z" />
    <glyph glyph-name="uni0157.sc" 
d="M311 210h-95v-210h-126v575h247q98 0 155.5 -47.5t57.5 -134.5q0 -122 -116 -164l116 -229h-136zM425 393q0 35 -24 58t-69 23h-117v-161h119q46 0 68.5 23t22.5 57zM376 -141q0 -53 -26 -85t-75 -40l-13 49q26 5 41 19.5t15 44.5h-58v99h116v-87z" />
    <glyph glyph-name="rcaron.sc" 
d="M311 210h-95v-210h-126v575h247q98 0 155.5 -47.5t57.5 -134.5q0 -122 -116 -164l116 -229h-136zM425 393q0 35 -24 58t-69 23h-117v-161h119q46 0 68.5 23t22.5 57zM348 626h-83l-129 122l62 64l109 -104l110 104l59 -64z" />
    <glyph glyph-name="sacute.sc" 
d="M555 175q0 -50 -21.5 -85t-56 -57.5t-78.5 -33t-90 -10.5q-47 0 -93.5 13t-86.5 47q-27 23 -45.5 57t-18.5 76h126q1 -24 11.5 -41.5t27 -29t37.5 -17t44 -5.5q19 0 40 3.5t39 12t29.5 24t11.5 39.5q0 15 -6.5 25t-16.5 17t-21.5 10.5t-21.5 5.5l-131 22q-32 5 -60 17
t-49 31t-33 46t-12 63q0 43 19.5 76.5t51.5 57t74 35.5t87 12q42 0 83 -10.5t73.5 -32.5t53.5 -55.5t24 -79.5h-127q0 20 -9.5 35t-24.5 24.5t-34 14.5t-39 5q-53 0 -80.5 -19t-27.5 -54q0 -46 60 -56l119 -20q33 -6 64 -18t55 -32t38.5 -48t14.5 -65zM417 829l63 -96
l-201 -112l-47 69z" />
    <glyph glyph-name="scircumflex.sc" 
d="M555 175q0 -50 -21.5 -85t-56 -57.5t-78.5 -33t-90 -10.5q-47 0 -93.5 13t-86.5 47q-27 23 -45.5 57t-18.5 76h126q1 -24 11.5 -41.5t27 -29t37.5 -17t44 -5.5q19 0 40 3.5t39 12t29.5 24t11.5 39.5q0 15 -6.5 25t-16.5 17t-21.5 10.5t-21.5 5.5l-131 22q-32 5 -60 17
t-49 31t-33 46t-12 63q0 43 19.5 76.5t51.5 57t74 35.5t87 12q42 0 83 -10.5t73.5 -32.5t53.5 -55.5t24 -79.5h-127q0 20 -9.5 35t-24.5 24.5t-34 14.5t-39 5q-53 0 -80.5 -19t-27.5 -54q0 -46 60 -56l119 -20q33 -6 64 -18t55 -32t38.5 -48t14.5 -65zM318 719l-109 -104
l-62 64l129 122h83l128 -122l-59 -64z" />
    <glyph glyph-name="scedilla.sc" 
d="M255 -123q0 -12 13 -25.5t41 -13.5q24 0 36.5 11t12.5 27q0 17 -14.5 29t-42.5 12q-17 0 -33 -4v79q-37 4 -72.5 17.5t-66.5 39.5q-27 23 -45.5 57t-18.5 76h126q1 -24 11.5 -41.5t27 -29t37.5 -17t44 -5.5q19 0 40 3.5t39 12t29.5 24t11.5 39.5q0 15 -6.5 25t-16.5 17
t-21.5 10.5t-21.5 5.5l-131 22q-32 5 -60 17t-49 31t-33 46t-12 63q0 43 19.5 76.5t51.5 57t74 35.5t87 12q42 0 83 -10.5t73.5 -32.5t53.5 -55.5t24 -79.5h-127q0 20 -9.5 35t-24.5 24.5t-34 14.5t-39 5q-53 0 -80.5 -19t-27.5 -54q0 -46 60 -56l119 -20q33 -6 64 -18
t55 -32t38.5 -48t14.5 -65q0 -43 -16 -75t-43 -54.5t-62 -35.5t-74 -18v-24q16 -2 32 -9t29 -19t20.5 -29t7.5 -38q0 -26 -11 -46t-29.5 -34t-44 -21.5t-55.5 -7.5q-27 0 -52.5 7.5t-45 22t-31.5 35.5t-13 48h88z" />
    <glyph glyph-name="scaron.sc" 
d="M555 175q0 -50 -21.5 -85t-56 -57.5t-78.5 -33t-90 -10.5q-47 0 -93.5 13t-86.5 47q-27 23 -45.5 57t-18.5 76h126q1 -24 11.5 -41.5t27 -29t37.5 -17t44 -5.5q19 0 40 3.5t39 12t29.5 24t11.5 39.5q0 15 -6.5 25t-16.5 17t-21.5 10.5t-21.5 5.5l-131 22q-32 5 -60 17
t-49 31t-33 46t-12 63q0 43 19.5 76.5t51.5 57t74 35.5t87 12q42 0 83 -10.5t73.5 -32.5t53.5 -55.5t24 -79.5h-127q0 20 -9.5 35t-24.5 24.5t-34 14.5t-39 5q-53 0 -80.5 -19t-27.5 -54q0 -46 60 -56l119 -20q33 -6 64 -18t55 -32t38.5 -48t14.5 -65zM359 626h-83l-129 122
l62 64l109 -104l110 104l59 -64z" />
    <glyph glyph-name="uni0163.sc" 
d="M253 -123q0 -12 13 -25.5t41 -13.5q24 0 36.5 11t12.5 27q0 17 -14.5 29t-42.5 12q-17 0 -33 -4v87h-18v467h-193v108h510v-108h-193v-467h-14v-32q16 -2 32 -9t29 -19t20.5 -29t7.5 -38q0 -26 -11 -46t-29.5 -34t-44 -21.5t-55.5 -7.5q-27 0 -52.5 7.5t-45 22
t-31.5 35.5t-13 48h88z" />
    <glyph glyph-name="tcaron.sc" 
d="M372 0h-124v467h-193v108h510v-108h-193v-467zM352 626h-83l-129 122l62 64l109 -104l110 104l59 -64z" />
    <glyph glyph-name="tbar.sc" 
d="M372 310h120v-83h-120v-227h-124v227h-120v83h120v157h-193v108h510v-108h-193v-157z" />
    <glyph glyph-name="utilde.sc" 
d="M545 220q0 -51 -14.5 -93.5t-44 -74t-73.5 -49t-103 -17.5t-103.5 17.5t-73.5 49t-43.5 74t-14.5 93.5v355h124v-353q0 -59 25 -93t86 -34q58 0 84.5 34t26.5 93v353h124v-355zM480 746q0 -26 -8.5 -46t-22.5 -33t-32.5 -19.5t-38.5 -6.5q-24 0 -42 8.5t-32 18.5
t-25.5 18.5t-22.5 8.5q-9 0 -15.5 -6t-6.5 -22v-21h-86v33q0 53 31.5 80.5t73.5 27.5q26 0 44 -8.5t31 -18t23 -18t21 -8.5q22 0 22 25v24h86v-37z" />
    <glyph glyph-name="umacron.sc" 
d="M545 220q0 -51 -14.5 -93.5t-44 -74t-73.5 -49t-103 -17.5t-103.5 17.5t-73.5 49t-43.5 74t-14.5 93.5v355h124v-353q0 -59 25 -93t86 -34q58 0 84.5 34t26.5 93v353h124v-355zM166 763h300v-97h-300v97z" />
    <glyph glyph-name="ubreve.sc" 
d="M545 220q0 -51 -14.5 -93.5t-44 -74t-73.5 -49t-103 -17.5t-103.5 17.5t-73.5 49t-43.5 74t-14.5 93.5v355h124v-353q0 -59 25 -93t86 -34q58 0 84.5 34t26.5 93v353h124v-355zM315 626q-35 0 -64 11.5t-49.5 32t-32.5 48.5t-12 60h92q3 -67 66 -67t66 67h92
q0 -32 -12 -60t-32.5 -48.5t-49.5 -32t-64 -11.5z" />
    <glyph glyph-name="uring.sc" 
d="M545 220q0 -51 -14.5 -93.5t-44 -74t-73.5 -49t-103 -17.5t-103.5 17.5t-73.5 49t-43.5 74t-14.5 93.5v355h124v-353q0 -59 25 -93t86 -34q58 0 84.5 34t26.5 93v353h124v-355zM442 749q0 -27 -10.5 -50t-28 -40.5t-41 -27.5t-50.5 -10t-50.5 10t-41 27.5t-28 40.5
t-10.5 50t10.5 50t28 40t41 27t50.5 10t50.5 -10t41 -27t28 -40t10.5 -50zM265 749q0 -23 14 -35t33 -12t33 12t14 35t-14 35t-33 12t-33 -12t-14 -35z" />
    <glyph glyph-name="uhungarumlaut.sc" 
d="M545 220q0 -51 -14.5 -93.5t-44 -74t-73.5 -49t-103 -17.5t-103.5 17.5t-73.5 49t-43.5 74t-14.5 93.5v355h124v-353q0 -59 25 -93t86 -34q58 0 84.5 34t26.5 93v353h124v-355zM266 825l87 -68l-128 -137l-64 48zM459 824l84 -71l-133 -132l-62 51z" />
    <glyph glyph-name="uogonek.sc" 
d="M545 220q0 -74 -31 -130t-93 -83q-30 -18 -51 -46t-21 -63q0 -21 14 -34t39 -13q11 0 21 1t19 3v-81q-10 -4 -23.5 -7t-34.5 -3q-27 0 -51.5 6.5t-43 20.5t-30 35.5t-11.5 50.5q0 36 14 63t36 46q-56 2 -98 20t-70 49t-41.5 73t-13.5 92v355h124v-353q0 -59 25 -93
t86 -34q58 0 84.5 34t26.5 93v353h124v-355z" />
    <glyph glyph-name="wcircumflex.sc" 
d="M595 575l-81 -575h-120l-84 294l-84 -294h-120l-81 575h112l50 -409l73 255h110l63 -254l50 408h112zM311 719l-109 -104l-62 64l129 122h83l128 -122l-59 -64z" />
    <glyph glyph-name="ycircumflex.sc" 
d="M371 0h-125v216l-211 359h134l143 -245l145 245h128l-214 -359v-216zM315 719l-109 -104l-62 64l129 122h83l128 -122l-59 -64z" />
    <glyph glyph-name="zacute.sc" 
d="M70 113l337 357h-331v105h469v-114l-331 -357h336v-104h-480v113zM405 829l63 -96l-201 -112l-47 69z" />
    <glyph glyph-name="zdotaccent.sc" 
d="M70 113l337 357h-331v105h469v-114l-331 -357h336v-104h-480v113zM253 770h133v-129h-133v129z" />
    <glyph glyph-name="zcaron.sc" 
d="M70 113l337 357h-331v105h469v-114l-331 -357h336v-104h-480v113zM368 626h-83l-129 122l62 64l109 -104l110 104l59 -64z" />
    <glyph glyph-name="uni01B6.sc" 
d="M70 113l120 127h-117v104h215l119 126h-331v105h469v-114l-109 -117h109v-104h-205l-126 -136h336v-104h-480v113z" />
    <glyph glyph-name="aringacute.sc" 
d="M376 979l63 -96l-201 -112l-47 69zM441 622q0 -27 -10.5 -50.5t-28.5 -40.5l198 -531h-128l-44 127h-236l-44 -127h-128l198 532q-17 17 -27 40.5t-10 49.5q0 27 10.5 50t28 40t41 27t50.5 10t50.5 -10t41 -27t28 -40t10.5 -50zM227 228h166l-83 242zM264 622
q0 -23 14 -35t33 -12t33 12t14 35t-14 35t-33 12t-33 -12t-14 -35z" />
    <glyph glyph-name="aeacute.sc" 
d="M444 829l63 -96l-201 -112l-47 69zM324 132h-138l-42 -132h-124l201 575h374v-105h-154v-120h115v-102h-115v-144h154v-104h-271v132zM324 233v237h-28l-77 -237h105z" />
    <glyph glyph-name="oslashacute.sc" 
d="M399 829l63 -96l-201 -112l-47 69zM45 286q0 64 20 127.5t73 110.5q38 33 80.5 47.5t91.5 14.5q43 0 81 -11t73 -37l53 73l49 -34l-58 -80q38 -45 52.5 -100.5t14.5 -110.5q0 -32 -4.5 -64.5t-15.5 -63t-28.5 -59t-44.5 -51.5q-38 -33 -80.5 -47.5t-91.5 -14.5
q-41 0 -76.5 9.5t-68.5 31.5l-48 -67l-51 36l52 71q-42 45 -57.5 103t-15.5 116zM171 286q0 -32 5.5 -61.5t16.5 -54.5l203 275q-17 16 -38 24.5t-48 8.5q-59 0 -94 -41q-23 -27 -34 -66.5t-11 -84.5zM449 286q0 58 -18 105l-199 -272q31 -25 78 -25q31 0 54 10.5t40 30.5
q23 27 34 66.5t11 84.5z" />
    <glyph glyph-name="uni0219.sc" 
d="M555 175q0 -50 -21.5 -85t-56 -57.5t-78.5 -33t-90 -10.5q-47 0 -93.5 13t-86.5 47q-27 23 -45.5 57t-18.5 76h126q1 -24 11.5 -41.5t27 -29t37.5 -17t44 -5.5q19 0 40 3.5t39 12t29.5 24t11.5 39.5q0 15 -6.5 25t-16.5 17t-21.5 10.5t-21.5 5.5l-131 22q-32 5 -60 17
t-49 31t-33 46t-12 63q0 43 19.5 76.5t51.5 57t74 35.5t87 12q42 0 83 -10.5t73.5 -32.5t53.5 -55.5t24 -79.5h-127q0 20 -9.5 35t-24.5 24.5t-34 14.5t-39 5q-53 0 -80.5 -19t-27.5 -54q0 -46 60 -56l119 -20q33 -6 64 -18t55 -32t38.5 -48t14.5 -65zM370 -141
q0 -53 -26 -85t-75 -40l-13 49q26 5 41 19.5t15 44.5h-58v99h116v-87z" />
    <glyph glyph-name="uni021B.sc" 
d="M372 0h-124v467h-193v108h510v-108h-193v-467zM368 -141q0 -53 -26 -85t-75 -40l-13 49q26 5 41 19.5t15 44.5h-58v99h116v-87z" />
    <glyph glyph-name="uni0237.sc" 
d="M515 200q0 -47 -17 -86t-47.5 -67.5t-73 -44.5t-92.5 -16q-51 0 -92 16t-70.5 45.5t-45.5 70t-16 89.5h127q0 -45 26 -76.5t74 -31.5q44 0 70.5 26t26.5 80v370h130v-375z" />
    <glyph glyph-name="uni0259.sc" 
d="M311 -14q-69 0 -120 22t-85.5 60.5t-51.5 90.5t-17 112q0 26 3 55h402q0 30 -8.5 56.5t-25 47t-42 32.5t-59.5 12q-28 0 -49.5 -7t-36.5 -18t-24 -23.5t-12 -22.5h-137q9 39 31.5 72.5t56.5 58t78 38.5t97 14q66 0 116.5 -22.5t85 -63t52 -95.5t17.5 -121q0 -68 -21 -123
t-57.5 -94t-86 -60t-106.5 -21zM310 98q28 0 51.5 10t40.5 27t27 40.5t11 50.5h-268q0 -25 8.5 -48t25.5 -41t43 -28.5t61 -10.5z" />
    <glyph glyph-name="gravecomb.sc" 
d="M185 734l63 96l185 -139l-47 -69z" />
    <glyph glyph-name="acutecomb.sc" 
d="M371 829l63 -96l-201 -112l-47 69z" />
    <glyph glyph-name="uni0302.sc" 
d="M311 719l-109 -104l-62 64l129 122h83l128 -122l-59 -64z" />
    <glyph glyph-name="tildecomb.sc" 
d="M476 746q0 -26 -8.5 -46t-22.5 -33t-32.5 -19.5t-38.5 -6.5q-24 0 -42 8.5t-32 18.5t-25.5 18.5t-22.5 8.5q-9 0 -15.5 -6t-6.5 -22v-21h-86v33q0 53 31.5 80.5t73.5 27.5q26 0 44 -8.5t31 -18t23 -18t21 -8.5q22 0 22 25v24h86v-37z" />
    <glyph glyph-name="uni0304.sc" 
d="M160 763h300v-97h-300v97z" />
    <glyph glyph-name="uni0306.sc" 
d="M310 626q-35 0 -64 11.5t-49.5 32t-32.5 48.5t-12 60h92q3 -67 66 -67t66 67h92q0 -32 -12 -60t-32.5 -48.5t-49.5 -32t-64 -11.5z" />
    <glyph glyph-name="uni0307.sc" 
d="M243 770h133v-129h-133v129z" />
    <glyph glyph-name="uni0308.sc" 
d="M353 764h115v-117h-115v117zM151 764h115v-117h-115v117z" />
    <glyph glyph-name="uni030A.sc" 
d="M440 749q0 -27 -10.5 -50t-28 -40.5t-41 -27.5t-50.5 -10t-50.5 10t-41 27.5t-28 40.5t-10.5 50t10.5 50t28 40t41 27t50.5 10t50.5 -10t41 -27t28 -40t10.5 -50zM263 749q0 -23 14 -35t33 -12t33 12t14 35t-14 35t-33 12t-33 -12t-14 -35z" />
    <glyph glyph-name="uni030B.sc" 
d="M224 825l87 -68l-128 -137l-64 48zM417 824l84 -71l-133 -132l-62 51z" />
    <glyph glyph-name="uni030C.sc" 
d="M352 626h-83l-129 122l62 64l109 -104l110 104l59 -64z" />
    <glyph glyph-name="uni0326.sc" 
d="M368 -141q0 -53 -26 -85t-75 -40l-13 49q26 5 41 19.5t15 44.5h-58v99h116v-87z" />
    <glyph glyph-name="wgrave.sc" 
d="M595 575l-81 -575h-120l-84 294l-84 -294h-120l-81 575h112l50 -409l73 255h110l63 -254l50 408h112zM163 734l63 96l185 -139l-47 -69z" />
    <glyph glyph-name="wacute.sc" 
d="M595 575l-81 -575h-120l-84 294l-84 -294h-120l-81 575h112l50 -409l73 255h110l63 -254l50 408h112zM394 829l63 -96l-201 -112l-47 69z" />
    <glyph glyph-name="wdieresis.sc" 
d="M595 575l-81 -575h-120l-84 294l-84 -294h-120l-81 575h112l50 -409l73 255h110l63 -254l50 408h112zM354 764h115v-117h-115v117zM152 764h115v-117h-115v117z" />
    <glyph glyph-name="uni1E8B.sc" 
d="M308 205l-130 -205h-133l191 293l-190 282h135l130 -196l126 196h135l-187 -283l190 -292h-136zM246 770h133v-129h-133v129z" />
    <glyph glyph-name="ygrave.sc" 
d="M371 0h-125v216l-211 359h134l143 -245l145 245h128l-214 -359v-216zM151 734l63 96l185 -139l-47 -69z" />
    <glyph glyph-name="i.latn_TRK.sc" 
d="M110 107h136v361h-136v107h400v-107h-138v-361h138v-107h-400v107zM244 770h133v-129h-133v129z" />
    <glyph glyph-name="ldot.latn_CAT.sc" 
d="M110 575h125v-465h310v-110h-435v575zM410 404h148v-152h-148v152z" />
    <glyph glyph-name="uni030C.alt.sc" 
d="M458 451q0 -59 -22 -100t-80 -65l-26 49q41 18 54 44.5t13 71.5h-63v124h124v-124z" />
    <glyph glyph-name="parenleft.case" 
d="M155 352q0 94 23 172.5t64 141t97.5 108.5t122.5 76l45 -78q-122 -66 -185 -170t-63 -250t63 -250t185 -170l-45 -78q-66 30 -122.5 76t-97.5 108.5t-64 141t-23 172.5z" />
    <glyph glyph-name="parenright.case" 
d="M465 352q0 -94 -23 -172.5t-64 -141t-97.5 -108.5t-122.5 -76l-45 78q122 66 185 170t63 250t-63 250t-185 170l45 78q66 -30 122.5 -76t97.5 -108.5t64 -141t23 -172.5z" />
    <glyph glyph-name="hyphen.case" 
d="M132 399h356v-112h-356v112z" />
    <glyph glyph-name="bracketleft.case" 
d="M174 815h284v-85h-190v-758h190v-85h-284v928z" />
    <glyph glyph-name="bracketright.case" 
d="M163 -28h190v758h-190v85h284v-928h-284v85z" />
    <glyph glyph-name="braceleft.case" 
d="M404 -113q-43 0 -74 14t-50.5 37t-29 54t-9.5 64v124q0 66 -29.5 93t-88.5 32v93q28 3 50 9.5t37 20.5t22.5 36.5t7.5 57.5v124q0 33 9.5 64t29.5 54t51 37t74 14h103v-85h-84q-50 0 -69 -24t-19 -67v-154q0 -22 -7 -43t-20.5 -38.5t-33.5 -30.5t-47 -19v-3
q27 -6 47 -19.5t33.5 -31.5t20.5 -39.5t7 -43.5v-154q0 -43 19 -67t69 -24h84v-85h-103z" />
    <glyph glyph-name="braceright.case" 
d="M113 -28h84q50 0 69 24t19 67v154q0 22 7 43.5t20.5 39.5t33.5 31.5t47 19.5v3q-27 6 -47 19t-33.5 30.5t-20.5 38.5t-7 43v154q0 43 -19 67t-69 24h-84v85h103q43 0 74 -14t51 -37t29.5 -54t9.5 -64v-124q0 -35 7.5 -57.5t22.5 -36.5t36.5 -20.5t50.5 -9.5v-93
q-59 -5 -88.5 -32t-29.5 -93v-124q0 -33 -9.5 -64t-29 -54t-50.5 -37t-74 -14h-103v85z" />
    <glyph glyph-name="exclamdown.case" 
d="M346 497l30 -275v-222h-131v222l30 275h71zM379 566h-140v143h140v-143z" />
    <glyph glyph-name="guillemotleft.case" 
d="M259 580l73 -52l-134 -194l134 -194l-73 -51l-193 244zM482 580l73 -52l-134 -194l134 -194l-73 -51l-193 244z" />
    <glyph glyph-name="uni00AD.case" 
d="M131 364h356v-112h-356v112z" />
    <glyph glyph-name="guillemotright.case" 
d="M290 140l134 194l-134 194l73 52l193 -247l-193 -244zM67 140l134 194l-134 194l73 52l193 -247l-193 -244z" />
    <glyph glyph-name="questiondown.case" 
d="M81 182q0 53 22 91.5t57 67.5q19 16 36.5 29.5t31 28.5t21 34.5t7.5 47.5v28h120q0 -26 -0.5 -53t-4.5 -44q-7 -33 -20.5 -55.5t-30 -40t-34.5 -31.5t-36 -30q-14 -13 -26.5 -30.5t-12.5 -41.5q0 -33 23 -60t74 -27q48 0 77 28t29 75h124q0 -51 -17.5 -90.5t-48.5 -66.5
t-73.5 -41.5t-92.5 -14.5q-49 0 -90.5 14.5t-71.5 41t-46.5 62.5t-16.5 78zM386 573h-137v136h137v-136z" />
    <glyph glyph-name="gravecomb.case" 
d="M176 837l49 101l219 -119l-34 -74z" />
    <glyph glyph-name="acutecomb.case" 
d="M395 938l49 -101l-234 -92l-34 74z" />
    <glyph glyph-name="uni0302.case" 
d="M270 920h79l136 -105l-55 -70l-121 94l-122 -94l-53 70z" />
    <glyph glyph-name="tildecomb.case" 
d="M485 871q0 -26 -9 -46t-24.5 -33.5t-35.5 -20t-41 -6.5q-25 0 -44 8.5t-33.5 19t-26.5 19t-23 8.5q-9 0 -17 -6t-8 -22v-21h-88v33q0 26 9 46.5t24.5 34t35.5 20.5t42 7q26 0 45 -8.5t34 -18t26 -18t22 -8.5q24 0 24 27v22h88v-37z" />
    <glyph glyph-name="uni0304.case" 
d="M144 889h332v-102h-332v102z" />
    <glyph glyph-name="uni0306.case" 
d="M310 760q-41 0 -72.5 13.5t-53.5 35t-34 49.5t-13 57h100q2 -30 19.5 -51t53.5 -21t53.5 21t19.5 51h100q-1 -29 -13 -57t-34 -49.5t-53.5 -35t-72.5 -13.5z" />
    <glyph glyph-name="uni0307.case" 
d="M243 902h133v-129h-133v129z" />
    <glyph glyph-name="uni0308.case" 
d="M363 896h115v-117h-115v117zM141 896h115v-117h-115v117z" />
    <glyph glyph-name="uni030A.case" 
d="M444 879q0 -28 -10.5 -52.5t-28.5 -42.5t-42.5 -28.5t-52.5 -10.5t-52.5 10.5t-42.5 28.5t-28.5 42.5t-10.5 52.5t10.5 52.5t28.5 42.5t42.5 28t52.5 10t52.5 -10t42.5 -28t28.5 -42.5t10.5 -52.5zM262 879q0 -23 14 -36.5t34 -13.5t34 13.5t14 36.5t-14 36.5t-34 13.5
t-34 -13.5t-14 -36.5z" />
    <glyph glyph-name="uni030B.case" 
d="M224 947l87 -68l-128 -137l-64 48zM417 946l84 -71l-133 -132l-62 51z" />
    <glyph glyph-name="uni030C.case" 
d="M349 760h-79l-136 105l55 70l121 -94l122 94l53 -70z" />
    <glyph glyph-name="uni0326.case" 
d="M368 -141q0 -53 -26 -85t-75 -40l-13 49q26 5 41 19.5t15 44.5h-58v99h116v-87z" />
    <glyph glyph-name="endash.case" 
d="M62 399h496v-112h-496v112z" />
    <glyph glyph-name="emdash.case" 
d="M0 399h620v-112h-620v112z" />
    <glyph glyph-name="guilsinglleft.case" 
d="M177 333l193 247l73 -52l-134 -194l134 -194l-73 -51z" />
    <glyph glyph-name="guilsinglright.case" 
d="M312 334l-134 194l73 52l193 -247l-193 -244l-73 51z" />
    <glyph glyph-name="uni030C.alt.case" 
d="M484 585q0 -59 -22 -100t-80 -65l-26 49q41 18 54 44.5t13 71.5h-63v124h124v-124z" />
    <glyph glyph-name="zero.zero" 
d="M310 591q-39 0 -63.5 -17t-38 -44t-18 -61.5t-5.5 -69.5l-1 -76q0 -34 2.5 -72.5t15 -71.5t38 -55t70.5 -22t70.5 22t38 55t15 71.5t2.5 72.5l-1 76q-1 35 -5.5 69.5t-18 61.5t-38 44t-63.5 17zM310 -13q-59 0 -99.5 18t-68.5 44t-45 59.5t-26 72t-12 80.5t-3 85t3 85
t12 81t26 72.5t45 59.5t68.5 44.5t99.5 18.5t99.5 -18.5t68.5 -44.5t45 -59.5t26 -72.5t12 -81t3 -85t-3 -85t-12 -80.5t-26 -72t-45 -59.5t-68.5 -44t-99.5 -18z" />
    <glyph glyph-name="uni2070.zero" 
d="M234 522q0 -43 8 -62.5t18 -30.5q8 -8 19.5 -13.5t30.5 -5.5t30.5 5.5t19.5 13.5q10 11 18 30.5t8 62.5t-8 62t-18 30q-8 8 -19.5 13.5t-30.5 5.5t-30.5 -5.5t-19.5 -13.5q-10 -11 -18 -30t-8 -62zM139 522q0 48 13 87.5t48 69.5q17 14 43.5 25.5t66.5 11.5t66.5 -11.5
t43.5 -25.5q35 -30 48 -69.5t13 -87.5t-13 -88t-48 -70q-17 -14 -43.5 -25.5t-66.5 -11.5t-66.5 11.5t-43.5 25.5q-35 30 -48 70t-13 88z" />
    <glyph glyph-name="uni2080.zero" 
d="M234 83q0 -43 8 -62.5t18 -30.5q8 -8 19.5 -13.5t30.5 -5.5t30.5 5.5t19.5 13.5q10 11 18 30.5t8 62.5t-8 62t-18 30q-8 8 -19.5 13.5t-30.5 5.5t-30.5 -5.5t-19.5 -13.5q-10 -11 -18 -30t-8 -62zM139 83q0 48 13 87.5t48 69.5q17 14 43.5 25.5t66.5 11.5t66.5 -11.5
t43.5 -25.5q35 -30 48 -69.5t13 -87.5t-13 -88t-48 -70q-17 -14 -43.5 -25.5t-66.5 -11.5t-66.5 11.5t-43.5 25.5q-35 30 -48 70t-13 88z" />
    <glyph glyph-name="zero.numr.zero" 
d="M234 506q0 -43 8 -62.5t18 -30.5q8 -8 19.5 -13.5t30.5 -5.5t30.5 5.5t19.5 13.5q10 11 18 30.5t8 62.5t-8 62t-18 30q-8 8 -19.5 13.5t-30.5 5.5t-30.5 -5.5t-19.5 -13.5q-10 -11 -18 -30t-8 -62zM139 506q0 48 13 87.5t48 69.5q17 14 43.5 25.5t66.5 11.5t66.5 -11.5
t43.5 -25.5q35 -30 48 -69.5t13 -87.5t-13 -88t-48 -70q-17 -14 -43.5 -25.5t-66.5 -11.5t-66.5 11.5t-43.5 25.5q-35 30 -48 70t-13 88z" />
    <glyph glyph-name="zero.dnom.zero" 
d="M234 190q0 -43 8 -62.5t18 -30.5q8 -8 19.5 -13.5t30.5 -5.5t30.5 5.5t19.5 13.5q10 11 18 30.5t8 62.5t-8 62t-18 30q-8 8 -19.5 13.5t-30.5 5.5t-30.5 -5.5t-19.5 -13.5q-10 -11 -18 -30t-8 -62zM139 190q0 48 13 87.5t48 69.5q17 14 43.5 25.5t66.5 11.5t66.5 -11.5
t43.5 -25.5q35 -30 48 -69.5t13 -87.5t-13 -88t-48 -70q-17 -14 -43.5 -25.5t-66.5 -11.5t-66.5 11.5t-43.5 25.5q-35 30 -48 70t-13 88z" />
    <glyph glyph-name="zero.sc.zero" 
d="M310 -14q-99 0 -165 57q-45 38 -66.5 97t-21.5 148q0 88 21.5 147t66.5 97q66 57 165 57t165 -57q45 -38 66.5 -97t21.5 -147q0 -89 -21.5 -148t-66.5 -97q-66 -57 -165 -57zM310 90q52 0 86 34q12 12 20.5 26t14 33.5t8.5 45t3 59.5q0 67 -11.5 103.5t-34.5 59.5
q-18 18 -39 26t-47 8t-47 -8t-39 -26q-23 -23 -34.5 -59.5t-11.5 -103.5q0 -34 3 -59.5t8.5 -45t14 -33.5t20.5 -26q18 -18 39 -26t47 -8z" />
    <glyph glyph-name="a.ss01" 
d="M251 -14q-46 0 -81 13.5t-59 36t-36 51.5t-12 59q0 74 49 114t129 47l158 13v31q0 44 -25.5 64.5t-71.5 20.5q-48 0 -74 -20.5t-28 -55.5h-121q3 43 22 75.5t49.5 54.5t69.5 33t83 11q106 0 162 -49t56 -144v-212v-21.5t1 -34.5t3.5 -38.5t6.5 -34.5h-117q-3 16 -4 36
t-1 34q-8 -16 -22 -31t-34 -27t-46 -19t-57 -7zM262 83q64 0 100.5 33.5t36.5 91.5v21l-137 -12q-34 -3 -55.5 -19t-21.5 -47q0 -30 22 -49t55 -19z" />
    <glyph glyph-name="agrave.ss01" 
d="M251 -14q-46 0 -81 13.5t-59 36t-36 51.5t-12 59q0 74 49 114t129 47l158 13v31q0 44 -25.5 64.5t-71.5 20.5q-48 0 -74 -20.5t-28 -55.5h-121q3 43 22 75.5t49.5 54.5t69.5 33t83 11q106 0 162 -49t56 -144v-212v-21.5t1 -34.5t3.5 -38.5t6.5 -34.5h-117q-3 16 -4 36
t-1 34q-8 -16 -22 -31t-34 -27t-46 -19t-57 -7zM262 83q64 0 100.5 33.5t36.5 91.5v21l-137 -12q-34 -3 -55.5 -19t-21.5 -47q0 -30 22 -49t55 -19zM186 669l63 96l185 -139l-47 -69z" />
    <glyph glyph-name="aacute.ss01" 
d="M251 -14q-46 0 -81 13.5t-59 36t-36 51.5t-12 59q0 74 49 114t129 47l158 13v31q0 44 -25.5 64.5t-71.5 20.5q-48 0 -74 -20.5t-28 -55.5h-121q3 43 22 75.5t49.5 54.5t69.5 33t83 11q106 0 162 -49t56 -144v-212v-21.5t1 -34.5t3.5 -38.5t6.5 -34.5h-117q-3 16 -4 36
t-1 34q-8 -16 -22 -31t-34 -27t-46 -19t-57 -7zM262 83q64 0 100.5 33.5t36.5 91.5v21l-137 -12q-34 -3 -55.5 -19t-21.5 -47q0 -30 22 -49t55 -19zM400 764l63 -96l-201 -112l-47 69z" />
    <glyph glyph-name="acircumflex.ss01" 
d="M251 -14q-46 0 -81 13.5t-59 36t-36 51.5t-12 59q0 74 49 114t129 47l158 13v31q0 44 -25.5 64.5t-71.5 20.5q-48 0 -74 -20.5t-28 -55.5h-121q3 43 22 75.5t49.5 54.5t69.5 33t83 11q106 0 162 -49t56 -144v-212v-21.5t1 -34.5t3.5 -38.5t6.5 -34.5h-117q-3 16 -4 36
t-1 34q-8 -16 -22 -31t-34 -27t-46 -19t-57 -7zM262 83q64 0 100.5 33.5t36.5 91.5v21l-137 -12q-34 -3 -55.5 -19t-21.5 -47q0 -30 22 -49t55 -19zM311 665l-109 -104l-62 64l129 122h83l128 -122l-59 -64z" />
    <glyph glyph-name="atilde.ss01" 
d="M251 -14q-46 0 -81 13.5t-59 36t-36 51.5t-12 59q0 74 49 114t129 47l158 13v31q0 44 -25.5 64.5t-71.5 20.5q-48 0 -74 -20.5t-28 -55.5h-121q3 43 22 75.5t49.5 54.5t69.5 33t83 11q106 0 162 -49t56 -144v-212v-21.5t1 -34.5t3.5 -38.5t6.5 -34.5h-117q-3 16 -4 36
t-1 34q-8 -16 -22 -31t-34 -27t-46 -19t-57 -7zM262 83q64 0 100.5 33.5t36.5 91.5v21l-137 -12q-34 -3 -55.5 -19t-21.5 -47q0 -30 22 -49t55 -19zM476 686q0 -26 -8.5 -46t-22.5 -33t-32.5 -19.5t-38.5 -6.5q-24 0 -42 8.5t-32 18.5t-25.5 18.5t-22.5 8.5q-9 0 -15.5 -6
t-6.5 -22v-21h-86v33q0 53 31.5 80.5t73.5 27.5q26 0 44 -8.5t31 -18t23 -18t21 -8.5q22 0 22 25v24h86v-37z" />
    <glyph glyph-name="adieresis.ss01" 
d="M251 -14q-46 0 -81 13.5t-59 36t-36 51.5t-12 59q0 74 49 114t129 47l158 13v31q0 44 -25.5 64.5t-71.5 20.5q-48 0 -74 -20.5t-28 -55.5h-121q3 43 22 75.5t49.5 54.5t69.5 33t83 11q106 0 162 -49t56 -144v-212v-21.5t1 -34.5t3.5 -38.5t6.5 -34.5h-117q-3 16 -4 36
t-1 34q-8 -16 -22 -31t-34 -27t-46 -19t-57 -7zM262 83q64 0 100.5 33.5t36.5 91.5v21l-137 -12q-34 -3 -55.5 -19t-21.5 -47q0 -30 22 -49t55 -19zM358 709h115v-116h-115v116zM156 709h115v-116h-115v116z" />
    <glyph glyph-name="aring.ss01" 
d="M251 -14q-46 0 -81 13.5t-59 36t-36 51.5t-12 59q0 74 49 114t129 47l158 13v31q0 44 -25.5 64.5t-71.5 20.5q-48 0 -74 -20.5t-28 -55.5h-121q3 43 22 75.5t49.5 54.5t69.5 33t83 11q106 0 162 -49t56 -144v-212v-21.5t1 -34.5t3.5 -38.5t6.5 -34.5h-117q-3 16 -4 36
t-1 34q-8 -16 -22 -31t-34 -27t-46 -19t-57 -7zM262 83q64 0 100.5 33.5t36.5 91.5v21l-137 -12q-34 -3 -55.5 -19t-21.5 -47q0 -30 22 -49t55 -19zM446 695q0 -27 -10.5 -50t-28 -40.5t-41 -27.5t-50.5 -10t-50.5 10t-41 27.5t-28 40.5t-10.5 50t10.5 50t28 40t41 27
t50.5 10t50.5 -10t41 -27t28 -40t10.5 -50zM269 695q0 -23 14 -35t33 -12t33 12t14 35t-14 35t-33 12t-33 -12t-14 -35z" />
    <glyph glyph-name="amacron.ss01" 
d="M251 -14q-46 0 -81 13.5t-59 36t-36 51.5t-12 59q0 74 49 114t129 47l158 13v31q0 44 -25.5 64.5t-71.5 20.5q-48 0 -74 -20.5t-28 -55.5h-121q3 43 22 75.5t49.5 54.5t69.5 33t83 11q106 0 162 -49t56 -144v-212v-21.5t1 -34.5t3.5 -38.5t6.5 -34.5h-117q-3 16 -4 36
t-1 34q-8 -16 -22 -31t-34 -27t-46 -19t-57 -7zM262 83q64 0 100.5 33.5t36.5 91.5v21l-137 -12q-34 -3 -55.5 -19t-21.5 -47q0 -30 22 -49t55 -19zM164 709h300v-97h-300v97z" />
    <glyph glyph-name="abreve.ss01" 
d="M251 -14q-46 0 -81 13.5t-59 36t-36 51.5t-12 59q0 74 49 114t129 47l158 13v31q0 44 -25.5 64.5t-71.5 20.5q-48 0 -74 -20.5t-28 -55.5h-121q3 43 22 75.5t49.5 54.5t69.5 33t83 11q106 0 162 -49t56 -144v-212v-21.5t1 -34.5t3.5 -38.5t6.5 -34.5h-117q-3 16 -4 36
t-1 34q-8 -16 -22 -31t-34 -27t-46 -19t-57 -7zM262 83q64 0 100.5 33.5t36.5 91.5v21l-137 -12q-34 -3 -55.5 -19t-21.5 -47q0 -30 22 -49t55 -19zM315 571q-35 0 -64 11.5t-49.5 32t-32.5 48.5t-12 60h93q2 -32 18 -50.5t47 -18.5t47 18.5t18 50.5h93q0 -32 -12 -60
t-32.5 -48.5t-49.5 -32t-64 -11.5z" />
    <glyph glyph-name="aogonek.ss01" 
d="M251 -14q-46 0 -81 13.5t-59 36t-36 51.5t-12 59q0 74 49 114t129 47l158 13v31q0 44 -25.5 64.5t-71.5 20.5q-48 0 -74 -20.5t-28 -55.5h-121q3 43 22 75.5t49.5 54.5t69.5 33t83 11q106 0 162 -49t56 -144v-212v-21.5t1 -34.5t3.5 -38.5t6.5 -34.5q-17 -8 -34 -17.5
t-30 -21.5t-21 -26t-8 -30q0 -21 14 -34t39 -13q11 0 21 1t19 3v-81q-10 -4 -23.5 -7t-34.5 -3q-27 0 -51.5 6.5t-43 20.5t-30 35.5t-11.5 50.5q0 42 23 70.5t54 45.5q-3 16 -4 36t-1 34q-8 -16 -22 -31t-34 -27t-46 -19t-57 -7zM262 83q64 0 100.5 33.5t36.5 91.5v21
l-137 -12q-34 -3 -55.5 -19t-21.5 -47q0 -30 22 -49t55 -19z" />
    <glyph glyph-name="aringacute.ss01" 
d="M251 -14q-46 0 -81 13.5t-59 36t-36 51.5t-12 59q0 74 49 114t129 47l158 13v31q0 44 -25.5 64.5t-71.5 20.5q-48 0 -74 -20.5t-28 -55.5h-121q3 43 22 75.5t49.5 54.5t69.5 33t83 11q106 0 162 -49t56 -144v-212v-21.5t1 -34.5t3.5 -38.5t6.5 -34.5h-117q-3 16 -4 36
t-1 34q-8 -16 -22 -31t-34 -27t-46 -19t-57 -7zM262 83q64 0 100.5 33.5t36.5 91.5v21l-137 -12q-34 -3 -55.5 -19t-21.5 -47q0 -30 22 -49t55 -19zM445 695q0 -27 -10.5 -50t-28 -40.5t-41 -27.5t-50.5 -10t-50.5 10t-41 27.5t-28 40.5t-10.5 50t10.5 50t28 40t41 27
t50.5 10t50.5 -10t41 -27t28 -40t10.5 -50zM268 695q0 -23 14 -35t33 -12t33 12t14 35t-14 35t-33 12t-33 -12t-14 -35zM393 1049l63 -96l-201 -112l-47 69z" />
    <glyph glyph-name="a.sups.ss01" 
d="M376 324q-5 25 -5 51q-15 -26 -43.5 -43.5t-73.5 -17.5q-60 0 -96 30.5t-36 85.5q0 53 36 78.5t97 30.5l108 9v24q0 28 -15 44t-51 16q-35 0 -52 -16t-19 -41h-93q5 62 51 95t116 33q23 0 45.5 -4t41.5 -12.5t33.5 -23t23.5 -35.5q8 -18 9.5 -37t1.5 -38v-140
q0 -23 1.5 -45t5.5 -44h-86zM272 472q-26 -2 -41.5 -10.5t-15.5 -31.5q0 -20 14 -31.5t46 -11.5q39 0 63.5 20.5t24.5 62.5v10z" />
    <glyph glyph-name="a.ss03" 
d="M539 520v-520h-111l-5 64q-19 -37 -57 -56.5t-86 -19.5q-57 0 -100.5 21t-73.5 58t-45.5 86.5t-15.5 105.5q0 60 16 110t46 86.5t73.5 56.5t99.5 20q32 0 56.5 -7.5t41.5 -19t27.5 -25t14.5 -26.5l8 66h111zM379 130q22 25 30.5 59.5t8.5 71.5q0 34 -7.5 68t-28.5 59
q-15 18 -35 29t-48 11q-30 0 -51.5 -9.5t-37.5 -28.5q-22 -26 -30 -60t-8 -69q0 -37 8.5 -72t31.5 -60q14 -16 34.5 -25.5t48.5 -9.5t49 9.5t35 26.5z" />
    <glyph glyph-name="g.ss03" 
d="M298 -230q-57 0 -101.5 14.5t-74.5 39.5t-45.5 59t-16.5 72h125q1 -17 8 -32.5t21 -27.5t35.5 -19t50.5 -7q26 0 50 7.5t43 25t30 45t11 67.5v62q-14 -32 -54.5 -53.5t-91.5 -21.5q-54 0 -97.5 19.5t-74 54.5t-46.5 84t-16 108q0 55 15.5 103.5t45 85t73.5 57.5t101 21
q60 0 99 -25t56 -59l7 70h103v-489q0 -130 -68.5 -195.5t-187.5 -65.5zM308 105q32 0 56 12.5t39.5 34t23.5 51t8 64.5q0 72 -32 117.5t-95 45.5q-35 0 -59.5 -13.5t-40 -36t-22.5 -52t-7 -61.5q0 -33 7 -62t23 -51.5t40 -35.5t59 -13z" />
    <glyph glyph-name="agrave.ss03" 
d="M539 520v-520h-111l-5 64q-19 -37 -57 -56.5t-86 -19.5q-57 0 -100.5 21t-73.5 58t-45.5 86.5t-15.5 105.5q0 60 16 110t46 86.5t73.5 56.5t99.5 20q32 0 56.5 -7.5t41.5 -19t27.5 -25t14.5 -26.5l8 66h111zM379 130q22 25 30.5 59.5t8.5 71.5q0 34 -7.5 68t-28.5 59
q-15 18 -35 29t-48 11q-30 0 -51.5 -9.5t-37.5 -28.5q-22 -26 -30 -60t-8 -69q0 -37 8.5 -72t31.5 -60q14 -16 34.5 -25.5t48.5 -9.5t49 9.5t35 26.5zM177 669l63 96l185 -139l-47 -69z" />
    <glyph glyph-name="aacute.ss03" 
d="M539 520v-520h-111l-5 64q-19 -37 -57 -56.5t-86 -19.5q-57 0 -100.5 21t-73.5 58t-45.5 86.5t-15.5 105.5q0 60 16 110t46 86.5t73.5 56.5t99.5 20q32 0 56.5 -7.5t41.5 -19t27.5 -25t14.5 -26.5l8 66h111zM379 130q22 25 30.5 59.5t8.5 71.5q0 34 -7.5 68t-28.5 59
q-15 18 -35 29t-48 11q-30 0 -51.5 -9.5t-37.5 -28.5q-22 -26 -30 -60t-8 -69q0 -37 8.5 -72t31.5 -60q14 -16 34.5 -25.5t48.5 -9.5t49 9.5t35 26.5zM400 764l63 -96l-201 -112l-47 69z" />
    <glyph glyph-name="acircumflex.ss03" 
d="M539 520v-520h-111l-5 64q-19 -37 -57 -56.5t-86 -19.5q-57 0 -100.5 21t-73.5 58t-45.5 86.5t-15.5 105.5q0 60 16 110t46 86.5t73.5 56.5t99.5 20q32 0 56.5 -7.5t41.5 -19t27.5 -25t14.5 -26.5l8 66h111zM379 130q22 25 30.5 59.5t8.5 71.5q0 34 -7.5 68t-28.5 59
q-15 18 -35 29t-48 11q-30 0 -51.5 -9.5t-37.5 -28.5q-22 -26 -30 -60t-8 -69q0 -37 8.5 -72t31.5 -60q14 -16 34.5 -25.5t48.5 -9.5t49 9.5t35 26.5zM311 665l-109 -104l-62 64l129 122h83l128 -122l-59 -64z" />
    <glyph glyph-name="atilde.ss03" 
d="M539 520v-520h-111l-5 64q-19 -37 -57 -56.5t-86 -19.5q-57 0 -100.5 21t-73.5 58t-45.5 86.5t-15.5 105.5q0 60 16 110t46 86.5t73.5 56.5t99.5 20q32 0 56.5 -7.5t41.5 -19t27.5 -25t14.5 -26.5l8 66h111zM379 130q22 25 30.5 59.5t8.5 71.5q0 34 -7.5 68t-28.5 59
q-15 18 -35 29t-48 11q-30 0 -51.5 -9.5t-37.5 -28.5q-22 -26 -30 -60t-8 -69q0 -37 8.5 -72t31.5 -60q14 -16 34.5 -25.5t48.5 -9.5t49 9.5t35 26.5zM472 686q0 -26 -8.5 -46t-22.5 -33t-32.5 -19.5t-38.5 -6.5q-24 0 -42 8.5t-32 18.5t-25.5 18.5t-22.5 8.5q-9 0 -15.5 -6
t-6.5 -22v-21h-86v33q0 53 31.5 80.5t73.5 27.5q26 0 44 -8.5t31 -18t23 -18t21 -8.5q22 0 22 25v24h86v-37z" />
    <glyph glyph-name="adieresis.ss03" 
d="M539 520v-520h-111l-5 64q-19 -37 -57 -56.5t-86 -19.5q-57 0 -100.5 21t-73.5 58t-45.5 86.5t-15.5 105.5q0 60 16 110t46 86.5t73.5 56.5t99.5 20q32 0 56.5 -7.5t41.5 -19t27.5 -25t14.5 -26.5l8 66h111zM379 130q22 25 30.5 59.5t8.5 71.5q0 34 -7.5 68t-28.5 59
q-15 18 -35 29t-48 11q-30 0 -51.5 -9.5t-37.5 -28.5q-22 -26 -30 -60t-8 -69q0 -37 8.5 -72t31.5 -60q14 -16 34.5 -25.5t48.5 -9.5t49 9.5t35 26.5zM353 709h115v-116h-115v116zM151 709h115v-116h-115v116z" />
    <glyph glyph-name="aring.ss03" 
d="M539 520v-520h-111l-5 64q-19 -37 -57 -56.5t-86 -19.5q-57 0 -100.5 21t-73.5 58t-45.5 86.5t-15.5 105.5q0 60 16 110t46 86.5t73.5 56.5t99.5 20q32 0 56.5 -7.5t41.5 -19t27.5 -25t14.5 -26.5l8 66h111zM379 130q22 25 30.5 59.5t8.5 71.5q0 34 -7.5 68t-28.5 59
q-15 18 -35 29t-48 11q-30 0 -51.5 -9.5t-37.5 -28.5q-22 -26 -30 -60t-8 -69q0 -37 8.5 -72t31.5 -60q14 -16 34.5 -25.5t48.5 -9.5t49 9.5t35 26.5zM426 695q0 -27 -10.5 -50t-28 -40.5t-41 -27.5t-50.5 -10t-50.5 10t-41 27.5t-28 40.5t-10.5 50t10.5 50t28 40t41 27
t50.5 10t50.5 -10t41 -27t28 -40t10.5 -50zM249 695q0 -23 14 -35t33 -12t33 12t14 35t-14 35t-33 12t-33 -12t-14 -35z" />
    <glyph glyph-name="amacron.ss03" 
d="M539 520v-520h-111l-5 64q-19 -37 -57 -56.5t-86 -19.5q-57 0 -100.5 21t-73.5 58t-45.5 86.5t-15.5 105.5q0 60 16 110t46 86.5t73.5 56.5t99.5 20q32 0 56.5 -7.5t41.5 -19t27.5 -25t14.5 -26.5l8 66h111zM379 130q22 25 30.5 59.5t8.5 71.5q0 34 -7.5 68t-28.5 59
q-15 18 -35 29t-48 11q-30 0 -51.5 -9.5t-37.5 -28.5q-22 -26 -30 -60t-8 -69q0 -37 8.5 -72t31.5 -60q14 -16 34.5 -25.5t48.5 -9.5t49 9.5t35 26.5zM151 709h300v-97h-300v97z" />
    <glyph glyph-name="abreve.ss03" 
d="M539 520v-520h-111l-5 64q-19 -37 -57 -56.5t-86 -19.5q-57 0 -100.5 21t-73.5 58t-45.5 86.5t-15.5 105.5q0 60 16 110t46 86.5t73.5 56.5t99.5 20q32 0 56.5 -7.5t41.5 -19t27.5 -25t14.5 -26.5l8 66h111zM379 130q22 25 30.5 59.5t8.5 71.5q0 34 -7.5 68t-28.5 59
q-15 18 -35 29t-48 11q-30 0 -51.5 -9.5t-37.5 -28.5q-22 -26 -30 -60t-8 -69q0 -37 8.5 -72t31.5 -60q14 -16 34.5 -25.5t48.5 -9.5t49 9.5t35 26.5zM315 571q-35 0 -64 11.5t-49.5 32t-32.5 48.5t-12 60h93q2 -32 18 -50.5t47 -18.5t47 18.5t18 50.5h93q0 -32 -12 -60
t-32.5 -48.5t-49.5 -32t-64 -11.5z" />
    <glyph glyph-name="aogonek.ss03" 
d="M481 -236q-27 0 -51.5 6.5t-43 20.5t-30 35.5t-11.5 50.5q0 46 25.5 76.5t57.5 48.5l-5 62q-19 -37 -57 -56.5t-86 -19.5q-57 0 -100.5 21t-73.5 58t-45.5 86.5t-15.5 105.5q0 60 16 110t46 86.5t73.5 56.5t99.5 20q32 0 56.5 -7.5t41.5 -19t27.5 -25t14.5 -26.5l8 66
h111v-520q-17 -8 -34 -19t-30 -23.5t-21 -27.5t-8 -32q0 -21 14 -34t39 -13q11 0 21 1t19 3v-81q-10 -4 -23.5 -7t-34.5 -3zM379 130q22 25 30.5 59.5t8.5 71.5q0 34 -7.5 68t-28.5 59q-15 18 -35 29t-48 11q-30 0 -51.5 -9.5t-37.5 -28.5q-22 -26 -30 -60t-8 -69
q0 -37 8.5 -72t31.5 -60q14 -16 34.5 -25.5t48.5 -9.5t49 9.5t35 26.5z" />
    </font>
</defs>
</svg>
