<?xml version="1.0" standalone="no"?>
<!DOCTYPE svg PUBLIC "-//W3C//DTD SVG 1.1//EN" "http://www.w3.org/Graphics/SVG/1.1/DTD/svg11.dtd" >
<svg xmlns="http://www.w3.org/2000/svg" xmlns:xlink="http://www.w3.org/1999/xlink" version="1.1">
<metadata>
Created by FontForge 20170731 at Fri Jan  3 19:22:21 2020
 By Aleksey,,,
Copyright (c) 2020 by Colophon Foundry. All rights reserved.
</metadata>
<defs>
<font id="SorrySans-BoldExtended" horiz-adv-x="675" >
  <font-face 
    font-family="Sorry Sans Bold Extended"
    font-weight="700"
    font-stretch="expanded"
    units-per-em="1000"
    panose-1="2 11 8 5 4 4 2 4 3 4"
    ascent="800"
    descent="-200"
    x-height="510"
    cap-height="700"
    bbox="-150 -202 1510 810"
    underline-thickness="50"
    underline-position="-150"
    unicode-range="U+000D-263B"
  />
<missing-glyph horiz-adv-x="1341" 
d="M72 353h1197v-353h-1197v353zM1229 34v285h-1117v-285h1117zM193 96q-26 11 -42 32l31 28q13 -14 31.5 -23t40.5 -9q18 0 27.5 5.5t9.5 13.5q0 13 -27 17l-41 7q-32 5 -47.5 17t-15.5 34q0 27 22.5 42.5t58.5 15.5q60 0 93 -34l-32 -29q-24 25 -63 25q-17 0 -26 -4.5
t-9 -11.5t5.5 -10.5t19.5 -5.5l40 -6q36 -5 52 -18.5t16 -37.5q0 -27 -23.5 -43t-61.5 -16q-33 0 -59 11zM389.5 111q-29.5 26 -29.5 69t29.5 69.5t77.5 26.5t77.5 -26.5t29.5 -69.5t-29.5 -69t-77.5 -26t-77.5 26zM607 273h104q70 0 70 -54q0 -39 -40 -46v-3q13 -1 20 -7.5
t11 -21.5l13 -53h-48l-12 46q-3 12 -9.5 16.5t-18.5 4.5h-45v-67h-45v185zM817 273h104q70 0 70 -54q0 -39 -40 -46v-3q13 -1 20 -7.5t11 -21.5l12 -53h-47l-12 46q-3 12 -9.5 16.5t-18.5 4.5h-45v-67h-45v185zM1074 154l-78 119h53l47 -78h1l47 78h53l-78 -119v-66h-45v66z
M511.5 139q16.5 15 16.5 41q0 27 -16.5 42.5t-44.5 15.5q-29 0 -45 -15t-16 -43q0 -26 16 -41t45 -15q28 0 44.5 15zM708 193q28 0 28 22q0 21 -28 21h-56v-43h56zM918 193q28 0 28 22q0 21 -28 21h-56v-43h56z" />
    <glyph glyph-name="f_f" unicode="ff" horiz-adv-x="972" 
d="M299 577.5q-22 -20.5 -24 -67.5h203v-114h-203v-396h-162v396h-103v114h104q7 98 67.5 150t163.5 52q89 0 162 -29l-24 -121q-55 36 -117 36q-45 0 -67 -20.5zM785 579q-22 -21 -24 -69h209v-114h-209v-396h-162v396h-103v114h104q7 98 68 150t166 52q93 0 166 -32
l-24 -121q-23 18 -55 29.5t-66 11.5q-48 0 -70 -21z" />
    <glyph glyph-name="f_f_i" unicode="ffi" horiz-adv-x="1254" 
d="M299 577.5q-22 -20.5 -24 -67.5h203v-114h-203v-396h-162v396h-103v114h104q7 98 67.5 150t163.5 52q89 0 162 -29l-24 -121q-55 36 -117 36q-45 0 -67 -20.5zM667.5 660q60.5 52 163.5 52q89 0 162 -29l-24 -121q-55 36 -117 36q-45 0 -67 -20.5t-24 -67.5h203v-114
h-203v-396h-162v396h-103v114h104q7 98 67.5 150zM1202 700v-130h-178v130h178zM1032 510h162v-510h-162v510z" />
    <glyph glyph-name="f_i" unicode="fi" horiz-adv-x="768" 
d="M181.5 660q60.5 52 163.5 52q89 0 162 -29l-24 -121q-55 36 -117 36q-45 0 -67 -20.5t-24 -67.5h203v-114h-203v-396h-162v396h-103v114h104q7 98 67.5 150zM716 700v-130h-178v130h178zM546 510h162v-510h-162v510z" />
    <glyph glyph-name="f_l" unicode="fl" horiz-adv-x="768" 
d="M299 579q-22 -21 -24 -69h209v-114h-209v-396h-162v396h-103v114h104q7 98 68 150t166 52q93 0 166 -32l-24 -121q-23 18 -55 29.5t-66 11.5q-48 0 -70 -21zM708 700v-700h-162v700h162z" />
    <glyph glyph-name="f_t" unicode="ft" horiz-adv-x="959" 
d="M299 577.5q-22 -20.5 -24 -67.5h199v-114h-199v-396h-162v396h-103v114h104q7 98 67.5 150t163.5 52q87 0 158 -28l-24 -121q-53 35 -113 35q-45 0 -67 -20.5zM949 25q-39 -19 -80 -28t-94 -9q-184 0 -184 172v236h-99v114h114l30 160h117v-160h189v-114h-189v-219
q0 -42 14.5 -58.5t48.5 -16.5q26 0 58 11.5t53 28.5z" />
    <glyph glyph-name="g_g" unicode="gg" horiz-adv-x="1236" 
d="M610 -30q0 -88 -79 -130t-235 -42q-161 0 -227.5 25.5t-66.5 76.5q0 35 23.5 57.5t61.5 33.5q-32 14 -50 39.5t-18 58.5q0 43 26.5 73t67.5 43q-36 23 -55 57.5t-19 77.5q0 55 31.5 96t90.5 63.5t139 22.5q88 0 150 -27q16 52 44.5 76.5t75.5 24.5q35 0 58 -13l-24 -125
q-21 13 -50 13t-47 -11q54 -48 54 -120q0 -84 -70 -133t-191 -49q-73 0 -130 19q-32 -13 -32 -39q0 -18 14 -26.5t46 -8.5h218q194 0 194 -133zM1245 -30q0 -88 -80.5 -130t-243.5 -42q-166 0 -233.5 25.5t-67.5 76.5q0 35 23.5 57.5t61.5 33.5q-32 14 -50 39.5t-18 58.5
q0 43 26.5 73t67.5 43q-36 23 -55 57.5t-19 77.5q0 55 31.5 96t90.5 63.5t139 22.5q89 0 150 -27q16 52 44.5 76.5t75.5 24.5q35 0 58 -13l-24 -125q-21 13 -50 13t-47 -11q54 -48 54 -120q0 -84 -70 -133t-191 -49q-73 0 -130 19q-32 -13 -32 -39q0 -18 14 -26.5t46 -8.5
h235q194 0 194 -133zM221.5 413.5q-28.5 -25.5 -28.5 -73.5t28.5 -73.5t78.5 -25.5t78.5 25.5t28.5 73.5t-28.5 73.5t-78.5 25.5t-78.5 -25.5zM839.5 413.5q-28.5 -25.5 -28.5 -73.5t28.5 -73.5t78.5 -25.5t78.5 25.5t28.5 73.5t-28.5 73.5t-78.5 25.5t-78.5 -25.5z
M421.5 -103.5q36.5 12.5 36.5 40.5q0 19 -13.5 28t-43.5 9h-227q-15 0 -25 1q-9 -12 -9 -32q0 -31 33 -45t123 -14q89 0 125.5 12.5zM1055 -103.5q38 12.5 38 40.5q0 19 -13.5 28t-43.5 9h-244q-15 0 -25 1q-9 -12 -9 -32q0 -21 13.5 -33.5t49 -19t100.5 -6.5q96 0 134 12.5
z" />
    <glyph glyph-name=".notdef" horiz-adv-x="1341" 
d="M72 353h1197v-353h-1197v353zM1229 34v285h-1117v-285h1117zM193 96q-26 11 -42 32l31 28q13 -14 31.5 -23t40.5 -9q18 0 27.5 5.5t9.5 13.5q0 13 -27 17l-41 7q-32 5 -47.5 17t-15.5 34q0 27 22.5 42.5t58.5 15.5q60 0 93 -34l-32 -29q-24 25 -63 25q-17 0 -26 -4.5
t-9 -11.5t5.5 -10.5t19.5 -5.5l40 -6q36 -5 52 -18.5t16 -37.5q0 -27 -23.5 -43t-61.5 -16q-33 0 -59 11zM389.5 111q-29.5 26 -29.5 69t29.5 69.5t77.5 26.5t77.5 -26.5t29.5 -69.5t-29.5 -69t-77.5 -26t-77.5 26zM607 273h104q70 0 70 -54q0 -39 -40 -46v-3q13 -1 20 -7.5
t11 -21.5l13 -53h-48l-12 46q-3 12 -9.5 16.5t-18.5 4.5h-45v-67h-45v185zM817 273h104q70 0 70 -54q0 -39 -40 -46v-3q13 -1 20 -7.5t11 -21.5l12 -53h-47l-12 46q-3 12 -9.5 16.5t-18.5 4.5h-45v-67h-45v185zM1074 154l-78 119h53l47 -78h1l47 78h53l-78 -119v-66h-45v66z
M511.5 139q16.5 15 16.5 41q0 27 -16.5 42.5t-44.5 15.5q-29 0 -45 -15t-16 -43q0 -26 16 -41t45 -15q28 0 44.5 15zM708 193q28 0 28 22q0 21 -28 21h-56v-43h56zM918 193q28 0 28 22q0 21 -28 21h-56v-43h56z" />
    <glyph glyph-name=".null" horiz-adv-x="0" 
 />
    <glyph glyph-name="nonmarkingreturn" unicode="&#xd;" horiz-adv-x="0" 
 />
    <glyph glyph-name="space" unicode=" " horiz-adv-x="208" 
 />
    <glyph glyph-name="exclam" unicode="!" horiz-adv-x="334" 
d="M256 700v-140l-30 -347h-118l-30 347v140h178zM260 150h-186v-150h186v150z" />
    <glyph glyph-name="quotedbl" unicode="&#x22;" horiz-adv-x="527" 
d="M64 700h158v-257h-158v257zM305 700h158v-257h-158v257z" />
    <glyph glyph-name="numbersign" unicode="#" horiz-adv-x="842" 
d="M664 405l-24 -110h139v-124h-167l-38 -171h-152l38 171h-158l-38 -171h-152l38 171h-122v124h150l24 110h-139v124h167l38 171h152l-38 -171h158l38 171h152l-38 -171h122v-124h-150zM512 405h-158l-24 -110h158z" />
    <glyph glyph-name="dollar" unicode="$" horiz-adv-x="732" 
d="M660 98.5q-36 -48.5 -100 -76.5t-146 -32v-100h-106v104q-88 13 -160 53t-122 103l119 108q36 -48 75.5 -80t87.5 -48v163l-20 4q-116 23 -171 69.5t-55 132.5q0 90 68 145.5t178 65.5v100h106v-101q81 -9 151 -41.5t120 -86.5l-118 -106q-36 42 -72.5 67.5t-80.5 35.5
v-151l25 -5q137 -26 197 -74.5t60 -136.5q0 -64 -36 -112.5zM244 470.5q19 -14.5 64 -23.5v136q-39 -6 -61 -25.5t-22 -47.5q0 -25 19 -39.5zM495.5 141.5q28.5 20.5 28.5 52.5q0 30 -24 48.5t-77 28.5l-9 2v-155q53 3 81.5 23.5z" />
    <glyph glyph-name="percent" unicode="%" horiz-adv-x="1048" 
d="M86.5 397.5q-58.5 49.5 -58.5 132.5q0 82 58.5 132t157.5 50t157.5 -50t58.5 -132q0 -83 -58.5 -132.5t-157.5 -49.5t-157.5 49.5zM761 700h158l-632 -700h-158zM300.5 461.5q21.5 23.5 21.5 65.5q0 46 -21 70.5t-57 24.5t-57 -24.5t-21 -70.5q0 -42 21.5 -65.5
t56.5 -23.5t56.5 23.5zM646.5 37.5q-58.5 49.5 -58.5 132.5q0 82 58.5 132t157.5 50t157.5 -50t58.5 -132q0 -83 -58.5 -132.5t-157.5 -49.5t-157.5 49.5zM860.5 101.5q21.5 23.5 21.5 65.5q0 46 -21 70.5t-57 24.5t-57 -24.5t-21 -70.5q0 -42 21.5 -65.5t56.5 -23.5
t56.5 23.5z" />
    <glyph glyph-name="ampersand" unicode="&#x26;" horiz-adv-x="852" 
d="M707 -6q-104 0 -175 45q-99 -51 -220 -51q-132 0 -204 52.5t-72 149.5q0 63 36.5 109.5t118.5 77.5l-7 7q-38 38 -54 69t-16 77q0 50 28 91.5t83 66t133 24.5q72 0 124.5 -21.5t79.5 -59.5t27 -86q0 -57 -40 -102t-127 -80l134 -134q36 72 43 180l153 -55
q-25 -130 -100 -218q38 -29 81 -29q47 0 83 30l24 -120q-51 -23 -133 -23zM298.5 602.5q-21.5 -19.5 -21.5 -52.5q0 -22 15.5 -47.5t48.5 -58.5l14 -14q42 26 62.5 56t20.5 60q0 35 -21.5 55.5t-58.5 20.5q-38 0 -59.5 -19.5zM233 123.5q35 -30.5 94 -30.5q68 0 119 24
l-188 191q-60 -31 -60 -101q0 -53 35 -83.5z" />
    <glyph glyph-name="quotesingle" unicode="'" horiz-adv-x="286" 
d="M64 700h158v-257h-158v257z" />
    <glyph glyph-name="parenleft" unicode="(" horiz-adv-x="439" 
d="M130 47q-58 116 -58 243t58 243t169 189h122q-93 -83 -146 -197t-53 -235t53 -235t146 -197h-122q-111 73 -169 189z" />
    <glyph glyph-name="parenright" unicode=")" horiz-adv-x="439" 
d="M18 -142q93 83 146 197t53 235t-53 235t-146 197h122q111 -73 169 -189t58 -243t-58 -243t-169 -189h-122z" />
    <glyph glyph-name="asterisk" unicode="*" horiz-adv-x="491" 
d="M315 496l136 -54l-56 -97l-114 91l21 -145h-112l21 145l-115 -91l-56 97l136 54l-136 54l56 97l115 -90l-21 143h112l-21 -143l114 90l56 -97z" />
    <glyph glyph-name="plus" unicode="+" horiz-adv-x="658" 
d="M578 272h-180v-170h-138v170h-180v118h180v170h138v-170h180v-118z" />
    <glyph glyph-name="comma" unicode="," horiz-adv-x="314" 
d="M48 -88q55 1 77 17.5t22 61.5v9h-83v150h186v-116q0 -104 -46 -148.5t-156 -44.5v71z" />
    <glyph glyph-name="hyphen" unicode="-" horiz-adv-x="542" 
d="M470 342v-116h-398v116h398z" />
    <glyph glyph-name="period" unicode="." horiz-adv-x="314" 
d="M250 150h-186v-150h186v150z" />
    <glyph glyph-name="slash" unicode="/" horiz-adv-x="589" 
d="M409 750h166l-385 -810h-166z" />
    <glyph glyph-name="zero" unicode="0" horiz-adv-x="776" 
d="M202.5 32.5q-78.5 44.5 -120.5 126.5t-42 191t42 191t120.5 126.5t185.5 44.5t185.5 -44.5t120.5 -126.5t42 -191t-42 -191t-120.5 -126.5t-185.5 -44.5t-185.5 44.5zM514.5 176.5q47.5 60.5 47.5 173.5t-47.5 173.5t-126.5 60.5t-126.5 -60.5t-47.5 -173.5t47.5 -173.5
t126.5 -60.5t126.5 60.5z" />
    <glyph glyph-name="one" unicode="1" horiz-adv-x="438" 
d="M194 514h-6q-47 -54 -170 -54v135q162 0 197 105h149v-700h-170v514z" />
    <glyph glyph-name="two" unicode="2" horiz-adv-x="648" 
d="M35 134q115 52 195.5 100.5t133.5 110.5t53 135q0 48 -25 76t-77 28q-109 0 -130 -159l-165 48q25 119 101.5 179t197.5 60q127 0 199.5 -61t72.5 -176q0 -109 -77 -194.5t-244 -146.5v-6h344v-128h-579v134z" />
    <glyph glyph-name="three" unicode="3" horiz-adv-x="648" 
d="M116.5 46.5q-78.5 58.5 -100.5 157.5l165 48q16 -71 51 -103.5t90 -32.5q56 0 86 24.5t30 69.5q0 46 -34.5 72.5t-102.5 26.5h-78v120h73q62 0 92.5 22t30.5 59q0 78 -94 78q-48 0 -79.5 -28t-41.5 -83l-165 48q22 85 97 136t189 51q133 0 199.5 -50t66.5 -141
q0 -50 -32 -88.5t-89 -56.5v-6q65 -13 103.5 -55.5t38.5 -111.5q0 -104 -76 -159.5t-214 -55.5q-127 0 -205.5 58.5z" />
    <glyph glyph-name="four" unicode="4" horiz-adv-x="649" 
d="M633 143h-95v-143h-158v143h-358v128q67 65 103 129.5t50.5 133t20.5 166.5h172q-3 -132 -53 -244.5t-139 -178.5v-6h204v175h158v-175h95v-128z" />
    <glyph glyph-name="five" unicode="5" horiz-adv-x="647" 
d="M142 31.5q-74 43.5 -106 129.5l157 58q7 -43 41.5 -73t95.5 -30q56 0 86.5 29.5t30.5 83.5q0 48 -31 76.5t-86 28.5q-65 0 -105 -57l-177 40q16 93 23.5 180.5t10.5 202.5h489v-128h-345q-7 -102 -25 -203l6 -1q31 46 75.5 70t106.5 24q65 0 116.5 -28t80.5 -80.5
t29 -124.5q0 -76 -36 -130.5t-100.5 -82.5t-148.5 -28q-114 0 -188 43.5z" />
    <glyph glyph-name="six" unicode="6" 
d="M123 78.5q-83 90.5 -83 264.5q0 128 43.5 210.5t116.5 120.5t166 38q104 0 173 -41.5t99 -120.5l-157 -58q-16 50 -45.5 71t-69.5 21q-68 0 -107 -60t-39 -176h6q23 47 71 73.5t108 26.5q68 0 121.5 -26.5t84 -78t30.5 -125.5q0 -110 -77.5 -170t-205.5 -60
q-152 0 -235 90.5zM437 144q30 28 30 74q0 47 -29.5 74.5t-84.5 27.5t-85 -27.5t-30 -74.5q0 -46 30 -74t85 -28q54 0 84 28z" />
    <glyph glyph-name="seven" unicode="7" horiz-adv-x="554" 
d="M215 321.5q55 142.5 171 244.5v6h-370v128h522v-128q-83 -99 -127.5 -180.5t-64 -171.5t-23.5 -220h-170q7 179 62 321.5z" />
    <glyph glyph-name="eight" unicode="8" horiz-adv-x="668" 
d="M112 46q-76 58 -76 161q0 61 30 103.5t91 63.5v6q-87 46 -87 140q0 90 68 141t196 51t196 -51t68 -141q0 -93 -87 -140v-6q60 -21 90.5 -64t30.5 -103q0 -103 -76 -161t-222 -58t-222 58zM408 453.5q26 22.5 26 61.5t-26 61.5t-74 22.5t-74 -22.5t-26 -61.5t26 -61.5
t74 -22.5t74 22.5zM426 139q32 28 32 76q0 50 -32 78t-92 28t-92 -28t-32 -78q0 -48 32 -76t92 -28t92 28z" />
    <glyph glyph-name="nine" unicode="9" 
d="M136 29.5q-69 41.5 -99 120.5l157 58q16 -50 45.5 -71t69.5 -21q68 0 107 60t39 176h-6q-23 -47 -71 -73.5t-108 -26.5q-68 0 -121.5 26.5t-84 78t-30.5 125.5q0 110 77.5 170t205.5 60q152 0 235 -90.5t83 -264.5q0 -128 -43.5 -210.5t-116.5 -120.5t-166 -38
q-104 0 -173 41.5zM407 407.5q30 27.5 30 74.5q0 46 -30 74t-85 28q-54 0 -84 -28t-30 -74q0 -47 29.5 -74.5t84.5 -27.5t85 27.5z" />
    <glyph glyph-name="colon" unicode=":" horiz-adv-x="314" 
d="M250 510h-186v-150h186v150zM250 150h-186v-150h186v150z" />
    <glyph glyph-name="semicolon" unicode=";" horiz-adv-x="314" 
d="M250 510h-186v-150h186v150zM48 -88q55 1 77 17.5t22 61.5v9h-83v150h186v-116q0 -104 -46 -148.5t-156 -44.5v71z" />
    <glyph glyph-name="less" unicode="&#x3c;" horiz-adv-x="580" 
d="M74 394l418 180v-147l-268 -93v-6l268 -93v-147l-418 180v126z" />
    <glyph glyph-name="equal" unicode="=" horiz-adv-x="658" 
d="M578 500v-118h-498v118h498zM578 280v-118h-498v118h498z" />
    <glyph glyph-name="greater" unicode="&#x3e;" horiz-adv-x="580" 
d="M88 88v147l268 93v6l-268 93v147l418 -180v-126z" />
    <glyph glyph-name="question" unicode="?" horiz-adv-x="594" 
d="M106.5 661.5q75.5 50.5 187.5 50.5q131 0 206.5 -60t75.5 -165q0 -90 -47.5 -140t-141.5 -50q-39 0 -72 6l-8 -96h-131l-9 179q54 -6 82 -6q84 0 119.5 26t35.5 76q0 46 -29.5 74t-80.5 28q-107 0 -136 -119l-154 55q27 91 102.5 141.5zM335 150h-186v-150h186v150z" />
    <glyph glyph-name="at" unicode="@" horiz-adv-x="986" 
d="M257.5 -121q-103.5 50 -160.5 140t-57 206t57 206t160.5 140t236.5 50q129 0 232 -44t161.5 -124t58.5 -184q0 -102 -54 -168t-160 -66q-56 0 -90 22t-44 64h-5q-19 -41 -56 -63.5t-84 -22.5q-83 0 -134 50.5t-51 135.5t50.5 135.5t132.5 50.5q40 0 74.5 -14t55.5 -40h5
v46h112v-236q0 -26 10 -36.5t32 -10.5q34 0 55.5 33.5t21.5 110.5q0 82 -42.5 143t-116 93.5t-164.5 32.5q-98 0 -170.5 -40t-111 -109t-38.5 -155t38.5 -155.5t111 -109t170.5 -39.5q62 0 113.5 11t86.5 33l28 -100q-101 -36 -228 -36q-133 0 -236.5 50zM549.5 137.5
q26.5 26.5 26.5 79.5v8q0 53 -26 79.5t-67 26.5t-66 -28t-25 -82t25 -82t66 -28q40 0 66.5 26.5z" />
    <glyph glyph-name="A" unicode="A" horiz-adv-x="798" 
d="M565 150h-332l-61 -150h-178l300 700h210l300 -700h-178zM511 286l-109 269h-6l-109 -269h224z" />
    <glyph glyph-name="B" unicode="B" horiz-adv-x="768" 
d="M692.5 319.5q39.5 -46.5 39.5 -117.5q0 -99 -71.5 -150.5t-201.5 -51.5h-387v700h375q123 0 185.5 -43t62.5 -124q0 -114 -120 -150v-4q78 -13 117.5 -59.5zM242 564v-127h196q45 0 66.5 16t21.5 48t-21.5 47.5t-66.5 15.5h-196zM560 221q0 82 -114 82h-204v-167h204
q114 0 114 85z" />
    <glyph glyph-name="C" unicode="C" horiz-adv-x="831" 
d="M676 50.5q-97 -62.5 -241 -62.5q-118 0 -209 45t-141.5 127t-50.5 190t50.5 190t141.5 127t209 45q143 0 239 -61t135 -168l-157 -58q-24 66 -79.5 102.5t-137.5 36.5q-104 0 -165.5 -56.5t-61.5 -157.5t61.5 -157.5t165.5 -56.5q161 0 219 144l157 -57
q-38 -110 -135 -172.5z" />
    <glyph glyph-name="D" unicode="D" horiz-adv-x="821" 
d="M608.5 656q87.5 -44 133 -123.5t45.5 -182.5t-45.5 -182.5t-133 -123.5t-209.5 -44h-327v700h327q122 0 209.5 -44zM554 198q59 54 59 152t-59 152t-171 54h-141v-412h141q112 0 171 54z" />
    <glyph glyph-name="E" unicode="E" horiz-adv-x="701" 
d="M72 700h593v-144h-423v-118h339v-144h-339v-150h423v-144h-593v700z" />
    <glyph glyph-name="F" unicode="F" horiz-adv-x="667" 
d="M242 556v-140h349v-144h-349v-272h-170v700h573v-144h-403z" />
    <glyph glyph-name="G" unicode="G" horiz-adv-x="855" 
d="M482 381h323v-381h-123l-14 116q-32 -58 -100.5 -93t-165.5 -35q-108 0 -191.5 43.5t-130 125.5t-46.5 193q0 108 50.5 190t141.5 127t209 45q137 0 232.5 -54t141.5 -154l-157 -58q-58 118 -217 118q-104 0 -165.5 -56.5t-61.5 -157.5q0 -104 60.5 -159t177.5 -55
q73 0 123 27t64 84h-151v134z" />
    <glyph glyph-name="H" unicode="H" horiz-adv-x="851" 
d="M779 700v-700h-170v295h-367v-295h-170v700h170v-257h367v257h170z" />
    <glyph glyph-name="I" unicode="I" horiz-adv-x="314" 
d="M242 700v-700h-170v700h170z" />
    <glyph glyph-name="J" unicode="J" horiz-adv-x="678" 
d="M119 49q-80 61 -119 172l157 58q18 -69 59 -107t101 -38q64 0 93.5 32t29.5 104v430h170v-440q0 -139 -72 -205.5t-220 -66.5q-119 0 -199 61z" />
    <glyph glyph-name="K" unicode="K" horiz-adv-x="750" 
d="M384 313l-142 -156v-157h-170v700h170v-327l283 327h209l-235 -259l253 -441h-193z" />
    <glyph glyph-name="L" unicode="L" horiz-adv-x="657" 
d="M72 700h170v-554h395v-146h-565v700z" />
    <glyph glyph-name="M" unicode="M" horiz-adv-x="1098" 
d="M72 700h272l202 -531h6l202 531h272v-700h-164v536h-6l-212 -536h-190l-212 536h-6v-536h-164v700z" />
    <glyph glyph-name="N" unicode="N" horiz-adv-x="851" 
d="M72 700h230l305 -509h6v509h166v-700h-230l-305 509h-6v-509h-166v700z" />
    <glyph glyph-name="O" unicode="O" horiz-adv-x="876" 
d="M226.5 33q-91.5 45 -142 127t-50.5 190t50.5 190t142 127t211.5 45t211.5 -45t142 -127t50.5 -190t-50.5 -190t-142 -127t-211.5 -45t-211.5 45zM606.5 192q61.5 56 61.5 158t-61.5 158t-168.5 56t-168.5 -56t-61.5 -158t61.5 -158t168.5 -56t168.5 56z" />
    <glyph glyph-name="P" unicode="P" horiz-adv-x="730" 
d="M636.5 642q69.5 -58 69.5 -162t-69.5 -162t-194.5 -58h-200v-260h-170v700h370q125 0 194.5 -58zM536 480q0 78 -102 78h-192v-156h192q102 0 102 78z" />
    <glyph glyph-name="Q" unicode="Q" horiz-adv-x="876" 
d="M635 -53q28 9 46 25l68 -121q-70 -53 -182 -53q-109 0 -169 52t-60 147q-92 17 -160.5 65t-106 122t-37.5 166q0 108 50.5 190t142 127t211.5 45t211.5 -45t142 -127t50.5 -190q0 -102 -45 -181t-128 -126t-192 -54q9 -24 34.5 -37.5t66.5 -13.5q29 0 57 9zM269.5 192
q61.5 -56 168.5 -56t168.5 56t61.5 158t-61.5 158t-168.5 56t-168.5 -56t-61.5 -158t61.5 -158z" />
    <glyph glyph-name="R" unicode="R" horiz-adv-x="775" 
d="M743 0h-182l-45 175q-11 43 -36.5 61t-70.5 18h-167v-254h-170v700h390q138 0 202 -52.5t64 -153.5q0 -75 -40 -118t-111 -58v-6q50 -4 75 -28.5t40 -81.5zM558 477q0 81 -106 81h-210v-162h210q106 0 106 81z" />
    <glyph glyph-name="S" unicode="S" horiz-adv-x="754" 
d="M176.5 31q-97.5 42 -158.5 119l119 108q48 -56 117 -89.5t154 -33.5q68 0 104 20t36 51q0 27 -23.5 41.5t-77.5 23.5l-157 26q-121 20 -178.5 67.5t-57.5 134.5q0 66 38.5 114t108 73.5t159.5 25.5q106 0 197.5 -33.5t151.5 -97.5l-118 -106q-47 47 -105 70t-133 23
q-66 0 -101 -17t-35 -45q0 -26 21 -38.5t77 -21.5l148 -24q136 -22 196.5 -72t60.5 -139q0 -68 -40.5 -118t-113 -77t-165.5 -27q-127 0 -224.5 42z" />
    <glyph glyph-name="T" unicode="T" horiz-adv-x="714" 
d="M272 554h-256v146h682v-146h-256v-554h-170v554z" />
    <glyph glyph-name="U" unicode="U" horiz-adv-x="832" 
d="M68 314v386h170v-369q0 -101 44 -148t134 -47t134 47t44 148v369h170v-386q0 -326 -348 -326t-348 326z" />
    <glyph glyph-name="V" unicode="V" horiz-adv-x="778" 
d="M-2 700h189l199 -535h6l199 535h189l-287 -700h-208z" />
    <glyph glyph-name="W" unicode="W" horiz-adv-x="1210" 
d="M194 700l151 -518h6l155 518h199l153 -518h6l152 518h188l-239 -700h-206l-151 520h-6l-152 -520h-206l-238 700h188z" />
    <glyph glyph-name="X" unicode="X" horiz-adv-x="784" 
d="M284 359l-274 341h213l166 -214h6l166 214h213l-274 -341l288 -359h-213l-180 232h-6l-180 -232h-213z" />
    <glyph glyph-name="Y" unicode="Y" horiz-adv-x="746" 
d="M288 250l-296 450h200l178 -294h6l178 294h200l-296 -450v-250h-170v250z" />
    <glyph glyph-name="Z" unicode="Z" horiz-adv-x="750" 
d="M34 146l446 408h-427v146h646v-146l-446 -408h463v-146h-682v146z" />
    <glyph glyph-name="bracketleft" unicode="[" horiz-adv-x="407" 
d="M90 722h279v-92h-133v-680h133v-92h-279v864z" />
    <glyph glyph-name="backslash" unicode="\" horiz-adv-x="599" 
d="M409 -60l-385 810h166l385 -810h-166z" />
    <glyph glyph-name="bracketright" unicode="]" horiz-adv-x="407" 
d="M38 -142v92h133v680h-133v92h279v-864h-279z" />
    <glyph glyph-name="asciicircum" unicode="^" horiz-adv-x="518" 
d="M193 700h134l166 -239h-148l-83 120h-6l-83 -120h-148z" />
    <glyph glyph-name="underscore" unicode="_" horiz-adv-x="528" 
d="M0 0h528v-120h-528v120z" />
    <glyph glyph-name="a" unicode="a" horiz-adv-x="670" 
d="M670 0q-40 -10 -84 -10q-65 0 -100.5 36t-35.5 100h-6q-24 -65 -80 -101.5t-140 -36.5q-103 0 -154.5 41t-51.5 109q0 76 74.5 124t237.5 48q63 0 112 -5v14q0 52 -30.5 77t-85.5 25q-46 0 -80.5 -22t-48.5 -67l-162 49q33 70 111.5 105.5t174.5 35.5q135 0 206.5 -44.5
t71.5 -146.5v-184q0 -25 7 -35t25 -10q17 0 29 6zM375.5 125.5q50.5 33.5 63.5 105.5q-39 4 -86 4q-168 0 -168 -81q0 -32 19.5 -47t62.5 -15q58 0 108.5 33.5z" />
    <glyph glyph-name="b" unicode="b" horiz-adv-x="703" 
d="M307.5 17q-52.5 29 -82.5 85h-6l-16 -102h-143v700h162v-282h6q33 51 83 77.5t114 26.5q74 0 131.5 -32t90 -92t32.5 -143t-32.5 -143t-90 -92t-131.5 -32q-65 0 -117.5 29zM473.5 140.5q37.5 40.5 37.5 114.5t-37.5 114.5t-103.5 40.5q-64 0 -103 -40t-39 -109v-12
q0 -70 39 -109.5t103 -39.5q66 0 103.5 40.5z" />
    <glyph glyph-name="c" unicode="c" horiz-adv-x="632" 
d="M517.5 37q-73.5 -49 -178.5 -49q-96 0 -167.5 33t-110.5 93.5t-39 140.5q0 79 39 139.5t110.5 94t167.5 33.5q107 0 181.5 -45.5t103.5 -134.5l-150 -45q-15 60 -46.5 91.5t-88.5 31.5q-68 0 -107.5 -43.5t-39.5 -121.5t39.5 -121.5t107.5 -43.5q56 0 87.5 35.5
t47.5 97.5l150 -45q-33 -92 -106.5 -141z" />
    <glyph glyph-name="d" unicode="d" horiz-adv-x="703" 
d="M146.5 20q-57.5 32 -90 92t-32.5 143t32.5 143t90 92t131.5 32q127 0 197 -99h6v277h162v-700h-160v107h-6q-28 -61 -80 -90t-119 -29q-74 0 -131.5 32zM436 139.5q39 39.5 39 109.5v12q0 70 -39 109.5t-103 39.5q-66 0 -103.5 -40.5t-37.5 -114.5t37.5 -114.5
t103.5 -40.5q64 0 103 39.5z" />
    <glyph glyph-name="e" unicode="e" horiz-adv-x="662" 
d="M571 445q77 -77 71 -217h-449q7 -64 45.5 -100t106.5 -36q60 0 93 25t53 74l144 -51q-36 -70 -109 -111t-181 -41q-101 0 -173.5 33t-111 93.5t-38.5 140.5t38.5 140t111 93.5t171.5 33.5q151 0 228 -77zM245 394q-37 -30 -48 -87h279q-13 117 -133 117q-61 0 -98 -30z
" />
    <glyph glyph-name="f" unicode="f" horiz-adv-x="486" 
d="M299 579q-22 -21 -24 -69h209v-114h-209v-396h-162v396h-103v114h104q7 98 68 150t166 52q93 0 166 -32l-24 -121q-23 18 -55 29.5t-66 11.5q-48 0 -70 -21z" />
    <glyph glyph-name="g" unicode="g" horiz-adv-x="618" 
d="M627 -30q0 -88 -80.5 -130t-243.5 -42q-166 0 -233.5 25.5t-67.5 76.5q0 35 23.5 57.5t61.5 33.5q-32 14 -50 39.5t-18 58.5q0 43 26.5 73t67.5 43q-36 23 -55 57.5t-19 77.5q0 55 31.5 96t90.5 63.5t139 22.5q88 0 150 -27q16 52 44.5 76.5t75.5 24.5q35 0 58 -13
l-24 -125q-21 13 -50 13t-47 -11q54 -48 54 -120q0 -84 -70 -133t-191 -49q-73 0 -130 19q-32 -13 -32 -39q0 -18 14 -26.5t46 -8.5h235q194 0 194 -133zM221.5 413.5q-28.5 -25.5 -28.5 -73.5t28.5 -73.5t78.5 -25.5t78.5 25.5t28.5 73.5t-28.5 73.5t-78.5 25.5
t-78.5 -25.5zM437 -103.5q38 12.5 38 40.5q0 19 -13.5 28t-43.5 9h-244q-15 0 -25 1q-9 -12 -9 -32q0 -21 13.5 -33.5t49 -19t100.5 -6.5q96 0 134 12.5z" />
    <glyph glyph-name="h" unicode="h" 
d="M60 700h162v-297h6q25 53 75 86t123 33q98 0 146.5 -52t48.5 -144v-326h-162v284q0 120 -103 120q-60 0 -97 -42.5t-37 -153.5v-208h-162v700z" />
    <glyph glyph-name="i" unicode="i" horiz-adv-x="282" 
d="M52 700h178v-130h-178v130zM60 510h162v-510h-162v510z" />
    <glyph glyph-name="j" unicode="j" horiz-adv-x="292" 
d="M62 700h178v-130h-178v130zM232 24q0 -112 -59 -169t-171 -57q-78 0 -152 24l24 121q55 -33 107 -33q46 0 67.5 23.5t21.5 77.5v499h162v-486z" />
    <glyph glyph-name="k" unicode="k" horiz-adv-x="624" 
d="M320 210l-98 -94v-116h-162v700h162v-412l228 222h180l-202 -195l212 -315h-181z" />
    <glyph glyph-name="l" unicode="l" horiz-adv-x="282" 
d="M222 700v-700h-162v700h162z" />
    <glyph glyph-name="m" unicode="m" horiz-adv-x="1054" 
d="M60 510h160v-116h6q22 57 71.5 92.5t119.5 35.5q73 0 118 -35t63 -93h6q28 60 81.5 94t120.5 34q97 0 145.5 -51t48.5 -140v-331h-162v289q0 57 -25 86t-73 29q-59 0 -94 -42t-35 -154v-208h-162v289q0 57 -25 86t-73 29q-59 0 -94 -41t-35 -150v-213h-162v510z" />
    <glyph glyph-name="n" unicode="n" 
d="M60 510h160v-116h6q24 60 74.5 94t125.5 34q98 0 146.5 -52t48.5 -144v-326h-162v284q0 120 -103 120q-60 0 -97 -42.5t-37 -153.5v-208h-162v510z" />
    <glyph glyph-name="o" unicode="o" horiz-adv-x="681" 
d="M172 21q-72 33 -111 93.5t-39 140.5t39 140.5t111 93.5t168 33q97 0 169 -33t111 -93.5t39 -140.5t-39 -140.5t-111 -93.5t-169 -33q-96 0 -168 33zM449 133.5q40 43.5 40 121.5t-40 121.5t-109 43.5q-68 0 -108 -43.5t-40 -121.5t40 -121.5t108 -43.5q69 0 109 43.5z
" />
    <glyph glyph-name="p" unicode="p" horiz-adv-x="703" 
d="M60 510h160v-107h6q28 60 80.5 89.5t118.5 29.5q74 0 131.5 -32t90 -92t32.5 -143t-32.5 -143t-90 -92t-131.5 -32q-63 0 -114 26t-83 73h-6v-277h-162v700zM473.5 140.5q37.5 40.5 37.5 114.5t-37.5 114.5t-103.5 40.5q-64 0 -103 -40t-39 -109v-12q0 -70 39 -109.5
t103 -39.5q66 0 103.5 40.5z" />
    <glyph glyph-name="q" unicode="q" horiz-adv-x="703" 
d="M481 92h-6q-33 -51 -83 -77.5t-114 -26.5q-74 0 -131.5 32t-90 92t-32.5 143t32.5 143t90 92t131.5 32q65 0 117 -29t82 -85h6v102h160v-700h-162v282zM436 139.5q39 39.5 39 109.5v12q0 70 -39 109.5t-103 39.5q-66 0 -103.5 -40.5t-37.5 -114.5t37.5 -114.5
t103.5 -40.5q64 0 103 39.5z" />
    <glyph glyph-name="r" unicode="r" horiz-adv-x="456" 
d="M60 510h156v-145h6q28 81 71 115.5t111 34.5q32 0 64 -8l-27 -134q-29 13 -68 13q-72 0 -111.5 -46.5t-39.5 -142.5v-197h-162v510z" />
    <glyph glyph-name="s" unicode="s" horiz-adv-x="573" 
d="M139.5 11.5q-74.5 22.5 -129.5 65.5l105 98q33 -34 88 -57.5t109 -23.5q92 0 92 48q0 20 -16 31.5t-53 15.5l-124 16q-90 11 -136.5 50t-46.5 103q0 75 66.5 119.5t183.5 44.5q88 0 150 -21.5t107 -61.5l-103 -87q-60 71 -172 71q-43 0 -66 -11.5t-23 -33.5
q0 -18 16 -28.5t55 -15.5l125 -17q93 -13 140.5 -51t47.5 -101q0 -51 -31 -91t-89 -62.5t-136 -22.5q-85 0 -159.5 22.5z" />
    <glyph glyph-name="t" unicode="t" horiz-adv-x="473" 
d="M2 510h118l30 160h117v-160h189v-114h-189v-219q0 -42 14.5 -58.5t48.5 -16.5q26 0 58 11.5t53 28.5l22 -117q-39 -19 -80 -28t-94 -9q-184 0 -184 172v236h-103v114z" />
    <glyph glyph-name="u" unicode="u" horiz-adv-x="671" 
d="M611 0h-156v116h-6q-27 -65 -73.5 -96.5t-122.5 -31.5q-100 0 -149.5 55t-49.5 161v306h162v-284q0 -120 99 -120q59 0 96.5 46t37.5 150v208h162v-510z" />
    <glyph glyph-name="v" unicode="v" horiz-adv-x="600" 
d="M154 510l147 -375h6l149 375h162l-223 -510h-190l-223 510h172z" />
    <glyph glyph-name="w" unicode="w" horiz-adv-x="957" 
d="M157 510l115 -375h6l120 375h169l120 -375h6l117 375h159l-186 -510h-190l-111 363h-6l-111 -363h-190l-187 510h169z" />
    <glyph glyph-name="x" unicode="x" horiz-adv-x="601" 
d="M208 258l-218 252h194l118 -147h6l128 147h175l-218 -244l230 -266h-194l-130 159h-6l-140 -159h-175z" />
    <glyph glyph-name="y" unicode="y" horiz-adv-x="592" 
d="M4 -54q33 -17 63 -26.5t65 -9.5q41 0 64 19t40 63l6 16l-255 502h174l149 -335h6l135 335h157l-237 -538q-27 -62 -57.5 -99.5t-75 -56t-109.5 -18.5q-39 0 -79.5 8t-69.5 19z" />
    <glyph glyph-name="z" unicode="z" horiz-adv-x="520" 
d="M18 107l284 289h-274v114h464v-107l-284 -289h294v-114h-484v107z" />
    <glyph glyph-name="braceleft" unicode="{" horiz-adv-x="487" 
d="M35 337q30 -3 63 -3q38 0 59.5 17t21.5 49q0 31 -15 80q-9 30 -13.5 53.5t-4.5 51.5q0 64 51 103.5t142 39.5q67 0 114 -12l-10 -93q-29 12 -69 12t-61.5 -20t-21.5 -56q0 -21 4 -40t12 -46q5 -19 9.5 -38.5t4.5 -36.5q0 -40 -24 -69.5t-79 -35.5v-6q55 -6 79 -35.5
t24 -69.5q0 -17 -4.5 -36.5t-9.5 -38.5q-8 -27 -12 -46t-4 -40q0 -36 21.5 -56t61.5 -20q41 0 69 12l10 -93q-47 -12 -114 -12q-91 0 -142 39.5t-51 103.5q0 28 4.5 51.5t13.5 53.5q15 49 15 80q0 32 -21.5 49t-59.5 17q-33 0 -63 -3v94z" />
    <glyph glyph-name="bar" unicode="|" horiz-adv-x="326" 
d="M90 700h146v-810h-146v810z" />
    <glyph glyph-name="braceright" unicode="}" horiz-adv-x="487" 
d="M389 246q-38 0 -59.5 -17t-21.5 -49q0 -31 15 -80q9 -30 13.5 -53.5t4.5 -51.5q0 -64 -51 -103.5t-142 -39.5q-67 0 -114 12l10 93q29 -12 69 -12t61.5 20t21.5 56q0 21 -4 40t-12 46q-5 19 -9.5 38.5t-4.5 36.5q0 40 24 69.5t79 35.5v6q-55 6 -79 35.5t-24 69.5
q0 17 4.5 36.5t9.5 38.5q8 27 12 46t4 40q0 36 -21.5 56t-61.5 20q-41 0 -69 -12l-10 93q47 12 114 12q91 0 142 -39.5t51 -103.5q0 -28 -4.5 -51.5t-13.5 -53.5q-15 -49 -15 -80q0 -32 21.5 -49t59.5 -17q33 0 63 3v-94q-30 3 -63 3z" />
    <glyph glyph-name="asciitilde" unicode="~" horiz-adv-x="616" 
d="M80 390q48 38 127 38q28 0 53 -6.5t57 -19.5q33 -12 52 -17t40 -5q33 0 62 11.5t65 38.5v-138q-48 -38 -127 -38q-28 0 -53 6.5t-57 19.5q-33 12 -52 17t-40 5q-33 0 -62 -11.5t-65 -38.5v138z" />
    <glyph glyph-name="uni00A0" unicode="&#xa0;" horiz-adv-x="208" 
 />
    <glyph glyph-name="cent" unicode="&#xa2;" horiz-adv-x="632" 
d="M467 225l157 -47q-29 -82 -91 -130t-151 -58v-100h-106v102q-118 16 -186 86t-68 177q0 106 68 176.5t186 86.5v102h106v-100q90 -8 152.5 -53t89.5 -125l-157 -47q-24 89 -85 109v-297q60 23 85 118zM217 165.5q21 -36.5 59 -53.5v286q-38 -17 -59 -53.5t-21 -89.5
t21 -89.5z" />
    <glyph glyph-name="sterling" unicode="&#xa3;" horiz-adv-x="656" 
d="M262 128h362v-128h-563v134q53 14 80.5 35t27.5 58q0 20 -7 44h-124v98h72q-31 57 -31 115q0 64 33 116t95.5 82t146.5 30q125 0 189.5 -47t88.5 -152l-165 -48q-8 61 -34.5 90t-78.5 29q-49 0 -75 -25t-26 -64q0 -32 9.5 -61.5t27.5 -64.5h244v-98h-200q5 -20 5 -38
q0 -60 -77 -99v-6z" />
    <glyph glyph-name="currency" unicode="&#xa4;" horiz-adv-x="598" 
d="M493 205l65 -65l-68 -68l-73 73q-51 -23 -118 -23t-118 23l-73 -73l-68 68l65 65q-39 53 -39 126q0 75 39 126l-65 65l68 68l73 -73q51 23 118 23t118 -23l73 73l68 -68l-65 -65q39 -53 39 -126q0 -75 -39 -126zM225 251q27 -27 74 -27t74 27t27 80q0 52 -27.5 79.5
t-73.5 27.5t-73.5 -27.5t-27.5 -79.5q0 -53 27 -80z" />
    <glyph glyph-name="yen" unicode="&#xa5;" horiz-adv-x="722" 
d="M506 364h115v-98h-175v-58h175v-98h-175v-110h-170v110h-175v98h175v58h-175v98h115l-206 336h200l148 -284h6l148 284h200z" />
    <glyph glyph-name="brokenbar" unicode="&#xa6;" horiz-adv-x="326" 
d="M90 700h146v-363h-146v363zM236 -110h-146v363h146v-363z" />
    <glyph glyph-name="section" unicode="&#xa7;" horiz-adv-x="700" 
d="M183 -170.5q-83 30.5 -137 88.5l118 106q39 -52 88.5 -78.5t116.5 -26.5q61 0 92.5 16t31.5 46q0 19 -19.5 30.5t-69.5 21.5l-135 26q-117 23 -175 68t-58 117q0 87 83 145v6q-60 47 -60 123q0 92 76 143t202 51q97 0 180 -30.5t137 -88.5l-118 -106q-44 57 -93 82.5
t-121 25.5q-56 0 -85.5 -16.5t-29.5 -45.5q0 -22 19.5 -33.5t69.5 -21.5l135 -26q117 -23 175 -68t58 -117q0 -94 -83 -145v-6q28 -22 44 -53t16 -66q0 -93 -76 -145.5t-202 -52.5q-97 0 -180 30.5zM207.5 231.5q21.5 -18.5 75.5 -28.5l204 -38q28 31 28 63q0 33 -21.5 51.5
t-75.5 28.5l-204 38q-28 -31 -28 -63q0 -33 21.5 -51.5z" />
    <glyph glyph-name="guillemotleft" unicode="&#xab;" horiz-adv-x="672" 
d="M62 297l260 182v-144l-148 -73v-6l148 -73v-144l-260 182v76zM332 297l260 182v-144l-148 -73v-6l148 -73v-144l-260 182v76z" />
    <glyph glyph-name="uni00AD" unicode="&#xad;" horiz-adv-x="542" 
d="M470 342v-116h-398v116h398z" />
    <glyph glyph-name="registered" unicode="&#xae;" horiz-adv-x="612" 
d="M442.5 700.5q62.5 -36.5 99 -99t36.5 -136.5t-36.5 -136.5t-99 -99t-136.5 -36.5t-136.5 36.5t-99 99t-36.5 136.5t36.5 136.5t99 99t136.5 36.5t136.5 -36.5zM419 269.5q52 30.5 82.5 82.5t30.5 113t-30.5 113t-82.5 82.5t-113 30.5t-113 -30.5t-82.5 -82.5t-30.5 -113
t30.5 -113t82.5 -82.5t113 -30.5t113 30.5zM410 439q10 -10 17 -34l21 -76h-87l-17 65q-5 19 -13.5 26t-26.5 7h-44v-98h-80v281h152q110 0 110 -85q0 -57 -63 -71v-4q21 -1 31 -11zM362 518q0 29 -34 29h-68v-57h68q34 0 34 28z" />
    <glyph glyph-name="paragraph" unicode="&#xb6;" horiz-adv-x="705" 
d="M615 -110h-115v698h-82v-698h-115v430h-53q-111 0 -168.5 52.5t-57.5 137.5t57.5 137.5t168.5 52.5h365v-810z" />
    <glyph glyph-name="periodcentered" unicode="&#xb7;" horiz-adv-x="346" 
d="M266 420h-186v-150h186v150z" />
    <glyph glyph-name="guillemotright" unicode="&#xbb;" horiz-adv-x="672" 
d="M80 39v144l148 73v6l-148 73v144l260 -182v-76zM350 39v144l148 73v6l-148 73v144l260 -182v-76z" />
    <glyph glyph-name="multiply" unicode="&#xd7;" horiz-adv-x="584" 
d="M72 199l132 132l-132 132l88 88l132 -132l132 132l88 -88l-132 -132l132 -132l-88 -88l-132 132l-132 -132z" />
    <glyph glyph-name="divide" unicode="&#xf7;" horiz-adv-x="658" 
d="M414 612h-170v-140h170v140zM578 390v-118h-498v118h498zM414 190h-170v-140h170v140z" />
    <glyph glyph-name="uni2002" unicode="&#x2002;" horiz-adv-x="400" 
 />
    <glyph glyph-name="uni2003" unicode="&#x2003;" horiz-adv-x="800" 
 />
    <glyph glyph-name="uni2009" unicode="&#x2009;" horiz-adv-x="120" 
 />
    <glyph glyph-name="endash" unicode="&#x2013;" horiz-adv-x="772" 
d="M72 342h628v-116h-628v116z" />
    <glyph glyph-name="emdash" unicode="&#x2014;" horiz-adv-x="1162" 
d="M72 342h1018v-116h-1018v116z" />
    <glyph glyph-name="quoteleft" unicode="&#x2018;" horiz-adv-x="309" 
d="M261 629q-54 -1 -76.5 -16t-22.5 -54v-9h83v-150h-181v116q0 96 45.5 140t151.5 44v-71z" />
    <glyph glyph-name="quoteright" unicode="&#x2019;" horiz-adv-x="309" 
d="M48 471q54 1 76.5 16t22.5 54v9h-83v150h181v-116q0 -96 -45.5 -140t-151.5 -44v71z" />
    <glyph glyph-name="quotesinglbase" unicode="&#x201a;" horiz-adv-x="309" 
d="M48 -79q54 1 76.5 16t22.5 54v9h-83v150h181v-116q0 -96 -45.5 -140t-151.5 -44v71z" />
    <glyph glyph-name="quotedblleft" unicode="&#x201c;" horiz-adv-x="549" 
d="M261 629q-54 -1 -76.5 -16t-22.5 -54v-9h83v-150h-181v116q0 96 45.5 140t151.5 44v-71zM501 629q-54 -1 -76.5 -16t-22.5 -54v-9h83v-150h-181v116q0 96 45.5 140t151.5 44v-71z" />
    <glyph glyph-name="quotedblright" unicode="&#x201d;" horiz-adv-x="549" 
d="M48 471q54 1 76.5 16t22.5 54v9h-83v150h181v-116q0 -96 -45.5 -140t-151.5 -44v71zM288 471q54 1 76.5 16t22.5 54v9h-83v150h181v-116q0 -96 -45.5 -140t-151.5 -44v71z" />
    <glyph glyph-name="quotedblbase" unicode="&#x201e;" horiz-adv-x="549" 
d="M48 -79q54 1 76.5 16t22.5 54v9h-83v150h181v-116q0 -96 -45.5 -140t-151.5 -44v71zM288 -79q54 1 76.5 16t22.5 54v9h-83v150h181v-116q0 -96 -45.5 -140t-151.5 -44v71z" />
    <glyph glyph-name="bullet" unicode="&#x2022;" horiz-adv-x="462" 
d="M162.5 165.5q-31.5 18.5 -50 50t-18.5 68.5t18.5 68.5t50 50t68.5 18.5t68.5 -18.5t50 -50t18.5 -68.5t-18.5 -68.5t-50 -50t-68.5 -18.5t-68.5 18.5z" />
    <glyph glyph-name="ellipsis" unicode="&#x2026;" horiz-adv-x="874" 
d="M530 150h-186v-150h186v150zM810 150h-186v-150h186v150zM250 150h-186v-150h186v150z" />
    <glyph glyph-name="perthousand" unicode="&#x2030;" horiz-adv-x="1538" 
d="M86.5 397.5q-58.5 49.5 -58.5 132.5q0 82 58.5 132t157.5 50t157.5 -50t58.5 -132q0 -83 -58.5 -132.5t-157.5 -49.5t-157.5 49.5zM761 700h158l-632 -700h-158zM300.5 461.5q21.5 23.5 21.5 65.5q0 46 -21 70.5t-57 24.5t-57 -24.5t-21 -70.5q0 -42 21.5 -65.5
t56.5 -23.5t56.5 23.5zM646.5 37.5q-58.5 49.5 -58.5 132.5q0 82 58.5 132t157.5 50t157.5 -50t58.5 -132q0 -83 -58.5 -132.5t-157.5 -49.5t-157.5 49.5zM1136.5 37.5q-58.5 49.5 -58.5 132.5q0 82 58.5 132t157.5 50t157.5 -50t58.5 -132q0 -83 -58.5 -132.5t-157.5 -49.5
t-157.5 49.5zM860.5 101.5q21.5 23.5 21.5 65.5q0 46 -21 70.5t-57 24.5t-57 -24.5t-21 -70.5q0 -42 21.5 -65.5t56.5 -23.5t56.5 23.5zM1350.5 101.5q21.5 23.5 21.5 65.5q0 46 -21 70.5t-57 24.5t-57 -24.5t-21 -70.5q0 -42 21.5 -65.5t56.5 -23.5t56.5 23.5z" />
    <glyph glyph-name="guilsinglleft" unicode="&#x2039;" horiz-adv-x="402" 
d="M62 297l260 182v-144l-148 -73v-6l148 -73v-144l-260 182v76z" />
    <glyph glyph-name="guilsinglright" unicode="&#x203a;" horiz-adv-x="402" 
d="M80 39v144l148 73v6l-148 73v144l260 -182v-76z" />
    <glyph glyph-name="Euro" unicode="&#x20ac;" horiz-adv-x="870" 
d="M621.5 160q48.5 44 69.5 120l157 -57q-38 -111 -127.5 -173t-221.5 -62q-130 0 -224 61.5t-131 168.5h-114v98h94q-1 15 -1 31q0 17 1 27h-94v98h111q35 112 130 176t228 64q132 0 220.5 -61t128.5 -168l-157 -58q-21 76 -68.5 117.5t-123.5 41.5q-63 0 -109 -29t-70 -83
h231v-98h-253q-1 -10 -1 -27q0 -16 1 -31h253v-98h-226q25 -49 70 -75.5t104 -26.5q74 0 122.5 44z" />
    <glyph glyph-name="trademark" unicode="&#x2122;" horiz-adv-x="1269" 
d="M204 591h-164v109h455v-109h-164v-357h-127v357zM554 700h188l126 -347h6l126 347h189v-466h-117v321h-6l-124 -321h-142l-124 321h-6v-321h-116v466z" />
    <glyph glyph-name="minus" unicode="&#x2212;" horiz-adv-x="658" 
d="M578 390v-118h-498v118h498z" />
    <glyph glyph-name="smileface" unicode="&#x263a;" horiz-adv-x="588" 
d="M157.5 19.5q-62.5 36.5 -99 99t-36.5 136.5t36.5 136.5t99 99t136.5 36.5t136.5 -36.5t99 -99t36.5 -136.5t-36.5 -136.5t-99 -99t-136.5 -36.5t-136.5 36.5zM407 59.5q52 30.5 82.5 82.5t30.5 113t-30.5 113t-82.5 82.5t-113 30.5t-113 -30.5t-82.5 -82.5t-30.5 -113
t30.5 -113t82.5 -82.5t113 -30.5t113 30.5zM331 91q-8 0 -14 4.5t-8 12.5q-1 3 -1 8q0 14 17 20q48 16 69.5 48.5t21.5 70.5t-21.5 70.5t-69.5 48.5q-17 6 -17 20q0 10 6.5 17.5t16.5 7.5q6 0 9 -1q55 -17 88 -59.5t33 -103.5t-33 -103.5t-88 -59.5q-3 -1 -9 -1zM185 308
q-12 12 -12 29t12 29t29 12t29 -12t12 -29t-12 -29t-29 -12t-29 12zM185 144q-12 12 -12 29t12 29t29 12t29 -12t12 -29t-12 -29t-29 -12t-29 12z" />
    <glyph glyph-name="invsmileface" unicode="&#x263b;" horiz-adv-x="588" 
d="M157.5 19.5q-62.5 36.5 -99 99t-36.5 136.5t36.5 136.5t99 99t136.5 36.5t136.5 -36.5t99 -99t36.5 -136.5t-36.5 -136.5t-99 -99t-136.5 -36.5t-136.5 36.5zM428 151.5q33 42.5 33 103.5t-33 103.5t-88 59.5q-3 1 -9 1q-8 0 -14 -4.5t-8 -12.5q-1 -3 -1 -8q0 -14 17 -20
q48 -16 69.5 -48.5t21.5 -70.5t-21.5 -70.5t-69.5 -48.5q-17 -6 -17 -20q0 -10 6.5 -17.5t16.5 -7.5q6 0 9 1q55 17 88 59.5zM243 308q12 12 12 29t-12 29t-29 12t-29 -12t-12 -29t12 -29t29 -12t29 12zM243 144q12 12 12 29t-12 29t-29 12t-29 -12t-12 -29t12 -29t29 -12
t29 12z" />
    <glyph glyph-name="r.alt" horiz-adv-x="456" 
d="M60 510h156v-145h6q28 81 71 115.5t111 34.5q17 0 35 -2v-134q-28 7 -66 7q-72 0 -111.5 -46.5t-39.5 -142.5v-197h-162v510z" />
    <glyph glyph-name="zero.osf" horiz-adv-x="777" 
d="M203 24q-79 36 -121 102t-42 154t42 154t121 102t185 36q107 0 185.5 -36t121 -102t42.5 -154q0 -87 -44 -153t-123.5 -102.5t-181.5 -36.5q-106 0 -185 36zM516 148.5q47 46.5 47 131.5t-47 131.5t-128 46.5q-80 0 -127 -46.5t-47 -131.5q0 -84 47 -131t127 -47
q81 0 128 46.5z" />
    <glyph glyph-name="one.osf" horiz-adv-x="410" 
d="M166 408h-6q-20 -36 -51.5 -50.5t-90.5 -14.5v120q61 0 101.5 25.5t67.5 71.5h149v-560h-170v408z" />
    <glyph glyph-name="two.osf" horiz-adv-x="580" 
d="M32 116q93 29 168 73.5t118 96t43 98.5q0 34 -18.5 54t-55.5 20q-46 0 -70 -29t-32 -85l-165 48q22 84 86 132t178 48q123 0 184 -49t61 -135q0 -82 -65 -150t-205 -114v-6h287v-118h-514v116z" />
    <glyph glyph-name="three.osf" horiz-adv-x="648" 
d="M116.5 -93.5q-78.5 58.5 -100.5 157.5l165 48q16 -79 51 -114.5t90 -35.5t86.5 28.5t31.5 79.5q0 47 -36 77t-103 30h-78v104h73q63 0 94 25t31 64q0 92 -96 92q-48 0 -79.5 -31.5t-41.5 -93.5l-165 48q22 85 97 136t189 51q131 0 198.5 -50.5t67.5 -140.5
q0 -51 -33.5 -89t-97.5 -56v-6q72 -12 112 -54.5t40 -112.5q0 -104 -76 -159.5t-214 -55.5q-127 0 -205.5 58.5z" />
    <glyph glyph-name="four.osf" horiz-adv-x="649" 
d="M633 0h-99v-140h-154v140h-358v118q67 65 103 132t50.5 139t20.5 171h172q-1 -146 -53.5 -257.5t-153.5 -178.5v-6h219v188h154v-188h99v-118z" />
    <glyph glyph-name="five.osf" horiz-adv-x="647" 
d="M141 -108q-74 44 -105 129l157 58q25 -117 134 -117q58 0 89 33t31 94q0 55 -30 87t-83 32q-71 0 -110 -71l-177 40q16 93 23.5 180.5t10.5 202.5h490v-118h-346q-9 -129 -25 -220l6 -1q63 101 183 101q64 0 115 -28t81 -80.5t30 -124.5q0 -114 -79 -177.5t-209 -63.5
q-112 0 -186 44z" />
    <glyph glyph-name="six.osf" 
d="M123 78.5q-83 90.5 -83 264.5q0 128 43.5 210.5t116.5 120.5t166 38q104 0 173 -41.5t99 -120.5l-157 -58q-30 106 -115 106q-68 0 -107 -63.5t-39 -186.5h6q23 47 71 73.5t108 26.5q68 0 121.5 -26.5t84 -78t30.5 -125.5q0 -110 -77.5 -170t-205.5 -60q-152 0 -235 90.5
zM436 133.5q31 31.5 31 84.5q0 54 -30.5 85t-83.5 31t-84 -31t-31 -85q0 -53 31 -84.5t84 -31.5q52 0 83 31.5z" />
    <glyph glyph-name="seven.osf" horiz-adv-x="554" 
d="M218 186.5q58 144.5 184 245.5v6h-386v122h522v-128q-83 -99 -127.5 -180.5t-64 -171.5t-23.5 -220h-170q7 182 65 326.5z" />
    <glyph glyph-name="eight.osf" horiz-adv-x="668" 
d="M112 46q-76 58 -76 161q0 62 32 106t99 61v6q-97 41 -97 140q0 90 68 141t196 51t196 -51t68 -141q0 -98 -97 -140v-6q66 -17 98.5 -61t32.5 -106q0 -103 -76 -161t-222 -58t-222 58zM407.5 451.5q26.5 25.5 26.5 66.5q0 43 -26 67t-74 24t-74 -24t-26 -67
q0 -41 26.5 -66.5t73.5 -25.5t73.5 25.5zM426 130.5q32 29.5 32 82.5q0 51 -32.5 82t-91.5 31t-91.5 -31t-32.5 -82q0 -53 32 -82.5t92 -29.5t92 29.5z" />
    <glyph glyph-name="nine.osf" 
d="M552 481.5q83 -90.5 83 -264.5q0 -128 -43.5 -210.5t-116.5 -120.5t-166 -38q-104 0 -173 41.5t-99 120.5l157 58q30 -106 115 -106q68 0 107 63.5t39 186.5h-6q-23 -47 -71 -73.5t-108 -26.5q-68 0 -121.5 26.5t-84 78t-30.5 125.5q0 110 77.5 170t205.5 60
q152 0 235 -90.5zM239 426.5q-31 -31.5 -31 -84.5q0 -54 30.5 -85t83.5 -31t84 31t31 85q0 53 -31 84.5t-84 31.5q-52 0 -83 -31.5z" />
    <glyph glyph-name="bullet.case" horiz-adv-x="462" 
d="M162.5 235.5q-31.5 18.5 -50 50t-18.5 68.5t18.5 68.5t50 50t68.5 18.5t68.5 -18.5t50 -50t18.5 -68.5t-18.5 -68.5t-50 -50t-68.5 -18.5t-68.5 18.5z" />
    <glyph glyph-name="slash.case" horiz-adv-x="598" 
d="M386 700h182l-356 -700h-182z" />
    <glyph glyph-name="parenleft.case" horiz-adv-x="459" 
d="M127.5 106q-47.5 113 -47.5 244t47.5 244t137.5 188h174q-92 -82 -143 -196t-51 -236t51 -236t143 -196h-174q-90 75 -137.5 188z" />
    <glyph glyph-name="parenright.case" horiz-adv-x="459" 
d="M20 -82q92 82 143 196t51 236t-51 236t-143 196h174q90 -75 137.5 -188t47.5 -244t-47.5 -244t-137.5 -188h-174z" />
    <glyph glyph-name="braceleft.case" horiz-adv-x="486" 
d="M40 409h63q37 0 51.5 14.5t14.5 55.5v146q0 85 42.5 124t142.5 39h94v-118h-63q-36 0 -49 -14t-13 -49v-125q0 -58 -19.5 -90.5t-74.5 -38.5v-6q55 -6 74.5 -38.5t19.5 -90.5v-125q0 -35 13 -49t49 -14h63v-118h-94q-100 0 -142.5 39t-42.5 124v146q0 41 -14.5 55.5
t-51.5 14.5h-63v118z" />
    <glyph glyph-name="braceright.case" horiz-adv-x="486" 
d="M383 291q-37 0 -51.5 -14.5t-14.5 -55.5v-146q0 -85 -42.5 -124t-142.5 -39h-94v118h63q36 0 49 14t13 49v125q0 58 19.5 90.5t74.5 38.5v6q-55 6 -74.5 38.5t-19.5 90.5v125q0 35 -13 49t-49 14h-63v118h94q100 0 142.5 -39t42.5 -124v-146q0 -41 14.5 -55.5t51.5 -14.5
h63v-118h-63z" />
    <glyph glyph-name="bracketleft.case" horiz-adv-x="427" 
d="M96 782h289v-132h-133v-600h133v-132h-289v864z" />
    <glyph glyph-name="bracketright.case" horiz-adv-x="427" 
d="M42 -82v132h133v600h-133v132h289v-864h-289z" />
    <glyph glyph-name="hyphen.case" horiz-adv-x="558" 
d="M478 424v-140h-398v140h398z" />
    <glyph glyph-name="endash.case" horiz-adv-x="788" 
d="M708 424v-140h-628v140h628z" />
    <glyph glyph-name="emdash.case" horiz-adv-x="1178" 
d="M1098 424v-140h-1018v140h1018z" />
    <glyph glyph-name="guillemotleft.case" horiz-adv-x="726" 
d="M62 395l280 156v-144l-162 -73v-6l162 -73v-144l-280 156v128zM366 395l280 156v-144l-162 -73v-6l162 -73v-144l-280 156v128z" />
    <glyph glyph-name="guillemotright.case" horiz-adv-x="726" 
d="M80 111v144l162 73v6l-162 73v144l280 -156v-128zM384 111v144l162 73v6l-162 73v144l280 -156v-128z" />
    <glyph glyph-name="guilsinglleft.case" horiz-adv-x="422" 
d="M62 395l280 156v-144l-162 -73v-6l162 -73v-144l-280 156v128z" />
    <glyph glyph-name="guilsinglright.case" horiz-adv-x="422" 
d="M80 111v144l162 73v6l-162 73v144l280 -156v-128z" />
    <glyph glyph-name="smileface.case" horiz-adv-x="806" 
d="M218 30.5q-85 49.5 -134.5 134.5t-49.5 185t49.5 185t134.5 134.5t185 49.5t185 -49.5t134.5 -134.5t49.5 -185t-49.5 -185t-134.5 -134.5t-185 -49.5t-185 49.5zM559.5 79.5q71.5 42.5 114 114t42.5 156.5t-42.5 156.5t-114 114t-156.5 42.5t-156.5 -42.5t-114 -114
t-42.5 -156.5t42.5 -156.5t114 -114t156.5 -42.5t156.5 42.5zM453 124q-12 0 -20.5 8t-8.5 21q0 17 23 26q128 47 128 171q0 59 -30 102t-98 69q-23 9 -23 26q0 13 8 21t21 8q8 0 13 -2q72 -25 117.5 -82t45.5 -142t-45.5 -142t-117.5 -82q-5 -2 -13 -2zM254 424
q-16 16 -16 38q0 23 15.5 38.5t38.5 15.5t38.5 -15.5t15.5 -38.5q0 -22 -15.5 -38t-38.5 -16q-22 0 -38 16zM253.5 199.5q-15.5 15.5 -15.5 38.5t16 38.5t38 15.5q23 0 38.5 -15.5t15.5 -38.5t-15.5 -38.5t-38.5 -15.5t-38.5 15.5z" />
    <glyph glyph-name="invsmileface.case" horiz-adv-x="806" 
d="M218 30.5q-85 49.5 -134.5 134.5t-49.5 185t49.5 185t134.5 134.5t185 49.5t185 -49.5t134.5 -134.5t49.5 -185t-49.5 -185t-134.5 -134.5t-185 -49.5t-185 49.5zM583.5 208q45.5 57 45.5 142t-45.5 142t-117.5 82q-5 2 -13 2q-12 0 -20.5 -8t-8.5 -21q0 -17 23 -26
q68 -26 98 -69t30 -102q0 -124 -128 -171q-23 -9 -23 -26q0 -13 8 -21t21 -8q8 0 13 2q72 25 117.5 82zM330.5 424q15.5 16 15.5 38q0 23 -15.5 38.5t-38.5 15.5t-38.5 -15.5t-15.5 -38.5q0 -22 16 -38t38 -16q23 0 38.5 16zM330.5 199.5q15.5 15.5 15.5 38.5t-15.5 38.5
t-38.5 15.5q-22 0 -38 -15.5t-16 -38.5t15.5 -38.5t38.5 -15.5t38.5 15.5z" />
    <glyph glyph-name="at.case" horiz-adv-x="986" 
d="M257.5 3q-103.5 50 -160.5 140t-57 206t57 206t160.5 140t236.5 50q129 0 232 -44t161.5 -124t58.5 -184q0 -65 -25 -118t-73.5 -84.5t-115.5 -31.5q-58 0 -93 19.5t-54 56.5h-5q-17 -37 -52 -56.5t-77 -19.5q-82 0 -132.5 50.5t-50.5 135.5t50.5 135.5t132.5 50.5
q75 0 120 -50h5v42h122v-219q0 -26 9.5 -36.5t30.5 -10.5q31 0 50 31t19 96q0 120 -85 179.5t-228 59.5q-94 0 -164.5 -34t-108 -96t-37.5 -144q0 -83 37.5 -145t107.5 -95.5t165 -33.5q47 0 102.5 10t90.5 26l35 -125q-45 -15 -104 -24t-124 -9q-133 0 -236.5 50z
M542.5 273.5q23.5 22.5 23.5 67.5v8q0 46 -23 68t-60 22q-35 0 -58 -23t-23 -71t23 -71t58 -23q36 0 59.5 22.5z" />
    <glyph glyph-name="smileface.ss01" horiz-adv-x="588" 
d="M157.5 19.5q-62.5 36.5 -99 99t-36.5 136.5t36.5 136.5t99 99t136.5 36.5t136.5 -36.5t99 -99t36.5 -136.5t-36.5 -136.5t-99 -99t-136.5 -36.5t-136.5 36.5zM407 59.5q52 30.5 82.5 82.5t30.5 113t-30.5 113t-82.5 82.5t-113 30.5t-113 -30.5t-82.5 -82.5t-30.5 -113
t30.5 -113t82.5 -82.5t113 -30.5t113 30.5zM183 306q-12 12 -12 29t12 29t29 12t29 -12t12 -29t-12 -29t-29 -12t-29 12zM347 306q-12 12 -12 29t12 29t29 12t29 -12t12 -29t-12 -29t-29 -12t-29 12zM190.5 121q-42.5 33 -59.5 88q-1 3 -1 9q0 8 4.5 14t12.5 8q3 1 8 1
q14 0 20 -17q16 -48 48.5 -69.5t70.5 -21.5t70.5 21.5t48.5 69.5q6 17 20 17q10 0 17.5 -6.5t7.5 -16.5q0 -6 -1 -9q-17 -55 -59.5 -88t-103.5 -33t-103.5 33z" />
    <glyph glyph-name="invsmileface.ss01" horiz-adv-x="588" 
d="M157.5 19.5q-62.5 36.5 -99 99t-36.5 136.5t36.5 136.5t99 99t136.5 36.5t136.5 -36.5t99 -99t36.5 -136.5t-36.5 -136.5t-99 -99t-136.5 -36.5t-136.5 36.5zM241 306q12 12 12 29t-12 29t-29 12t-29 -12t-12 -29t12 -29t29 -12t29 12zM405 306q12 12 12 29t-12 29
t-29 12t-29 -12t-12 -29t12 -29t29 -12t29 12zM397.5 121q42.5 33 59.5 88q1 3 1 9q0 8 -4.5 14t-12.5 8q-3 1 -8 1q-14 0 -20 -17q-16 -48 -48.5 -69.5t-70.5 -21.5t-70.5 21.5t-48.5 69.5q-6 17 -20 17q-10 0 -17.5 -6.5t-7.5 -16.5q0 -6 1 -9q17 -55 59.5 -88t103.5 -33
t103.5 33z" />
    <glyph glyph-name="smileface.case.ss01" horiz-adv-x="806" 
d="M218 30.5q-85 49.5 -134.5 134.5t-49.5 185t49.5 185t134.5 134.5t185 49.5t185 -49.5t134.5 -134.5t49.5 -185t-49.5 -185t-134.5 -134.5t-185 -49.5t-185 49.5zM559.5 79.5q71.5 42.5 114 114t42.5 156.5t-42.5 156.5t-114 114t-156.5 42.5t-156.5 -42.5t-114 -114
t-42.5 -156.5t42.5 -156.5t114 -114t156.5 -42.5t156.5 42.5zM252.5 422.5q-15.5 15.5 -15.5 38.5t15.5 38.5t38.5 15.5t38.5 -15.5t15.5 -38.5q0 -22 -15.5 -38t-38.5 -16t-38.5 15.5zM477 423q-16 16 -16 38q0 23 16 38.5t38 15.5q23 0 38.5 -15.5t15.5 -38.5t-15.5 -38.5
t-38.5 -15.5q-22 0 -38 16zM261 169.5q-57 45.5 -82 117.5q-2 5 -2 13q0 12 8 20.5t21 8.5q17 0 26 -23q47 -128 171 -128q59 0 102 30t69 98q9 23 26 23q13 0 21 -8t8 -21q0 -8 -2 -13q-25 -72 -82 -117.5t-142 -45.5t-142 45.5z" />
    <glyph glyph-name="invsmileface.case.ss01" horiz-adv-x="806" 
d="M218 30.5q-85 49.5 -134.5 134.5t-49.5 185t49.5 185t134.5 134.5t185 49.5t185 -49.5t134.5 -134.5t49.5 -185t-49.5 -185t-134.5 -134.5t-185 -49.5t-185 49.5zM329.5 423q15.5 16 15.5 38q0 23 -15.5 38.5t-38.5 15.5t-38.5 -15.5t-15.5 -38.5t15.5 -38.5t38.5 -15.5
t38.5 16zM553.5 422.5q15.5 15.5 15.5 38.5t-15.5 38.5t-38.5 15.5q-22 0 -38 -15.5t-16 -38.5q0 -22 16 -38t38 -16q23 0 38.5 15.5zM545 169.5q57 45.5 82 117.5q2 5 2 13q0 12 -8 20.5t-21 8.5q-17 0 -26 -23q-26 -68 -69 -98t-102 -30q-124 0 -171 128q-9 23 -26 23
q-13 0 -21 -8t-8 -21q0 -8 2 -13q25 -72 82 -117.5t142 -45.5t142 45.5z" />
    <glyph glyph-name="registered.ss02" horiz-adv-x="412" 
d="M291.5 307q39.5 -23 62.5 -62.5t23 -85.5t-23 -85.5t-62.5 -62.5t-85.5 -23t-85.5 23t-62.5 62.5t-23 85.5t23 85.5t62.5 62.5t85.5 23t85.5 -23zM275 38.5q32 18.5 51 50.5t19 70q0 37 -19 69t-51 51t-69 19t-69 -19t-51 -51t-19 -69t19 -69t51 -51t69 -19t69 18.5z
M268 140q6 -6 9 -18l12 -45h-52l-9 40q-2 9 -7 13t-16 4h-25v-57h-47v165h88q34 0 49 -12.5t15 -36.5q0 -35 -35 -43v-3q12 -1 18 -7zM232.5 174.5q4.5 3.5 4.5 13.5q0 17 -20 17h-37v-34h37q11 0 15.5 3.5z" />
    </font>
</defs>
</svg>
