<svg version="1.1" id="b82b0f02-5b2f-47a3-bf68-bb606186d6fa" xmlns="http://www.w3.org/2000/svg" x="0" y="0" viewBox="0 0 589 729.7" xml:space="preserve"><style>.st0{fill:#111}</style><path class="st0" d="M263 241.8h.8c4.1.1 8-1.6 10.9-4.5 6-5.9 6-15.6.1-21.6l-.1-.1c-2.9-2.9-6.8-4.6-10.9-4.5-8.4-.2-15.5 6.5-15.7 14.9-.3 8.5 6.4 15.6 14.9 15.8z"/><path class="st0" d="M294.5 353.8c26.7 0 49.4-9.4 68.3-28.3s28.3-41.6 28.3-68.3c0-26.7-9.4-49.4-28.3-68.3s-41.6-28.3-68.4-28.3c-26.7 0-49.4 9.4-68.3 28.3s-28.3 41.6-28.3 68.3 9.4 49.4 28.3 68.3c18.9 18.8 41.7 28.3 68.4 28.3zm-59.6-156.2c16.5-16.5 36.3-24.7 59.6-24.7s43.2 8.2 59.6 24.7c16.5 16.5 24.7 36.3 24.7 59.6s-8.2 43.1-24.7 59.6c-16.5 16.4-36.3 24.7-59.6 24.6-23.3 0-43.2-8.2-59.6-24.6-16.5-16.4-24.7-36.3-24.7-59.6 0-23.3 8.2-43.1 24.7-59.6z"/><path class="st0" d="M314.4 237.3c2.9 2.9 6.8 4.5 10.9 4.5 8.4.2 15.5-6.5 15.7-14.9.2-8.4-6.5-15.5-14.9-15.7h-.8c-4.1-.1-8 1.6-10.9 4.5-6 5.9-6.1 15.5-.2 21.5.1 0 .1 0 .2.1zM391.1 469.5c-1.6-53.4-46.2-95.3-99.5-93.7-53.3 1.6-95.3 46.2-93.7 99.5 1.5 51.1 42.6 92.1 93.7 93.7 1 .1 1.9.1 2.9.1s2 0 2.9-.1c53.3-1.6 95.3-46.2 93.7-99.5zM288.5 389v32.2h-24.8c1.2-3.5 2.6-6.8 4.2-10.2 6-12 13.3-19.3 20.6-22zm-23.9 4.5c-2.9 3.8-5.4 7.9-7.6 12.2-2.5 5-4.5 10.2-6.2 15.5h-23.5c9.6-12.6 22.5-22.2 37.3-27.7zm-45 39.7h28c-2.5 10.9-3.9 22-4.2 33.2h-33.1c.7-11.6 3.9-22.9 9.3-33.2zm0 78.6c-5.4-10.3-8.6-21.6-9.3-33.2h33.1c.3 11.2 1.7 22.3 4.2 33.2h-28zm7.6 12h23.6c1.7 5.3 3.8 10.4 6.2 15.4 2.2 4.4 4.7 8.5 7.6 12.5-14.8-5.7-27.8-15.3-37.4-27.9zm61.3 32.2c-7.3-2.7-14.6-10.2-20.6-22.2-1.6-3.3-3-6.6-4.2-10h24.8V556zm0-44.2H260c-2.7-10.9-4.3-22-4.6-33.2h33.1v33.2zm0-45.3h-33.1c.4-11.2 1.9-22.4 4.7-33.2h28.5l-.1 33.2zm80.9-33.3c5.4 10.3 8.6 21.6 9.3 33.2h-33c-.3-11.2-1.7-22.3-4.2-33.2h27.9zm-7.7-12.1h-23.5c-1.7-5.3-3.8-10.5-6.2-15.5-2.1-4.3-4.7-8.4-7.5-12.2 14.7 5.6 27.6 15.2 37.2 27.7zM321.1 411c1.6 3.3 3 6.6 4.2 10.1h-24.8V389c7.3 2.6 14.6 10 20.6 22zm-20.6 22.2H329c2.7 10.9 4.3 22 4.6 33.2h-33.1v-33.2zm0 45.3h33.1c-.4 11.2-1.9 22.4-4.7 33.3h-28.5l.1-33.3zm0 77.4v-32.2h24.8a96.3 96.3 0 0 1-4.2 10c-6 12.1-13.2 19.6-20.6 22.2zm23.8-4.3c2.9-3.9 5.5-8.1 7.7-12.5 2.5-5 4.5-10.1 6.2-15.4h23.6c-9.6 12.7-22.6 22.4-37.5 27.9zm45.1-39.9h-27.9c2.5-10.9 3.8-22 4.2-33.2h33.1c-.8 11.6-4 22.9-9.4 33.2zM293.8 317.1c28.5 0 51.9-17.2 59.7-43.8 1.1-3.7-1.1-7.6-4.8-8.7-3.7-1.1-7.6 1.1-8.7 4.8-7.2 24.9-29.4 33.8-46.2 33.8-16.8 0-38.9-8.8-46.2-33.7-1.1-3.7-5-5.9-8.7-4.8-3.7 1.1-5.9 5-4.8 8.7 7.8 26.5 31.2 43.7 59.7 43.7z"/></svg>