<svg id="b43a1aa7-1251-4a6f-9dd6-9a17c9747eb4" data-name="Layer 1" xmlns="http://www.w3.org/2000/svg" viewBox="0 0 589 729.7"><defs><style>.a157f9bd-ef8a-40c4-a536-2e06e6d67735{fill:#fff;}.a470eee9-d4cf-44c2-9cf3-a56535901440{fill:#111;}.bb51e093-927d-49a5-9f2f-91643b969498{fill:#fdc720;}</style></defs><path class="a157f9bd-ef8a-40c4-a536-2e06e6d67735" d="M281.33,346.73a22.09,22.09,0,0,1,4.05-2.36L236.65,234.92a141.93,141.93,0,0,0-25.72,14.9Z"/><path class="a157f9bd-ef8a-40c4-a536-2e06e6d67735" d="M289.84,342.91a22.32,22.32,0,0,1,4.66-.5V222.61a142.11,142.11,0,0,0-29.58,3.1Z"/><path class="a157f9bd-ef8a-40c4-a536-2e06e6d67735" d="M273.17,371.78a21.79,21.79,0,0,1-1-4.59L153,379.72a140.81,140.81,0,0,0,6.19,29.08Z"/><path class="a157f9bd-ef8a-40c4-a536-2e06e6d67735" d="M275.09,353.64a23.32,23.32,0,0,1,2.76-3.78l-89-80.14a143.34,143.34,0,0,0-17.5,24Z"/><path class="a157f9bd-ef8a-40c4-a536-2e06e6d67735" d="M429.78,320.9a141.89,141.89,0,0,0-12.12-27.16l-103.75,59.9a22.56,22.56,0,0,1,1.92,4.28Z"/><path class="a157f9bd-ef8a-40c4-a536-2e06e6d67735" d="M299.16,342.91a22.4,22.4,0,0,1,4.46,1.46l48.73-109.46a141.22,141.22,0,0,0-28.27-9.2Z"/><path class="a157f9bd-ef8a-40c4-a536-2e06e6d67735" d="M277.85,379.84a23.32,23.32,0,0,1-2.76-3.78L171.34,436a143.34,143.34,0,0,0,17.5,24Z"/><path class="a157f9bd-ef8a-40c4-a536-2e06e6d67735" d="M436,350,316.81,362.51a21.12,21.12,0,0,1,0,4.68L436,379.72A144,144,0,0,0,436,350Z"/><path class="a157f9bd-ef8a-40c4-a536-2e06e6d67735" d="M378.07,249.82l-70.4,96.9a23.08,23.08,0,0,1,3.48,3.14l89-80.14A144,144,0,0,0,378.07,249.82Z"/><path class="a157f9bd-ef8a-40c4-a536-2e06e6d67735" d="M272.19,362.51a21.79,21.79,0,0,1,1-4.59l-114-37A140.81,140.81,0,0,0,153,350Z"/><path class="a157f9bd-ef8a-40c4-a536-2e06e6d67735" d="M294.5,387.29a22.32,22.32,0,0,1-4.66-.5L264.92,504a142.11,142.11,0,0,0,29.58,3.1Z"/><path class="a157f9bd-ef8a-40c4-a536-2e06e6d67735" d="M303.62,385.33a22.4,22.4,0,0,1-4.46,1.46L324.08,504a141.43,141.43,0,0,0,28.27-9.2Z"/><path class="a157f9bd-ef8a-40c4-a536-2e06e6d67735" d="M315.83,371.78a22.56,22.56,0,0,1-1.92,4.28L417.66,436a141.89,141.89,0,0,0,12.12-27.16Z"/><path class="a157f9bd-ef8a-40c4-a536-2e06e6d67735" d="M400.16,460l-89-80.14a23.08,23.08,0,0,1-3.48,3.14l70.4,96.9A144,144,0,0,0,400.16,460Z"/><path class="a157f9bd-ef8a-40c4-a536-2e06e6d67735" d="M285.38,385.33a22.63,22.63,0,0,1-4.05-2.35l-70.41,96.9a143,143,0,0,0,25.73,14.91Z"/><path class="a470eee9-d4cf-44c2-9cf3-a56535901440" d="M442.21,364.85h0a147.71,147.71,0,0,0-295.42,0h0v0a147.71,147.71,0,0,0,143.9,147.62c1.27,0,2.54.05,3.81.05s2.54,0,3.81-.05A147.71,147.71,0,0,0,442.21,364.9v0Zm-129.83,0A17.88,17.88,0,1,1,294.5,347,17.94,17.94,0,0,1,312.38,364.85Zm1.53-11.21,103.75-59.9a141.89,141.89,0,0,1,12.12,27.16l-113.95,37A22.56,22.56,0,0,0,313.91,353.64Zm-2.76-3.78a23.08,23.08,0,0,0-3.48-3.14l70.4-96.9a144,144,0,0,1,22.09,19.9Zm-7.53-5.49a22.4,22.4,0,0,0-4.46-1.46l24.92-117.2a141.22,141.22,0,0,1,28.27,9.2Zm-9.12-2a22.32,22.32,0,0,0-4.66.5l-24.92-117.2a142.11,142.11,0,0,1,29.58-3.1Zm-9.12,2a22.09,22.09,0,0,0-4.05,2.36l-70.4-96.91a141.93,141.93,0,0,1,25.72-14.9Zm-7.53,5.49a23.32,23.32,0,0,0-2.76,3.78l-103.75-59.9a143.34,143.34,0,0,1,17.5-24Zm-4.68,8.06a21.79,21.79,0,0,0-1,4.59L153,350a140.81,140.81,0,0,1,6.19-29.08Zm-1,9.27a21.79,21.79,0,0,0,1,4.59l-114,37A140.81,140.81,0,0,1,153,379.72Zm2.9,8.87a23.32,23.32,0,0,0,2.76,3.78l-89,80.14a143.34,143.34,0,0,1-17.5-24Zm6.24,6.92a22.63,22.63,0,0,0,4.05,2.35L236.65,494.79a143,143,0,0,1-25.73-14.91Zm8.51,3.81a22.32,22.32,0,0,0,4.66.5v119.8a142.11,142.11,0,0,1-29.58-3.1Zm9.32,0a22.4,22.4,0,0,0,4.46-1.46l48.73,109.46a141.43,141.43,0,0,1-28.27,9.2Zm8.51-3.81a23.08,23.08,0,0,0,3.48-3.14l89,80.14a144,144,0,0,1-22.09,19.9Zm6.24-6.92a22.56,22.56,0,0,0,1.92-4.28l114,37A141.89,141.89,0,0,1,417.66,436Zm2.9-8.87a21.12,21.12,0,0,0,0-4.68L436,350a144,144,0,0,1,0,29.74Z"/><path class="bb51e093-927d-49a5-9f2f-91643b969498" d="M294.5,347a17.88,17.88,0,1,0,17.88,17.88A17.94,17.94,0,0,0,294.5,347Zm6.4,8.46a3.08,3.08,0,1,1,0,6.16,3.08,3.08,0,1,1,0-6.16Zm-12.8,0a3.08,3.08,0,1,1,0,6.16,3.08,3.08,0,0,1,0-6.16Zm19.2,13c-1.77,5-5.95,9.31-12.8,9.31s-11-4.28-12.8-9.31a1.66,1.66,0,0,1,1.15-2.34c.8-.17,1.48.17,1.88,1.26,2,5.42,5.6,7.31,9.77,7.31s7.71-1.83,9.77-7.31c.4-1.09,1.08-1.43,1.88-1.26A1.66,1.66,0,0,1,307.3,368.45Z"/><path class="a470eee9-d4cf-44c2-9cf3-a56535901440" d="M300.9,361.59a3.08,3.08,0,1,0,0-6.16,3.08,3.08,0,1,0,0,6.16Z"/><path class="a470eee9-d4cf-44c2-9cf3-a56535901440" d="M306.15,366.11c-.8-.17-1.48.17-1.88,1.26-2.06,5.48-5.6,7.31-9.77,7.31s-7.77-1.89-9.77-7.31c-.4-1.09-1.08-1.43-1.88-1.26a1.66,1.66,0,0,0-1.15,2.34c1.77,5,5.94,9.31,12.8,9.31s11-4.28,12.8-9.31A1.66,1.66,0,0,0,306.15,366.11Z"/><path class="a470eee9-d4cf-44c2-9cf3-a56535901440" d="M288.1,361.59a3.08,3.08,0,1,0,0-6.16,3.08,3.08,0,0,0,0,6.16Z"/></svg>