<svg id="a0be6ed8-e9ce-4ddb-9cd2-15fd7e0c5ee3" data-name="Layer 1" xmlns="http://www.w3.org/2000/svg" viewBox="0 0 589 729.7"><defs><style>.f0a7382e-955a-410c-9e8b-fac535fb5e4c{fill:#111820;}</style></defs><path class="f0a7382e-955a-410c-9e8b-fac535fb5e4c" d="M399.26,579l-11.5-57.25L375.82,579h-14.2l18.48-75.51,18.48.34,18,75.17Z"/><path class="f0a7382e-955a-410c-9e8b-fac535fb5e4c" d="M303.24,579v-13h29.19V548.7H309.67v-13h22.76V517.26H303.24V503.85h45.64V579Z"/><path class="f0a7382e-955a-410c-9e8b-fac535fb5e4c" d="M265.94,579c-10.14,0-13.41-.79-17.81-3.95C243,571.13,240,564.48,240,556.25c0-9.58,3-15.1,10.59-19.61l-13.86-32.79h18l10,29.64H273V503.85h16.45V579Zm7.1-33.36h-7.21c-6.32,0-9.69,3.83-9.69,10.93,0,3.61,1.12,6.65,3.26,8.45,1.47,1.24,3.5,1.81,7.1,1.81H273Z"/><path class="f0a7382e-955a-410c-9e8b-fac535fb5e4c" d="M214.21,579l-10.59-27.5L192.35,579H176.23l20.85-43.39V503.85h16.46v31.78L232.36,579Z"/><path class="f0a7382e-955a-410c-9e8b-fac535fb5e4c" d="M297.16,402a36.6,36.6,0,1,1-25.92,10.72A35.29,35.29,0,0,1,297.16,402Zm0,4.67A31.92,31.92,0,1,0,319.78,416,30.84,30.84,0,0,0,297.16,406.65Zm11.66,37.8a5.8,5.8,0,0,1,0,11.59,5.64,5.64,0,0,1-4.14-1.7,5.77,5.77,0,0,1,0-8.2A5.66,5.66,0,0,1,308.82,444.45Zm-23.33,0a5.67,5.67,0,0,1,4.13,1.69,5.75,5.75,0,0,1,0,8.2,5.68,5.68,0,0,1-4.13,1.7,5.8,5.8,0,1,1,0-11.59Z"/><path class="f0a7382e-955a-410c-9e8b-fac535fb5e4c" d="M436.89,373.47c-10.81,0-15.1-.79-19.27-3.72-5.63-3.83-8.79-11-8.79-19.83,0-9.13,3.16-16.35,8.57-19.95,4.39-2.93,9-4,18.71-4H442V298.3h16.46v75.17ZM442,339h-5.07c-7.66,0-10.59,3.16-10.59,11.39,0,3.83,1.13,7.1,3,8.9,1.58,1.58,3.49,2,7.55,2H442Z"/><path class="f0a7382e-955a-410c-9e8b-fac535fb5e4c" d="M351.13,367.38c-6.08-6.65-9-16.79-9-31.55,0-25.47,9.35-38.66,27.27-38.66s27.27,13.19,27.27,38.43c0,26-9.24,39-27.61,39C361.84,374.6,355.41,372,351.13,367.38Zm28.18-31.33c0-19-2.48-25.46-9.92-25.46s-9.92,6.42-9.92,25.35c0,18.71,2.59,25.24,9.81,25.24C376.71,361.18,379.31,354.87,379.31,336.05Z"/><path class="f0a7382e-955a-410c-9e8b-fac535fb5e4c" d="M308.53,373.47V312.39H284.3V298.3H325v75.17Z"/><path class="f0a7382e-955a-410c-9e8b-fac535fb5e4c" d="M254.89,373.47V298.3h16.45v75.17Z"/><path class="f0a7382e-955a-410c-9e8b-fac535fb5e4c" d="M195.16,373.47V359.38h15.33V298.3h16.57v61.08h15v14.09Z"/><path class="f0a7382e-955a-410c-9e8b-fac535fb5e4c" d="M136.67,373.47v-13h29.2V343.15H143.1v-13h22.77V311.71h-29.2V298.3h45.65v75.17Z"/><path class="f0a7382e-955a-410c-9e8b-fac535fb5e4c" d="M111.16,306.75a8.93,8.93,0,1,1,8.91,8.88A8.88,8.88,0,0,1,111.16,306.75Zm15.67.05a6.75,6.75,0,1,0-6.76,6.87A6.82,6.82,0,0,0,126.83,306.8Zm-6.48,5.11a4.24,4.24,0,0,1-2.7-.54,3,3,0,0,1-1.28-2.6,2.69,2.69,0,0,1,1.5-2.63L116,301.7h3l1.3,3.93H121V301.7h2.78v10.21Zm.61-4.39h-.64c-.84,0-1.25.43-1.25,1.3s.41,1.2,1.36,1.2H121Z"/><path class="f0a7382e-955a-410c-9e8b-fac535fb5e4c" d="M454.54,255.52c.34,2.45,1.35,3.66,2.87,3.66s2.42-1.1,2.8-3.18a26.11,26.11,0,0,0,.35-4.6c-1.14,1.9-2.32,2.63-4.26,2.63a5.81,5.81,0,0,1-3.29-1c-1.76-1.28-2.73-3.46-2.73-6.26,0-4.74,2.77-7.61,7.27-7.61a6.53,6.53,0,0,1,4.77,1.76c2,1.94,2.91,5,2.91,10,0,4.4-.69,7.17-2.35,9.38a6.6,6.6,0,0,1-5.61,2.66,6.51,6.51,0,0,1-3.84-1.07c-1.66-1.1-2.42-2.39-3-5.05Zm5.78-9.07c0-2.32-.94-3.63-2.57-3.63s-2.55,1.24-2.55,3.94c0,2.36.83,3.57,2.42,3.57C459.42,250.33,460.32,249.05,460.32,246.45Z"/><path class="f0a7382e-955a-410c-9e8b-fac535fb5e4c" d="M431.06,251c0-8.16,2.42-11.86,7.71-11.86s7.68,3.7,7.68,11.9c0,4.7-.83,7.92-2.56,9.86-1.21,1.38-2.83,2-5.26,2C433.48,262.88,431.06,259.11,431.06,251Zm10.06.14c0-6.88-.41-8.3-2.35-8.3s-2.35,1.45-2.35,8.2c0,3.87.14,5.74.48,6.71a1.86,1.86,0,0,0,1.84,1.45C440.71,259.18,441.12,257.76,441.12,251.12Z"/><path class="f0a7382e-955a-410c-9e8b-fac535fb5e4c" d="M415.81,262.71V243.23H412v-3.77h12.77v3.77h-3.88v13.64a13.67,13.67,0,0,1,3.88-2.91v4.53a15.29,15.29,0,0,0-5.09,4.22Z"/><path class="f0a7382e-955a-410c-9e8b-fac535fb5e4c" d="M392.43,250.08v-3.73h6.88v3.73Z"/><path class="f0a7382e-955a-410c-9e8b-fac535fb5e4c" d="M365.9,262.54l.48-4.53h8.14l.31-5.19a4.55,4.55,0,0,1-3.95,2,6.42,6.42,0,0,1-3.84-1.35c-1.56-1.25-2.38-3.36-2.38-6.19,0-5.12,2.87-8.13,7.78-8.13a7.59,7.59,0,0,1,5.78,2.28,6.53,6.53,0,0,1,1.83,4.22l-4.6.76c-.38-2.25-1.25-3.15-3-3.15s-2.87,1.35-2.87,3.74,1.11,3.7,2.94,3.7a2.46,2.46,0,0,0,2.56-1.8l4,.76-.83,12.91Z"/><path class="f0a7382e-955a-410c-9e8b-fac535fb5e4c" d="M360.86,255.34a9.54,9.54,0,0,1-2,5.12,6.63,6.63,0,0,1-5.64,2.42c-4.33,0-7.13-2.62-7.13-6.71,0-3,1.45-5.67,4.67-8.47a47.28,47.28,0,0,1,5-3.71h-10l.34-4.53h14.78V244c-7.54,6.44-9.48,8.86-9.48,11.91,0,1.86.76,2.87,2.15,2.87,1.59,0,2.42-1.32,2.73-4.36Z"/><path class="f0a7382e-955a-410c-9e8b-fac535fb5e4c" d="M327.1,262.54l.48-4.53h8.14l.31-5.19a4.55,4.55,0,0,1-3.95,2,6.4,6.4,0,0,1-3.84-1.35c-1.56-1.25-2.38-3.36-2.38-6.19,0-5.12,2.87-8.13,7.78-8.13a7.59,7.59,0,0,1,5.78,2.28,6.58,6.58,0,0,1,1.83,4.22l-4.6.76c-.38-2.25-1.25-3.15-3-3.15s-2.87,1.35-2.87,3.74,1.11,3.7,2.94,3.7a2.46,2.46,0,0,0,2.56-1.8l4,.76-.83,12.91Z"/><path class="f0a7382e-955a-410c-9e8b-fac535fb5e4c" d="M302.75,255.9c.63,2,1.63,2.87,3.26,2.87a2.19,2.19,0,0,0,2.42-2.11c0-1.32-.66-1.84-4-3.08a12.72,12.72,0,0,1-4.08-2.11,6.16,6.16,0,0,1-2.28-5c0-4.43,3.28-7.37,8.16-7.37,4.26,0,6.85,2,8,6.33l-4.43,1.24c-.66-2.42-1.77-3.46-3.7-3.46-1.77,0-2.95,1-2.95,2.49,0,1.32.8,2,3.19,2.91,2.91,1,3.67,1.42,4.81,2.35a6.26,6.26,0,0,1,2.14,4.85c0,4.22-2.94,7-7.4,7a8,8,0,0,1-5.12-1.62,6.66,6.66,0,0,1-2.28-3.74Z"/><path class="f0a7382e-955a-410c-9e8b-fac535fb5e4c" d="M279.24,262.54v-4h9v-5.33h-7v-4h7v-5.67h-9v-4.12h14v23.08Z"/><path class="f0a7382e-955a-410c-9e8b-fac535fb5e4c" d="M271,262.54l-3.25-8.44-3.47,8.44h-4.94l6.4-13.32v-9.76h5v9.76l5.78,13.32Z"/><path class="f0a7382e-955a-410c-9e8b-fac535fb5e4c" d="M248.91,262.54l-3.25-14.25L242,262.54H234.8V239.46h4.74v19.31l4.7-19.31h3.7l4.29,19.31V239.46h4.12v23.08Z"/><path class="f0a7382e-955a-410c-9e8b-fac535fb5e4c" d="M215.57,260.67c-1.86-2-2.77-5.15-2.77-9.69,0-7.82,2.88-11.86,8.38-11.86s8.37,4,8.37,11.79c0,8-2.83,12-8.48,12A7.4,7.4,0,0,1,215.57,260.67Zm8.65-9.62c0-5.84-.76-7.82-3-7.82s-3,2-3,7.79.79,7.75,3,7.75S224.22,256.83,224.22,251.05Z"/><path class="f0a7382e-955a-410c-9e8b-fac535fb5e4c" d="M202.5,262.54V249.36c0-2.53-.1-3.67-.41-4.4a2.83,2.83,0,0,0-2.87-1.73,2.64,2.64,0,0,0-2.74,1.73c-.31.76-.34,1.39-.34,4.4v13.18h-4.26v-13c0-5.09.35-6.72,1.77-8.24a7.9,7.9,0,0,1,6-2.21c2.9,0,5.12.83,6.33,2.35s1.56,3.42,1.56,7.89v13.18Z"/><path class="f0a7382e-955a-410c-9e8b-fac535fb5e4c" d="M178.57,262.54c-3.11,0-4.12-.24-5.47-1.21a7,7,0,0,1-2.49-5.78c0-2.94.94-4.64,3.26-6l-4.26-10.07h5.54l3.08,9.1h2.52v-9.1h5.05v23.08Zm2.18-10.24h-2.21c-1.94,0-3,1.17-3,3.35a3.31,3.31,0,0,0,1,2.6,3.17,3.17,0,0,0,2.17.55h2Z"/><path class="f0a7382e-955a-410c-9e8b-fac535fb5e4c" d="M147.13,255.9c.62,2,1.63,2.87,3.25,2.87a2.19,2.19,0,0,0,2.43-2.11c0-1.32-.66-1.84-4-3.08a12.72,12.72,0,0,1-4.08-2.11,6.16,6.16,0,0,1-2.29-5c0-4.43,3.29-7.37,8.17-7.37,4.25,0,6.85,2,8,6.33l-4.42,1.24c-.66-2.42-1.77-3.46-3.71-3.46-1.76,0-2.94,1-2.94,2.49,0,1.32.8,2,3.19,2.91,2.9,1,3.66,1.42,4.8,2.35a6.24,6.24,0,0,1,2.15,4.85c0,4.22-2.94,7-7.4,7a8,8,0,0,1-5.12-1.62,6.72,6.72,0,0,1-2.29-3.74Z"/><path class="f0a7382e-955a-410c-9e8b-fac535fb5e4c" d="M125.07,262.54v-4.33h4.7V239.46h5.09v18.75h4.6v4.33Z"/><path class="f0a7382e-955a-410c-9e8b-fac535fb5e4c" d="M472.51,221,469,203.46,465.31,221H461l5.68-23.18,5.67.1L477.84,221Z"/><path class="f0a7382e-955a-410c-9e8b-fac535fb5e4c" d="M447.26,214c.35,2.46,1.35,3.67,2.87,3.67s2.42-1.1,2.81-3.18a27.64,27.64,0,0,0,.34-4.6c-1.14,1.9-2.31,2.63-4.25,2.63a5.79,5.79,0,0,1-3.29-1C444,210.21,443,208,443,205.23c0-4.74,2.77-7.61,7.26-7.61a6.56,6.56,0,0,1,4.78,1.76c2,1.94,2.9,5,2.9,10,0,4.4-.69,7.17-2.35,9.38a7.31,7.31,0,0,1-9.45,1.59c-1.66-1.1-2.42-2.39-3-5.05ZM453,205c0-2.32-.94-3.63-2.56-3.63s-2.56,1.24-2.56,3.94c0,2.36.83,3.57,2.42,3.57C452.14,208.83,453,207.55,453,205Z"/><path class="f0a7382e-955a-410c-9e8b-fac535fb5e4c" d="M430.25,221c-2.94,0-4.12-.21-5.3-1a6.16,6.16,0,0,1-2.21-5.09c0-2.63,1-4,3.32-4.95a5.56,5.56,0,0,1-3.91-5.67,6.47,6.47,0,0,1,2.52-5.29c1.29-.87,2.46-1.08,5.58-1.08h7.88V221Zm1.38-9.31a4.71,4.71,0,0,0-2.8.59,2.9,2.9,0,0,0-.94,2.28c0,1.87,1,2.7,3.36,2.7h2v-5.57Zm-.87-9.79c-2.35,0-3.45,1-3.45,3.05s1,3,3.45,3h2.49v-6.06Z"/><path class="f0a7382e-955a-410c-9e8b-fac535fb5e4c" d="M409.88,215.43c-1.17,4-3.63,5.95-7.61,5.95-4.29,0-6.82-2.31-6.82-6.22,0-2.46,1-4,3.43-5.12-2.63-.83-3.88-2.6-3.88-5.5,0-4.26,2.91-6.92,7.58-6.92a8,8,0,0,1,5.82,2.18c1.1,1.14,1.62,2.31,2,4.63l-4.46.73c-.35-2.46-1.18-3.43-3.05-3.43-1.66,0-2.66,1.18-2.66,3.15,0,2.15,1.17,3.22,3.56,3.19l1.39,0v3.74h-1.39c-1.38,0-1.83.1-2.39.58a2.69,2.69,0,0,0-.93,2.29c0,1.8.87,2.8,2.35,2.8s2.15-.76,2.63-2.84Z"/><path class="f0a7382e-955a-410c-9e8b-fac535fb5e4c" d="M384.32,221v-9.31h-5.57V221H373.7V198h5.05v9.45h5.57V198h5.05V221Z"/><path class="f0a7382e-955a-410c-9e8b-fac535fb5e4c" d="M357.35,214c.34,2.46,1.35,3.67,2.87,3.67s2.42-1.1,2.8-3.18a26.52,26.52,0,0,0,.34-4.6c-1.13,1.9-2.31,2.63-4.25,2.63a5.81,5.81,0,0,1-3.29-1c-1.76-1.28-2.73-3.46-2.73-6.26,0-4.74,2.77-7.61,7.27-7.61a6.53,6.53,0,0,1,4.77,1.76c2,1.94,2.91,5,2.91,10,0,4.4-.7,7.17-2.36,9.38a6.57,6.57,0,0,1-5.6,2.66,6.49,6.49,0,0,1-3.84-1.07c-1.66-1.1-2.42-2.39-3-5.05Zm5.77-9.06c0-2.32-.93-3.63-2.56-3.63s-2.56,1.24-2.56,3.94c0,2.36.83,3.57,2.42,3.57C362.23,208.83,363.12,207.55,363.12,205Z"/><path class="f0a7382e-955a-410c-9e8b-fac535fb5e4c" d="M337.36,221l-3.53-17.58L330.16,221H325.8l5.68-23.18,5.67.1L342.69,221Z"/><path class="f0a7382e-955a-410c-9e8b-fac535fb5e4c" d="M313.5,221,306.92,198h5.19l1.14,4.74h6.51l1.11-4.74h4.67L318.62,221Zm3-4.95,2.25-9.41h-4.57Z"/><path class="f0a7382e-955a-410c-9e8b-fac535fb5e4c" d="M297.83,221,292,206.72V221H288V198h4.53l7,16.71V198h3.94V221Z"/><path class="f0a7382e-955a-410c-9e8b-fac535fb5e4c" d="M266.15,206.06c.42-5.23,3.46-8.44,8.06-8.44,5.54,0,8.69,4.32,8.69,11.86s-3.15,11.9-8.76,11.9a7,7,0,0,1-6.4-3.35,11.42,11.42,0,0,1-1.49-5.57l4.64-.35c.14,2,.28,2.81.73,3.6a2.73,2.73,0,0,0,2.49,1.56c2.46,0,3.46-2.39,3.46-8.17,0-5.22-1-7.37-3.46-7.37-1.83,0-2.87,1.46-3.25,4.64Z"/><path class="f0a7382e-955a-410c-9e8b-fac535fb5e4c" d="M248.17,219.17c-1.87-2-2.77-5.16-2.77-9.69,0-7.82,2.87-11.86,8.37-11.86s8.37,4,8.37,11.79c0,8-2.83,12-8.47,12A7.37,7.37,0,0,1,248.17,219.17Zm8.65-9.62c0-5.84-.76-7.82-3-7.82s-3,2-3,7.79.79,7.75,3,7.75S256.82,215.33,256.82,209.55Z"/><path class="f0a7382e-955a-410c-9e8b-fac535fb5e4c" d="M235.1,221V207.86c0-2.53-.11-3.67-.42-4.4a2.83,2.83,0,0,0-2.87-1.73,2.62,2.62,0,0,0-2.73,1.73c-.31.76-.35,1.39-.35,4.4V221h-4.25v-13c0-5.09.34-6.72,1.76-8.24a7.9,7.9,0,0,1,6-2.21c2.9,0,5.12.83,6.33,2.35s1.56,3.42,1.56,7.89V221Z"/><path class="f0a7382e-955a-410c-9e8b-fac535fb5e4c" d="M215.28,221l-3.52-17.58L208.09,221h-4.36l5.67-23.18,5.68.1L220.61,221Z"/><path class="f0a7382e-955a-410c-9e8b-fac535fb5e4c" d="M185.81,221v-4h9v-5.33h-7v-4h7v-5.67h-9V198h14V221Z"/><path class="f0a7382e-955a-410c-9e8b-fac535fb5e4c" d="M174.37,221c-3.11,0-4.12-.24-5.47-1.21a7,7,0,0,1-2.49-5.78c0-2.94.94-4.64,3.26-6L165.41,198H171l3.08,9.1h2.52V198h5V221Zm2.18-10.24h-2.21c-1.94,0-3,1.17-3,3.35a3.31,3.31,0,0,0,1,2.6,3.17,3.17,0,0,0,2.17.55h2Z"/><path class="f0a7382e-955a-410c-9e8b-fac535fb5e4c" d="M144.94,221c-2.94,0-4.12-.21-5.29-1a6.17,6.17,0,0,1-2.22-5.09c0-2.63,1-4,3.32-4.95a5.56,5.56,0,0,1-3.91-5.67,6.47,6.47,0,0,1,2.53-5.29c1.28-.87,2.46-1.08,5.57-1.08h7.89V221Zm1.38-9.31a4.73,4.73,0,0,0-2.8.59,2.93,2.93,0,0,0-.93,2.28c0,1.87,1,2.7,3.35,2.7h2v-5.57Zm-.86-9.79c-2.36,0-3.46,1-3.46,3.05s1,3,3.46,3H148v-6.06Z"/><path class="f0a7382e-955a-410c-9e8b-fac535fb5e4c" d="M115.89,206.06c.41-5.23,3.46-8.44,8.06-8.44,5.54,0,8.68,4.32,8.68,11.86s-3.14,11.9-8.75,11.9a7,7,0,0,1-6.4-3.35,11.42,11.42,0,0,1-1.49-5.57l4.64-.35c.13,2,.27,2.81.72,3.6a2.74,2.74,0,0,0,2.49,1.56c2.46,0,3.47-2.39,3.47-8.17,0-5.22-1-7.37-3.47-7.37-1.83,0-2.87,1.46-3.25,4.64Z"/><path class="f0a7382e-955a-410c-9e8b-fac535fb5e4c" d="M404.45,179.54a31.26,31.26,0,0,0,0-28.86h3.73a26.94,26.94,0,0,1,0,28.86Z"/><path class="f0a7382e-955a-410c-9e8b-fac535fb5e4c" d="M388.12,172.52c.35,2.45,1.35,3.66,2.87,3.66s2.42-1.1,2.8-3.18a26.11,26.11,0,0,0,.35-4.6c-1.14,1.9-2.32,2.63-4.25,2.63a5.76,5.76,0,0,1-3.29-1c-1.77-1.28-2.73-3.46-2.73-6.26,0-4.74,2.76-7.61,7.26-7.61a6.53,6.53,0,0,1,4.77,1.76c2,1.94,2.91,5,2.91,10,0,4.4-.69,7.17-2.35,9.38a6.58,6.58,0,0,1-5.61,2.66,6.51,6.51,0,0,1-3.84-1.07c-1.66-1.1-2.42-2.39-3-5.05Zm5.78-9.07c0-2.32-.94-3.63-2.56-3.63s-2.56,1.24-2.56,3.94c0,2.36.83,3.57,2.42,3.57C393,167.33,393.9,166.05,393.9,163.45Z"/><path class="f0a7382e-955a-410c-9e8b-fac535fb5e4c" d="M364.64,168c0-8.16,2.42-11.86,7.71-11.86S380,159.82,380,168c0,4.7-.82,7.92-2.56,9.86-1.21,1.38-2.83,2-5.26,2C367.06,179.88,364.64,176.11,364.64,168Zm10.07.14c0-6.88-.42-8.3-2.36-8.3S370,161.27,370,168c0,3.87.14,5.74.49,6.71a1.84,1.84,0,0,0,1.83,1.45C374.29,176.18,374.71,174.76,374.71,168.12Z"/><path class="f0a7382e-955a-410c-9e8b-fac535fb5e4c" d="M347.56,179.88v-14H345v-4h2.6v-5.43h5.05v5.43h8.3v4l-7.85,14Zm4.67-4.8,5.08-9.52h-5.08Z"/><path class="f0a7382e-955a-410c-9e8b-fac535fb5e4c" d="M340.23,150.68a31.26,31.26,0,0,0,0,28.86h-3.74a27,27,0,0,1,0-28.86Z"/><path class="f0a7382e-955a-410c-9e8b-fac535fb5e4c" d="M306.44,179.88v-14h-2.6v-4h2.6v-5.43h5.05v5.43h8.3v4l-7.85,14Zm4.67-4.8,5.08-9.52h-5.08Z"/><path class="f0a7382e-955a-410c-9e8b-fac535fb5e4c" d="M300.29,172.34a9.62,9.62,0,0,1-2,5.12,6.65,6.65,0,0,1-5.65,2.42c-4.32,0-7.12-2.62-7.12-6.71,0-3,1.45-5.67,4.67-8.47a47.07,47.07,0,0,1,5-3.71h-10l.34-4.53h14.78V161c-7.55,6.44-9.48,8.86-9.48,11.91,0,1.86.76,2.87,2.14,2.87,1.6,0,2.42-1.32,2.73-4.36Z"/><path class="f0a7382e-955a-410c-9e8b-fac535fb5e4c" d="M265.18,163.07a6.64,6.64,0,0,1,1.94-4.81c1.45-1.45,3.42-2.14,6.16-2.14,4.74,0,7.54,2.35,7.54,6.33,0,2.49-1,3.87-3.78,5.39,2.22,1.49,3.12,3.08,3.12,5.44a6.68,6.68,0,0,1-1.87,4.67c-1.28,1.31-3.08,1.93-5.57,1.93-4.36,0-6.92-2.17-6.92-5.88,0-2.21.87-3.63,2.94-4.94A6.6,6.6,0,0,1,265.18,163.07Zm11.18-.24a3.05,3.05,0,0,0-3.33-3.22,2.83,2.83,0,0,0-3.11,2.7,3,3,0,0,0,1.18,2.25,14.17,14.17,0,0,0,3,1.62C275.8,165.08,276.36,164.25,276.36,162.83Zm-6.2,10.9a2.53,2.53,0,0,0,2.56,2.83,2.48,2.48,0,0,0,2.66-2.52c0-1.39-.93-2.32-3.59-3.46C270.58,171.79,270.16,172.58,270.16,173.73Z"/><path class="f0a7382e-955a-410c-9e8b-fac535fb5e4c" d="M241.8,172.52c.35,2.45,1.35,3.66,2.87,3.66s2.42-1.1,2.81-3.18a27.64,27.64,0,0,0,.34-4.6c-1.14,1.9-2.31,2.63-4.25,2.63a5.79,5.79,0,0,1-3.29-1c-1.77-1.28-2.73-3.46-2.73-6.26,0-4.74,2.77-7.61,7.26-7.61a6.56,6.56,0,0,1,4.78,1.76c2,1.94,2.9,5,2.9,10,0,4.4-.69,7.17-2.35,9.38a7.31,7.31,0,0,1-9.45,1.59c-1.66-1.1-2.42-2.39-3-5.05Zm5.78-9.07c0-2.32-.94-3.63-2.56-3.63s-2.56,1.24-2.56,3.94c0,2.36.83,3.57,2.42,3.57C246.68,167.33,247.58,166.05,247.58,163.45Z"/><path class="f0a7382e-955a-410c-9e8b-fac535fb5e4c" d="M222.47,179.71V160.23h-3.81v-3.77h12.77v3.77h-3.87v13.64a13.77,13.77,0,0,1,3.87-2.91v4.53a15.29,15.29,0,0,0-5.09,4.22Z"/><path class="f0a7382e-955a-410c-9e8b-fac535fb5e4c" d="M199.37,179.54v-3.91c3.7-4.78,5.54-11.11,5.6-19.17h5.5A28.91,28.91,0,0,1,203.69,175h9.76l-.38,4.53Z"/><path class="f0a7382e-955a-410c-9e8b-fac535fb5e4c" d="M180,179.54v-3.91c3.7-4.78,5.54-11.11,5.6-19.17h5.5A28.91,28.91,0,0,1,184.29,175h9.76l-.38,4.53Z"/><path class="f0a7382e-955a-410c-9e8b-fac535fb5e4c" d="M297.42,415.89h0c10.81,0,19.68,6.53,22.61,16.63a2.66,2.66,0,1,1-5.1,1.48c-2.74-9.44-11.15-12.79-17.51-12.79h0c-6.37,0-14.77,3.35-17.52,12.79a2.66,2.66,0,0,1-5.1-1.48C277.73,422.42,286.61,415.89,297.42,415.89Z"/></svg>