<?xml version="1.0" encoding="utf-8"?>
<!-- Generator: Adobe Illustrator 27.5.0, SVG Export Plug-In . SVG Version: 6.00 Build 0)  -->
<svg version="1.1" id="a0be6ed8-e9ce-4ddb-9cd2-15fd7e0c5ee3"
	 xmlns="http://www.w3.org/2000/svg" xmlns:xlink="http://www.w3.org/1999/xlink" x="0px" y="0px" viewBox="0 0 589 729.7"
	 style="enable-background:new 0 0 589 729.7;" xml:space="preserve">
<style type="text/css">
	.st0{fill:#111111;}
</style>
<g>
	<polygon class="st0" points="380.1,503.5 361.6,579 375.8,579 387.8,521.8 399.3,579 416.6,579 398.6,503.8 	"/>
	<polygon class="st0" points="303.2,517.3 332.4,517.3 332.4,535.7 309.7,535.7 309.7,548.7 332.4,548.7 332.4,566 303.2,566 
		303.2,579 348.9,579 348.9,503.8 303.2,503.8 	"/>
	<path class="st0" d="M273,533.5h-8.3l-10-29.6h-18l13.9,32.8c-7.6,4.5-10.6,10-10.6,19.6c0,8.2,3,14.9,8.1,18.8
		c4.4,3.2,7.7,4,17.8,4h23.5v-75.2H273V533.5z M273,566.8h-6.5c-3.6,0-5.6-0.6-7.1-1.8c-2.1-1.8-3.3-4.8-3.3-8.5
		c0-7.1,3.4-10.9,9.7-10.9h7.2L273,566.8z"/>
	<polygon class="st0" points="213.5,503.8 197.1,503.8 197.1,535.6 176.2,579 192.4,579 203.6,551.5 214.2,579 232.4,579 
		213.5,535.6 	"/>
	<path class="st0" d="M308.8,444.5L308.8,444.5c-1.6,0-3.1,0.6-4.1,1.7c0,0,0,0,0,0c-2.2,2.3-2.2,5.9,0,8.2c1.1,1.1,2.6,1.7,4.1,1.7
		c3-0.1,5.4-2.5,5.6-5.6C314.5,447.3,312,444.6,308.8,444.5z"/>
	<path class="st0" d="M333.7,438.6c0-20.2-16.3-36.6-36.6-36.6c-9.8-0.2-19.1,3.7-25.9,10.7c-6.9,6.9-10.7,16.1-10.7,25.8
		c0,20.2,16.3,36.6,36.6,36.6C317.3,475.2,333.7,458.9,333.7,438.6z M297.3,470.5c-17.6,0-32-14.2-32-31.9c0-17.6,14.2-32,31.9-32v0
		c8.5-0.1,16.7,3.2,22.6,9.4c6,6,9.4,14.1,9.4,22.5C329.2,456.2,314.9,470.5,297.3,470.5z"/>
	<path class="st0" d="M285.5,444.5L285.5,444.5c-0.2,0-0.3,0-0.5,0c-3.2,0.1-5.7,2.8-5.6,6s2.8,5.7,6,5.6c1.6,0,3-0.6,4.1-1.7
		c0,0,0,0,0.1-0.1c2.2-2.3,2.2-5.9-0.1-8.1C288.5,445.1,287,444.4,285.5,444.5z"/>
	<path class="st0" d="M442,326h-5.9c-9.7,0-14.3,1.1-18.7,4c-5.4,3.6-8.6,10.8-8.6,20c0,8.8,3.2,16,8.8,19.8
		c4.2,2.9,8.5,3.7,19.3,3.7h21.6v-75.2H442V326z M442,361.3h-5.1c-4.1,0-6-0.4-7.5-2c-1.9-1.8-3-5.1-3-8.9c0-8.2,2.9-11.4,10.6-11.4
		h5.1V361.3z"/>
	<path class="st0" d="M396.7,335.6c0-25.2-9.3-38.4-27.3-38.4s-27.3,13.2-27.3,38.7c0,14.8,2.9,24.9,9,31.5
		c4.3,4.6,10.7,7.2,17.9,7.2C387.4,374.6,396.7,361.6,396.7,335.6z M359.5,335.9c0-18.9,2.5-25.3,9.9-25.3s9.9,6.5,9.9,25.5
		c0,18.8-2.6,25.1-10,25.1C362.1,361.2,359.5,354.7,359.5,335.9z"/>
	<polygon class="st0" points="325,373.5 325,298.3 284.3,298.3 284.3,312.4 308.5,312.4 308.5,373.5 	"/>
	<rect x="254.9" y="298.3" class="st0" width="16.5" height="75.2"/>
	<polygon class="st0" points="242.1,359.4 227.1,359.4 227.1,298.3 210.5,298.3 210.5,359.4 195.2,359.4 195.2,373.5 242.1,373.5 	
		"/>
	<polygon class="st0" points="182.3,298.3 136.7,298.3 136.7,311.7 165.9,311.7 165.9,330.1 143.1,330.1 143.1,343.1 165.9,343.1 
		165.9,360.5 136.7,360.5 136.7,373.5 182.3,373.5 	"/>
	<path class="st0" d="M121,305.6h-0.7l-1.3-3.9h-3l1.9,4.4c-1,0.5-1.6,1.5-1.5,2.6c0,1,0.4,2,1.3,2.6c0.8,0.5,1.8,0.7,2.7,0.5h3.4
		v-10.2H121V305.6z M120.4,310c-1,0-1.4-0.3-1.4-1.2s0.4-1.3,1.2-1.3h0.6l0,2.5H120.4z"/>
	<path class="st0" d="M120,297.8c-4.9,0-8.9,4-8.9,9c0,0,0,0,0,0c0,4.9,4,8.9,8.9,8.8c0,0,0,0,0.1,0c4.9,0,8.9-4,8.9-9
		S125,297.7,120,297.8z M120.1,313.7c-3.7,0-6.7-3-6.7-6.6c-0.1-3.7,2.9-6.8,6.6-6.9c3.7-0.1,6.8,2.9,6.9,6.6
		C126.9,310.6,123.8,313.6,120.1,313.7z"/>
	<path class="st0" d="M457.5,239.2c-4.5,0-7.3,2.9-7.3,7.6c0,2.8,1,5,2.7,6.3c1,0.7,2.1,1,3.3,1c1.9,0,3.1-0.7,4.3-2.6
		c0,1.5-0.1,3.1-0.3,4.6c-0.4,2.1-1.3,3.2-2.8,3.2c-1.5,0-2.5-1.2-2.9-3.7l-4.1,1.3c0.6,2.7,1.3,4,3,5c1.1,0.7,2.5,1.1,3.8,1.1
		c2.2,0.1,4.3-0.9,5.6-2.7c1.7-2.2,2.4-5,2.4-9.4c0-5-0.9-8.1-2.9-10C461,239.7,459.3,239.1,457.5,239.2z M457.6,250.3
		c-1.6,0-2.4-1.2-2.4-3.6c0-2.7,0.9-3.9,2.5-3.9s2.6,1.3,2.6,3.6C460.3,249,459.4,250.3,457.6,250.3z"/>
	<path class="st0" d="M431.1,251c0,8.1,2.4,11.9,7.6,11.9c2.4,0,4-0.6,5.3-2c1.7-1.9,2.6-5.2,2.6-9.9c0-8.2-2.4-11.9-7.7-11.9
		S431.1,242.8,431.1,251z M438.8,242.8c1.9,0,2.3,1.4,2.3,8.3c0,6.6-0.4,8.1-2.4,8.1c-0.9,0-1.6-0.6-1.8-1.5c-0.3-1-0.5-2.8-0.5-6.7
		C436.4,244.3,436.8,242.8,438.8,242.8z"/>
	<path class="st0" d="M424.8,243.2v-3.8H412v3.8h3.8v19.5h3.9c1.4-1.8,3.1-3.2,5.1-4.2V254c-1.5,0.7-2.8,1.7-3.9,2.9v-13.6H424.8z"
		/>
	<rect x="392.4" y="246.3" class="st0" width="6.9" height="3.7"/>
	<path class="st0" d="M372.5,243.3c1.8,0,2.6,0.9,3,3.1l4.6-0.8c-0.1-1.6-0.7-3.1-1.8-4.2c-1.5-1.5-3.6-2.4-5.8-2.3
		c-4.9,0-7.8,3-7.8,8.1c0,2.8,0.8,4.9,2.4,6.2c1.1,0.9,2.4,1.3,3.8,1.4c1.6,0.1,3.1-0.7,4-2l-0.3,5.2h-8.1l-0.5,4.5l12.3,0l0.8-12.9
		l-4-0.8c-0.3,1.1-1.4,1.9-2.6,1.8c-1.8,0-2.9-1.3-2.9-3.7S370.7,243.3,372.5,243.3z"/>
	<path class="st0" d="M360.9,244v-4.5h-14.8l-0.3,4.5h10c-1.7,1.1-3.4,2.4-5,3.7c-3.2,2.8-4.7,5.5-4.7,8.5c0,4.1,2.8,6.7,7.1,6.7
		c2.2,0.2,4.3-0.7,5.6-2.4c1.2-1.5,1.9-3.3,2-5.1l-4.6-0.9c-0.3,3-1.1,4.4-2.7,4.4c-1.4,0-2.2-1-2.2-2.9
		C351.4,252.9,353.3,250.4,360.9,244z"/>
	<path class="st0" d="M333.7,243.3c1.8,0,2.6,0.9,3,3.1l4.6-0.8c-0.1-1.6-0.7-3.1-1.8-4.2c-1.5-1.5-3.6-2.4-5.8-2.3
		c-4.9,0-7.8,3-7.8,8.1c0,2.8,0.8,4.9,2.4,6.2c1.1,0.9,2.4,1.3,3.8,1.4c1.6,0.1,3.1-0.7,4-2l-0.3,5.2h-8.1l-0.5,4.5l12.3,0l0.8-12.9
		l-4-0.8c-0.3,1.1-1.4,1.9-2.6,1.8c-1.8,0-2.9-1.3-2.9-3.7S331.9,243.3,333.7,243.3z"/>
	<path class="st0" d="M306.1,243.2c1.9,0,3,1,3.7,3.5l4.4-1.2c-1.1-4.3-3.7-6.3-8-6.3c-4.9,0-8.2,2.9-8.2,7.4
		c-0.1,1.9,0.8,3.8,2.3,5c1.2,0.9,2.6,1.7,4.1,2.1c3.3,1.2,4,1.8,4,3.1c0,0.1,0,0.1,0,0.2c-0.1,1.2-1.2,2.1-2.4,1.9
		c-1.6,0-2.6-0.9-3.3-2.9l-4.3,1.6c0.3,1.5,1.1,2.8,2.3,3.7c1.5,1.1,3.3,1.7,5.1,1.6c4.5,0,7.4-2.8,7.4-7c0-1.9-0.7-3.6-2.1-4.8
		c-1.1-0.9-1.9-1.4-4.8-2.4c-2.4-0.9-3.2-1.6-3.2-2.9C303.2,244.2,304.3,243.2,306.1,243.2z"/>
	<polygon class="st0" points="279.2,258.5 279.2,262.5 293.2,262.5 293.2,239.4 279.2,239.4 279.2,243.5 288.2,243.5 288.2,249.2 
		281.2,249.2 281.2,253.2 288.2,253.2 288.2,258.5 	"/>
	<polygon class="st0" points="270.7,249.2 270.7,239.5 265.7,239.5 265.7,249.2 259.3,262.5 264.3,262.5 267.8,254.1 271,262.5 
		276.5,262.5 	"/>
	<polygon class="st0" points="248.9,262.5 256.4,262.5 256.4,239.5 252.2,239.5 252.2,258.8 247.9,239.5 244.2,239.5 239.5,258.8 
		239.5,239.5 234.8,239.5 234.8,262.5 242,262.5 245.7,248.3 	"/>
	<path class="st0" d="M229.5,250.9c0-7.8-2.9-11.8-8.4-11.8s-8.4,4-8.4,11.9c0,4.5,0.9,7.7,2.8,9.7c1.4,1.5,3.4,2.3,5.5,2.2
		C226.7,262.9,229.5,258.9,229.5,250.9z M218.2,251c0-5.8,0.8-7.8,3-7.8c2.2,0,3,2,3,7.8c0,5.8-0.8,7.7-3,7.7
		C219,258.8,218.2,256.8,218.2,251z"/>
	<path class="st0" d="M196.1,249.4c0-3,0-3.6,0.3-4.4c0.4-1.1,1.5-1.8,2.7-1.7c1.2-0.1,2.4,0.6,2.9,1.7c0.3,0.7,0.4,1.9,0.4,4.4
		v13.2l5,0v-13.2c0-4.5-0.4-6.4-1.6-7.9c-1.2-1.5-3.4-2.4-6.3-2.4c-2.2-0.1-4.4,0.7-6,2.2c-1.4,1.5-1.8,3.2-1.8,8.2v13h4.3V249.4z"
		/>
	<path class="st0" d="M170.6,255.5c-0.1,2.2,0.8,4.4,2.5,5.8c1.3,1,2.4,1.2,5.5,1.2l7.2,0v-23.1h-5v9.1h-2.5l-3.1-9.1h-5.5l4.3,10.1
		C171.5,250.9,170.6,252.6,170.6,255.5z M178.5,252.3h2.2l0,6.5h-2c-0.8,0.1-1.5-0.1-2.2-0.5c-0.7-0.7-1.1-1.6-1-2.6
		C175.5,253.5,176.6,252.3,178.5,252.3z"/>
	<path class="st0" d="M142.4,246.5c-0.1,1.9,0.8,3.8,2.3,5c1.2,0.9,2.6,1.7,4.1,2.1c3.3,1.2,4,1.8,4,3.1c0,0.1,0,0.1,0,0.2
		c-0.1,1.2-1.2,2.1-2.4,1.9c-1.6,0-2.6-0.9-3.2-2.9l-4.3,1.6c0.3,1.5,1.1,2.8,2.3,3.7c1.5,1.1,3.3,1.7,5.1,1.6c4.5,0,7.4-2.8,7.4-7
		c0-1.9-0.7-3.6-2.1-4.8c-1.1-0.9-1.9-1.4-4.8-2.4c-2.4-0.9-3.2-1.6-3.2-2.9c0-1.5,1.2-2.5,2.9-2.5c1.9,0,3.1,1,3.7,3.5l4.4-1.2
		c-1.1-4.3-3.8-6.3-8-6.3C145.7,239.1,142.4,242,142.4,246.5z"/>
	<polygon class="st0" points="129.8,239.5 129.8,258.2 125.1,258.2 125.1,262.5 139.5,262.5 139.5,258.2 134.9,258.2 134.9,239.5 	
		"/>
	<polygon class="st0" points="472.4,197.9 466.7,197.8 461,221 465.3,221 469,203.5 472.5,221 477.8,221 	"/>
	<path class="st0" d="M445.7,211.5c1,0.7,2.1,1,3.3,1c1.9,0,3.1-0.7,4.2-2.6c0,1.5-0.1,3.1-0.3,4.6c-0.4,2.1-1.3,3.2-2.8,3.2
		c-1.5,0-2.5-1.2-2.9-3.7l-4.1,1.3c0.6,2.7,1.3,4,3,5c3.1,1.9,7.1,1.2,9.5-1.6c1.7-2.2,2.3-5,2.3-9.4c0-5-0.9-8.1-2.9-10
		c-1.3-1.2-3-1.8-4.8-1.8c-4.5,0-7.3,2.9-7.3,7.6C443,208,444,210.2,445.7,211.5z M450.4,201.4c1.6,0,2.6,1.3,2.6,3.6
		c0,2.5-0.9,3.8-2.7,3.9c-1.6,0-2.4-1.2-2.4-3.6C447.9,202.6,448.8,201.4,450.4,201.4z"/>
	<path class="st0" d="M426.1,210c-2.3,0.9-3.3,2.3-3.3,4.9c-0.1,2,0.7,3.8,2.2,5.1c1.2,0.8,2.4,1,5.3,1h7.9v-23.1h-7.9
		c-3.1,0-4.3,0.2-5.6,1.1c-1.6,1.3-2.6,3.2-2.5,5.3C422,206.9,423.6,209.2,426.1,210z M433.2,217.3h-2c-2.4,0-3.4-0.8-3.4-2.7
		c0-0.9,0.3-1.7,0.9-2.3c0.8-0.5,1.8-0.7,2.8-0.6h1.6V217.3z M430.8,201.9l2.5,0v6.1h-2.5c-2.5,0-3.5-1-3.5-3
		S428.4,201.9,430.8,201.9z"/>
	<path class="st0" d="M395,204.5c0,2.9,1.2,4.7,3.9,5.5c-2.4,1.1-3.4,2.7-3.4,5.1c0,3.9,2.5,6.2,6.8,6.2c4,0,6.4-2,7.6-6l-4.4-0.8
		c-0.5,2.1-1.1,2.8-2.6,2.8c-1.5,0-2.3-1-2.3-2.8c-0.1-0.9,0.3-1.7,0.9-2.3c0.6-0.5,1-0.6,2.4-0.6h1.4v-3.7h-1.4
		c-2.4,0-3.6-1-3.6-3.2c0-2,1-3.2,2.7-3.2c1.9,0,2.7,1,3,3.4l4.5-0.7c-0.4-2.3-0.9-3.5-2-4.6c-1.6-1.5-3.7-2.3-5.8-2.2
		C397.9,197.6,395,200.3,395,204.5z"/>
	<polygon class="st0" points="389.4,221 389.4,198 384.3,198 384.3,207.5 378.8,207.5 378.8,198 373.7,198 373.7,221 378.8,221 
		378.8,211.7 384.3,211.7 384.3,221 	"/>
	<path class="st0" d="M365.7,218.8c1.7-2.2,2.4-5,2.4-9.4c0-5-0.9-8.1-2.9-10c-1.3-1.2-3-1.8-4.8-1.8c-4.5,0-7.3,2.9-7.3,7.6
		c0,2.8,1,5,2.7,6.3c1,0.7,2.1,1,3.3,1c1.9,0,3.1-0.7,4.2-2.6c0,1.5-0.1,3.1-0.3,4.6c-0.4,2.1-1.3,3.2-2.8,3.2
		c-1.5,0-2.5-1.2-2.9-3.7l-4.1,1.3c0.6,2.7,1.3,3.9,3,5c1.1,0.8,2.5,1.1,3.8,1.1C362.3,221.6,364.4,220.6,365.7,218.8z M363.1,205
		c0,2.5-0.9,3.8-2.7,3.8c-1.6,0-2.4-1.2-2.4-3.6c0-2.7,0.9-3.9,2.6-3.9S363.1,202.6,363.1,205L363.1,205z"/>
	<polygon class="st0" points="333.8,203.4 337.4,221 342.7,221 337.2,197.9 331.5,197.8 325.8,221 330.2,221 	"/>
	<path class="st0" d="M313.3,202.7l-1.1-4.7h-5.2l6.6,23h5.1l6.9-23h-4.7l-1.1,4.7H313.3z M316.5,216l-2.3-9.4h4.6L316.5,216z"/>
	<polygon class="st0" points="299.5,214.7 292.5,198 288,198 288,221 292,221 292,206.7 297.8,221 303.5,221 303.5,198 299.5,198 	
		"/>
	<path class="st0" d="M274.2,197.6c-4.6,0-7.6,3.2-8.1,8.4l4.7,0.3c0.4-3.2,1.4-4.6,3.2-4.6c2.5,0,3.5,2.1,3.5,7.4
		c0,5.8-1,8.2-3.5,8.2c-1.1,0-2-0.6-2.5-1.6c-0.5-0.8-0.6-1.6-0.7-3.6l-4.6,0.3c0,2,0.5,3.9,1.5,5.6c1.3,2.2,3.8,3.5,6.4,3.4
		c5.6,0,8.8-4.4,8.8-11.9S279.8,197.6,274.2,197.6z"/>
	<path class="st0" d="M245.4,209.5c0,4.5,0.9,7.7,2.8,9.7c1.4,1.5,3.4,2.3,5.5,2.2c5.6,0,8.5-4,8.5-12c0-7.8-2.9-11.8-8.4-11.8
		S245.4,201.7,245.4,209.5z M253.8,201.7c2.2,0,3,2,3,7.8c0,5.8-0.8,7.7-3,7.7s-3-2-3-7.8C250.8,203.7,251.6,201.7,253.8,201.7z"/>
	<path class="st0" d="M226.2,199.8c-1.4,1.5-1.8,3.1-1.8,8.2v13h4.2v-13.1c0-3,0-3.6,0.3-4.4c0.4-1.1,1.5-1.9,2.7-1.7
		c1.2-0.1,2.4,0.6,2.9,1.7c0.3,0.7,0.4,1.9,0.4,4.4V221h5v-13.2c0-4.5-0.3-6.4-1.6-7.9c-1.2-1.5-3.4-2.3-6.3-2.3
		C230,197.4,227.8,198.2,226.2,199.8z"/>
	<polygon class="st0" points="203.7,221 208.1,221 211.8,203.4 215.3,221 220.6,221 215.1,197.9 209.4,197.8 	"/>
	<polygon class="st0" points="185.8,217 185.8,221 199.8,221 199.8,198 185.8,198 185.8,202 194.8,202 194.8,207.7 187.8,207.7 
		187.8,211.7 194.8,211.7 194.8,217 	"/>
	<path class="st0" d="M166.4,214c-0.1,2.2,0.8,4.4,2.5,5.8c1.3,1,2.4,1.2,5.5,1.2h7.2v-23h-5v9.1h-2.5L171,198h-5.6l4.3,10
		C167.3,209.4,166.4,211.1,166.4,214z M174.3,210.8h2.2l0,6.5h-2c-0.8,0.1-1.5-0.1-2.2-0.5c-0.7-0.7-1.1-1.6-1-2.6
		C171.3,211.9,172.4,210.8,174.3,210.8z"/>
	<path class="st0" d="M140.8,210c-2.3,0.9-3.3,2.3-3.3,4.9c-0.1,2,0.7,3.8,2.2,5.1c1.2,0.8,2.3,1,5.3,1h7.9v-23.1h-7.9
		c-3.1,0-4.3,0.2-5.6,1.1c-1.6,1.3-2.6,3.2-2.5,5.3C136.7,206.9,138.3,209.2,140.8,210z M147.9,217.3h-2c-2.3,0-3.3-0.8-3.3-2.7
		c0-0.9,0.3-1.7,0.9-2.3c0.9-0.5,1.8-0.7,2.8-0.6h1.6V217.3z M145.5,201.9l2.5,0v6.1h-2.5c-2.5,0-3.5-1-3.5-3
		S143.1,201.9,145.5,201.9z"/>
	<path class="st0" d="M123.8,201.7c2.5,0,3.5,2.1,3.5,7.4c0,5.8-1,8.2-3.5,8.2c-1.1,0-2-0.6-2.5-1.6c-0.5-0.8-0.6-1.6-0.7-3.6
		l-4.6,0.3c0,2,0.5,3.9,1.5,5.6c1.3,2.2,3.8,3.5,6.4,3.4c5.6,0,8.8-4.4,8.8-11.9s-3.1-11.9-8.7-11.9c-4.6,0-7.7,3.2-8.1,8.4l4.7,0.3
		C121,203.2,122,201.7,123.8,201.7z"/>
	<path class="st0" d="M408.2,179.5c5.6-8.8,5.6-20.1,0-28.9h-3.7c4.7,9,4.7,19.8,0,28.9H408.2z"/>
	<path class="st0" d="M386.6,170c1,0.7,2.1,1,3.3,1c1.9,0,3.1-0.7,4.2-2.6c0,1.5-0.1,3.1-0.4,4.6c-0.4,2.1-1.3,3.2-2.8,3.2
		c-1.5,0-2.5-1.2-2.9-3.7l-4.1,1.3c0.6,2.7,1.3,3.9,3,5c1.1,0.7,2.5,1.1,3.8,1.1c2.2,0.1,4.3-0.9,5.6-2.7c1.7-2.2,2.4-5,2.4-9.4
		c0-5-0.9-8.1-2.9-10c-1.3-1.2-3-1.8-4.8-1.8c-4.5,0-7.3,2.9-7.3,7.6C383.9,166.6,384.8,168.8,386.6,170z M391.3,159.8
		c1.6,0,2.6,1.3,2.6,3.6c0,2.6-0.9,3.9-2.7,3.9c-1.6,0-2.4-1.2-2.4-3.6C388.8,161.1,389.7,159.8,391.3,159.8z"/>
	<path class="st0" d="M372.2,179.9c2.4,0,4.1-0.6,5.3-2c1.7-1.9,2.6-5.2,2.6-9.9c0-8.2-2.4-11.9-7.6-11.9s-7.7,3.7-7.7,11.9
		C364.6,176.1,367.1,179.9,372.2,179.9z M372.4,159.8c1.9,0,2.4,1.4,2.4,8.3c0,6.6-0.4,8.1-2.4,8c-0.9,0-1.6-0.6-1.8-1.4
		c-0.3-1-0.5-2.8-0.5-6.7C370,161.3,370.4,159.8,372.4,159.8z"/>
	<path class="st0" d="M347.6,179.9h5.5l7.9-14v-4h-8.3v-5.4h-5v5.4H345v4h2.6V179.9z M352.2,165.6h5.1l-5.1,9.5V165.6z"/>
	<path class="st0" d="M340.2,179.5c-4.7-9-4.7-19.8,0-28.9h-3.7c-5.6,8.8-5.6,20,0,28.9H340.2z"/>
	<path class="st0" d="M306.4,179.9h5.5l7.8-14v-4h-8.3v-5.4h-5v5.4h-2.6v4h2.6V179.9z M311.1,165.6h5.1l-5.1,9.5V165.6z"/>
	<path class="st0" d="M290.2,164.7c-3.2,2.8-4.7,5.5-4.7,8.5c0,4.1,2.8,6.7,7.1,6.7c2.2,0.2,4.3-0.7,5.7-2.4c1.2-1.5,1.8-3.3,2-5.1
		l-4.6-0.9c-0.3,3-1.1,4.4-2.7,4.4c-1.4,0-2.1-1-2.1-2.9c0-3,1.9-5.5,9.5-11.9v-4.5h-14.8l-0.3,4.5h10
		C293.4,162.1,291.8,163.4,290.2,164.7z"/>
	<path class="st0" d="M268.7,169.1c-2.1,1.3-2.9,2.7-2.9,4.9c0,3.7,2.6,5.9,6.9,5.9c2.5,0,4.3-0.6,5.6-1.9c1.2-1.3,1.9-2.9,1.9-4.7
		c0-2.4-0.9-4-3.1-5.4c2.8-1.5,3.8-2.9,3.8-5.4c0-4-2.8-6.3-7.5-6.3c-2.7,0-4.7,0.7-6.2,2.1c-1.3,1.3-2,3-1.9,4.8
		C265.1,165.6,266.5,167.9,268.7,169.1z M275.4,174.3c-0.1,1.4-1.3,2.4-2.7,2.3c-0.1,0-0.2,0-0.3,0c-1.4-0.2-2.4-1.4-2.2-2.8h0
		c0-1.1,0.4-1.9,1.6-3.2c2.7,1.1,3.6,2.1,3.6,3.5C275.4,174.1,275.4,174.2,275.4,174.3z M269.9,162.1c0.2-1.6,1.5-2.7,3.1-2.5
		c0.2,0,0.3,0,0.5,0c1.7,0.1,3,1.5,2.9,3.2c0,1.4-0.6,2.2-2.3,3.3c-1.1-0.4-2.1-1-3-1.6c-0.7-0.5-1.1-1.4-1.2-2.2
		C269.9,162.3,269.9,162.2,269.9,162.1z"/>
	<path class="st0" d="M240.3,170c1,0.7,2.1,1,3.3,1c1.9,0,3.1-0.7,4.2-2.6c0,1.5-0.1,3.1-0.3,4.6c-0.4,2.1-1.3,3.2-2.8,3.2
		c-1.5,0-2.5-1.2-2.9-3.7l-4.1,1.3c0.6,2.7,1.3,3.9,3,5c3.1,1.9,7.1,1.2,9.5-1.6c1.7-2.2,2.3-5,2.3-9.4c0-5-0.9-8.1-2.9-10
		c-1.3-1.2-3-1.8-4.8-1.8c-4.5,0-7.3,2.9-7.3,7.6C237.5,166.6,238.5,168.8,240.3,170z M245,159.8c1.6,0,2.6,1.3,2.6,3.6
		c0,2.6-0.9,3.9-2.7,3.9c-1.6,0-2.4-1.2-2.4-3.6C242.5,161.1,243.4,159.8,245,159.8z"/>
	<path class="st0" d="M222.5,179.7l3.9,0c1.4-1.8,3.1-3.2,5.1-4.2V171c-1.5,0.7-2.8,1.7-3.9,2.9v-13.6h3.9v-3.8h-12.8v3.8h3.8V179.7
		z"/>
	<path class="st0" d="M213.5,175h-9.8c4.4-5.2,6.8-11.8,6.8-18.5H205c-0.1,8.1-1.9,14.4-5.6,19.2v3.9l13.7,0L213.5,175z"/>
	<path class="st0" d="M194,175h-9.8c4.4-5.2,6.8-11.8,6.8-18.5h-5.5c-0.1,8.1-1.9,14.4-5.6,19.2v3.9l13.7,0L194,175z"/>
	<path class="st0" d="M320,432.5c-2.9-10.1-11.8-16.6-22.6-16.6c-10.8,0-19.7,6.5-22.6,16.6c-0.3,1.3,0.4,2.6,1.7,3.1
		c1.4,0.5,2.9-0.2,3.4-1.6c2.8-9.4,11.2-12.8,17.5-12.8c6.4,0,14.8,3.3,17.5,12.8c0,0.1,0.1,0.2,0.1,0.3c0.5,1.4,2,2.1,3.4,1.6
		C319.8,435.4,320.5,433.9,320,432.5z"/>
</g>
</svg>
