<svg id="b82b0f02-5b2f-47a3-bf68-bb606186d6fa" data-name="Layer 1" xmlns="http://www.w3.org/2000/svg" viewBox="0 0 589 729.7"><defs><style>.a27e269b-3f26-4aa6-987f-157752e9d50f{fill:#111;}</style></defs><path class="a27e269b-3f26-4aa6-987f-157752e9d50f" d="M263.74,241.77a15,15,0,0,0,10.88-4.47,15.25,15.25,0,0,0,.06-21.63,14.9,14.9,0,0,0-10.94-4.47,15.29,15.29,0,1,0,0,30.57Z"/><path class="a27e269b-3f26-4aa6-987f-157752e9d50f" d="M294.51,353.76q40,0,68.34-28.28t28.28-68.3q0-40-28.28-68.29T294.5,160.61q-40,0-68.34,28.28t-28.29,68.29q0,40,28.29,68.3T294.51,353.76ZM234.86,197.63q24.69-24.7,59.64-24.71t59.64,24.71q24.69,24.72,24.69,59.61T354.14,316.8q-24.69,24.66-59.64,24.65T234.86,316.8q-24.69-24.65-24.69-59.56T234.86,197.63Z"/><path class="a27e269b-3f26-4aa6-987f-157752e9d50f" d="M325.26,241.77a15.29,15.29,0,1,0,0-30.57,15,15,0,0,0-10.88,4.47,15.17,15.17,0,0,0,0,21.63A15,15,0,0,0,325.26,241.77Z"/><path class="a27e269b-3f26-4aa6-987f-157752e9d50f" d="M293.81,317.07h0c28.49,0,51.91-17.2,59.66-43.84A7,7,0,0,0,340,269.31c-7.24,24.91-29.42,33.75-46.2,33.75h0c-16.78,0-38.94-8.84-46.17-33.74a7,7,0,1,0-13.46,3.9C241.91,299.86,265.32,317.07,293.81,317.07Z"/><path class="a27e269b-3f26-4aa6-987f-157752e9d50f" d="M291.57,569c1,.09,1.94.09,2.93.09s2,0,2.93-.09a96.63,96.63,0,1,0-5.86,0Zm32.75-17.37A80.6,80.6,0,0,0,332,539.18a113.15,113.15,0,0,0,6.23-15.38h23.59A84.54,84.54,0,0,1,324.32,551.63Zm45.11-39.91H341.5a173.19,173.19,0,0,0,4.15-33.22h33.12A84,84,0,0,1,369.43,511.72Zm0-78.52a84.2,84.2,0,0,1,9.34,33.22H345.65a173.39,173.39,0,0,0-4.15-33.22Zm-7.74-12.08h-23.5A113.38,113.38,0,0,0,332,405.65a79.11,79.11,0,0,0-7.55-12.18A84.63,84.63,0,0,1,361.69,421.12ZM300.54,389c7.31,2.64,14.58,10,20.57,22a95.34,95.34,0,0,1,4.25,10.09H300.54Zm0,44.16H329a158.56,158.56,0,0,1,4.62,33.22H300.54Zm0,45.3h33.12A159.12,159.12,0,0,1,329,511.72h-28.5Zm0,45.3h24.82a97.59,97.59,0,0,1-4.25,10c-6,12-13.26,19.51-20.57,22.17Zm-73.32,0h23.59A113.15,113.15,0,0,0,257,539.18a80.6,80.6,0,0,0,7.64,12.45A84.54,84.54,0,0,1,227.22,523.8ZM288.46,556c-7.31-2.66-14.58-10.19-20.57-22.17a97.59,97.59,0,0,1-4.25-10h24.82Zm0-44.25H260a159.12,159.12,0,0,1-4.62-33.22h33.12Zm0-45.3H255.34A158.56,158.56,0,0,1,260,433.2h28.5Zm0-77.38v32.08H263.64A97.48,97.48,0,0,1,267.89,411C273.88,399.05,281.15,391.68,288.46,389Zm-23.87,4.43A79.11,79.11,0,0,0,257,405.65a113.38,113.38,0,0,0-6.23,15.47h-23.5A84.63,84.63,0,0,1,264.59,393.47Zm-45,39.73h27.94a172.58,172.58,0,0,0-4.16,33.22H210.23A84.2,84.2,0,0,1,219.57,433.2Zm-9.34,45.3h33.12a172.38,172.38,0,0,0,4.16,33.22H219.57A84,84,0,0,1,210.23,478.5Z"/></svg>