<?xml version="1.0" encoding="utf-8"?>
<!-- Generator: Adobe Illustrator 27.5.0, SVG Export Plug-In . SVG Version: 6.00 Build 0)  -->
<svg version="1.1" id="b43a1aa7-1251-4a6f-9dd6-9a17c9747eb4"
	 xmlns="http://www.w3.org/2000/svg" xmlns:xlink="http://www.w3.org/1999/xlink" x="0px" y="0px" viewBox="0 0 589 729.7"
	 style="enable-background:new 0 0 589 729.7;" xml:space="preserve">
<style type="text/css">
	.st0{fill:#FFFFFF;}
	.st1{fill:#FFC700;}
	.st2{fill:#111111;}
</style>
<path class="st0" d="M281.3,346.7c1.3-0.9,2.6-1.7,4-2.4l-48.7-109.5c-9.1,4.1-17.7,9-25.7,14.9L281.3,346.7z"/>
<path class="st0" d="M289.8,342.9c1.5-0.3,3.1-0.5,4.7-0.5V222.6c-9.9,0-19.9,1-29.6,3.1L289.8,342.9z"/>
<path class="st0" d="M273.2,371.8c-0.5-1.5-0.8-3-1-4.6L153,379.7c1,9.9,3.1,19.6,6.2,29.1L273.2,371.8z"/>
<path class="st0" d="M275.1,353.6c0.8-1.3,1.7-2.6,2.8-3.8l-89-80.1c-6.6,7.4-12.5,15.4-17.5,24L275.1,353.6z"/>
<path class="st0" d="M429.8,320.9c-3.1-9.5-7.1-18.6-12.1-27.2l-103.8,59.9c0.8,1.4,1.4,2.8,1.9,4.3L429.8,320.9z"/>
<path class="st0" d="M299.2,342.9c1.5,0.3,3,0.8,4.5,1.5l48.7-109.5c-9.1-4.1-18.5-7.1-28.3-9.2L299.2,342.9z"/>
<path class="st0" d="M277.9,379.8c-1-1.2-2-2.4-2.8-3.8L171.3,436c5,8.6,10.9,16.6,17.5,24L277.9,379.8z"/>
<path class="st0" d="M436,350l-119.2,12.5c0.2,1.6,0.2,3.1,0,4.7L436,379.7C437,369.8,437,359.9,436,350z"/>
<path class="st0" d="M378.1,249.8l-70.4,96.9c1.3,0.9,2.4,2,3.5,3.1l89-80.1C393.5,262.3,386.1,255.7,378.1,249.8z"/>
<path class="st0" d="M272.2,362.5c0.2-1.6,0.5-3.1,1-4.6l-114-37c-3.1,9.4-5.2,19.2-6.2,29.1L272.2,362.5z"/>
<path class="st0" d="M294.5,387.3c-1.6,0-3.1-0.2-4.7-0.5L264.9,504c9.7,2.1,19.6,3.1,29.6,3.1V387.3z"/>
<path class="st0" d="M303.6,385.3c-1.4,0.6-2.9,1.1-4.5,1.5L324.1,504c9.7-2.1,19.2-5.1,28.3-9.2L303.6,385.3z"/>
<path class="st0" d="M315.8,371.8c-0.5,1.5-1.1,2.9-1.9,4.3L417.7,436c5-8.6,9-17.7,12.1-27.2L315.8,371.8z"/>
<path class="st0" d="M400.2,460l-89-80.1c-1.1,1.2-2.2,2.2-3.5,3.1l70.4,96.9C386.1,474,393.5,467.4,400.2,460z"/>
<path class="st0" d="M285.4,385.3c-1.4-0.6-2.8-1.4-4-2.4l-70.4,96.9c8,5.9,16.7,10.8,25.7,14.9L285.4,385.3z"/>
<path class="st1" d="M294.5,347c-9.9,0-17.9,8-17.9,17.9s8,17.9,17.9,17.9s17.9-8,17.9-17.9C312.3,355,304.4,347,294.5,347z
	 M300.9,355.5c1.7,0,3.1,1.4,3.1,3.1c0,1.7-1.4,3.1-3.1,3.1s-3.1-1.4-3.1-3.1C297.8,356.8,299.2,355.5,300.9,355.5z M288.1,355.5
	c1.7,0,3.1,1.4,3.1,3.1c0,1.7-1.4,3.1-3.1,3.1s-3.1-1.4-3.1-3.1C285,356.8,286.4,355.5,288.1,355.5z M307.3,368.5
	c-1.8,5-6,9.3-12.8,9.3s-11-4.3-12.8-9.3c-0.4-0.8,0-1.8,0.8-2.2c0.1-0.1,0.2-0.1,0.4-0.1c0.8-0.2,1.5,0.2,1.9,1.3
	c2,5.4,5.6,7.3,9.8,7.3s7.7-1.8,9.8-7.3c0.4-1.1,1.1-1.4,1.9-1.3c0.9,0.2,1.5,1.1,1.3,2C307.4,368.2,307.4,368.3,307.3,368.5
	L307.3,368.5z"/>
<g>
	<path class="st2" d="M294.5,217.1c-81.6,0-147.7,66.1-147.7,147.7c0,80.1,63.8,145.6,143.9,147.6c1.3,0,2.5,0,3.8,0
		c1.3,0,2.5,0,3.8,0c80-2.1,143.9-67.5,143.9-147.6v0C442.2,283.3,376.1,217.1,294.5,217.1z M429.8,320.9l-114,37
		c-0.5-1.5-1.1-2.9-1.9-4.3l103.8-59.9C422.6,302.3,426.7,311.4,429.8,320.9z M400.2,269.7l-89,80.1c-1.1-1.2-2.2-2.2-3.5-3.1
		l70.4-96.9C386.1,255.7,393.5,262.3,400.2,269.7z M324.1,225.7c9.7,2.1,19.2,5.1,28.3,9.2l-48.7,109.5c-1.4-0.6-2.9-1.1-4.5-1.5
		L324.1,225.7z M294.5,222.6v119.8c-1.6,0-3.1,0.2-4.7,0.5l-24.9-117.2C274.6,223.6,284.6,222.6,294.5,222.6z M236.7,234.9
		l48.7,109.5c-1.4,0.6-2.8,1.4-4,2.4l-70.4-96.9C219,244,227.6,239,236.7,234.9z M188.8,269.7l89,80.1c-1,1.2-2,2.4-2.8,3.8
		l-103.8-59.9C176.3,285.2,182.2,277.1,188.8,269.7z M159.2,320.9l114,37c-0.5,1.5-0.8,3-1,4.6L153,350
		C154,340.1,156.1,330.4,159.2,320.9z M153,379.7l119.2-12.5c0.2,1.6,0.5,3.1,1,4.6l-114,37C156.1,399.3,154,389.6,153,379.7z
		 M188.8,460c-6.6-7.4-12.5-15.4-17.5-24l103.7-59.9c0.8,1.3,1.7,2.6,2.8,3.8L188.8,460z M210.9,479.9l70.4-96.9
		c1.3,0.9,2.6,1.7,4,2.4l-48.7,109.5C227.6,490.7,219,485.7,210.9,479.9z M294.5,507.1c-9.9,0-19.9-1-29.6-3.1l24.9-117.2
		c1.5,0.3,3.1,0.5,4.7,0.5V507.1z M294.5,382.8c-9.9,0-17.9-8-17.9-17.8c0-9.9,8-17.9,17.8-17.9c0,0,0,0,0,0c9.8,0,17.8,8,17.9,17.8
		C312.4,374.7,304.4,382.7,294.5,382.8z M324.1,504l-24.9-117.2c1.5-0.3,3-0.8,4.5-1.5l48.7,109.5
		C343.3,498.8,333.8,501.9,324.1,504z M378,479.9L307.7,383c1.3-0.9,2.4-2,3.5-3.1l89,80.1C393.5,467.4,386.1,474,378,479.9z
		 M417.7,436l-103.8-59.9c0.8-1.4,1.4-2.8,1.9-4.3l114,37C426.7,418.3,422.7,427.4,417.7,436z M436,379.7l-119.2-12.5
		c0.2-1.6,0.2-3.1,0-4.7L436,350C437,359.9,437,369.9,436,379.7z"/>
	<path class="st2" d="M300.9,361.6c1.7,0,3.1-1.4,3.1-3.1c0-1.7-1.4-3.1-3.1-3.1s-3.1,1.4-3.1,3.1
		C297.8,360.2,299.2,361.6,300.9,361.6z"/>
	<path class="st2" d="M306.5,366.2c-0.1-0.1-0.2-0.1-0.4-0.1c-0.8-0.2-1.5,0.2-1.9,1.3c-2.1,5.5-5.6,7.3-9.8,7.3s-7.8-1.9-9.8-7.3
		c-0.4-1.1-1.1-1.4-1.9-1.3c-0.9,0.2-1.5,1.1-1.3,2c0,0.1,0.1,0.3,0.1,0.4c1.8,5,5.9,9.3,12.8,9.3s11-4.3,12.8-9.3
		C307.7,367.6,307.3,366.6,306.5,366.2z"/>
	<path class="st2" d="M288.1,361.6c1.7,0,3.1-1.4,3.1-3.1c0-1.7-1.4-3.1-3.1-3.1s-3.1,1.4-3.1,3.1
		C285,360.2,286.4,361.6,288.1,361.6z"/>
</g>
</svg>
