<svg id="e8724c55-d629-48b3-ba5b-28a831eda290" data-name="Layer 1" xmlns="http://www.w3.org/2000/svg" viewBox="0 0 589 729.7"><defs><style>.b13ccaf3-a9a2-4ac7-975c-113971f3f96a{fill:#111820;}</style></defs><path class="b13ccaf3-a9a2-4ac7-975c-113971f3f96a" d="M140.59,531.27H107a2.67,2.67,0,0,1-2.87-2.75V507.29a2.67,2.67,0,0,1,2.87-2.75h18.93c.56,0,1.22-.19,1.22-1.09v-1.23L116,500.17c-10.08-1.79-11.93-6.93-11.93-16.41V459.71c0-8.78,6.29-13.61,17.71-13.61h32a2.75,2.75,0,0,1,2.88,2.74v21.23a2.76,2.76,0,0,1-2.88,2.75H136.37c-.56,0-1.22.19-1.22,1.09v.85l11.23,2.17c8.69,1.69,11.92,6.14,11.92,16.42v24.3C158.3,526.43,152,531.27,140.59,531.27ZM107,506.2c-.55,0-1.21.19-1.21,1.09v21.23c0,.9.66,1.09,1.21,1.09h33.64c7.32,0,16-2.08,16-12v-24.3c0-9.52-2.67-13.26-10.58-14.79l-12.56-2.43v-2.22a2.66,2.66,0,0,1,2.87-2.75h17.39a1.1,1.1,0,0,0,1.22-1.09V448.84a1.1,1.1,0,0,0-1.22-1.09h-32c-7.32,0-16.05,2.08-16.05,12v24.05c0,11,3.26,13.48,10.57,14.78l12.45,2.3v2.61a2.67,2.67,0,0,1-2.88,2.75Z"/><path class="b13ccaf3-a9a2-4ac7-975c-113971f3f96a" d="M218.6,531.26H205.68c-4.9,0-8.62-1.51-10.93-4.42v1.68a2.62,2.62,0,0,1-2.75,2.74H177.29c-10.43,0-16.17-4.84-16.17-13.62V500.77c0-8.78,5.74-13.62,16.17-13.62h14.45a1,1,0,0,0,1.09-1.09v-1.35h-25.9a2.63,2.63,0,0,1-2.74-2.74V463.68a2.63,2.63,0,0,1,2.74-2.75h38.24c10.43,0,16.18,4.84,16.18,13.62v54A2.57,2.57,0,0,1,218.6,531.26Zm-23.92-7.79c1.68,4.07,5.38,6.14,11,6.14H218.6c.76,0,1.09-.34,1.09-1.09v-54c0-9.89-7.89-12-14.52-12H166.93a1,1,0,0,0-1.09,1.09V482a1,1,0,0,0,1.09,1.09h27.56v3a2.62,2.62,0,0,1-2.75,2.74H177.29c-6.62,0-14.52,2.08-14.52,12v16.88c0,9.88,7.9,12,14.52,12H192a1,1,0,0,0,1.09-1.09v-4.73ZM192,509.78h-1.41a2.63,2.63,0,0,1-2.74-2.75v-2a2.63,2.63,0,0,1,2.74-2.75h4.16V507A2.63,2.63,0,0,1,192,509.78Zm-1.41-5.88A1,1,0,0,0,189.5,505v2a1,1,0,0,0,1.09,1.09H192a1,1,0,0,0,1.09-1.09V503.9Z"/><path class="b13ccaf3-a9a2-4ac7-975c-113971f3f96a" d="M249.93,531.26H227a2.62,2.62,0,0,1-2.75-2.74V459.71c0-8.78,5.75-13.61,16.18-13.61h17.65a2.62,2.62,0,0,1,2.74,2.74v21.23a2.62,2.62,0,0,1-2.74,2.75h-4.35a1,1,0,0,0-1.09,1.09v1.35h5.44a2.61,2.61,0,0,1,2.74,2.74v17.27a2.62,2.62,0,0,1-2.74,2.74h-4.35a1,1,0,0,0-1.09,1.09v29.42A2.62,2.62,0,0,1,249.93,531.26Zm-9.46-83.51c-6.62,0-14.52,2.08-14.52,12v68.81a1,1,0,0,0,1.09,1.09h22.89a1,1,0,0,0,1.09-1.09V499.1a2.63,2.63,0,0,1,2.75-2.74h4.35a1,1,0,0,0,1.09-1.09V478a1,1,0,0,0-1.09-1.09H251v-3a2.63,2.63,0,0,1,2.75-2.75h4.35a1,1,0,0,0,1.09-1.09V448.84a1,1,0,0,0-1.09-1.09Z"/><path class="b13ccaf3-a9a2-4ac7-975c-113971f3f96a" d="M318.74,531.26H279c-10.43,0-16.17-4.83-16.17-13.61v-43.1c0-8.78,5.74-13.62,16.17-13.62h27.88c10.43,0,16.18,4.84,16.18,13.62V502.3a2.63,2.63,0,0,1-2.75,2.75H292.39a1,1,0,0,0-1.09,1.09v1.34h27.44a2.63,2.63,0,0,1,2.74,2.75v18.29A2.62,2.62,0,0,1,318.74,531.26ZM279,462.59c-6.62,0-14.52,2.07-14.52,12v43.1c0,9.88,7.9,12,14.52,12h39.78a1,1,0,0,0,1.09-1.09V510.23a1,1,0,0,0-1.09-1.09h-29.1v-3a2.63,2.63,0,0,1,2.75-2.75h27.88a1,1,0,0,0,1.09-1.09V474.55c0-9.89-7.89-12-14.52-12ZM293.67,490h-4.15v-4.8a2.63,2.63,0,0,1,2.74-2.74h1.41a2.63,2.63,0,0,1,2.75,2.74v2A2.63,2.63,0,0,1,293.67,490Zm-2.5-1.66h2.5a1,1,0,0,0,1.09-1.09v-2a1,1,0,0,0-1.09-1.09h-1.41a1,1,0,0,0-1.09,1.09Z"/><path class="b13ccaf3-a9a2-4ac7-975c-113971f3f96a" d="M327.05,528.52V507.29a1.85,1.85,0,0,1,2-1.92H348a1.85,1.85,0,0,0,2.05-1.92v-1.92l-11.77-2.17c-9.33-1.66-11.25-6-11.25-15.6V459.71c0-8.31,5.88-12.79,16.88-12.79h32a1.92,1.92,0,0,1,2.05,1.92v21.23A1.92,1.92,0,0,1,375.9,472H358.51a1.85,1.85,0,0,0-2.05,1.92v1.53l11.9,2.3c8.57,1.67,11.25,6,11.25,15.61v24.3c0,8.31-5.88,12.79-16.88,12.79H329.09A1.85,1.85,0,0,1,327.05,528.52Z"/><path class="b13ccaf3-a9a2-4ac7-975c-113971f3f96a" d="M362.73,531.26H329.09a2.66,2.66,0,0,1-2.87-2.74V507.29a2.66,2.66,0,0,1,2.87-2.75H348c.56,0,1.22-.19,1.22-1.09v-1.23l-11.09-2.05c-10.08-1.79-11.93-6.93-11.93-16.41V459.71c0-8.78,6.29-13.61,17.71-13.61h32a2.75,2.75,0,0,1,2.88,2.74v21.23a2.76,2.76,0,0,1-2.88,2.75H358.51c-.56,0-1.22.19-1.22,1.09v.85l11.22,2.17c8.7,1.69,11.93,6.14,11.93,16.42v24.3C380.44,526.43,374.15,531.26,362.73,531.26ZM329.09,506.2c-.55,0-1.21.19-1.21,1.09v21.23c0,.9.66,1.09,1.21,1.09h33.64c7.32,0,16-2.08,16-12v-24.3c0-9.52-2.67-13.26-10.58-14.79l-12.57-2.43v-2.22a2.67,2.67,0,0,1,2.88-2.75H375.9a1.1,1.1,0,0,0,1.22-1.09V448.84a1.1,1.1,0,0,0-1.22-1.09h-32c-7.33,0-16.05,2.08-16.05,12v24.05c0,11,3.26,13.48,10.57,14.78l12.45,2.3v2.61A2.67,2.67,0,0,1,348,506.2Z"/><path class="b13ccaf3-a9a2-4ac7-975c-113971f3f96a" d="M384.47,474.55c0-8.32,5.37-12.79,15.34-12.79h27.88c10,0,15.35,4.47,15.35,12.79V502.3a1.81,1.81,0,0,1-1.92,1.92H413.24a1.82,1.82,0,0,0-1.92,1.92v2.17h28.27a1.82,1.82,0,0,1,1.92,1.92v18.29a1.82,1.82,0,0,1-1.92,1.92H399.81c-10,0-15.34-4.48-15.34-12.79Zm30,14.58a1.82,1.82,0,0,0,1.92-1.92v-2a1.82,1.82,0,0,0-1.92-1.92h-1.4a1.81,1.81,0,0,0-1.92,1.92v4Z"/><path class="b13ccaf3-a9a2-4ac7-975c-113971f3f96a" d="M439.59,531.26H399.81c-10.43,0-16.17-4.83-16.17-13.61v-43.1c0-8.78,5.74-13.62,16.17-13.62h27.88c10.44,0,16.18,4.84,16.18,13.62V502.3a2.63,2.63,0,0,1-2.75,2.75H413.24a1,1,0,0,0-1.09,1.09v1.34h27.44a2.63,2.63,0,0,1,2.75,2.75v18.29A2.62,2.62,0,0,1,439.59,531.26Zm-39.78-68.67c-6.62,0-14.52,2.07-14.52,12v43.1c0,9.88,7.9,12,14.52,12h39.78a1,1,0,0,0,1.09-1.09V510.23a1,1,0,0,0-1.09-1.09H410.5v-3a2.63,2.63,0,0,1,2.74-2.75h27.88a1,1,0,0,0,1.09-1.09V474.55c0-9.89-7.89-12-14.52-12ZM414.52,490h-4.15v-4.8a2.63,2.63,0,0,1,2.74-2.74h1.41a2.63,2.63,0,0,1,2.75,2.74v2A2.63,2.63,0,0,1,414.52,490ZM412,488.3h2.5a1,1,0,0,0,1.09-1.09v-2a1,1,0,0,0-1.09-1.09h-1.41a1,1,0,0,0-1.09,1.09Z"/><path class="b13ccaf3-a9a2-4ac7-975c-113971f3f96a" d="M447.64,517.65V449.1a1.82,1.82,0,0,1,1.92-1.92h22.89a1.82,1.82,0,0,1,1.92,1.92v10.74a1.82,1.82,0,0,0,1.92,1.92h5.88a1.82,1.82,0,0,1,1.92,1.92V485a1.81,1.81,0,0,1-1.92,1.91h-7.8v16.5a1.82,1.82,0,0,0,1.92,1.92h5.88a1.82,1.82,0,0,1,1.92,1.92v21.23a1.82,1.82,0,0,1-1.92,1.92H463C453,530.44,447.64,526,447.64,517.65Z"/><path class="b13ccaf3-a9a2-4ac7-975c-113971f3f96a" d="M482.17,531.26H463c-10.43,0-16.18-4.83-16.18-13.61V449.1a2.63,2.63,0,0,1,2.75-2.75h22.89a2.63,2.63,0,0,1,2.75,2.75v10.74a1,1,0,0,0,1.09,1.09h5.88a2.63,2.63,0,0,1,2.75,2.75V485a2.63,2.63,0,0,1-2.75,2.74h-7v15.67a1,1,0,0,0,1.09,1.09h5.88a2.63,2.63,0,0,1,2.75,2.75v21.23A2.62,2.62,0,0,1,482.17,531.26ZM449.56,448a1,1,0,0,0-1.09,1.09v68.55c0,9.88,7.9,12,14.52,12h19.18a1,1,0,0,0,1.09-1.09V507.29a1,1,0,0,0-1.09-1.09h-5.88a2.63,2.63,0,0,1-2.75-2.75V486.13h8.63a1,1,0,0,0,1.09-1.09V463.68a1,1,0,0,0-1.09-1.09h-5.88a2.63,2.63,0,0,1-2.75-2.75V449.1a1,1,0,0,0-1.09-1.09Z"/><path class="b13ccaf3-a9a2-4ac7-975c-113971f3f96a" d="M149.89,573.39h-22v-22H149.1c.69-.47,1.35-.87,2-1.21l.53.76c-.51.39-1.09.85-1.71,1.4Zm-2.2-18.84a55.09,55.09,0,0,0-5,6.29,48.61,48.61,0,0,0-4,6.64l-1.1.74a16.32,16.32,0,0,0-1.86,1.43,21.42,21.42,0,0,0-.85-2.31l-.42-1a15,15,0,0,0-1.65-3.09,3.73,3.73,0,0,0-1.72-1.31,4.37,4.37,0,0,1,3-1.71c.75,0,1.6,1,2.53,3.11l.46,1a51.45,51.45,0,0,1,8.19-9.91l1-1-16.2,0v17.6h17.63Z"/><path class="b13ccaf3-a9a2-4ac7-975c-113971f3f96a" d="M166.61,553.82l-5.21,16.56a4.5,4.5,0,0,0-.28,1.44c0,.3.22.51.6.64a6.5,6.5,0,0,0,2,.2v.73H157v-.73a5,5,0,0,0,1.52-.18,1.81,1.81,0,0,0,.91-.66,4.61,4.61,0,0,0,.68-1.44l7-22.07h1.52l7.22,22.1a4.61,4.61,0,0,0,.69,1.41,1.91,1.91,0,0,0,.93.66,5.08,5.08,0,0,0,1.52.18v.73h-9.23v-.73a6.42,6.42,0,0,0,2-.2c.37-.13.56-.34.58-.64a4,4,0,0,0-.31-1.41l-5.33-16.59Zm4.88,10.83v1.28h-9.18v-1.28Z"/><path class="b13ccaf3-a9a2-4ac7-975c-113971f3f96a" d="M183.59,577a5.13,5.13,0,0,0,.16,1.52,1.14,1.14,0,0,0,.61.69,3.68,3.68,0,0,0,1.39.2v.73h-7.16v-.73a3.68,3.68,0,0,0,1.39-.2,1.09,1.09,0,0,0,.6-.69,4.75,4.75,0,0,0,.17-1.52V560.87a7,7,0,0,0-.09-1.39c-.06-.26-.2-.38-.41-.38a3.73,3.73,0,0,0-1.17.36l-.31-.64,2.26-1,2.16-1.1.4.43Zm.12-16.7A9.23,9.23,0,0,1,186,557.6a4.29,4.29,0,0,1,2.67-.91,3.77,3.77,0,0,1,3.53,2.16,11.78,11.78,0,0,1,1.16,5.55,15.23,15.23,0,0,1-.73,4.85,8.39,8.39,0,0,1-2.07,3.47,4.21,4.21,0,0,1-5.16.7,5.05,5.05,0,0,1-1.7-1.76h-.06v-11.4Zm-.12,7.1a7.17,7.17,0,0,0,.94,3.95,2.8,2.8,0,0,0,2.41,1.44c1.12,0,1.92-.71,2.39-2.13a16.87,16.87,0,0,0,.72-5.33,15.57,15.57,0,0,0-.63-5.13,2.15,2.15,0,0,0-2-1.67,3.16,3.16,0,0,0-2.06.84,7.87,7.87,0,0,0-1.72,2.08Z"/><path class="b13ccaf3-a9a2-4ac7-975c-113971f3f96a" d="M199.16,577a5.06,5.06,0,0,0,.17,1.52,1.08,1.08,0,0,0,.61.69,3.68,3.68,0,0,0,1.39.2v.73h-7.17v-.73a3.64,3.64,0,0,0,1.39-.2,1.11,1.11,0,0,0,.61-.69,5.06,5.06,0,0,0,.17-1.52V560.87a7,7,0,0,0-.09-1.39c-.06-.26-.2-.38-.41-.38a3.77,3.77,0,0,0-1.18.36l-.3-.64,2.25-1,2.17-1.1.39.43Zm.12-16.7a9.24,9.24,0,0,1,2.25-2.66,4.29,4.29,0,0,1,2.66-.91,3.77,3.77,0,0,1,3.54,2.16,11.78,11.78,0,0,1,1.16,5.55,15.52,15.52,0,0,1-.73,4.85,8.3,8.3,0,0,1-2.08,3.47,4.2,4.2,0,0,1-5.15.7,5.07,5.07,0,0,1-1.71-1.76h-.06v-11.4Zm-.12,7.1a7.17,7.17,0,0,0,1,3.95,2.8,2.8,0,0,0,2.41,1.44c1.11,0,1.91-.71,2.39-2.13a16.9,16.9,0,0,0,.71-5.33,15.62,15.62,0,0,0-.62-5.13,2.17,2.17,0,0,0-2.06-1.67,3.12,3.12,0,0,0-2.05.84,7.9,7.9,0,0,0-1.73,2.08Z"/><path class="b13ccaf3-a9a2-4ac7-975c-113971f3f96a" d="M212.21,561.08v-.21a6.89,6.89,0,0,0-.09-1.38.45.45,0,0,0-.44-.38,3.43,3.43,0,0,0-1.24.38l-.3-.64,2.34-1.06,2.17-1.1.42.43v13.13a3.86,3.86,0,0,0,.23,1.53,1.38,1.38,0,0,0,.9.68,7.78,7.78,0,0,0,2.11.2v.73h-8.26v-.73a3.61,3.61,0,0,0,1.4-.2,1.06,1.06,0,0,0,.61-.68,5.66,5.66,0,0,0,.15-1.53Zm7.68-.82A1.7,1.7,0,0,1,219,560a1.65,1.65,0,0,1-.58-.64,1.74,1.74,0,0,0-.34-.39.57.57,0,0,0-.36-.13,1.72,1.72,0,0,0-1.24.65,11,11,0,0,0-1.39,2.07v-1.74h.1a8.46,8.46,0,0,1,1.73-2.26,3.39,3.39,0,0,1,2.35-.91,2.43,2.43,0,0,1,1.63.52,1.64,1.64,0,0,1,.63,1.34,1.82,1.82,0,0,1-.43,1.22A1.51,1.51,0,0,1,219.89,560.26Z"/><path class="b13ccaf3-a9a2-4ac7-975c-113971f3f96a" d="M229.07,574a6.07,6.07,0,0,1-3.66-1.12,7.19,7.19,0,0,1-2.39-3.1,12.13,12.13,0,0,1,0-8.87,7.1,7.1,0,0,1,2.39-3.09,6.07,6.07,0,0,1,3.66-1.13,6,6,0,0,1,3.62,1.13,7.19,7.19,0,0,1,2.4,3.09,12.26,12.26,0,0,1,0,8.87,7.28,7.28,0,0,1-2.4,3.1A6,6,0,0,1,229.07,574Zm.64-1.28a2.67,2.67,0,0,0,1.87-1,5.36,5.36,0,0,0,1-2.55,18.89,18.89,0,0,0,.07-4.13,16.76,16.76,0,0,0-.77-4,5.65,5.65,0,0,0-1.42-2.35,2.77,2.77,0,0,0-3.92.35,5.35,5.35,0,0,0-1,2.55,18.25,18.25,0,0,0-.08,4.14,16.06,16.06,0,0,0,.78,4,5.62,5.62,0,0,0,1.41,2.33A2.64,2.64,0,0,0,229.71,572.72Z"/><path class="b13ccaf3-a9a2-4ac7-975c-113971f3f96a" d="M246.72,560.32a7.23,7.23,0,0,0,.32-1.48.62.62,0,0,0-.34-.63,3.27,3.27,0,0,0-1.32-.18v-.73h5V558a2.82,2.82,0,0,0-1.09.18,1.59,1.59,0,0,0-.72.67,6.64,6.64,0,0,0-.56,1.44l-3.9,13.78H242.3l-4.06-13.78a5.1,5.1,0,0,0-.55-1.44,1.66,1.66,0,0,0-.73-.67,2.82,2.82,0,0,0-1.09-.18v-.73h6.91V558a2.83,2.83,0,0,0-1.23.18.62.62,0,0,0-.29.63,9.22,9.22,0,0,0,.31,1.51l2.52,8.84h.1Z"/><path class="b13ccaf3-a9a2-4ac7-975c-113971f3f96a" d="M258.61,563.24a14.42,14.42,0,0,0-.23-2.77,4.69,4.69,0,0,0-.75-1.82,1.68,1.68,0,0,0-1.4-.68,1.91,1.91,0,0,0-1.62.84,5.72,5.72,0,0,0-.88,2.28,18.68,18.68,0,0,0-.28,3.53,15.16,15.16,0,0,0,.41,3.7,5.91,5.91,0,0,0,1.24,2.51,2.61,2.61,0,0,0,2,.92,2.77,2.77,0,0,0,2.16-1.11,9,9,0,0,0,1.56-3.65h.73a10.78,10.78,0,0,1-1.9,5.23,4.4,4.4,0,0,1-3.59,1.78,4.57,4.57,0,0,1-3-1,6.43,6.43,0,0,1-1.93-3,13.7,13.7,0,0,1-.67-4.54,13.11,13.11,0,0,1,.7-4.38,7.75,7.75,0,0,1,2-3.2,4.53,4.53,0,0,1,3.13-1.2,4.24,4.24,0,0,1,2.87,1,6,6,0,0,1,1.73,2.77,12.79,12.79,0,0,1,.58,4h-8.69v-1.25Z"/><path class="b13ccaf3-a9a2-4ac7-975c-113971f3f96a" d="M273.48,570.92a8.11,8.11,0,0,1-2,2.32,3.9,3.9,0,0,1-2.42.76,4.26,4.26,0,0,1-2.8-1,6.22,6.22,0,0,1-1.85-2.79,12.7,12.7,0,0,1-.65-4.25,14.48,14.48,0,0,1,.73-4.79,7.74,7.74,0,0,1,2.1-3.31,4.8,4.8,0,0,1,3.26-1.2,4.11,4.11,0,0,1,2.11.56,5.33,5.33,0,0,1,1.55,1.39h.06v12.28Zm.12-7.37a8.18,8.18,0,0,0-.85-4.13,2.53,2.53,0,0,0-2.23-1.45,2.73,2.73,0,0,0-2.63,2,13.7,13.7,0,0,0-.81,5.12,14.19,14.19,0,0,0,.78,5.18,2.56,2.56,0,0,0,2.39,2,2.43,2.43,0,0,0,1.31-.36,4,4,0,0,0,1-.86,11.06,11.06,0,0,0,1-1.38.17.17,0,0,1,.06-.12Zm0-10.79v-.19a8.63,8.63,0,0,0-.07-1.4.42.42,0,0,0-.42-.38,3.2,3.2,0,0,0-1.15.35l-.31-.64,2.23-1,2.16-1.1.43.43v21a8.54,8.54,0,0,0,.07,1.4.42.42,0,0,0,.41.38,3.39,3.39,0,0,0,1.19-.35l.28.64-2.23,1L274,574l-.43-.42Z"/><rect class="b13ccaf3-a9a2-4ac7-975c-113971f3f96a" x="281.41" y="577.19" width="174.4" height="1.53"/><path class="b13ccaf3-a9a2-4ac7-975c-113971f3f96a" d="M350.68,567.24a4,4,0,0,0,1.52-.17,17.41,17.41,0,0,0,3.64-1.55,19.41,19.41,0,0,0,3.72-3,23.84,23.84,0,0,0,1.94-2.32c.62-.83,1.33-1.59,1.9-2.46a36.42,36.42,0,0,0,2.73-4.52c.34-.74.69-1.48,1-2.24a4.31,4.31,0,0,0,.29-1.85.35.35,0,0,0-.47-.31,1,1,0,0,0-.18.05,11,11,0,0,0-1.8,1,8.08,8.08,0,0,1-1.79,1,2,2,0,0,0-.76.54,5.42,5.42,0,0,1-1.38,1.14,1.32,1.32,0,0,0-.42.36,32.11,32.11,0,0,1-2.39,2.42c-.51.51-1,1-1.55,1.51s-.71.8-1.1,1.17a55.65,55.65,0,0,0-3.68,4.3c-.28.34-.49.73-.74,1.1l-.69,1a5.66,5.66,0,0,0-.31.48c-.21.38-.43.76-.64,1.15-.12.22-.23.45-.33.67a.32.32,0,0,0,.2.38,3.58,3.58,0,0,0,1.28.09m.47,2.42a6,6,0,0,1-2.12-.29c-.77-.2-1,0-1.27.59a11.58,11.58,0,0,0-.74,2,20.15,20.15,0,0,1-.7,2.16c-.08.21-.16.41-.22.62A15.5,15.5,0,0,1,345,577.3a1.66,1.66,0,0,1-.26.39.74.74,0,0,1-.77.25,3.07,3.07,0,0,1-1-.36,1,1,0,0,1-.57-.81,3.78,3.78,0,0,1,0-1.21,10,10,0,0,0,.1-1.23,18.81,18.81,0,0,1,.48-3.17,19.8,19.8,0,0,1,.66-2,30.73,30.73,0,0,1,1.64-3.71c1-1.88,1.83-3.81,2.76-5.71a26.07,26.07,0,0,1,1.58-2.89c.84-1.3,1.67-2.6,2.52-3.89a9.77,9.77,0,0,1,.69-.9,9.17,9.17,0,0,0,1.28-1.86c.05-.08.09-.16.15-.24a.8.8,0,0,1,.74-.32,2.15,2.15,0,0,1,1.72,1.18.68.68,0,0,1-.05.8,2.66,2.66,0,0,1-.54.52,3.23,3.23,0,0,0-.67.66c-.52.71-1.07,1.4-1.57,2.13s-1,1.54-1.46,2.32a.29.29,0,0,0-.06.17.33.33,0,0,0,.1.14.07.07,0,0,0,.09,0,.92.92,0,0,0,.22-.17l1-1c1-1.1,2.19-2.08,3.27-3.14a5.85,5.85,0,0,1,1.12-.86,9.29,9.29,0,0,0,1.14-.84c1-.77,1.93-1.52,2.92-2.23.77-.55,1.6-1,2.41-1.51a7.12,7.12,0,0,1,1.82-.77,2.59,2.59,0,0,1,1.67.1,2.19,2.19,0,0,1,.92.64c.13.17.26.36.4.53a1.64,1.64,0,0,1,.35,1.41c-.07.44-.13.88-.17,1.32a2.52,2.52,0,0,1-.29.89c-.42.88-.79,1.78-1.25,2.65-.34.64-.66,1.28-1,1.91a26,26,0,0,1-2.17,3.33c-.38.49-.72,1-1.08,1.55-.09.12-.16.27-.26.39-.9,1.05-1.8,2.11-2.72,3.14a14.68,14.68,0,0,1-2.45,2.07c-.41.3-.82.59-1.25.85a14.91,14.91,0,0,1-4.11,1.64,7.94,7.94,0,0,1-1.9.19"/><path class="b13ccaf3-a9a2-4ac7-975c-113971f3f96a" d="M394.32,547.49a.47.47,0,0,0-.66-.52,2.49,2.49,0,0,0-.59.29q-.39.27-.75.57a23.64,23.64,0,0,0-2.59,2.61,24.63,24.63,0,0,0-3,4.45.49.49,0,0,0,0,.27c0,.08.21.08.33,0a3.73,3.73,0,0,0,.43-.36l2.24-2a3.34,3.34,0,0,1,1.07-.75,1.14,1.14,0,0,0,.38-.28,16.78,16.78,0,0,0,2.63-3,2.45,2.45,0,0,0,.52-1.29m-20.8,14.27-.07-.45a.39.39,0,0,0-.36-.26,1.34,1.34,0,0,0-.45.1,5.39,5.39,0,0,0-.88.55,12.85,12.85,0,0,0-2.61,2.7l-.43.62a10.72,10.72,0,0,0-1.52,3,3.53,3.53,0,0,0-.17.73.47.47,0,0,0,.56.56,1.69,1.69,0,0,0,.55-.12,6.2,6.2,0,0,0,1.06-.61,14.39,14.39,0,0,0,2.07-1.91,10,10,0,0,0,2-3.62,13.14,13.14,0,0,0,.29-1.31M368,571.89a5,5,0,0,1-2.15-.47,2.43,2.43,0,0,1-1.34-1.72,4.52,4.52,0,0,1,.07-2.42,15,15,0,0,1,1.53-3.45c.35-.52.73-1,1.12-1.52a16.75,16.75,0,0,1,1.78-2.07,11.22,11.22,0,0,1,2.31-1.63,1.79,1.79,0,0,1,1.19-.15,3.89,3.89,0,0,1,1.55.62,6,6,0,0,0,5.35.63,16.54,16.54,0,0,0,2.1-.86,2.15,2.15,0,0,0,1-1.05c.53-1.1,1.07-2.21,1.63-3.3.42-.84.85-1.69,1.34-2.49s.85-1.25,1.29-1.87a23.56,23.56,0,0,1,3.54-3.79,11.63,11.63,0,0,1,1.76-1.28,2.93,2.93,0,0,1,3-.1,2.88,2.88,0,0,1,1.55,1.83,2.62,2.62,0,0,1-.27,2.09,14.54,14.54,0,0,1-2.69,3.16c-.33.29-.63.61-.95.92l-3.16,3.12c-.72.36-1.14,1.07-1.77,1.54s-1.21.91-1.82,1.35a10.11,10.11,0,0,1-1.11.73,2.56,2.56,0,0,0-1.06,1.17c-.62,1.28-1.23,2.56-1.84,3.83-.42.88-.79,1.79-1.17,2.68a12.58,12.58,0,0,0-.63,1.88,6.84,6.84,0,0,0-.29,2.24,5.42,5.42,0,0,1,0,.57c-.06.59-.27.9-1,.9-1.24.11-1.43-.43-1.55-1.26a3.46,3.46,0,0,1,0-.85,14.18,14.18,0,0,1,.24-1.59,18.37,18.37,0,0,1,1.57-4.54c.06-.11.13-.22.18-.33a11.74,11.74,0,0,1,.83-1.8,1.63,1.63,0,0,0,.15-.44.21.21,0,0,0-.18-.27,3.81,3.81,0,0,0-.47.07,8.52,8.52,0,0,1-2.71.19,1.6,1.6,0,0,0-.38,0,.53.53,0,0,0-.44.32,4.77,4.77,0,0,0-.22.52c-.36,1-.72,2-1.09,2.92a8.9,8.9,0,0,1-1.45,2.42,14.88,14.88,0,0,1-2.76,2.56,7.29,7.29,0,0,1-1.58.85,2.59,2.59,0,0,1-1,.13"/><path class="b13ccaf3-a9a2-4ac7-975c-113971f3f96a" d="M393.71,567.69l.08,0a.58.58,0,0,0-.1-.12s0,0-.07,0l.09.11m3.43,5.73a10.44,10.44,0,0,1,.58-3.36,34,34,0,0,1,2-4.7,4.81,4.81,0,0,0,.2-.53.18.18,0,0,0-.07-.15.17.17,0,0,0-.17,0,.48.48,0,0,0-.23.16,14,14,0,0,1-1.34,1.33,29.69,29.69,0,0,1-3.58,2.93,13.77,13.77,0,0,1-2.21,1.27,3.69,3.69,0,0,1-3.53-.2,1.71,1.71,0,0,1-.84-1.2c-.07-.34-.11-.68-.17-1a1,1,0,0,1,0-.29,11.82,11.82,0,0,1,.39-1.84,26.42,26.42,0,0,1,3.28-5.93c.61-.85,1.32-1.61,2-2.39a.92.92,0,0,1,.94-.31,2,2,0,0,1,1.69,1.45.53.53,0,0,1-.18.59,4.94,4.94,0,0,1-.44.36,8.41,8.41,0,0,0-1.78,1.94c-.61.92-1.25,1.82-1.8,2.77a15.18,15.18,0,0,0-1.23,2.65,6,6,0,0,0-.23,1c0,.16.12.27.3.25a3,3,0,0,0,1.15-.43,17.41,17.41,0,0,0,2.94-2c.22-.21.5-.38.73-.58a50.67,50.67,0,0,0,4.18-4.11c1.4-1.53,2.73-3.13,4.12-4.67a5.45,5.45,0,0,1,1.47-1.32,1.13,1.13,0,0,0,.29-.24c.42-.51.86-1,1.25-1.54.6-.81,1.13-1.67,1.76-2.46s1.33-1.83,2-2.73a7.89,7.89,0,0,0,1.05-1.68,1.18,1.18,0,0,1,.39-.52.82.82,0,0,1,.79-.19,2.22,2.22,0,0,1,.92.46l.57.5a.74.74,0,0,1,.11.87,1.63,1.63,0,0,1-.23.29,19.09,19.09,0,0,0-2.08,2.58c-.32.43-.66.84-1,1.28s-.39.63-.58,1a.23.23,0,0,0,.08.14,1.15,1.15,0,0,0,.37,0,11.72,11.72,0,0,0,1.92-.48,2.2,2.2,0,0,1,2.53,1,2.1,2.1,0,0,1,.13.26.78.78,0,0,1-.41,1.1,1.41,1.41,0,0,1-.44.14,4.85,4.85,0,0,1-.76.05,12.07,12.07,0,0,0-2.81.27,5.46,5.46,0,0,1-1.51.09,1.31,1.31,0,0,1-.28,0,1.19,1.19,0,0,0-1.24.66c-1.09,1.7-2.29,3.32-3.27,5.08-.32.58-.7,1.12-1,1.7s-.43.9-.65,1.35l-1.29,2.73c-.4.86-.8,1.71-1.17,2.58a17.42,17.42,0,0,0-1.11,3.8,6.12,6.12,0,0,0,0,1.13,3.29,3.29,0,0,1-.07.94.65.65,0,0,1-.69.52c-1.65-.14-1.52-.44-1.68-1.56a4.44,4.44,0,0,1,0-.72"/><path class="b13ccaf3-a9a2-4ac7-975c-113971f3f96a" d="M314.83,572.87a13.52,13.52,0,0,1,.17-2.35c.1-.53.13-1.06.19-1.6a9.19,9.19,0,0,1,.25-1.29,2.88,2.88,0,0,0,.13-.65,7.82,7.82,0,0,1,.59-2.47,1.45,1.45,0,0,0,.12-.35,14.14,14.14,0,0,1,.71-2.74,27.8,27.8,0,0,1,1.86-4.84c.27-.53.44-1.11.67-1.66.14-.32.28-.64.44-.95.3-.58.62-1.16,1-1.73.22-.39.45-.76.7-1.13a.78.78,0,0,1,.83-.32,1.34,1.34,0,0,1,.76.35c.16.15.33.3.48.46a.63.63,0,0,1,0,.86,1.24,1.24,0,0,1-.17.23,8.49,8.49,0,0,0-1.68,2.72,12.61,12.61,0,0,1-.75,1.52,8.21,8.21,0,0,0-.82,1.9,10.85,10.85,0,0,1-.69,1.65,2.84,2.84,0,0,0-.36,1.06,7.4,7.4,0,0,1-.28,1.1c-.28,1.13-.6,2.25-1,3.35a2.13,2.13,0,0,1-.14.35,1.22,1.22,0,0,0-.16.91,1.39,1.39,0,0,1-.08.83,4.67,4.67,0,0,0-.17.74c-.17,1-.33,2.11-.4,3.18,0,.22-.08.44-.1.66a5.72,5.72,0,0,0,.16,2.14.39.39,0,0,0,.53.26,1.83,1.83,0,0,0,.65-.37A11.38,11.38,0,0,0,320,573c1-1.19,1.87-2.45,2.77-3.7q2-2.73,3.94-5.43c.73-1,1.53-1.92,2.21-2.94s1.32-1.76,1.91-2.69c1.1-1.73,2.37-3.35,3.6-5,.15-.2.33-.38.5-.57a5.27,5.27,0,0,0,.48-.58,11.77,11.77,0,0,1,1.74-2l2.05-2.1c.22-.22.46-.43.7-.63a.81.81,0,0,1,.89-.1,11,11,0,0,1,1,.57,1.07,1.07,0,0,1,.34.44.45.45,0,0,1-.1.52l-.23.17a17.15,17.15,0,0,0-3.28,3c-.39.41-.79.82-1.16,1.25s-.94,1.1-1.38,1.67-1.06,1.42-1.57,2.13a12.07,12.07,0,0,1-1,1.37,3.43,3.43,0,0,0-.37.54,3.73,3.73,0,0,0-.34.57c-.17.39-.69.46-.79.9a3,3,0,0,1-.67,1.13c-.24.33-.45.68-.68,1s-.5.65-.72,1c-.56.91-1.18,1.78-1.81,2.65l-2.67,3.67c-.22.3-.46.6-.67.91a34.93,34.93,0,0,1-2.31,3.22c-.59.74-1.17,1.48-1.83,2.17a10.36,10.36,0,0,1-1.43,1.22,2,2,0,0,1-1.23.44,8.07,8.07,0,0,1-.85,0,1.92,1.92,0,0,1-1.66-1.22,5,5,0,0,1-.56-2.46c0-.35,0-.7,0-1.23"/><path class="b13ccaf3-a9a2-4ac7-975c-113971f3f96a" d="M412,562.42a1.54,1.54,0,0,0,.3-.12c.75-.44,1.52-.87,2.25-1.36a2.64,2.64,0,0,0,1-1.52.88.88,0,0,0,0-.28c0-.15-.16-.32-.3-.29a1.56,1.56,0,0,0-.53.16,4.6,4.6,0,0,0-.83.62c-.58.57-1.14,1.16-1.7,1.75a5.53,5.53,0,0,0-.47.59.72.72,0,0,0-.08.26c0,.07.09.2.31.19m0,9.31a3.9,3.9,0,0,1-2.11-.52,4.66,4.66,0,0,1-2.44-3.91,2.38,2.38,0,0,0,0-.38,4.59,4.59,0,0,1,.15-2c0-.18.09-.37.13-.55a5.89,5.89,0,0,1,.87-2.27,9.94,9.94,0,0,0,.66-1.35,7.73,7.73,0,0,1,1.63-2.18l1.1-1a6.71,6.71,0,0,1,1.31-.92,2.24,2.24,0,0,1,1-.29,4,4,0,0,1,1.76.17,3,3,0,0,1,1.76,1.74c.12.29.24.58.34.88a4.61,4.61,0,0,1,.19.73,1.39,1.39,0,0,1-.2,1,10.46,10.46,0,0,1-1.44,1.87,6.71,6.71,0,0,1-1.31.92c-.37.24-.77.42-1.13.67a6.53,6.53,0,0,1-3,1l-.28,0c-.61.05-.76.18-.93.75l-.21.83a2.26,2.26,0,0,0,.64,2.16.86.86,0,0,0,.67.28A5.28,5.28,0,0,0,413,569a12.67,12.67,0,0,0,2.52-1.27,51.13,51.13,0,0,0,4.76-3.24,45.6,45.6,0,0,0,3.58-3.07c.37-.35.73-.7,1.11-1a4.26,4.26,0,0,0,.75-.84,1.71,1.71,0,0,1,.53-.54.55.55,0,0,1,.45-.06,2.22,2.22,0,0,1,1.47,1.49.58.58,0,0,1-.13.61c-.16.16-.31.32-.47.46a13.61,13.61,0,0,0-1.15,1.13,10.08,10.08,0,0,1-1.18,1.08,19,19,0,0,0-1.88,1.7,10.56,10.56,0,0,1-1.17,1c-.84.62-1.72,1.18-2.52,1.84a8.18,8.18,0,0,1-.79.51c-1,.66-2,1.35-3.15,1.91a12.38,12.38,0,0,1-2.25,1,4.08,4.08,0,0,1-1.37.16"/><path class="b13ccaf3-a9a2-4ac7-975c-113971f3f96a" d="M399,555.58a2,2,0,0,1-1.44-.36,1.49,1.49,0,0,1-.62-1.24c0-.22,0-.44,0-.66a.93.93,0,0,1,.84-.86l.26,0a2.83,2.83,0,0,1,2.42,1.91.85.85,0,0,1-.67,1.09c-.34.09-.69.12-.83.15"/><path class="b13ccaf3-a9a2-4ac7-975c-113971f3f96a" d="M333.14,573.09a1.53,1.53,0,0,1-1.39-.69,3.31,3.31,0,0,1-.56-1.36,1,1,0,0,1,1-1.16,5.56,5.56,0,0,1,.81.08,1.18,1.18,0,0,1,.8.46c.21.29.42.58.61.89s.4.52.26.86a1.46,1.46,0,0,1-1,.85,3.07,3.07,0,0,1-.53.07"/><path class="b13ccaf3-a9a2-4ac7-975c-113971f3f96a" d="M140.59,383H107a2.67,2.67,0,0,1-2.87-2.75V359A2.66,2.66,0,0,1,107,356.3h18.93c.56,0,1.22-.19,1.22-1.1V354l-11.09-2c-10.08-1.8-11.93-6.94-11.93-16.42v-24c0-8.78,6.29-13.62,17.71-13.62h32a2.76,2.76,0,0,1,2.88,2.75v21.23a2.75,2.75,0,0,1-2.88,2.74H136.37c-.56,0-1.22.19-1.22,1.09v.85l11.23,2.18c8.69,1.68,11.92,6.13,11.92,16.41v24.3C158.3,378.18,152,383,140.59,383ZM107,358c-.55,0-1.21.19-1.21,1.09v21.23c0,.9.66,1.09,1.21,1.09h33.64c7.32,0,16-2.07,16-12V345.1c0-9.52-2.67-13.25-10.58-14.79l-12.56-2.43v-2.22a2.66,2.66,0,0,1,2.87-2.74h17.39a1.1,1.1,0,0,0,1.22-1.09V300.6a1.11,1.11,0,0,0-1.22-1.1h-32c-7.32,0-16.05,2.08-16.05,12v24c0,11,3.26,13.49,10.57,14.79l12.45,2.3v2.6a2.67,2.67,0,0,1-2.88,2.75Z"/><path class="b13ccaf3-a9a2-4ac7-975c-113971f3f96a" d="M218.6,383H205.68c-4.9,0-8.62-1.52-10.93-4.43v1.68A2.63,2.63,0,0,1,192,383H177.29c-10.43,0-16.17-4.84-16.17-13.62V352.52c0-8.78,5.74-13.62,16.17-13.62h14.45a1,1,0,0,0,1.09-1.09v-1.34h-25.9a2.63,2.63,0,0,1-2.74-2.75V315.43a2.63,2.63,0,0,1,2.74-2.75h38.24c10.43,0,16.18,4.84,16.18,13.62v54A2.58,2.58,0,0,1,218.6,383Zm-23.92-7.8c1.68,4.08,5.38,6.14,11,6.14H218.6c.76,0,1.09-.33,1.09-1.09v-54c0-9.89-7.89-12-14.52-12H166.93a1,1,0,0,0-1.09,1.09v18.29a1,1,0,0,0,1.09,1.09h27.56v3a2.63,2.63,0,0,1-2.75,2.75H177.29c-6.62,0-14.52,2.07-14.52,12V369.4c0,9.89,7.9,12,14.52,12H192a1,1,0,0,0,1.09-1.09v-4.73ZM192,361.53h-1.41a2.63,2.63,0,0,1-2.74-2.74v-2.05a2.63,2.63,0,0,1,2.74-2.75h4.16v4.8A2.63,2.63,0,0,1,192,361.53Zm-1.41-5.88a1,1,0,0,0-1.09,1.09v2.05a1,1,0,0,0,1.09,1.09H192a1,1,0,0,0,1.09-1.09v-3.14Z"/><path class="b13ccaf3-a9a2-4ac7-975c-113971f3f96a" d="M249.93,383H227a2.63,2.63,0,0,1-2.75-2.75v-68.8c0-8.78,5.75-13.62,16.18-13.62h17.65a2.62,2.62,0,0,1,2.74,2.75v21.23a2.62,2.62,0,0,1-2.74,2.74h-4.35a1,1,0,0,0-1.09,1.09V327h5.44a2.62,2.62,0,0,1,2.74,2.74V347a2.62,2.62,0,0,1-2.74,2.75h-4.35a1,1,0,0,0-1.09,1.09v29.41A2.63,2.63,0,0,1,249.93,383Zm-9.46-83.52c-6.62,0-14.52,2.08-14.52,12v68.8a1,1,0,0,0,1.09,1.09h22.89a1,1,0,0,0,1.09-1.09V350.86a2.63,2.63,0,0,1,2.75-2.75h4.35a1,1,0,0,0,1.09-1.09V329.75a1,1,0,0,0-1.09-1.09H251v-3a2.62,2.62,0,0,1,2.75-2.74h4.35a1,1,0,0,0,1.09-1.09V300.6a1,1,0,0,0-1.09-1.1Z"/><path class="b13ccaf3-a9a2-4ac7-975c-113971f3f96a" d="M318.74,383H279c-10.43,0-16.17-4.84-16.17-13.62V326.3c0-8.78,5.74-13.62,16.17-13.62h27.88c10.43,0,16.18,4.84,16.18,13.62v27.75a2.63,2.63,0,0,1-2.75,2.75H292.39a1,1,0,0,0-1.09,1.09v1.35h27.44a2.63,2.63,0,0,1,2.74,2.74v18.29A2.63,2.63,0,0,1,318.74,383ZM279,314.34c-6.62,0-14.52,2.07-14.52,12v43.1c0,9.89,7.9,12,14.52,12h39.78a1,1,0,0,0,1.09-1.09V362a1,1,0,0,0-1.09-1.09h-29.1v-3a2.63,2.63,0,0,1,2.75-2.75h27.88a1,1,0,0,0,1.09-1.09V326.3c0-9.89-7.89-12-14.52-12Zm14.71,27.37h-4.15v-4.79a2.63,2.63,0,0,1,2.74-2.75h1.41a2.63,2.63,0,0,1,2.75,2.75v2A2.63,2.63,0,0,1,293.67,341.71Zm-2.5-1.66h2.5a1,1,0,0,0,1.09-1.09v-2a1,1,0,0,0-1.09-1.09h-1.41a1,1,0,0,0-1.09,1.09Z"/><path class="b13ccaf3-a9a2-4ac7-975c-113971f3f96a" d="M327.05,380.27V359a1.85,1.85,0,0,1,2-1.92H348a1.85,1.85,0,0,0,2.05-1.92v-1.91l-11.77-2.18c-9.33-1.66-11.25-6-11.25-15.6v-24c0-8.32,5.88-12.79,16.88-12.79h32a1.91,1.91,0,0,1,2.05,1.91v21.23a1.92,1.92,0,0,1-2.05,1.92H358.51a1.85,1.85,0,0,0-2.05,1.92v1.54l11.9,2.3c8.57,1.66,11.25,6,11.25,15.6v24.3c0,8.31-5.88,12.79-16.88,12.79H329.09A1.85,1.85,0,0,1,327.05,380.27Z"/><path class="b13ccaf3-a9a2-4ac7-975c-113971f3f96a" d="M362.73,383H329.09a2.66,2.66,0,0,1-2.87-2.75V359a2.66,2.66,0,0,1,2.87-2.74H348c.56,0,1.22-.19,1.22-1.1V354l-11.09-2c-10.08-1.8-11.93-6.94-11.93-16.42v-24c0-8.78,6.29-13.62,17.71-13.62h32a2.76,2.76,0,0,1,2.88,2.75v21.23a2.75,2.75,0,0,1-2.88,2.74H358.51c-.56,0-1.22.19-1.22,1.09v.85l11.22,2.18c8.7,1.68,11.93,6.13,11.93,16.41v24.3C380.44,378.18,374.15,383,362.73,383ZM329.09,358c-.55,0-1.21.19-1.21,1.09v21.23c0,.9.66,1.09,1.21,1.09h33.64c7.32,0,16-2.07,16-12V345.1c0-9.52-2.67-13.25-10.58-14.79l-12.57-2.43v-2.22a2.66,2.66,0,0,1,2.88-2.74H375.9a1.1,1.1,0,0,0,1.22-1.09V300.6a1.11,1.11,0,0,0-1.22-1.1h-32c-7.33,0-16.05,2.08-16.05,12v24c0,11,3.26,13.49,10.57,14.79l12.45,2.3v2.6A2.67,2.67,0,0,1,348,358Z"/><path class="b13ccaf3-a9a2-4ac7-975c-113971f3f96a" d="M384.47,326.3c0-8.31,5.37-12.79,15.34-12.79h27.88c10,0,15.35,4.48,15.35,12.79v27.75a1.81,1.81,0,0,1-1.92,1.92H413.24a1.82,1.82,0,0,0-1.92,1.92v2.17h28.27a1.82,1.82,0,0,1,1.92,1.92v18.29a1.82,1.82,0,0,1-1.92,1.92H399.81c-10,0-15.34-4.48-15.34-12.79Zm30,14.58a1.82,1.82,0,0,0,1.92-1.92v-2a1.81,1.81,0,0,0-1.92-1.92h-1.4a1.81,1.81,0,0,0-1.92,1.92v4Z"/><path class="b13ccaf3-a9a2-4ac7-975c-113971f3f96a" d="M439.59,383H399.81c-10.43,0-16.17-4.84-16.17-13.62V326.3c0-8.78,5.74-13.62,16.17-13.62h27.88c10.44,0,16.18,4.84,16.18,13.62v27.75a2.63,2.63,0,0,1-2.75,2.75H413.24a1,1,0,0,0-1.09,1.09v1.35h27.44a2.63,2.63,0,0,1,2.75,2.74v18.29A2.63,2.63,0,0,1,439.59,383Zm-39.78-68.68c-6.62,0-14.52,2.07-14.52,12v43.1c0,9.89,7.9,12,14.52,12h39.78a1,1,0,0,0,1.09-1.09V362a1,1,0,0,0-1.09-1.09H410.5v-3a2.63,2.63,0,0,1,2.74-2.75h27.88a1,1,0,0,0,1.09-1.09V326.3c0-9.89-7.89-12-14.52-12Zm14.71,27.37h-4.15v-4.79a2.63,2.63,0,0,1,2.74-2.75h1.41a2.63,2.63,0,0,1,2.75,2.75v2A2.63,2.63,0,0,1,414.52,341.71Zm-2.5-1.66h2.5a1,1,0,0,0,1.09-1.09v-2a1,1,0,0,0-1.09-1.09h-1.41a1,1,0,0,0-1.09,1.09Z"/><path class="b13ccaf3-a9a2-4ac7-975c-113971f3f96a" d="M447.64,369.4V300.85a1.82,1.82,0,0,1,1.92-1.92h22.89a1.82,1.82,0,0,1,1.92,1.92v10.74a1.82,1.82,0,0,0,1.92,1.92h5.88a1.82,1.82,0,0,1,1.92,1.92v21.36a1.82,1.82,0,0,1-1.92,1.92h-7.8V355.2a1.81,1.81,0,0,0,1.92,1.92h5.88a1.82,1.82,0,0,1,1.92,1.92v21.23a1.82,1.82,0,0,1-1.92,1.92H463C453,382.19,447.64,377.71,447.64,369.4Z"/><path class="b13ccaf3-a9a2-4ac7-975c-113971f3f96a" d="M482.17,383H463c-10.43,0-16.18-4.84-16.18-13.62V300.85a2.63,2.63,0,0,1,2.75-2.75h22.89a2.63,2.63,0,0,1,2.75,2.75v10.74a1,1,0,0,0,1.09,1.09h5.88a2.63,2.63,0,0,1,2.75,2.75v21.36a2.62,2.62,0,0,1-2.75,2.74h-7V355.2a1,1,0,0,0,1.09,1.1h5.88a2.62,2.62,0,0,1,2.75,2.74v21.23A2.63,2.63,0,0,1,482.17,383Zm-32.61-83.26a1,1,0,0,0-1.09,1.09V369.4c0,9.89,7.9,12,14.52,12h19.18a1,1,0,0,0,1.09-1.09V359a1,1,0,0,0-1.09-1.09h-5.88a2.63,2.63,0,0,1-2.75-2.75V337.88h8.63a1,1,0,0,0,1.09-1.09V315.43a1,1,0,0,0-1.09-1.09h-5.88a2.63,2.63,0,0,1-2.75-2.75V300.85a1,1,0,0,0-1.09-1.09Z"/><path class="b13ccaf3-a9a2-4ac7-975c-113971f3f96a" d="M149.89,425.15h-22v-22H149.1c.69-.47,1.35-.87,2-1.21l.53.76c-.51.39-1.09.86-1.71,1.4Zm-2.2-18.85a55.31,55.31,0,0,0-5,6.3,49.21,49.21,0,0,0-4,6.63l-1.1.74a17.6,17.6,0,0,0-1.86,1.43,21.47,21.47,0,0,0-.85-2.3l-.42-1a15,15,0,0,0-1.65-3.09,3.64,3.64,0,0,0-1.72-1.3,4.39,4.39,0,0,1,3-1.72c.75,0,1.6,1,2.53,3.11l.46,1a51.75,51.75,0,0,1,8.19-9.91l1-1-16.2,0v17.59h17.63Z"/><path class="b13ccaf3-a9a2-4ac7-975c-113971f3f96a" d="M166.61,405.58l-5.21,16.55a4.5,4.5,0,0,0-.28,1.45c0,.29.22.51.6.64a6.84,6.84,0,0,0,2,.2v.73H157v-.73a5,5,0,0,0,1.52-.19,1.85,1.85,0,0,0,.91-.65,4.8,4.8,0,0,0,.68-1.45l7-22.07h1.52l7.22,22.1a4.8,4.8,0,0,0,.69,1.42,2,2,0,0,0,.93.65,5,5,0,0,0,1.52.19v.73h-9.23v-.73a6.76,6.76,0,0,0,2-.2.74.74,0,0,0,.58-.64,4,4,0,0,0-.31-1.42l-5.33-16.58Zm4.88,10.82v1.28h-9.18V416.4Z"/><path class="b13ccaf3-a9a2-4ac7-975c-113971f3f96a" d="M183.59,428.71a5.25,5.25,0,0,0,.16,1.53,1.14,1.14,0,0,0,.61.68,3.48,3.48,0,0,0,1.39.2v.73h-7.16v-.73a3.48,3.48,0,0,0,1.39-.2,1.1,1.1,0,0,0,.6-.68,4.86,4.86,0,0,0,.17-1.53V412.62a7.15,7.15,0,0,0-.09-1.39c-.06-.25-.2-.38-.41-.38a3.57,3.57,0,0,0-1.17.37l-.31-.64,2.26-1,2.16-1.1.4.43Zm.12-16.7a9.17,9.17,0,0,1,2.24-2.65,4.3,4.3,0,0,1,2.67-.92,3.76,3.76,0,0,1,3.53,2.17,11.7,11.7,0,0,1,1.16,5.54,15.19,15.19,0,0,1-.73,4.85,8.5,8.5,0,0,1-2.07,3.48,4.22,4.22,0,0,1-3,1.28,4.3,4.3,0,0,1-2.2-.58,5.17,5.17,0,0,1-1.7-1.77h-.06V412Zm-.12,7.1a7.17,7.17,0,0,0,.94,3.95,2.81,2.81,0,0,0,2.41,1.45c1.12,0,1.92-.71,2.39-2.14a16.87,16.87,0,0,0,.72-5.33,15.5,15.5,0,0,0-.63-5.12,2.15,2.15,0,0,0-2-1.68,3.16,3.16,0,0,0-2.06.84,7.76,7.76,0,0,0-1.72,2.09Z"/><path class="b13ccaf3-a9a2-4ac7-975c-113971f3f96a" d="M199.16,428.71a5.18,5.18,0,0,0,.17,1.53,1.09,1.09,0,0,0,.61.68,3.48,3.48,0,0,0,1.39.2v.73h-7.17v-.73a3.45,3.45,0,0,0,1.39-.2,1.11,1.11,0,0,0,.61-.68,5.18,5.18,0,0,0,.17-1.53V412.62a7.15,7.15,0,0,0-.09-1.39c-.06-.25-.2-.38-.41-.38a3.6,3.6,0,0,0-1.18.37l-.3-.64,2.25-1,2.17-1.1.39.43Zm.12-16.7a9.19,9.19,0,0,1,2.25-2.65,4.3,4.3,0,0,1,2.66-.92,3.76,3.76,0,0,1,3.54,2.17,11.7,11.7,0,0,1,1.16,5.54,15.47,15.47,0,0,1-.73,4.85,8.4,8.4,0,0,1-2.08,3.48,4.2,4.2,0,0,1-3,1.28,4.28,4.28,0,0,1-2.2-.58,5.2,5.2,0,0,1-1.71-1.77h-.06V412Zm-.12,7.1a7.17,7.17,0,0,0,1,3.95,2.81,2.81,0,0,0,2.41,1.45c1.11,0,1.91-.71,2.39-2.14a16.9,16.9,0,0,0,.71-5.33,15.56,15.56,0,0,0-.62-5.12,2.16,2.16,0,0,0-2.06-1.68,3.12,3.12,0,0,0-2.05.84,7.79,7.79,0,0,0-1.73,2.09Z"/><path class="b13ccaf3-a9a2-4ac7-975c-113971f3f96a" d="M212.21,412.83v-.21a6.77,6.77,0,0,0-.09-1.37.44.44,0,0,0-.44-.38,3.23,3.23,0,0,0-1.24.38l-.3-.64,2.34-1.07,2.17-1.1.42.43V422a3.8,3.8,0,0,0,.23,1.52,1.36,1.36,0,0,0,.9.69,8.21,8.21,0,0,0,2.11.2v.73h-8.26v-.73a3.81,3.81,0,0,0,1.4-.2,1.05,1.05,0,0,0,.61-.69,5.57,5.57,0,0,0,.15-1.52Zm7.68-.82a1.7,1.7,0,0,1-.91-.21,1.81,1.81,0,0,1-.58-.64,1.62,1.62,0,0,0-.34-.4.56.56,0,0,0-.36-.12,1.7,1.7,0,0,0-1.24.64,11,11,0,0,0-1.39,2.07v-1.74h.1a8.41,8.41,0,0,1,1.73-2.25,3.4,3.4,0,0,1,2.35-.92,2.49,2.49,0,0,1,1.63.52,1.66,1.66,0,0,1,.63,1.34,1.8,1.8,0,0,1-.43,1.22A1.48,1.48,0,0,1,219.89,412Z"/><path class="b13ccaf3-a9a2-4ac7-975c-113971f3f96a" d="M229.07,425.76a6.07,6.07,0,0,1-3.66-1.13,7.1,7.1,0,0,1-2.39-3.09,12.15,12.15,0,0,1,0-8.88,7.1,7.1,0,0,1,2.39-3.09,6.07,6.07,0,0,1,3.66-1.13,6,6,0,0,1,3.62,1.13,7.19,7.19,0,0,1,2.4,3.09,12.29,12.29,0,0,1,0,8.88,7.19,7.19,0,0,1-2.4,3.09A6,6,0,0,1,229.07,425.76Zm.64-1.28a2.71,2.71,0,0,0,1.87-1,5.36,5.36,0,0,0,1-2.54,19,19,0,0,0,.07-4.14,16.86,16.86,0,0,0-.77-4.05,5.65,5.65,0,0,0-1.42-2.35,2.77,2.77,0,0,0-3.92.35,5.35,5.35,0,0,0-1,2.55,18.27,18.27,0,0,0-.08,4.14,16,16,0,0,0,.78,4,5.66,5.66,0,0,0,1.41,2.34A2.68,2.68,0,0,0,229.71,424.48Z"/><path class="b13ccaf3-a9a2-4ac7-975c-113971f3f96a" d="M246.72,412.07a7.1,7.1,0,0,0,.32-1.48.61.61,0,0,0-.34-.62,3.06,3.06,0,0,0-1.32-.19v-.73h5v.73a2.63,2.63,0,0,0-1.09.19,1.49,1.49,0,0,0-.72.67,6.32,6.32,0,0,0-.56,1.43l-3.9,13.78H242.3l-4.06-13.78a4.9,4.9,0,0,0-.55-1.43A1.55,1.55,0,0,0,237,410a2.63,2.63,0,0,0-1.09-.19v-.73h6.91v.73a2.65,2.65,0,0,0-1.23.19.61.61,0,0,0-.29.62,9,9,0,0,0,.31,1.51l2.52,8.84h.1Z"/><path class="b13ccaf3-a9a2-4ac7-975c-113971f3f96a" d="M258.61,415a14.46,14.46,0,0,0-.23-2.78,4.64,4.64,0,0,0-.75-1.81,1.66,1.66,0,0,0-1.4-.69,1.91,1.91,0,0,0-1.62.84,5.71,5.71,0,0,0-.88,2.29,18.57,18.57,0,0,0-.28,3.52,15.16,15.16,0,0,0,.41,3.7,6,6,0,0,0,1.24,2.52,2.6,2.6,0,0,0,2,.91,2.77,2.77,0,0,0,2.16-1.11,8.91,8.91,0,0,0,1.56-3.64h.73a10.78,10.78,0,0,1-1.9,5.22,4.41,4.41,0,0,1-3.59,1.79,4.58,4.58,0,0,1-3-1,6.43,6.43,0,0,1-1.93-3,13.7,13.7,0,0,1-.67-4.54,13,13,0,0,1,.7-4.37,7.68,7.68,0,0,1,2-3.2,4.49,4.49,0,0,1,3.13-1.21,4.24,4.24,0,0,1,2.87,1,6,6,0,0,1,1.73,2.77,12.81,12.81,0,0,1,.58,4h-8.69V415Z"/><path class="b13ccaf3-a9a2-4ac7-975c-113971f3f96a" d="M273.48,422.68a8,8,0,0,1-2,2.31,3.91,3.91,0,0,1-2.42.77,4.27,4.27,0,0,1-2.8-1,6.22,6.22,0,0,1-1.85-2.79,12.66,12.66,0,0,1-.65-4.25,14.52,14.52,0,0,1,.73-4.79,7.64,7.64,0,0,1,2.1-3.3,4.76,4.76,0,0,1,3.26-1.21A4,4,0,0,1,272,409a5.17,5.17,0,0,1,1.55,1.38h.06v12.29Zm.12-7.38a8.21,8.21,0,0,0-.85-4.13,2.55,2.55,0,0,0-2.23-1.45,2.73,2.73,0,0,0-2.63,2,13.75,13.75,0,0,0-.81,5.13,14.23,14.23,0,0,0,.78,5.18,2.56,2.56,0,0,0,2.39,1.95,2.52,2.52,0,0,0,1.31-.35,4.28,4.28,0,0,0,1-.87,10.86,10.86,0,0,0,1-1.37.17.17,0,0,1,.06-.12Zm0-10.79v-.18a8.54,8.54,0,0,0-.07-1.4.42.42,0,0,0-.42-.39,3.2,3.2,0,0,0-1.15.35l-.31-.64,2.23-1,2.16-1.1.43.43v21a8.54,8.54,0,0,0,.07,1.4.41.41,0,0,0,.41.38,3.18,3.18,0,0,0,1.19-.35l.28.64-2.23,1-2.16,1.1-.43-.43Z"/><rect class="b13ccaf3-a9a2-4ac7-975c-113971f3f96a" x="281.41" y="428.95" width="174.4" height="1.53"/><path class="b13ccaf3-a9a2-4ac7-975c-113971f3f96a" d="M350.68,419a4.22,4.22,0,0,0,1.52-.16,18,18,0,0,0,3.64-1.56,19.41,19.41,0,0,0,3.72-3,25,25,0,0,0,1.94-2.31c.62-.83,1.33-1.6,1.9-2.47a36.42,36.42,0,0,0,2.73-4.52c.34-.74.69-1.48,1-2.24a4.29,4.29,0,0,0,.29-1.85.35.35,0,0,0-.47-.31,1,1,0,0,0-.18.06,10.35,10.35,0,0,0-1.8,1,8.44,8.44,0,0,1-1.79,1,2.29,2.29,0,0,0-.76.54,5.42,5.42,0,0,1-1.38,1.14,1.46,1.46,0,0,0-.42.36,32.11,32.11,0,0,1-2.39,2.42c-.51.51-1,1-1.55,1.51s-.71.81-1.1,1.18a52.13,52.13,0,0,0-3.68,4.3c-.28.33-.49.73-.74,1.09l-.69,1c-.11.16-.21.32-.31.48l-.64,1.15c-.12.22-.23.45-.33.68a.33.33,0,0,0,.2.38,3.58,3.58,0,0,0,1.28.08m.47,2.42a5.77,5.77,0,0,1-2.12-.29c-.77-.2-1,0-1.27.6a11,11,0,0,0-.74,2,20.73,20.73,0,0,1-.7,2.15c-.08.21-.16.41-.22.62a15.24,15.24,0,0,1-1.07,2.53,1.83,1.83,0,0,1-.26.38.77.77,0,0,1-.77.26,3.09,3.09,0,0,1-1-.37,1,1,0,0,1-.57-.81,3.78,3.78,0,0,1,0-1.21,9.87,9.87,0,0,0,.1-1.22,18.78,18.78,0,0,1,.48-3.18,19.62,19.62,0,0,1,.66-2,30.87,30.87,0,0,1,1.64-3.72c1-1.88,1.83-3.8,2.76-5.7a27.14,27.14,0,0,1,1.58-2.9c.84-1.3,1.67-2.6,2.52-3.88a7.65,7.65,0,0,1,.69-.9,9.46,9.46,0,0,0,1.28-1.86,2.07,2.07,0,0,1,.15-.25.79.79,0,0,1,.74-.31,2.14,2.14,0,0,1,1.72,1.17.69.69,0,0,1-.05.81,2.62,2.62,0,0,1-.54.51,3,3,0,0,0-.67.67c-.52.7-1.07,1.4-1.57,2.12s-1,1.54-1.46,2.32a.29.29,0,0,0-.06.17.33.33,0,0,0,.1.14.1.1,0,0,0,.09,0,1.28,1.28,0,0,0,.22-.17l1-1c1-1.1,2.19-2.07,3.27-3.13a5.47,5.47,0,0,1,1.12-.86,10.54,10.54,0,0,0,1.14-.85c1-.76,1.93-1.52,2.92-2.23.77-.55,1.6-1,2.41-1.5a7.14,7.14,0,0,1,1.82-.78,2.59,2.59,0,0,1,1.67.1,2.13,2.13,0,0,1,.92.65c.13.17.26.35.4.52a1.66,1.66,0,0,1,.35,1.42c-.07.43-.13.87-.17,1.31a2.52,2.52,0,0,1-.29.89c-.42.88-.79,1.79-1.25,2.65-.34.64-.66,1.28-1,1.92a25.94,25.94,0,0,1-2.17,3.32c-.38.5-.72,1-1.08,1.55-.09.13-.16.27-.26.39-.9,1.05-1.8,2.11-2.72,3.15a15.17,15.17,0,0,1-2.45,2.07c-.41.29-.82.58-1.25.85a15.23,15.23,0,0,1-4.11,1.64,8,8,0,0,1-1.9.18"/><path class="b13ccaf3-a9a2-4ac7-975c-113971f3f96a" d="M394.32,399.24a.47.47,0,0,0-.66-.52,2.94,2.94,0,0,0-.59.29q-.39.27-.75.57a23.93,23.93,0,0,0-5.59,7.07.45.45,0,0,0,0,.26c0,.09.21.09.33,0a5,5,0,0,0,.43-.35l2.24-2a3.22,3.22,0,0,1,1.07-.76,1.26,1.26,0,0,0,.38-.27,17.52,17.52,0,0,0,2.63-2.95,2.48,2.48,0,0,0,.52-1.3m-20.8,14.28c0-.21,0-.33-.07-.46a.37.37,0,0,0-.36-.25,1.13,1.13,0,0,0-.45.09,5.39,5.39,0,0,0-.88.55,13.1,13.1,0,0,0-2.61,2.7c-.14.21-.28.42-.43.62a10.85,10.85,0,0,0-1.52,3,3.68,3.68,0,0,0-.17.73.47.47,0,0,0,.56.56,1.69,1.69,0,0,0,.55-.12,6.89,6.89,0,0,0,1.06-.6,14.46,14.46,0,0,0,2.07-1.92,9.9,9.9,0,0,0,2-3.62,13,13,0,0,0,.29-1.3M368,423.65a5.15,5.15,0,0,1-2.15-.47,2.47,2.47,0,0,1-1.34-1.73,4.52,4.52,0,0,1,.07-2.42,15,15,0,0,1,1.53-3.45c.35-.52.73-1,1.12-1.52A18.35,18.35,0,0,1,369,412a11.22,11.22,0,0,1,2.31-1.63,1.79,1.79,0,0,1,1.19-.15,3.89,3.89,0,0,1,1.55.62,6,6,0,0,0,5.35.63,18.09,18.09,0,0,0,2.1-.85,2.15,2.15,0,0,0,1-1.05c.53-1.11,1.07-2.21,1.63-3.31.42-.84.85-1.68,1.34-2.49.39-.65.85-1.25,1.29-1.86a24.06,24.06,0,0,1,3.54-3.8,10.92,10.92,0,0,1,1.76-1.27,3.07,3.07,0,0,1,4.52,1.72,2.64,2.64,0,0,1-.27,2.1,14.48,14.48,0,0,1-2.69,3.15c-.33.29-.63.61-.95.92l-3.16,3.12c-.72.36-1.14,1.07-1.77,1.55s-1.21.91-1.82,1.35a11.71,11.71,0,0,1-1.11.72,2.63,2.63,0,0,0-1.06,1.18c-.62,1.27-1.23,2.55-1.84,3.83-.42.88-.79,1.78-1.17,2.68a12.85,12.85,0,0,0-.63,1.87,6.86,6.86,0,0,0-.29,2.25,5.28,5.28,0,0,1,0,.56c-.06.6-.27.9-1,.91-1.24.1-1.43-.43-1.55-1.27a3.46,3.46,0,0,1,0-.85,14.18,14.18,0,0,1,.24-1.59,18.37,18.37,0,0,1,1.57-4.54,3.47,3.47,0,0,0,.18-.33,12.09,12.09,0,0,1,.83-1.79,1.83,1.83,0,0,0,.15-.45.2.2,0,0,0-.18-.26,3.78,3.78,0,0,0-.47.06,8.52,8.52,0,0,1-2.71.19,2.38,2.38,0,0,0-.38,0,.55.55,0,0,0-.44.32c-.09.17-.15.35-.22.52-.36,1-.72,1.95-1.09,2.92a9.1,9.1,0,0,1-1.45,2.43,15.59,15.59,0,0,1-2.76,2.56,7.26,7.26,0,0,1-1.58.84,2.8,2.8,0,0,1-1,.14"/><path class="b13ccaf3-a9a2-4ac7-975c-113971f3f96a" d="M393.71,419.45l.08,0-.1-.12-.07,0,.09.12m3.43,5.72a10.49,10.49,0,0,1,.58-3.36,34.57,34.57,0,0,1,2-4.7,4.81,4.81,0,0,0,.2-.53.18.18,0,0,0-.07-.15.17.17,0,0,0-.17,0,.56.56,0,0,0-.23.16,14,14,0,0,1-1.34,1.33,28.85,28.85,0,0,1-3.58,2.94,14.52,14.52,0,0,1-2.21,1.26,3.67,3.67,0,0,1-3.53-.19,1.73,1.73,0,0,1-.84-1.21c-.07-.34-.11-.68-.17-1a.88.88,0,0,1,0-.28,11.7,11.7,0,0,1,.39-1.85,26.42,26.42,0,0,1,3.28-5.93c.61-.85,1.32-1.61,2-2.39a.94.94,0,0,1,.94-.31A2,2,0,0,1,396,410.4a.54.54,0,0,1-.18.6l-.44.36a8,8,0,0,0-1.78,1.94c-.61.91-1.25,1.81-1.8,2.76a15.27,15.27,0,0,0-1.23,2.66,5.69,5.69,0,0,0-.23,1c0,.16.12.28.3.25a3,3,0,0,0,1.15-.43,18,18,0,0,0,2.94-2c.22-.22.5-.38.73-.59a50.55,50.55,0,0,0,4.18-4.1c1.4-1.54,2.73-3.14,4.12-4.68a5.62,5.62,0,0,1,1.47-1.32,1,1,0,0,0,.29-.24c.42-.51.86-1,1.25-1.54.6-.81,1.13-1.67,1.76-2.45s1.33-1.84,2-2.74a7.89,7.89,0,0,0,1.05-1.68,1.24,1.24,0,0,1,.39-.52.84.84,0,0,1,.79-.18,2.09,2.09,0,0,1,.92.45l.57.5a.74.74,0,0,1,.11.87,1.7,1.7,0,0,1-.23.3,18.4,18.4,0,0,0-2.08,2.57c-.32.43-.66.84-1,1.28s-.39.63-.58,1a.2.2,0,0,0,.08.14.78.78,0,0,0,.37,0,10.79,10.79,0,0,0,1.92-.48,2.19,2.19,0,0,1,2.53,1,1.46,1.46,0,0,1,.13.25.78.78,0,0,1-.41,1.1,1.41,1.41,0,0,1-.44.14,4.85,4.85,0,0,1-.76.05,12.63,12.63,0,0,0-2.81.27,5.88,5.88,0,0,1-1.51.1h-.28a1.17,1.17,0,0,0-1.24.65c-1.09,1.7-2.29,3.32-3.27,5.09-.32.57-.7,1.11-1,1.69s-.43.9-.65,1.36l-1.29,2.72c-.4.86-.8,1.72-1.17,2.58a17.35,17.35,0,0,0-1.11,3.81,6.08,6.08,0,0,0,0,1.13,3.32,3.32,0,0,1-.07.94.64.64,0,0,1-.69.51c-1.65-.14-1.52-.44-1.68-1.56a4.44,4.44,0,0,1,0-.72"/><path class="b13ccaf3-a9a2-4ac7-975c-113971f3f96a" d="M314.83,424.63a13.56,13.56,0,0,1,.17-2.36c.1-.52.13-1.06.19-1.59a9.62,9.62,0,0,1,.25-1.3,2.91,2.91,0,0,0,.13-.64,7.76,7.76,0,0,1,.59-2.47,1.69,1.69,0,0,0,.12-.36,14.33,14.33,0,0,1,.71-2.74,28.11,28.11,0,0,1,1.86-4.84c.27-.53.44-1.11.67-1.66.14-.32.28-.64.44-.94.3-.59.62-1.17,1-1.74.22-.38.45-.76.7-1.12a.76.76,0,0,1,.83-.32,1.33,1.33,0,0,1,.76.34c.16.16.33.3.48.47a.62.62,0,0,1,0,.85,1.24,1.24,0,0,1-.17.23,8.6,8.6,0,0,0-1.68,2.72,12.61,12.61,0,0,1-.75,1.52,8.4,8.4,0,0,0-.82,1.9,11.4,11.4,0,0,1-.69,1.66,2.72,2.72,0,0,0-.36,1.06,7,7,0,0,1-.28,1.09c-.28,1.13-.6,2.25-1,3.36a2.44,2.44,0,0,1-.14.34,1.22,1.22,0,0,0-.16.91,1.42,1.42,0,0,1-.08.84,4.31,4.31,0,0,0-.17.73c-.17,1.06-.33,2.12-.4,3.19,0,.22-.08.43-.1.65a5.79,5.79,0,0,0,.16,2.15.4.4,0,0,0,.53.26,2.2,2.2,0,0,0,.65-.37,12.38,12.38,0,0,0,1.75-1.72c1-1.2,1.87-2.46,2.77-3.71l3.94-5.43c.73-1,1.53-1.92,2.21-2.94s1.32-1.76,1.91-2.69c1.1-1.73,2.37-3.34,3.6-5,.15-.2.33-.38.5-.57a5.27,5.27,0,0,0,.48-.58,11.77,11.77,0,0,1,1.74-2c.69-.69,1.36-1.4,2.05-2.09a8.29,8.29,0,0,1,.7-.63.77.77,0,0,1,.89-.1,10.86,10.86,0,0,1,1,.56,1.07,1.07,0,0,1,.34.44.45.45,0,0,1-.1.52l-.23.17a17.21,17.21,0,0,0-3.28,3c-.39.41-.79.81-1.16,1.24s-.94,1.1-1.38,1.68-1.06,1.41-1.57,2.12a11.24,11.24,0,0,1-1,1.37,4,4,0,0,0-.37.54,3.73,3.73,0,0,0-.34.57c-.17.39-.69.46-.79.91a2.92,2.92,0,0,1-.67,1.12c-.24.33-.45.69-.68,1s-.5.65-.72,1c-.56.92-1.18,1.79-1.81,2.65l-2.67,3.67c-.22.3-.46.6-.67.92a37.87,37.87,0,0,1-2.31,3.22c-.59.74-1.17,1.48-1.83,2.16a11.18,11.18,0,0,1-1.43,1.23,2.09,2.09,0,0,1-1.23.44c-.28,0-.56,0-.85,0a1.9,1.9,0,0,1-1.66-1.22,5,5,0,0,1-.56-2.46c0-.35,0-.69,0-1.22"/><path class="b13ccaf3-a9a2-4ac7-975c-113971f3f96a" d="M412,414.17a1.26,1.26,0,0,0,.3-.11c.75-.45,1.52-.88,2.25-1.36a2.7,2.7,0,0,0,1-1.53.86.86,0,0,0,0-.28.31.31,0,0,0-.3-.29,1.56,1.56,0,0,0-.53.16,4.6,4.6,0,0,0-.83.62c-.58.57-1.14,1.16-1.7,1.75a6.75,6.75,0,0,0-.47.59.79.79,0,0,0-.08.26c0,.07.09.2.31.19m0,9.31A3.89,3.89,0,0,1,410,423a4.68,4.68,0,0,1-2.44-3.92,2.29,2.29,0,0,0,0-.37,4.64,4.64,0,0,1,.15-2.06c0-.18.09-.36.13-.55a6,6,0,0,1,.87-2.27,9.39,9.39,0,0,0,.66-1.35,7.73,7.73,0,0,1,1.63-2.18c.36-.35.73-.69,1.1-1a6.75,6.75,0,0,1,1.31-.93,2.23,2.23,0,0,1,1-.28,4,4,0,0,1,1.76.16,3,3,0,0,1,1.76,1.74c.12.29.24.59.34.88a4.91,4.91,0,0,1,.19.73,1.43,1.43,0,0,1-.2,1,10.76,10.76,0,0,1-1.44,1.86,6.71,6.71,0,0,1-1.31.92c-.37.24-.77.42-1.13.67a6.53,6.53,0,0,1-3,1l-.28,0c-.61.06-.76.18-.93.76l-.21.82a2.26,2.26,0,0,0,.64,2.16.9.9,0,0,0,.67.29,5.54,5.54,0,0,0,1.76-.33,13.27,13.27,0,0,0,2.52-1.28,51.13,51.13,0,0,0,4.76-3.24,45.6,45.6,0,0,0,3.58-3.07c.37-.34.73-.69,1.11-1a3.76,3.76,0,0,0,.75-.84,1.58,1.58,0,0,1,.53-.53.51.51,0,0,1,.45-.06,2.18,2.18,0,0,1,1.47,1.48.57.57,0,0,1-.13.61c-.16.16-.31.32-.47.47a12.13,12.13,0,0,0-1.15,1.12,10.08,10.08,0,0,1-1.18,1.08,19.07,19.07,0,0,0-1.88,1.71,10.47,10.47,0,0,1-1.17.94c-.84.62-1.72,1.18-2.52,1.84a8.18,8.18,0,0,1-.79.51c-1,.66-2,1.35-3.15,1.91a12.38,12.38,0,0,1-2.25,1,3.84,3.84,0,0,1-1.37.16"/><path class="b13ccaf3-a9a2-4ac7-975c-113971f3f96a" d="M399,407.33a2,2,0,0,1-1.44-.36,1.49,1.49,0,0,1-.62-1.24c0-.22,0-.44,0-.65a.94.94,0,0,1,.84-.87l.26,0a2.83,2.83,0,0,1,2.42,1.91.85.85,0,0,1-.67,1.09,6.88,6.88,0,0,1-.83.15"/><path class="b13ccaf3-a9a2-4ac7-975c-113971f3f96a" d="M333.14,424.84a1.51,1.51,0,0,1-1.39-.69,3.25,3.25,0,0,1-.56-1.36,1,1,0,0,1,1-1.16,7.4,7.4,0,0,1,.81.08,1.23,1.23,0,0,1,.8.47c.21.28.42.58.61.88s.4.52.26.87a1.44,1.44,0,0,1-1,.84,3.07,3.07,0,0,1-.53.07"/><path class="b13ccaf3-a9a2-4ac7-975c-113971f3f96a" d="M140.59,234.77H107a2.66,2.66,0,0,1-2.87-2.75V210.79a2.66,2.66,0,0,1,2.87-2.74h18.93c.56,0,1.22-.19,1.22-1.09v-1.23l-11.09-2c-10.08-1.8-11.93-6.94-11.93-16.42v-24c0-8.78,6.29-13.62,17.71-13.62h32a2.76,2.76,0,0,1,2.88,2.75v21.23a2.75,2.75,0,0,1-2.88,2.74H136.37c-.56,0-1.22.19-1.22,1.09v.86l11.23,2.17c8.69,1.69,11.92,6.14,11.92,16.41v24.3C158.3,229.93,152,234.77,140.59,234.77ZM107,209.7c-.55,0-1.21.19-1.21,1.09V232c0,.91.66,1.1,1.21,1.1h33.64c7.32,0,16-2.08,16-12v-24.3c0-9.52-2.67-13.25-10.58-14.79l-12.56-2.43v-2.22a2.66,2.66,0,0,1,2.87-2.74h17.39a1.1,1.1,0,0,0,1.22-1.09V152.35a1.1,1.1,0,0,0-1.22-1.09h-32c-7.32,0-16.05,2.07-16.05,12v24c0,11,3.26,13.49,10.57,14.79l12.45,2.3V207a2.66,2.66,0,0,1-2.88,2.74Z"/><path class="b13ccaf3-a9a2-4ac7-975c-113971f3f96a" d="M218.6,234.77H205.68c-4.9,0-8.62-1.52-10.93-4.42V232a2.63,2.63,0,0,1-2.75,2.75H177.29c-10.43,0-16.17-4.84-16.17-13.62V204.27c0-8.78,5.74-13.61,16.17-13.61h14.45a1,1,0,0,0,1.09-1.1v-1.34h-25.9a2.63,2.63,0,0,1-2.74-2.75V167.18a2.63,2.63,0,0,1,2.74-2.74h38.24c10.43,0,16.18,4.83,16.18,13.61v54A2.58,2.58,0,0,1,218.6,234.77ZM194.68,227c1.68,4.07,5.38,6.14,11,6.14H218.6c.76,0,1.09-.34,1.09-1.1v-54c0-9.88-7.89-12-14.52-12H166.93a1,1,0,0,0-1.09,1.09v18.29a1,1,0,0,0,1.09,1.09h27.56v3a2.63,2.63,0,0,1-2.75,2.75H177.29c-6.62,0-14.52,2.08-14.52,12v16.88c0,9.89,7.9,12,14.52,12H192a1,1,0,0,0,1.09-1.1v-4.73ZM192,213.28h-1.41a2.62,2.62,0,0,1-2.74-2.74v-2a2.63,2.63,0,0,1,2.74-2.74h4.16v4.79A2.62,2.62,0,0,1,192,213.28Zm-1.41-5.88a1,1,0,0,0-1.09,1.09v2a1,1,0,0,0,1.09,1.09H192a1,1,0,0,0,1.09-1.09V207.4Z"/><path class="b13ccaf3-a9a2-4ac7-975c-113971f3f96a" d="M249.93,234.77H227a2.63,2.63,0,0,1-2.75-2.75v-68.8c0-8.78,5.75-13.62,16.18-13.62h17.65a2.62,2.62,0,0,1,2.74,2.75v21.23a2.61,2.61,0,0,1-2.74,2.74h-4.35a1,1,0,0,0-1.09,1.09v1.35h5.44a2.62,2.62,0,0,1,2.74,2.75v17.26a2.62,2.62,0,0,1-2.74,2.75h-4.35a1,1,0,0,0-1.09,1.09V232A2.63,2.63,0,0,1,249.93,234.77Zm-9.46-83.51c-6.62,0-14.52,2.07-14.52,12V232a1,1,0,0,0,1.09,1.1h22.89A1,1,0,0,0,251,232V202.61a2.63,2.63,0,0,1,2.75-2.75h4.35a1,1,0,0,0,1.09-1.09V181.51a1,1,0,0,0-1.09-1.09H251v-3a2.63,2.63,0,0,1,2.75-2.74h4.35a1,1,0,0,0,1.09-1.09V152.35a1,1,0,0,0-1.09-1.09Z"/><path class="b13ccaf3-a9a2-4ac7-975c-113971f3f96a" d="M318.74,234.77H279c-10.43,0-16.17-4.84-16.17-13.62v-43.1c0-8.78,5.74-13.61,16.17-13.61h27.88c10.43,0,16.18,4.83,16.18,13.61v27.76a2.63,2.63,0,0,1-2.75,2.74H292.39a1,1,0,0,0-1.09,1.09V211h27.44a2.63,2.63,0,0,1,2.74,2.75V232A2.63,2.63,0,0,1,318.74,234.77ZM279,166.09c-6.62,0-14.52,2.08-14.52,12v43.1c0,9.89,7.9,12,14.52,12h39.78a1,1,0,0,0,1.09-1.1V213.74a1,1,0,0,0-1.09-1.09h-29.1v-3a2.63,2.63,0,0,1,2.75-2.74h27.88a1,1,0,0,0,1.09-1.09V178.05c0-9.88-7.89-12-14.52-12Zm14.71,27.37h-4.15v-4.79a2.63,2.63,0,0,1,2.74-2.75h1.41a2.63,2.63,0,0,1,2.75,2.75v2.05A2.63,2.63,0,0,1,293.67,193.46Zm-2.5-1.65h2.5a1,1,0,0,0,1.09-1.09v-2.05a1,1,0,0,0-1.09-1.09h-1.41a1,1,0,0,0-1.09,1.09Z"/><path class="b13ccaf3-a9a2-4ac7-975c-113971f3f96a" d="M327.05,232V210.79a1.84,1.84,0,0,1,2-1.91H348a1.85,1.85,0,0,0,2.05-1.92V205l-11.77-2.18c-9.33-1.66-11.25-6-11.25-15.6v-24c0-8.31,5.88-12.79,16.88-12.79h32a1.92,1.92,0,0,1,2.05,1.92v21.23a1.92,1.92,0,0,1-2.05,1.92H358.51a1.85,1.85,0,0,0-2.05,1.91V179l11.9,2.3c8.57,1.66,11.25,6,11.25,15.6v24.3c0,8.32-5.88,12.79-16.88,12.79H329.09A1.84,1.84,0,0,1,327.05,232Z"/><path class="b13ccaf3-a9a2-4ac7-975c-113971f3f96a" d="M362.73,234.77H329.09a2.66,2.66,0,0,1-2.87-2.75V210.79a2.66,2.66,0,0,1,2.87-2.74H348c.56,0,1.22-.19,1.22-1.09v-1.23l-11.09-2c-10.08-1.8-11.93-6.94-11.93-16.42v-24c0-8.78,6.29-13.62,17.71-13.62h32a2.76,2.76,0,0,1,2.88,2.75v21.23a2.75,2.75,0,0,1-2.88,2.74H358.51c-.56,0-1.22.19-1.22,1.09v.86l11.22,2.17c8.7,1.69,11.93,6.14,11.93,16.41v24.3C380.44,229.93,374.15,234.77,362.73,234.77ZM329.09,209.7c-.55,0-1.21.19-1.21,1.09V232c0,.91.66,1.1,1.21,1.1h33.64c7.32,0,16-2.08,16-12v-24.3c0-9.52-2.67-13.25-10.58-14.79l-12.57-2.43v-2.22a2.66,2.66,0,0,1,2.88-2.74H375.9a1.1,1.1,0,0,0,1.22-1.09V152.35a1.1,1.1,0,0,0-1.22-1.09h-32c-7.33,0-16.05,2.07-16.05,12v24c0,11,3.26,13.49,10.57,14.79l12.45,2.3V207A2.66,2.66,0,0,1,348,209.7Z"/><path class="b13ccaf3-a9a2-4ac7-975c-113971f3f96a" d="M384.47,178.05c0-8.31,5.37-12.79,15.34-12.79h27.88c10,0,15.35,4.48,15.35,12.79v27.76a1.81,1.81,0,0,1-1.92,1.92H413.24a1.81,1.81,0,0,0-1.92,1.91v2.18h28.27a1.82,1.82,0,0,1,1.92,1.92V232a1.81,1.81,0,0,1-1.92,1.92H399.81c-10,0-15.34-4.47-15.34-12.79Zm30,14.58a1.81,1.81,0,0,0,1.92-1.91v-2.05a1.82,1.82,0,0,0-1.92-1.92h-1.4a1.81,1.81,0,0,0-1.92,1.92v4Z"/><path class="b13ccaf3-a9a2-4ac7-975c-113971f3f96a" d="M439.59,234.77H399.81c-10.43,0-16.17-4.84-16.17-13.62v-43.1c0-8.78,5.74-13.61,16.17-13.61h27.88c10.44,0,16.18,4.83,16.18,13.61v27.76a2.63,2.63,0,0,1-2.75,2.74H413.24a1,1,0,0,0-1.09,1.09V211h27.44a2.63,2.63,0,0,1,2.75,2.75V232A2.63,2.63,0,0,1,439.59,234.77Zm-39.78-68.68c-6.62,0-14.52,2.08-14.52,12v43.1c0,9.89,7.9,12,14.52,12h39.78a1,1,0,0,0,1.09-1.1V213.74a1,1,0,0,0-1.09-1.09H410.5v-3a2.63,2.63,0,0,1,2.74-2.74h27.88a1,1,0,0,0,1.09-1.09V178.05c0-9.88-7.89-12-14.52-12Zm14.71,27.37h-4.15v-4.79a2.63,2.63,0,0,1,2.74-2.75h1.41a2.63,2.63,0,0,1,2.75,2.75v2.05A2.63,2.63,0,0,1,414.52,193.46Zm-2.5-1.65h2.5a1,1,0,0,0,1.09-1.09v-2.05a1,1,0,0,0-1.09-1.09h-1.41a1,1,0,0,0-1.09,1.09Z"/><path class="b13ccaf3-a9a2-4ac7-975c-113971f3f96a" d="M447.64,221.15V152.6a1.82,1.82,0,0,1,1.92-1.92h22.89a1.82,1.82,0,0,1,1.92,1.92v10.75a1.81,1.81,0,0,0,1.92,1.91h5.88a1.82,1.82,0,0,1,1.92,1.92v21.36a1.82,1.82,0,0,1-1.92,1.92h-7.8V207a1.82,1.82,0,0,0,1.92,1.92h5.88a1.81,1.81,0,0,1,1.92,1.91V232a1.81,1.81,0,0,1-1.92,1.92H463C453,233.94,447.64,229.47,447.64,221.15Z"/><path class="b13ccaf3-a9a2-4ac7-975c-113971f3f96a" d="M482.17,234.77H463c-10.43,0-16.18-4.84-16.18-13.62V152.6a2.63,2.63,0,0,1,2.75-2.74h22.89a2.63,2.63,0,0,1,2.75,2.74v10.75a1,1,0,0,0,1.09,1.09h5.88a2.63,2.63,0,0,1,2.75,2.74v21.36a2.63,2.63,0,0,1-2.75,2.75h-7V207a1,1,0,0,0,1.09,1.09h5.88a2.63,2.63,0,0,1,2.75,2.74V232A2.63,2.63,0,0,1,482.17,234.77Zm-32.61-83.26a1,1,0,0,0-1.09,1.09v68.55c0,9.89,7.9,12,14.52,12h19.18a1,1,0,0,0,1.09-1.1V210.79a1,1,0,0,0-1.09-1.09h-5.88a2.63,2.63,0,0,1-2.75-2.74V189.63h8.63a1,1,0,0,0,1.09-1.09V167.18a1,1,0,0,0-1.09-1.09h-5.88a2.63,2.63,0,0,1-2.75-2.74V152.6a1,1,0,0,0-1.09-1.09Z"/><path class="b13ccaf3-a9a2-4ac7-975c-113971f3f96a" d="M149.89,276.9h-22v-22H149.1c.69-.46,1.35-.87,2-1.2l.53.75c-.51.39-1.09.86-1.71,1.4Zm-2.2-18.84a55.09,55.09,0,0,0-5,6.29,49.21,49.21,0,0,0-4,6.63l-1.1.75a17.9,17.9,0,0,0-1.86,1.42,22.3,22.3,0,0,0-.85-2.3l-.42-1a14.45,14.45,0,0,0-1.65-3.09,3.67,3.67,0,0,0-1.72-1.31,4.37,4.37,0,0,1,3-1.71c.75,0,1.6,1,2.53,3.11l.46,1a51.45,51.45,0,0,1,8.19-9.91l1-1-16.2,0v17.59h17.63Z"/><path class="b13ccaf3-a9a2-4ac7-975c-113971f3f96a" d="M166.61,257.33l-5.21,16.55a4.55,4.55,0,0,0-.28,1.45c0,.29.22.51.6.64a6.84,6.84,0,0,0,2,.2v.73H157v-.73a5,5,0,0,0,1.52-.18,1.87,1.87,0,0,0,.91-.66,4.8,4.8,0,0,0,.68-1.45l7-22.07h1.52l7.22,22.1a4.8,4.8,0,0,0,.69,1.42,2,2,0,0,0,.93.66,5.08,5.08,0,0,0,1.52.18v.73h-9.23v-.73a6.76,6.76,0,0,0,2-.2.74.74,0,0,0,.58-.64,4.06,4.06,0,0,0-.31-1.42l-5.33-16.58Zm4.88,10.82v1.28h-9.18v-1.28Z"/><path class="b13ccaf3-a9a2-4ac7-975c-113971f3f96a" d="M183.59,280.47a5.13,5.13,0,0,0,.16,1.52,1.19,1.19,0,0,0,.61.69,3.71,3.71,0,0,0,1.39.19v.74h-7.16v-.74a3.71,3.71,0,0,0,1.39-.19,1.14,1.14,0,0,0,.6-.69,4.75,4.75,0,0,0,.17-1.52v-16.1a7.15,7.15,0,0,0-.09-1.39c-.06-.25-.2-.38-.41-.38a3.85,3.85,0,0,0-1.17.37l-.31-.64,2.26-1,2.16-1.09.4.42Zm.12-16.71a9.17,9.17,0,0,1,2.24-2.65,4.29,4.29,0,0,1,2.67-.91,3.77,3.77,0,0,1,3.53,2.16,11.72,11.72,0,0,1,1.16,5.55,15.13,15.13,0,0,1-.73,4.84,8.37,8.37,0,0,1-2.07,3.48,4.21,4.21,0,0,1-5.16.7,5.09,5.09,0,0,1-1.7-1.77h-.06v-11.4Zm-.12,7.1a7.15,7.15,0,0,0,.94,3.95,2.79,2.79,0,0,0,2.41,1.45c1.12,0,1.92-.71,2.39-2.13a16.94,16.94,0,0,0,.72-5.34,15.5,15.5,0,0,0-.63-5.12,2.15,2.15,0,0,0-2-1.68,3.16,3.16,0,0,0-2.06.84,7.92,7.92,0,0,0-1.72,2.09Z"/><path class="b13ccaf3-a9a2-4ac7-975c-113971f3f96a" d="M199.16,280.47a5.06,5.06,0,0,0,.17,1.52,1.13,1.13,0,0,0,.61.69,3.71,3.71,0,0,0,1.39.19v.74h-7.17v-.74a3.68,3.68,0,0,0,1.39-.19,1.16,1.16,0,0,0,.61-.69,5.06,5.06,0,0,0,.17-1.52v-16.1a7.15,7.15,0,0,0-.09-1.39c-.06-.25-.2-.38-.41-.38a3.88,3.88,0,0,0-1.18.37l-.3-.64,2.25-1,2.17-1.09.39.42Zm.12-16.71a9.19,9.19,0,0,1,2.25-2.65,4.29,4.29,0,0,1,2.66-.91,3.77,3.77,0,0,1,3.54,2.16,11.72,11.72,0,0,1,1.16,5.55,15.41,15.41,0,0,1-.73,4.84,8.27,8.27,0,0,1-2.08,3.48,4.2,4.2,0,0,1-5.15.7,5.11,5.11,0,0,1-1.71-1.77h-.06v-11.4Zm-.12,7.1a7.14,7.14,0,0,0,1,3.95,2.79,2.79,0,0,0,2.41,1.45c1.11,0,1.91-.71,2.39-2.13a17,17,0,0,0,.71-5.34,15.56,15.56,0,0,0-.62-5.12,2.16,2.16,0,0,0-2.06-1.68,3.12,3.12,0,0,0-2.05.84,8,8,0,0,0-1.73,2.09Z"/><path class="b13ccaf3-a9a2-4ac7-975c-113971f3f96a" d="M212.21,264.58v-.21a6.77,6.77,0,0,0-.09-1.37.45.45,0,0,0-.44-.38,3.43,3.43,0,0,0-1.24.38l-.3-.64,2.34-1.07,2.17-1.09.42.42v13.14a3.8,3.8,0,0,0,.23,1.52,1.36,1.36,0,0,0,.9.69,8.21,8.21,0,0,0,2.11.2v.73h-8.26v-.73a3.81,3.81,0,0,0,1.4-.2,1.05,1.05,0,0,0,.61-.69,5.57,5.57,0,0,0,.15-1.52Zm7.68-.82a1.7,1.7,0,0,1-.91-.21,1.73,1.73,0,0,1-.58-.64,1.83,1.83,0,0,0-.34-.4.56.56,0,0,0-.36-.12,1.7,1.7,0,0,0-1.24.64,11.69,11.69,0,0,0-1.39,2.07v-1.73h.1a8.31,8.31,0,0,1,1.73-2.26,3.39,3.39,0,0,1,2.35-.91,2.48,2.48,0,0,1,1.63.51,1.67,1.67,0,0,1,.63,1.34,1.8,1.8,0,0,1-.43,1.22A1.48,1.48,0,0,1,219.89,263.76Z"/><path class="b13ccaf3-a9a2-4ac7-975c-113971f3f96a" d="M229.07,277.51a6.07,6.07,0,0,1-3.66-1.13,7.1,7.1,0,0,1-2.39-3.09,12.13,12.13,0,0,1,0-8.87,7.19,7.19,0,0,1,2.39-3.1,6.07,6.07,0,0,1,3.66-1.12,6,6,0,0,1,3.62,1.12,7.28,7.28,0,0,1,2.4,3.1,12.26,12.26,0,0,1,0,8.87,7.19,7.19,0,0,1-2.4,3.09A6,6,0,0,1,229.07,277.51Zm.64-1.28a2.68,2.68,0,0,0,1.87-1,5.32,5.32,0,0,0,1-2.54,18.91,18.91,0,0,0,.07-4.13,16.85,16.85,0,0,0-.77-4.06,5.61,5.61,0,0,0-1.42-2.34,2.77,2.77,0,0,0-3.92.35,5.3,5.3,0,0,0-1,2.54,18.34,18.34,0,0,0-.08,4.15,16.15,16.15,0,0,0,.78,4,5.69,5.69,0,0,0,1.41,2.33A2.64,2.64,0,0,0,229.71,276.23Z"/><path class="b13ccaf3-a9a2-4ac7-975c-113971f3f96a" d="M246.72,263.82a7.1,7.1,0,0,0,.32-1.48.61.61,0,0,0-.34-.62,3.27,3.27,0,0,0-1.32-.18v-.73h5v.73a2.82,2.82,0,0,0-1.09.18,1.54,1.54,0,0,0-.72.67,6.53,6.53,0,0,0-.56,1.43l-3.9,13.78H242.3l-4.06-13.78a5,5,0,0,0-.55-1.43,1.61,1.61,0,0,0-.73-.67,2.82,2.82,0,0,0-1.09-.18v-.73h6.91v.73a2.83,2.83,0,0,0-1.23.18.61.61,0,0,0-.29.62,9,9,0,0,0,.31,1.51l2.52,8.84h.1Z"/><path class="b13ccaf3-a9a2-4ac7-975c-113971f3f96a" d="M258.61,266.75a14.35,14.35,0,0,0-.23-2.77,4.63,4.63,0,0,0-.75-1.82,1.68,1.68,0,0,0-1.4-.68,1.93,1.93,0,0,0-1.62.83,5.77,5.77,0,0,0-.88,2.29,18.64,18.64,0,0,0-.28,3.52,15.11,15.11,0,0,0,.41,3.7,6,6,0,0,0,1.24,2.52,2.6,2.6,0,0,0,2,.91,2.77,2.77,0,0,0,2.16-1.11,8.85,8.85,0,0,0,1.56-3.64h.73a10.82,10.82,0,0,1-1.9,5.23,4.42,4.42,0,0,1-3.59,1.78,4.58,4.58,0,0,1-3-1,6.4,6.4,0,0,1-1.93-3,13.74,13.74,0,0,1-.67-4.54,13.07,13.07,0,0,1,.7-4.38,7.68,7.68,0,0,1,2-3.2,4.53,4.53,0,0,1,3.13-1.2,4.24,4.24,0,0,1,2.87,1A6,6,0,0,1,261,264a12.7,12.7,0,0,1,.58,4h-8.69v-1.25Z"/><path class="b13ccaf3-a9a2-4ac7-975c-113971f3f96a" d="M273.48,274.43a8.11,8.11,0,0,1-2,2.32,3.9,3.9,0,0,1-2.42.76,4.27,4.27,0,0,1-2.8-1,6.24,6.24,0,0,1-1.85-2.78,12.72,12.72,0,0,1-.65-4.26,14.42,14.42,0,0,1,.73-4.78,7.62,7.62,0,0,1,2.1-3.31,4.8,4.8,0,0,1,3.26-1.2,4,4,0,0,1,2.11.56,5.33,5.33,0,0,1,1.55,1.39h.06v12.28Zm.12-7.38a8.23,8.23,0,0,0-.85-4.13,2.54,2.54,0,0,0-2.23-1.44,2.73,2.73,0,0,0-2.63,2,13.7,13.7,0,0,0-.81,5.12,14.23,14.23,0,0,0,.78,5.18,2.56,2.56,0,0,0,2.39,1.95,2.52,2.52,0,0,0,1.31-.35,3.86,3.86,0,0,0,1-.87,10.17,10.17,0,0,0,1-1.37.17.17,0,0,1,.06-.12Zm0-10.79v-.18a8.54,8.54,0,0,0-.07-1.4.41.41,0,0,0-.42-.38,3,3,0,0,0-1.15.35l-.31-.64,2.23-1,2.16-1.1.43.43v21a8.69,8.69,0,0,0,.07,1.41.42.42,0,0,0,.41.38,3.39,3.39,0,0,0,1.19-.35l.28.64-2.23,1-2.16,1.1-.43-.43Z"/><rect class="b13ccaf3-a9a2-4ac7-975c-113971f3f96a" x="281.41" y="280.7" width="174.4" height="1.53"/><path class="b13ccaf3-a9a2-4ac7-975c-113971f3f96a" d="M350.68,270.74a4.22,4.22,0,0,0,1.52-.16,18,18,0,0,0,3.64-1.56,19,19,0,0,0,3.72-3,22.58,22.58,0,0,0,1.94-2.31c.62-.83,1.33-1.59,1.9-2.47a35.7,35.7,0,0,0,2.73-4.52c.34-.74.69-1.48,1-2.23a4.33,4.33,0,0,0,.29-1.85.35.35,0,0,0-.47-.32,1,1,0,0,0-.18.06,10.35,10.35,0,0,0-1.8,1,8.93,8.93,0,0,1-1.79,1.05,2.13,2.13,0,0,0-.76.53,5.22,5.22,0,0,1-1.38,1.14,1.46,1.46,0,0,0-.42.36,32.11,32.11,0,0,1-2.39,2.42c-.51.51-1,1-1.55,1.52s-.71.8-1.1,1.17a52.13,52.13,0,0,0-3.68,4.3c-.28.34-.49.73-.74,1.09l-.69,1c-.11.16-.21.32-.31.48l-.64,1.16c-.12.22-.23.44-.33.67a.32.32,0,0,0,.2.38,3.58,3.58,0,0,0,1.28.08m.47,2.42a6,6,0,0,1-2.12-.28c-.77-.2-1,0-1.27.59a11.58,11.58,0,0,0-.74,2,20,20,0,0,1-.7,2.15c-.08.21-.16.42-.22.63a15.5,15.5,0,0,1-1.07,2.52,1.6,1.6,0,0,1-.26.38.77.77,0,0,1-.77.26,2.87,2.87,0,0,1-1-.37,1,1,0,0,1-.57-.81,3.77,3.77,0,0,1,0-1.21,9.87,9.87,0,0,0,.1-1.22,18.93,18.93,0,0,1,.48-3.18,19.62,19.62,0,0,1,.66-2A31.58,31.58,0,0,1,345.3,269c1-1.88,1.83-3.8,2.76-5.7a27.14,27.14,0,0,1,1.58-2.9c.84-1.3,1.67-2.59,2.52-3.88a7.65,7.65,0,0,1,.69-.9,9.46,9.46,0,0,0,1.28-1.86,1.94,1.94,0,0,1,.15-.24.78.78,0,0,1,.74-.32,2.13,2.13,0,0,1,1.72,1.18.68.68,0,0,1-.05.8,3,3,0,0,1-.54.52,2.8,2.8,0,0,0-.67.66c-.52.71-1.07,1.4-1.57,2.13s-1,1.54-1.46,2.31a.3.3,0,0,0-.06.18.33.33,0,0,0,.1.14h.09a.92.92,0,0,0,.22-.17l1-1c1-1.11,2.19-2.08,3.27-3.14a5.85,5.85,0,0,1,1.12-.86,8.44,8.44,0,0,0,1.14-.85c1-.76,1.93-1.51,2.92-2.23.77-.54,1.6-1,2.41-1.5a7.52,7.52,0,0,1,1.82-.78,2.59,2.59,0,0,1,1.67.11,2.11,2.11,0,0,1,.92.64c.13.17.26.35.4.52a1.66,1.66,0,0,1,.35,1.42c-.07.43-.13.87-.17,1.31a2.51,2.51,0,0,1-.29.9c-.42.88-.79,1.78-1.25,2.64-.34.64-.66,1.29-1,1.92a25.94,25.94,0,0,1-2.17,3.32c-.38.5-.72,1-1.08,1.55a3.77,3.77,0,0,1-.26.39c-.9,1.06-1.8,2.11-2.72,3.15a15.17,15.17,0,0,1-2.45,2.07c-.41.29-.82.58-1.25.85a15.23,15.23,0,0,1-4.11,1.64,8,8,0,0,1-1.9.18"/><path class="b13ccaf3-a9a2-4ac7-975c-113971f3f96a" d="M394.32,251a.47.47,0,0,0-.66-.52,3,3,0,0,0-.59.3,6.74,6.74,0,0,0-.75.57,23.64,23.64,0,0,0-2.59,2.61,24.28,24.28,0,0,0-3,4.45.46.46,0,0,0,0,.26c0,.09.21.09.33,0a5.12,5.12,0,0,0,.43-.36l2.24-2a3.37,3.37,0,0,1,1.07-.76,1.26,1.26,0,0,0,.38-.27,16.78,16.78,0,0,0,2.63-3,2.48,2.48,0,0,0,.52-1.3m-20.8,14.28c0-.21,0-.33-.07-.45a.38.38,0,0,0-.36-.26,1.13,1.13,0,0,0-.45.09,6.17,6.17,0,0,0-.88.55,13.15,13.15,0,0,0-2.61,2.71c-.14.2-.28.41-.43.61a10.85,10.85,0,0,0-1.52,3,3.78,3.78,0,0,0-.17.74.47.47,0,0,0,.56.56,1.7,1.7,0,0,0,.55-.13,6.15,6.15,0,0,0,1.06-.6,14.39,14.39,0,0,0,2.07-1.91,10,10,0,0,0,2-3.63,12.4,12.4,0,0,0,.29-1.3M368,275.4a5,5,0,0,1-2.15-.47,2.45,2.45,0,0,1-1.34-1.72,4.56,4.56,0,0,1,.07-2.43,15.12,15.12,0,0,1,1.53-3.44c.35-.53.73-1,1.12-1.52a17.61,17.61,0,0,1,1.78-2.08,11.18,11.18,0,0,1,2.31-1.62,1.8,1.8,0,0,1,1.19-.16,4.06,4.06,0,0,1,1.55.63,6,6,0,0,0,5.35.62,16.48,16.48,0,0,0,2.1-.85,2.15,2.15,0,0,0,1-1.05c.53-1.11,1.07-2.21,1.63-3.31.42-.84.85-1.68,1.34-2.49.39-.65.85-1.25,1.29-1.86a23.56,23.56,0,0,1,3.54-3.79,11,11,0,0,1,1.76-1.28,3.07,3.07,0,0,1,4.52,1.72,2.64,2.64,0,0,1-.27,2.1,14.48,14.48,0,0,1-2.69,3.15c-.33.29-.63.61-.95.92l-3.16,3.12c-.72.36-1.14,1.07-1.77,1.55s-1.21.91-1.82,1.35a11.8,11.8,0,0,1-1.11.73,2.56,2.56,0,0,0-1.06,1.17c-.62,1.27-1.23,2.55-1.84,3.83-.42.88-.79,1.78-1.17,2.68a12.58,12.58,0,0,0-.63,1.88,6.77,6.77,0,0,0-.29,2.24,5.19,5.19,0,0,1,0,.56c-.06.6-.27.91-1,.91-1.24.11-1.43-.43-1.55-1.27a3.46,3.46,0,0,1,0-.85,14,14,0,0,1,.24-1.58,18.09,18.09,0,0,1,1.57-4.54,3.65,3.65,0,0,0,.18-.34,12.09,12.09,0,0,1,.83-1.79,1.7,1.7,0,0,0,.15-.45.2.2,0,0,0-.18-.26l-.47.06a8,8,0,0,1-2.71.19,1.59,1.59,0,0,0-.38,0,.52.52,0,0,0-.44.31,4.93,4.93,0,0,0-.22.53c-.36,1-.72,1.94-1.09,2.92a8.9,8.9,0,0,1-1.45,2.42,15.23,15.23,0,0,1-2.76,2.56,7.26,7.26,0,0,1-1.58.84,2.8,2.8,0,0,1-1,.14"/><path class="b13ccaf3-a9a2-4ac7-975c-113971f3f96a" d="M393.71,271.2l.08,0a.52.52,0,0,0-.1-.11s0,0-.07,0l.09.12m3.43,5.72a10.49,10.49,0,0,1,.58-3.36,35.11,35.11,0,0,1,2-4.7,4.65,4.65,0,0,0,.2-.52.19.19,0,0,0-.07-.16.25.25,0,0,0-.17,0,.56.56,0,0,0-.23.16,14.12,14.12,0,0,1-1.34,1.34,29.69,29.69,0,0,1-3.58,2.93,13,13,0,0,1-2.21,1.26,3.67,3.67,0,0,1-3.53-.19,1.71,1.71,0,0,1-.84-1.2c-.07-.34-.11-.69-.17-1a.88.88,0,0,1,0-.28,11.58,11.58,0,0,1,.39-1.84,26.27,26.27,0,0,1,3.28-5.94c.61-.84,1.32-1.6,2-2.38a.92.92,0,0,1,.94-.32,2,2,0,0,1,1.69,1.46.53.53,0,0,1-.18.59,4.94,4.94,0,0,1-.44.36,8,8,0,0,0-1.78,1.94c-.61.91-1.25,1.82-1.8,2.77a15.18,15.18,0,0,0-1.23,2.65,5.69,5.69,0,0,0-.23,1c0,.16.12.28.3.25a3.12,3.12,0,0,0,1.15-.42,18.64,18.64,0,0,0,2.94-2.05c.22-.21.5-.38.73-.59a50.55,50.55,0,0,0,4.18-4.1c1.4-1.53,2.73-3.13,4.12-4.68a5.41,5.41,0,0,1,1.47-1.31,1,1,0,0,0,.29-.25c.42-.5.86-1,1.25-1.53.6-.81,1.13-1.68,1.76-2.46s1.33-1.83,2-2.74a7.89,7.89,0,0,0,1.05-1.68,1.24,1.24,0,0,1,.39-.52.84.84,0,0,1,.79-.18,2.09,2.09,0,0,1,.92.45l.57.51a.74.74,0,0,1,.11.87,1.63,1.63,0,0,1-.23.29,19.65,19.65,0,0,0-2.08,2.57c-.32.43-.66.85-1,1.28s-.39.64-.58,1c0,0,.05.14.08.14a.93.93,0,0,0,.37,0,12.84,12.84,0,0,0,1.92-.48,2.18,2.18,0,0,1,2.53,1c.05.08.09.17.13.25a.78.78,0,0,1-.41,1.1,1.41,1.41,0,0,1-.44.14,3.89,3.89,0,0,1-.76.05,12.63,12.63,0,0,0-2.81.27,5.88,5.88,0,0,1-1.51.1h-.28a1.17,1.17,0,0,0-1.24.65c-1.09,1.7-2.29,3.32-3.27,5.09-.32.58-.7,1.12-1,1.69s-.43.91-.65,1.36l-1.29,2.73c-.4.85-.8,1.71-1.17,2.58a17.26,17.26,0,0,0-1.11,3.8,6.1,6.1,0,0,0,0,1.13,3.32,3.32,0,0,1-.07.94.66.66,0,0,1-.69.52c-1.65-.14-1.52-.44-1.68-1.56a4.57,4.57,0,0,1,0-.73"/><path class="b13ccaf3-a9a2-4ac7-975c-113971f3f96a" d="M314.83,276.38A13.63,13.63,0,0,1,315,274c.1-.52.13-1.06.19-1.59a9.62,9.62,0,0,1,.25-1.3,2.8,2.8,0,0,0,.13-.64,7.76,7.76,0,0,1,.59-2.47,1.69,1.69,0,0,0,.12-.36,14.53,14.53,0,0,1,.71-2.74,28.43,28.43,0,0,1,1.86-4.84c.27-.52.44-1.11.67-1.66.14-.32.28-.63.44-.94.3-.59.62-1.16,1-1.74.22-.38.45-.76.7-1.12a.76.76,0,0,1,.83-.32,1.28,1.28,0,0,1,.76.35c.16.15.33.3.48.46a.63.63,0,0,1,0,.86,1.18,1.18,0,0,1-.17.22,8.6,8.6,0,0,0-1.68,2.72,11.91,11.91,0,0,1-.75,1.52,8.59,8.59,0,0,0-.82,1.9,10.55,10.55,0,0,1-.69,1.66,2.72,2.72,0,0,0-.36,1.06,7.4,7.4,0,0,1-.28,1.1c-.28,1.13-.6,2.25-1,3.35a2.13,2.13,0,0,1-.14.35,1.22,1.22,0,0,0-.16.91,1.39,1.39,0,0,1-.08.83,4.81,4.81,0,0,0-.17.73c-.17,1.06-.33,2.12-.4,3.19,0,.22-.08.43-.1.65a5.77,5.77,0,0,0,.16,2.15.4.4,0,0,0,.53.26,1.83,1.83,0,0,0,.65-.37,11.86,11.86,0,0,0,1.75-1.72c1-1.19,1.87-2.45,2.77-3.71q2-2.72,3.94-5.42c.73-1,1.53-1.93,2.21-3s1.32-1.75,1.91-2.69c1.1-1.73,2.37-3.34,3.6-5,.15-.2.33-.39.5-.58a5.17,5.17,0,0,0,.48-.57,11,11,0,0,1,1.74-2c.69-.7,1.36-1.41,2.05-2.1.22-.22.46-.43.7-.63a.81.81,0,0,1,.89-.1c.34.16.66.37,1,.56a1,1,0,0,1,.34.45.44.44,0,0,1-.1.51,1.3,1.3,0,0,1-.23.18,16.83,16.83,0,0,0-3.28,3c-.39.41-.79.81-1.16,1.24s-.94,1.11-1.38,1.68-1.06,1.41-1.57,2.13a11.14,11.14,0,0,1-1,1.36,3.53,3.53,0,0,0-.37.55,3.22,3.22,0,0,0-.34.56c-.17.39-.69.46-.79.91a3,3,0,0,1-.67,1.13c-.24.33-.45.68-.68,1s-.5.65-.72,1c-.56.92-1.18,1.79-1.81,2.65l-2.67,3.67c-.22.31-.46.6-.67.92a37.87,37.87,0,0,1-2.31,3.22c-.59.74-1.17,1.48-1.83,2.16a11.18,11.18,0,0,1-1.43,1.23,2.09,2.09,0,0,1-1.23.44,8.1,8.1,0,0,1-.85,0,1.9,1.9,0,0,1-1.66-1.22,5,5,0,0,1-.56-2.46c0-.34,0-.69,0-1.22"/><path class="b13ccaf3-a9a2-4ac7-975c-113971f3f96a" d="M412,265.92a.91.91,0,0,0,.3-.11c.75-.44,1.52-.87,2.25-1.36a2.68,2.68,0,0,0,1-1.52.88.88,0,0,0,0-.28c0-.16-.16-.32-.3-.29a1.55,1.55,0,0,0-.53.15,5.13,5.13,0,0,0-.83.62c-.58.57-1.14,1.17-1.7,1.76a6.61,6.61,0,0,0-.47.58.84.84,0,0,0-.08.27c0,.07.09.2.31.18m0,9.31a3.89,3.89,0,0,1-2.11-.51,4.67,4.67,0,0,1-2.44-3.91,2.38,2.38,0,0,0,0-.38,4.58,4.58,0,0,1,.15-2.05c0-.19.09-.37.13-.55a5.83,5.83,0,0,1,.87-2.27,10.54,10.54,0,0,0,.66-1.35A7.46,7.46,0,0,1,411,262l1.1-1a6.31,6.31,0,0,1,1.31-.92,2.11,2.11,0,0,1,1-.29,4,4,0,0,1,1.76.17,3,3,0,0,1,1.76,1.74c.12.29.24.58.34.88a4.61,4.61,0,0,1,.19.73,1.4,1.4,0,0,1-.2,1,10.46,10.46,0,0,1-1.44,1.87,6.66,6.66,0,0,1-1.31.91c-.37.24-.77.43-1.13.68a6.76,6.76,0,0,1-3,1H411c-.61.06-.76.18-.93.76l-.21.82a2.27,2.27,0,0,0,.64,2.17.86.86,0,0,0,.67.28,5.54,5.54,0,0,0,1.76-.33,13.23,13.23,0,0,0,2.52-1.27,55.35,55.35,0,0,0,4.76-3.24,45.72,45.72,0,0,0,3.58-3.08c.37-.34.73-.69,1.11-1a3.76,3.76,0,0,0,.75-.84,1.68,1.68,0,0,1,.53-.53.51.51,0,0,1,.45-.06,2.2,2.2,0,0,1,1.47,1.48.57.57,0,0,1-.13.61c-.16.16-.31.33-.47.47a15.2,15.2,0,0,0-1.15,1.12,9.27,9.27,0,0,1-1.18,1.08,19.07,19.07,0,0,0-1.88,1.71,11.84,11.84,0,0,1-1.17.95c-.84.61-1.72,1.17-2.52,1.84a8.09,8.09,0,0,1-.79.5c-1,.66-2,1.35-3.15,1.91a12.38,12.38,0,0,1-2.25,1,3.84,3.84,0,0,1-1.37.16"/><path class="b13ccaf3-a9a2-4ac7-975c-113971f3f96a" d="M399,259.08a2,2,0,0,1-1.44-.36,1.48,1.48,0,0,1-.62-1.24c0-.22,0-.43,0-.65a.92.92,0,0,1,.84-.86l.26,0a2.8,2.8,0,0,1,2.42,1.9.86.86,0,0,1-.67,1.1c-.34.08-.69.12-.83.14"/><path class="b13ccaf3-a9a2-4ac7-975c-113971f3f96a" d="M333.14,276.59a1.51,1.51,0,0,1-1.39-.69,3.21,3.21,0,0,1-.56-1.35,1,1,0,0,1,1-1.17,5.58,5.58,0,0,1,.81.09,1.18,1.18,0,0,1,.8.46c.21.29.42.58.61.88s.4.53.26.87a1.44,1.44,0,0,1-1,.84,3.07,3.07,0,0,1-.53.07"/></svg>