<?xml version="1.0" encoding="utf-8"?>
<!-- Generator: Adobe Illustrator 27.5.0, SVG Export Plug-In . SVG Version: 6.00 Build 0)  -->
<svg version="1.1" id="e8724c55-d629-48b3-ba5b-28a831eda290"
	 xmlns="http://www.w3.org/2000/svg" xmlns:xlink="http://www.w3.org/1999/xlink" x="0px" y="0px" viewBox="0 0 589 729.7"
	 style="enable-background:new 0 0 589 729.7;" xml:space="preserve">
<style type="text/css">
	.st0{fill:#111111;}
</style>
<g>
	<path class="st0" d="M158.3,493.4c0-10.3-3.2-14.7-11.9-16.4l-11.2-2.2v-0.9c0-0.9,0.7-1.1,1.2-1.1h17.4c0,0,0.1,0,0.1,0
		c1.5,0,2.8-1.2,2.8-2.8v-21.2c0,0,0-0.1,0-0.1c-0.1-1.5-1.4-2.7-2.9-2.6h-32c-11.4,0-17.7,4.8-17.7,13.6v24.1
		c0,9.5,1.8,14.6,11.9,16.4l11.2,2v1.2c0,0.9-0.7,1.1-1.2,1.1H107c-0.1,0-0.2,0-0.3,0c-1.5,0-2.6,1.3-2.6,2.8v21.2
		c0,0.1,0,0.2,0,0.3c0.1,1.5,1.4,2.6,2.9,2.5h33.6c11.4,0,17.7-4.8,17.7-13.6V493.4z M156.6,517.6c0,9.9-8.7,12-16,12H107
		c-0.5,0-1.2-0.2-1.2-1.1v-21.2c0-0.9,0.7-1.1,1.2-1.1l18.8,0c0.1,0,0.2,0,0.3,0c1.5,0,2.6-1.3,2.6-2.8v-2.6l-12.5-2.3
		c-7.3-1.3-10.6-3.8-10.6-14.8v-24c0-9.9,8.7-12,16-12h32c0,0,0.1,0,0.1,0c0.6,0,1.1,0.5,1.1,1.1V470c0,0,0,0.1,0,0.1
		c-0.1,0.6-0.6,1-1.2,1h-17.4c-0.1,0-0.2,0-0.3,0c-1.5,0.1-2.6,1.3-2.6,2.8v2.2l12.6,2.4c7.9,1.5,10.6,5.3,10.6,14.8V517.6z"/>
	<path class="st0" d="M190.4,502.3c-1.5,0.1-2.6,1.3-2.5,2.7v2c0,0.1,0,0.2,0,0.2c0.1,1.5,1.3,2.6,2.7,2.5h1.4c0.1,0,0.2,0,0.3,0
		c1.5-0.1,2.6-1.3,2.5-2.8v-4.7h-4.2C190.5,502.3,190.4,502.3,190.4,502.3z M193.1,507c0,0.1,0,0.1,0,0.2c-0.1,0.5-0.5,1-1.1,0.9
		h-1.4c-0.1,0-0.1,0-0.2,0c-0.5-0.1-1-0.5-0.9-1.1v-2c0-0.1,0-0.1,0-0.2c0.1-0.5,0.5-1,1.1-0.9h2.5V507z"/>
	<path class="st0" d="M194.8,526.8c2.3,2.9,6,4.4,10.9,4.4h12.9c0.1,0,0.2,0,0.3,0c1.4-0.1,2.5-1.3,2.4-2.7v-54
		c0-8.8-5.8-13.6-16.2-13.6h-38.2c-0.1,0-0.2,0-0.2,0c-1.5,0.1-2.6,1.3-2.5,2.7V482c0,0.1,0,0.1,0,0.2c0.1,1.5,1.3,2.6,2.7,2.5h25.9
		v1.4c0,0.1,0,0.1,0,0.2c-0.1,0.5-0.5,1-1.1,0.9h-14.5c-10.4,0-16.2,4.8-16.2,13.6v16.9c0,8.8,5.7,13.6,16.2,13.6H192
		c0.1,0,0.2,0,0.3,0c1.4-0.1,2.6-1.3,2.5-2.7V526.8z M193.1,523.9v4.7c0,0.1,0,0.1,0,0.2c-0.1,0.5-0.5,1-1.1,0.9h-14.7
		c-6.6,0-14.5-2.1-14.5-12v-16.9c0-9.9,7.9-12,14.5-12h14.5c0.1,0,0.2,0,0.3,0c1.4-0.1,2.6-1.3,2.5-2.7v-3h-27.6c-0.1,0-0.1,0-0.2,0
		c-0.5-0.1-1-0.5-0.9-1.1v-18.4c0-0.1,0-0.1,0-0.2c0.1-0.5,0.5-1,1.1-0.9h38.2c6.6,0,14.5,2.1,14.5,12v54c0,0.8-0.3,1.1-1.1,1.1
		h-12.9c-5.6,0-9.3-2.1-11-6.1L193.1,523.9z"/>
	<path class="st0" d="M252.6,473.7c0.1-0.5,0.5-1,1.1-0.9h4.4c0.1,0,0.2,0,0.3,0c1.4-0.1,2.6-1.3,2.5-2.7v-21.2c0-0.1,0-0.2,0-0.2
		c-0.1-1.4-1.3-2.6-2.7-2.5h-17.7c-10.4,0-16.2,4.8-16.2,13.6v68.8c0,0.1,0,0.2,0,0.3c0.1,1.4,1.3,2.6,2.7,2.5h22.9
		c0.1,0,0.1,0,0.2,0c1.4-0.1,2.6-1.3,2.5-2.7v-29.4c0-0.1,0-0.1,0-0.2c0.1-0.5,0.5-1,1.1-0.9h4.4c0.1,0,0.2,0,0.2,0
		c1.4-0.1,2.6-1.3,2.5-2.7V478c0-0.1,0-0.2,0-0.3c-0.1-1.4-1.3-2.5-2.7-2.5h-5.4v-1.4C252.6,473.8,252.6,473.8,252.6,473.7z
		 M258.1,476.9c0.1,0,0.1,0,0.2,0c0.5,0.1,1,0.5,0.9,1.1v17.3c0,0.1,0,0.1,0,0.2c-0.1,0.5-0.5,1-1.1,0.9h-4.4c-0.1,0-0.2,0-0.2,0
		c-1.5,0.1-2.6,1.3-2.5,2.7v29.5c0,0.1,0,0.1,0,0.2c-0.1,0.5-0.5,1-1.1,0.9H227c-0.1,0-0.1,0-0.2,0c-0.5-0.1-1-0.5-0.9-1.1v-68.8
		c0-9.9,7.9-12,14.5-12h17.6c0.1,0,0.1,0,0.2,0c0.5,0.1,1,0.5,0.9,1.1v21.2c0,0.1,0,0.1,0,0.2c-0.1,0.5-0.5,1-1.1,0.9h-4.4
		c-0.1,0-0.2,0-0.2,0c-1.5,0.1-2.6,1.3-2.5,2.8v3H258.1z"/>
	<path class="st0" d="M294,490c1.4-0.1,2.5-1.3,2.5-2.8v-2c0-0.1,0-0.2,0-0.2c-0.1-1.5-1.3-2.6-2.7-2.5h-1.4c-0.1,0-0.1,0-0.2,0
		c-1.5,0.1-2.6,1.3-2.5,2.7v4.8h4.2C293.8,490,293.9,490,294,490z M291.2,485.2c0-0.1,0-0.1,0-0.2c0.1-0.5,0.5-1,1.1-0.9h1.4
		c0.1,0,0.1,0,0.2,0c0.5,0.1,1,0.5,0.9,1.1v2c0,0.1,0,0.1,0,0.2c-0.1,0.5-0.5,1-1.1,0.9h-2.5V485.2z"/>
	<path class="st0" d="M319,531.3c1.4-0.1,2.6-1.3,2.5-2.7v-18.3c0-0.1,0-0.2,0-0.2c-0.1-1.5-1.3-2.6-2.7-2.5h-27.4v-1.3
		c0-0.1,0-0.1,0-0.2c0.1-0.5,0.5-1,1.1-0.9h27.9c0.1,0,0.2,0,0.2,0c1.5-0.1,2.6-1.3,2.5-2.8v-27.8c0-8.8-5.8-13.6-16.2-13.6H279
		c-10.4,0-16.2,4.8-16.2,13.6v43.1c0,8.8,5.7,13.6,16.2,13.6h39.7C318.8,531.3,318.9,531.3,319,531.3z M264.5,517.7v-43.1
		c0-9.9,7.9-12,14.5-12l27.9,0c6.6,0,14.5,2.1,14.5,12v27.8c0,0.1,0,0.1,0,0.2c-0.1,0.5-0.5,1-1.1,0.9h-27.9c-0.1,0-0.2,0-0.2,0
		c-1.5,0.1-2.6,1.3-2.5,2.8v3h29.1c0.1,0,0.1,0,0.2,0c0.5,0.1,1,0.5,0.9,1.1v18.4c0,0.1,0,0.1,0,0.2c-0.1,0.5-0.5,1-1.1,0.9H279
		C272.4,529.7,264.5,527.6,264.5,517.7z"/>
	<path class="st0" d="M348,504.5h-18.9c-0.1,0-0.2,0-0.3,0c-1.5,0.1-2.6,1.3-2.6,2.8v21.2c0,0.1,0,0.2,0,0.3
		c0.1,1.5,1.4,2.6,2.9,2.4h33.6c11.4,0,17.7-4.8,17.7-13.6v-24.3c0-10.3-3.2-14.7-11.9-16.4l-11.2-2.2v-0.9c0-0.9,0.7-1.1,1.2-1.1
		h17.4c0,0,0.1,0,0.1,0c1.5,0,2.8-1.2,2.8-2.8v-21.2c0,0,0-0.1,0-0.1c-0.1-1.5-1.4-2.7-2.9-2.6h-32c-11.4,0-17.7,4.8-17.7,13.6v24.1
		c0,9.5,1.9,14.6,11.9,16.4l11.1,2v1.2C349.2,504.3,348.6,504.5,348,504.5z"/>
	<path class="st0" d="M412.2,506c0.1-0.5,0.5-1,1.1-0.9h27.9c0.1,0,0.2,0,0.2,0c1.5-0.1,2.6-1.3,2.5-2.8v-27.8
		c0-8.8-5.7-13.6-16.2-13.6h-27.9c-10.4,0-16.2,4.8-16.2,13.6v43.1c0,8.8,5.7,13.6,16.2,13.6h39.8c0.1,0,0.2,0,0.3,0
		c1.4-0.1,2.6-1.3,2.5-2.7v-18.3c0-0.1,0-0.2,0-0.2c-0.1-1.5-1.3-2.6-2.8-2.5h-27.4v-1.3C412.1,506.1,412.1,506,412.2,506z
		 M415.6,485.2v2c0,0.1,0,0.1,0,0.2c-0.1,0.5-0.5,1-1.1,0.9H412v-3.1c0-0.1,0-0.1,0-0.2c0.1-0.5,0.5-1,1.1-0.9h1.4
		c0.1,0,0.1,0,0.2,0C415.2,484.2,415.6,484.7,415.6,485.2z"/>
	<path class="st0" d="M482.2,460.9h-5.9c-0.1,0-0.1,0-0.2,0c-0.5-0.1-1-0.5-0.9-1.1v-10.7c0-0.1,0-0.2,0-0.2
		c-0.1-1.5-1.3-2.6-2.8-2.5h-22.9c-0.1,0-0.2,0-0.2,0c-1.5,0.1-2.6,1.3-2.5,2.8v68.6c0,8.8,5.8,13.6,16.2,13.6h19.2
		c0.1,0,0.2,0,0.3,0c1.4-0.1,2.5-1.3,2.5-2.8v-21.2c0-0.1,0-0.2,0-0.2c-0.1-1.5-1.3-2.6-2.8-2.5h-5.9c-0.1,0-0.1,0-0.2,0
		c-0.5-0.1-1-0.5-0.9-1.1v-15.7h7c0.1,0,0.2,0,0.2,0c1.5-0.1,2.6-1.3,2.5-2.7v-21.3c0-0.1,0-0.2,0-0.2
		C484.9,462,483.6,460.9,482.2,460.9z"/>
	<path class="st0" d="M149.1,551.4h-21.2v22h22l0-21c0.6-0.6,1.2-1,1.7-1.4l-0.5-0.8C150.5,550.5,149.8,550.9,149.1,551.4z
		 M130.1,571v-17.6h16.2l-1,1c-3.1,2.9-5.9,6.3-8.2,9.9l-0.5-1c-0.9-2.1-1.8-3.1-2.5-3.1c-1.2,0.1-2.3,0.8-3,1.7
		c0.7,0.3,1.3,0.7,1.7,1.3c0.7,1,1.2,2,1.7,3.1l0.4,1c0.3,0.8,0.6,1.5,0.8,2.3c0.6-0.5,1.2-1,1.9-1.4l1.1-0.7c1.2-2.3,2.5-4.5,4-6.6
		c1.5-2.2,3.2-4.3,5-6.3l0,16.5H130.1z"/>
	<path class="st0" d="M171.8,572.5c-0.7,0.2-1.3,0.2-2,0.2v0.7h9.2v-0.7c-0.5,0-1,0-1.5-0.2c-0.4-0.1-0.7-0.4-0.9-0.7
		c-0.3-0.4-0.5-0.9-0.7-1.4l-7.2-22.1h-1.5l-7,22.1c-0.1,0.5-0.4,1-0.7,1.4c-0.2,0.3-0.5,0.5-0.9,0.7c-0.5,0.1-1,0.2-1.5,0.2v0.7
		h6.7v-0.7c-0.7,0-1.3,0-2-0.2c-0.4-0.1-0.6-0.3-0.6-0.6c0-0.5,0.1-1,0.3-1.4l1.4-4.4h7.8l1.4,4.5c0.2,0.4,0.3,0.9,0.3,1.4
		C172.3,572.1,172.1,572.3,171.8,572.5z M163.2,564.7l3.4-10.8l0.1,0l3.5,10.8H163.2z"/>
	<path class="st0" d="M183.2,556.7l-2.2,1.1l-2.3,1l0.3,0.6c0.4-0.2,0.8-0.3,1.2-0.4c0.2,0,0.4,0.1,0.4,0.4c0.1,0.5,0.1,0.9,0.1,1.4
		V577c0,0.5,0,1-0.2,1.5c-0.1,0.3-0.3,0.6-0.6,0.7c-0.4,0.2-0.9,0.2-1.4,0.2v0.7h7.2v-0.7c-0.5,0-0.9,0-1.4-0.2
		c-0.3-0.1-0.5-0.4-0.6-0.7c-0.1-0.5-0.2-1-0.2-1.5v-9.6v-10.2L183.2,556.7z"/>
	<path class="st0" d="M183.6,567.4c0,0.4,0,0.8,0,1.2v-7.2L183.6,567.4z"/>
	<path class="st0" d="M188.7,556.7c-1,0-1.9,0.3-2.7,0.9c-0.9,0.7-1.7,1.7-2.3,2.7l-0.1,0v1.2c0.4-0.8,1-1.5,1.7-2.1
		c0.6-0.5,1.3-0.8,2.1-0.8c1,0,1.8,0.7,2,1.7c0.5,1.7,0.7,3.4,0.6,5.1c0,1.8-0.2,3.6-0.7,5.3c-0.5,1.4-1.3,2.1-2.4,2.1
		c-1,0-1.9-0.6-2.4-1.4c-0.5-0.8-0.8-1.8-0.9-2.7v3h0.1c0.4,0.7,1,1.3,1.7,1.8c1.7,1,3.8,0.7,5.2-0.7c1-1,1.7-2.2,2.1-3.5
		c0.5-1.6,0.8-3.2,0.7-4.8c0.1-1.9-0.3-3.8-1.2-5.5C191.6,557.5,190.2,556.6,188.7,556.7z"/>
	<path class="st0" d="M204.2,556.7c-1,0-1.9,0.3-2.7,0.9c-0.9,0.7-1.7,1.6-2.2,2.7l-0.1,0v-3.1l-0.4-0.4l-2.2,1.1l-2.2,1l0.3,0.6
		c0.4-0.2,0.8-0.3,1.2-0.4c0.2,0,0.3,0.1,0.4,0.4c0.1,0.5,0.1,0.9,0.1,1.4V577c0,0.5,0,1-0.2,1.5c-0.1,0.3-0.3,0.6-0.6,0.7
		c-0.4,0.2-0.9,0.2-1.4,0.2v0.7h7.2v-0.7c-0.5,0-0.9,0-1.4-0.2c-0.3-0.1-0.5-0.4-0.6-0.7c-0.1-0.5-0.2-1-0.2-1.5v-5.3h0.1
		c0.4,0.7,1,1.3,1.7,1.8c1.7,1,3.8,0.7,5.2-0.7c1-1,1.7-2.2,2.1-3.5c0.5-1.6,0.7-3.2,0.7-4.8c0.1-1.9-0.3-3.8-1.2-5.5
		C207.1,557.5,205.7,556.7,204.2,556.7z M205.7,565.3c0,1.8-0.2,3.6-0.7,5.3c-0.5,1.4-1.3,2.1-2.4,2.1c-1,0-1.9-0.6-2.4-1.4
		c-0.7-1.2-1.1-2.6-1-4l0-5.9c0.5-0.8,1-1.5,1.7-2.1c0.6-0.5,1.3-0.8,2.1-0.8c1,0,1.8,0.7,2.1,1.7
		C205.5,561.9,205.7,563.6,205.7,565.3z"/>
	<path class="st0" d="M220.9,557.2c-0.5-0.4-1-0.5-1.6-0.5c-0.9,0-1.7,0.3-2.4,0.9c-0.7,0.7-1.3,1.4-1.7,2.3h-0.1v1.7
		c0.4-0.7,0.8-1.4,1.4-2.1c0.3-0.4,0.8-0.6,1.2-0.7c0.1,0,0.3,0,0.4,0.1c0.1,0.1,0.2,0.2,0.3,0.4c0.1,0.3,0.3,0.5,0.6,0.6
		c0.3,0.2,0.6,0.3,0.9,0.3c0.5,0,0.9-0.2,1.2-0.5c0.3-0.3,0.4-0.8,0.4-1.2C221.5,558,221.3,557.5,220.9,557.2z"/>
	<path class="st0" d="M215.3,571.8c-0.2-0.5-0.3-1-0.2-1.5v-13.1l-0.4-0.4l-2.2,1.1l-2.3,1.1l0.3,0.6c0.4-0.2,0.8-0.3,1.2-0.4
		c0.2,0,0.4,0.2,0.4,0.4c0.1,0.5,0.1,0.9,0.1,1.4v0.2l0,9.2c0,0.5,0,1-0.1,1.5c-0.1,0.3-0.3,0.6-0.6,0.7c-0.4,0.2-0.9,0.2-1.4,0.2
		v0.7h8.3v-0.7c-0.7,0-1.4,0-2.1-0.2C215.8,572.4,215.5,572.1,215.3,571.8z"/>
	<path class="st0" d="M232.7,557.8c-1.1-0.8-2.3-1.2-3.6-1.1c-1.3,0-2.6,0.4-3.7,1.1c-1.1,0.8-1.9,1.9-2.4,3.1c-1.1,2.9-1.1,6,0,8.9
		c0.5,1.2,1.3,2.3,2.4,3.1c1.1,0.8,2.4,1.2,3.7,1.1c1.3,0,2.6-0.4,3.6-1.1c1.1-0.8,1.9-1.9,2.4-3.1c1.1-2.9,1.1-6,0-8.9
		C234.6,559.7,233.8,558.6,232.7,557.8z M232.6,569.2c-0.1,0.9-0.5,1.8-1,2.5c-0.5,0.6-1.1,0.9-1.9,1c-0.7,0.1-1.5-0.2-2.1-0.7
		c-0.7-0.6-1.1-1.4-1.4-2.3c-0.4-1.3-0.7-2.6-0.8-4c-0.1-1.4-0.1-2.8,0.1-4.1c0.1-0.9,0.5-1.8,1-2.5c0,0,0,0,0,0
		c1-1.2,2.7-1.3,3.9-0.3c0.7,0.7,1.1,1.5,1.4,2.3c0.4,1.3,0.7,2.6,0.8,4C232.8,566.4,232.8,567.8,232.6,569.2z"/>
	<path class="st0" d="M245.4,558c0.4,0,0.9,0,1.3,0.2c0.2,0.1,0.4,0.4,0.3,0.6c-0.1,0.5-0.2,1-0.3,1.5l-2.5,8.8h-0.1l-2.5-8.8
		c-0.1-0.5-0.2-1-0.3-1.5c0-0.2,0.1-0.5,0.3-0.6c0.4-0.2,0.8-0.2,1.2-0.2v-0.7h-6.9v0.7c0.4,0,0.7,0,1.1,0.2
		c0.3,0.1,0.6,0.4,0.7,0.7c0.3,0.4,0.4,0.9,0.5,1.4l4.1,13.8h1.8l3.9-13.8c0.1-0.5,0.3-1,0.6-1.4c0.2-0.3,0.4-0.5,0.7-0.7
		c0.3-0.1,0.7-0.2,1.1-0.2v-0.7h-5V558z"/>
	<path class="st0" d="M259.3,570.6c-0.5,0.7-1.3,1.1-2.2,1.1c-0.8,0-1.5-0.3-2-0.9c-0.6-0.7-1-1.6-1.2-2.5c-0.3-1.2-0.4-2.5-0.4-3.7
		c0-0.1,0-0.1,0-0.2h8c0-1.4-0.2-2.7-0.6-4c-0.3-1.1-0.9-2-1.7-2.8c-0.8-0.7-1.8-1-2.9-1c-1.2,0-2.3,0.4-3.1,1.2
		c-0.9,0.9-1.6,2-2,3.2c-0.5,1.4-0.7,2.9-0.7,4.4c0,1.5,0.2,3.1,0.7,4.5c0.3,1.2,1,2.2,1.9,3c0.8,0.7,1.9,1,3,1
		c1.4,0,2.7-0.6,3.6-1.8c1.1-1.5,1.7-3.4,1.9-5.2h-0.7C260.6,568.3,260,569.6,259.3,570.6z M254.6,558.8c0.4-0.5,1-0.9,1.6-0.8
		c0.5,0,1.1,0.2,1.4,0.7c0.4,0.5,0.6,1.2,0.8,1.8c0.2,0.9,0.2,1.8,0.2,2.8l-5.1,0c0-0.7,0.1-1.4,0.2-2.1
		C253.9,560.3,254.2,559.5,254.6,558.8z"/>
	<path class="st0" d="M273.6,562.3v7.3c0,0,0,0,0,0l0-7.2C273.6,562.4,273.6,562.4,273.6,562.3z"/>
	<path class="st0" d="M272.6,571c-0.3,0.3-0.6,0.6-1,0.9c-0.4,0.2-0.8,0.4-1.3,0.4c-1.2,0-2.1-0.9-2.4-2c-0.6-1.7-0.8-3.4-0.8-5.2
		c-0.1-1.7,0.2-3.5,0.8-5.1c0.3-1.2,1.4-2,2.6-2c1,0,1.8,0.6,2.2,1.5c0.5,0.9,0.7,1.9,0.8,2.9v-3.7h-0.1c-0.4-0.6-0.9-1-1.5-1.4
		c-0.6-0.4-1.4-0.6-2.1-0.6c-1.2,0-2.4,0.4-3.3,1.2c-1,0.9-1.7,2-2.1,3.3c-0.5,1.5-0.8,3.2-0.7,4.8c0,1.4,0.2,2.9,0.7,4.2
		c0.4,1.1,1,2,1.8,2.8c0.8,0.7,1.8,1,2.8,1c0.9,0,1.7-0.2,2.4-0.8c0.8-0.6,1.5-1.4,2-2.3l0.1,0v-1.2c0,0,0,0,0,0
		C273.3,570.2,272.9,570.6,272.6,571z"/>
	<path class="st0" d="M277,571.6c-0.2,0-0.4-0.2-0.4-0.4c-0.1-0.5-0.1-0.9-0.1-1.4v-21l-0.4-0.4l-2.2,1.1l-2.2,1l0.3,0.6
		c0.4-0.2,0.7-0.3,1.1-0.3c0.2,0,0.4,0.2,0.4,0.4c0.1,0.5,0.1,0.9,0.1,1.4v0.2l0,9.7c0,0.4,0,0.7,0,1.1l0,6c0,0,0,0.1,0,0.1l0,3.9
		l0.4,0.4l2.2-1.1l2.2-1l-0.3-0.6C277.8,571.4,277.4,571.6,277,571.6z"/>
	<path class="st0" d="M346.1,574.7c0.1-0.2,0.1-0.4,0.2-0.6c0.3-0.7,0.5-1.4,0.7-2.2c0.2-0.7,0.4-1.4,0.7-2c0.3-0.6,0.5-0.8,1.3-0.6
		c0.7,0.2,1.4,0.3,2.1,0.3l0,0.1c0.6,0,1.3-0.1,1.9-0.2c1.4-0.3,2.8-0.9,4.1-1.6c0.4-0.3,0.8-0.5,1.2-0.8c0.9-0.6,1.7-1.3,2.5-2.1
		c0.9-1,1.8-2.1,2.7-3.1c0.1-0.1,0.2-0.3,0.3-0.4c0.4-0.5,0.7-1.1,1.1-1.5c0.8-1.1,1.5-2.2,2.2-3.3c0.3-0.6,0.7-1.3,1-1.9
		c0.5-0.9,0.8-1.8,1.2-2.7c0.2-0.3,0.2-0.6,0.3-0.9c0-0.4,0.1-0.9,0.2-1.3c0.1-0.5,0-1-0.3-1.4c-0.1-0.2-0.3-0.4-0.4-0.5
		c-0.2-0.3-0.6-0.5-0.9-0.6c-0.5-0.2-1.1-0.3-1.7-0.1c-0.6,0.2-1.3,0.4-1.8,0.8c-0.8,0.5-1.6,1-2.4,1.5c-1,0.7-1.9,1.5-2.9,2.2
		c-0.4,0.3-0.7,0.6-1.1,0.8c-0.4,0.2-0.8,0.5-1.1,0.9c-1.1,1.1-2.3,2-3.3,3.1l-1,1c-0.1,0.1-0.1,0.1-0.2,0.2c0,0-0.1,0-0.1,0
		c0,0-0.1-0.1-0.1-0.1c0-0.1,0-0.1,0.1-0.2c0.5-0.8,1-1.6,1.5-2.3s1-1.4,1.6-2.1c0.2-0.3,0.4-0.5,0.7-0.7c0.2-0.1,0.4-0.3,0.5-0.5
		c0.2-0.2,0.2-0.6,0-0.8c-0.3-0.7-1-1.1-1.7-1.2c-0.3,0-0.6,0.1-0.7,0.3c-0.1,0.1-0.1,0.2-0.1,0.2c-0.3,0.7-0.8,1.3-1.3,1.9
		c-0.2,0.3-0.5,0.6-0.7,0.9c-0.8,1.3-1.7,2.6-2.5,3.9c-0.6,0.9-1.1,1.9-1.6,2.9c-0.9,1.9-1.8,3.8-2.8,5.7c-0.6,1.2-1.2,2.4-1.6,3.7
		c-0.3,0.7-0.5,1.3-0.7,2c-0.2,1-0.4,2.1-0.5,3.2c0,0.4,0,0.8-0.1,1.2c-0.1,0.4-0.1,0.8,0,1.2c0,0.2,0.1,0.3,0.1,0.4h-23.2
		c0.4-0.3,0.8-0.7,1.2-1.1c0.7-0.7,1.2-1.4,1.8-2.2c0.8-1,1.6-2.1,2.3-3.2c0.2-0.3,0.5-0.6,0.7-0.9l2.7-3.7c0.6-0.9,1.2-1.7,1.8-2.7
		c0.2-0.3,0.5-0.7,0.7-1s0.4-0.7,0.7-1c0.3-0.3,0.5-0.7,0.7-1.1c0.1-0.4,0.6-0.5,0.8-0.9c0.1-0.2,0.2-0.4,0.3-0.6
		c0.1-0.2,0.2-0.4,0.4-0.5c0.4-0.4,0.7-0.9,1-1.4c0.5-0.7,1.1-1.6,1.6-2.1s1-1.2,1.4-1.7s0.8-0.8,1.2-1.2c1-1.1,2.1-2.1,3.3-3
		l0.2-0.2c0.1-0.1,0.2-0.3,0.1-0.5c-0.1-0.2-0.2-0.3-0.3-0.4c-0.3-0.2-0.7-0.4-1-0.6c-0.3-0.1-0.6-0.1-0.9,0.1
		c-0.2,0.2-0.5,0.4-0.7,0.6l-2,2.1c-0.7,0.6-1.2,1.3-1.7,2c-0.1,0.2-0.3,0.4-0.5,0.6c-0.2,0.2-0.3,0.4-0.5,0.6
		c-1.2,1.7-2.5,3.3-3.6,5c-0.6,0.9-1.2,1.7-1.9,2.7s-1.5,1.9-2.2,2.9c-1.3,1.8-2.6,3.6-3.9,5.4c-0.9,1.2-1.8,2.5-2.8,3.7
		c-0.5,0.6-1.1,1.2-1.7,1.7c-0.2,0.2-0.4,0.3-0.7,0.4c0,0,0,0-0.1,0c-0.2,0.1-0.4-0.1-0.5-0.3c-0.2-0.7-0.2-1.4-0.2-2.1
		c0-0.2,0.1-0.4,0.1-0.7c0.1-1.1,0.2-2.2,0.4-3.2c0-0.3,0.1-0.5,0.2-0.7c0.1-0.3,0.1-0.6,0.1-0.8c-0.1-0.3,0-0.6,0.2-0.9
		c0.1-0.1,0.1-0.2,0.1-0.3c0.4-1.1,0.7-2.2,1-3.3c0.1-0.4,0.2-0.7,0.3-1.1c0-0.4,0.2-0.7,0.4-1.1c0.3-0.5,0.5-1.1,0.7-1.7
		c0.2-0.7,0.5-1.3,0.8-1.9c0.3-0.5,0.5-1,0.8-1.5c0.4-1,1-1.9,1.7-2.7c0.1-0.1,0.1-0.1,0.2-0.2c0.2-0.2,0.2-0.6,0-0.9
		c-0.2-0.2-0.3-0.3-0.5-0.5c-0.2-0.2-0.5-0.3-0.8-0.3c-0.3-0.1-0.6,0.1-0.8,0.3c-0.2,0.4-0.5,0.7-0.7,1.1c-0.4,0.6-0.7,1.1-1,1.7
		c-0.2,0.3-0.3,0.6-0.4,1c-0.2,0.5-0.4,1.1-0.7,1.7c-0.8,1.6-1.4,3.2-1.9,4.8c-0.3,0.9-0.6,1.8-0.7,2.7c0,0.1-0.1,0.2-0.1,0.3
		c-0.3,0.8-0.5,1.6-0.6,2.5c0,0.2-0.1,0.4-0.1,0.7c-0.1,0.4-0.2,0.9-0.2,1.3c-0.1,0.5-0.1,1.1-0.2,1.6c-0.1,0.8-0.2,1.6-0.2,2.3l0,0
		c0,0.5,0,0.9,0,1.2c0,0.9,0.2,1.7,0.6,2.5c0.1,0.2,0.2,0.4,0.4,0.6h-34.4v1.5h174.4v-1.5H345.1
		C345.5,576.4,345.8,575.5,346.1,574.7z M349.5,566c0.2-0.4,0.4-0.8,0.6-1.2c0.1-0.2,0.2-0.3,0.3-0.5l0.7-1c0.2-0.4,0.5-0.8,0.7-1.1
		c1.2-1.5,2.4-2.9,3.7-4.3c0.4-0.4,0.5-0.7,1.1-1.2s1-1,1.5-1.5c0.8-0.8,1.6-1.6,2.4-2.4c0.1-0.1,0.3-0.3,0.4-0.4
		c0.5-0.3,1-0.7,1.4-1.1c0.2-0.2,0.5-0.4,0.8-0.5c0.6-0.3,1.2-0.6,1.8-1c0.6-0.4,1.2-0.7,1.8-1c0.1,0,0.1,0,0.2,0c0,0,0.1,0,0.1,0
		c0.2,0,0.4,0.1,0.4,0.3c0,0.6-0.1,1.3-0.3,1.8c-0.3,0.8-0.7,1.5-1,2.2c-0.8,1.6-1.7,3.1-2.7,4.5c-0.6,0.9-1.3,1.6-1.9,2.5
		c-0.6,0.8-1.2,1.6-1.9,2.3c-1.1,1.1-2.4,2.2-3.7,3c-1.2,0.7-2.4,1.2-3.6,1.5c-0.5,0.2-1,0.2-1.5,0.2l0-0.1c-0.4,0-0.9,0-1.3-0.1
		c-0.2-0.1-0.2-0.2-0.2-0.4C349.3,566.5,349.4,566.3,349.5,566z"/>
	<path class="st0" d="M379.3,564.4c0,0.1-0.1,0.2-0.2,0.3c-0.7,1.4-1.2,3-1.6,4.5c-0.1,0.5-0.2,1.1-0.2,1.6c0,0.3,0,0.6,0,0.8
		c0.1,0.8,0.3,1.4,1.5,1.3c0.7,0,0.9-0.3,1-0.9c0-0.2,0-0.4,0-0.6c0-0.8,0.1-1.5,0.3-2.2c0.2-0.6,0.4-1.3,0.6-1.9
		c0.4-0.9,0.8-1.8,1.2-2.7c0.6-1.3,1.2-2.5,1.8-3.8c0.2-0.5,0.6-0.9,1.1-1.2c0.4-0.2,0.8-0.5,1.1-0.7c0.6-0.4,1.2-0.9,1.8-1.3
		c0.6-0.5,1-1.2,1.8-1.5l3.2-3.1c0.3-0.3,0.6-0.6,1-0.9c1-0.9,1.9-2,2.7-3.2c0.4-0.6,0.5-1.4,0.3-2.1c-0.2-0.8-0.8-1.5-1.5-1.8
		c-0.9-0.5-2.1-0.5-3,0.1c-0.6,0.4-1.2,0.8-1.8,1.3c-1.3,1.1-2.5,2.4-3.5,3.8c-0.4,0.6-0.8,1.1-1.3,1.9s-0.9,1.6-1.3,2.5
		c-0.6,1.1-1.1,2.2-1.6,3.3c-0.2,0.5-0.6,0.8-1,1c-0.7,0.3-1.4,0.6-2.1,0.9c-1.8,0.6-3.8,0.4-5.4-0.6c-0.5-0.3-1-0.5-1.5-0.6
		c-0.4-0.1-0.8,0-1.2,0.2c-0.8,0.4-1.6,1-2.3,1.6c-0.6,0.6-1.2,1.3-1.8,2.1c-0.4,0.5-0.8,1-1.1,1.5c-0.7,1.1-1.2,2.2-1.5,3.5
		c-0.2,0.8-0.3,1.6-0.1,2.4c0.1,0.8,0.6,1.4,1.3,1.7c0.7,0.3,1.4,0.5,2.1,0.5v0c0.3,0,0.7,0,1-0.1c0.6-0.2,1.1-0.5,1.6-0.8
		c1-0.7,2-1.6,2.8-2.6c0.6-0.7,1.1-1.5,1.5-2.4c0.4-0.9,0.7-1.9,1.1-2.9c0.1-0.2,0.1-0.4,0.2-0.5c0.1-0.2,0.2-0.3,0.4-0.3
		c0.1,0,0.3,0,0.4,0c0.9,0.1,1.8,0,2.7-0.2c0.2,0,0.3-0.1,0.5-0.1c0,0,0,0,0,0c0.1,0,0.2,0.2,0.1,0.3c0,0.2-0.1,0.3-0.2,0.4
		C379.8,563.2,379.5,563.8,379.3,564.4z M386.7,554.9c0.8-1.6,1.8-3.1,3-4.5c0.8-0.9,1.7-1.8,2.6-2.6c0.2-0.2,0.5-0.4,0.8-0.6
		c0.2-0.1,0.4-0.2,0.6-0.3c0.1,0,0.2-0.1,0.3,0c0.3,0.1,0.4,0.3,0.4,0.6l0,0c0,0.5-0.2,0.9-0.5,1.3c-0.8,1.1-1.6,2.1-2.6,3
		c-0.1,0.1-0.2,0.2-0.4,0.3c-0.4,0.2-0.8,0.4-1.1,0.8l-2.2,2c-0.1,0.1-0.3,0.3-0.4,0.4c-0.1,0.1-0.3,0.1-0.3,0
		C386.7,555.1,386.7,555,386.7,554.9z M373.3,563c-0.4,1.3-1.1,2.6-2,3.6c-0.6,0.7-1.3,1.3-2.1,1.9c-0.3,0.2-0.7,0.4-1.1,0.6
		c-0.2,0.1-0.4,0.1-0.5,0.1c-0.1,0-0.1,0-0.2,0c-0.3-0.1-0.4-0.3-0.4-0.6c0-0.2,0.1-0.5,0.2-0.7c0.3-1.1,0.9-2.1,1.5-3l0.4-0.6
		c0.7-1,1.6-1.9,2.6-2.7c0.3-0.2,0.6-0.4,0.9-0.5c0.1-0.1,0.3-0.1,0.5-0.1c0.2,0,0.3,0.1,0.4,0.3l0.1,0.5l0,0
		C373.5,562.2,373.4,562.6,373.3,563z"/>
	<path class="st0" d="M398.9,575.8c0.3,0,0.6-0.2,0.7-0.5c0.1-0.3,0.1-0.6,0.1-0.9c0-0.4,0-0.8,0-1.1c0.2-1.3,0.6-2.6,1.1-3.8
		c0.4-0.9,0.8-1.7,1.2-2.6l1.3-2.7c0.2-0.4,0.3-0.8,0.6-1.3s0.7-1.1,1-1.7c1-1.8,2.2-3.4,3.3-5.1c0.2-0.5,0.7-0.7,1.2-0.7
		c0.1,0,0.2,0,0.3,0c0.5,0,1,0,1.5-0.1c0.9-0.2,1.9-0.3,2.8-0.3c0.3,0,0.5,0,0.8,0c0.2,0,0.3-0.1,0.4-0.1c0,0,0.1,0,0.1,0
		c0.4-0.2,0.5-0.7,0.3-1.1c0-0.1-0.1-0.2-0.1-0.3c-0.5-0.9-1.6-1.3-2.5-1c-0.6,0.2-1.3,0.4-1.9,0.5c-0.1,0-0.2,0-0.4,0
		c0,0-0.1-0.1-0.1-0.1c0.2-0.4,0.2-0.6,0.6-1c0.3-0.4,0.7-0.9,1-1.3c0.6-0.9,1.3-1.8,2.1-2.6c0.1-0.1,0.2-0.2,0.2-0.3
		c0.2-0.3,0.1-0.6-0.1-0.9l-0.6-0.5c-0.3-0.2-0.6-0.4-0.9-0.5c-0.3-0.1-0.6,0-0.8,0.2c-0.2,0.1-0.3,0.3-0.4,0.5
		c-0.3,0.6-0.6,1.2-1,1.7c-0.7,0.9-1.4,1.9-2,2.7s-1.2,1.7-1.8,2.5c-0.4,0.5-0.8,1-1.2,1.5c-0.1,0.1-0.2,0.2-0.3,0.2
		c-0.6,0.3-1.1,0.8-1.5,1.3c-1.4,1.5-2.7,3.1-4.1,4.7c-1.3,1.4-2.7,2.8-4.2,4.1c-0.2,0.2-0.5,0.4-0.7,0.6c-0.9,0.8-1.9,1.4-2.9,2
		c-0.3,0.2-0.7,0.4-1.1,0.4c-0.2,0-0.3-0.1-0.3-0.2c0-0.3,0.1-0.7,0.2-1c0.3-0.9,0.7-1.8,1.2-2.7c0.5-1,1.2-1.9,1.8-2.8
		c0.5-0.7,1.1-1.4,1.8-1.9c0.2-0.1,0.3-0.2,0.4-0.4c0.2-0.1,0.3-0.4,0.2-0.6c-0.2-0.8-0.9-1.4-1.7-1.5c-0.3-0.1-0.7,0-0.9,0.3
		c-0.7,0.8-1.4,1.5-2,2.4c-1.3,1.8-2.4,3.8-3.3,5.9c-0.2,0.6-0.3,1.2-0.4,1.8c0,0.1,0,0.2,0,0.3c0.1,0.3,0.1,0.7,0.2,1
		c0.1,0.5,0.4,0.9,0.8,1.2c1.1,0.7,2.4,0.7,3.5,0.2c0.8-0.4,1.5-0.8,2.2-1.3c1.3-0.9,2.5-1.9,3.6-2.9c0.5-0.4,0.9-0.9,1.3-1.3
		c0.1-0.1,0.1-0.1,0.2-0.2c0.1,0,0.1,0,0.2,0c0,0,0.1,0.1,0.1,0.2c-0.1,0.2-0.1,0.4-0.2,0.5c-0.8,1.5-1.5,3.1-2,4.7
		c-0.4,1.1-0.6,2.2-0.6,3.4l0.1,0.1c0,0.2,0,0.5,0,0.7C397.4,575.3,397.2,575.6,398.9,575.8z M393.7,567.7L393.7,567.7l-0.1-0.1
		c0.1,0,0.1,0,0.1,0C393.7,567.6,393.8,567.6,393.7,567.7L393.7,567.7z"/>
	<path class="st0" d="M409.8,571.2c0.6,0.4,1.4,0.6,2.1,0.5l0.2,0.1c0.5,0,0.9,0,1.4-0.2c0.8-0.3,1.5-0.6,2.2-1
		c1.2-0.6,2.2-1.2,3.2-1.9c0.3-0.2,0.5-0.3,0.8-0.5c0.8-0.7,1.7-1.2,2.5-1.8c0.4-0.3,0.8-0.6,1.2-1c0.6-0.6,1.2-1.2,1.9-1.7
		c0.4-0.3,0.8-0.7,1.2-1.1c0.4-0.4,0.7-0.8,1.2-1.1c0.2-0.1,0.3-0.3,0.5-0.5c0.2-0.2,0.2-0.4,0.1-0.6c-0.2-0.7-0.8-1.3-1.5-1.5
		c-0.2,0-0.3,0-0.5,0.1c-0.2,0.1-0.4,0.3-0.5,0.5c-0.2,0.3-0.5,0.6-0.8,0.8c-0.4,0.3-0.7,0.7-1.1,1c-1.1,1.1-2.3,2.1-3.6,3.1
		c-1.5,1.2-3.1,2.3-4.8,3.2c-0.8,0.5-1.6,0.9-2.5,1.3c-0.6,0.2-1.2,0.4-1.9,0.4c-0.3,0-0.5-0.1-0.7-0.3c-0.6-0.6-0.8-1.4-0.6-2.2
		l0.2-0.8c0.2-0.6,0.3-0.7,0.9-0.8h0.3c1.1-0.1,2.1-0.4,3-1c0.4-0.2,0.8-0.4,1.1-0.7c0.5-0.3,0.9-0.6,1.3-0.9c0.5-0.6,1-1.2,1.4-1.9
		c0.2-0.3,0.3-0.7,0.2-1c0-0.2-0.1-0.5-0.2-0.7c-0.1-0.3-0.2-0.6-0.3-0.9c-0.3-0.8-1-1.4-1.8-1.7c-0.6-0.2-1.2-0.2-1.8-0.2
		c-0.4,0-0.7,0.1-1,0.3c-0.5,0.3-0.9,0.6-1.3,0.9l-1.1,1c-0.7,0.6-1.2,1.4-1.6,2.2c-0.2,0.5-0.4,0.9-0.7,1.3
		c-0.4,0.7-0.7,1.5-0.9,2.3c0,0.2-0.1,0.4-0.1,0.5c-0.2,0.6-0.2,1.3-0.2,2c0,0.1,0,0.3,0,0.4C407.5,568.9,408.4,570.4,409.8,571.2z
		 M411.7,562c0.1-0.2,0.3-0.4,0.5-0.6c0.6-0.6,1.1-1.2,1.7-1.8c0.3-0.2,0.5-0.4,0.8-0.6c0.2-0.1,0.3-0.1,0.5-0.2
		c0.1,0,0.3,0.1,0.3,0.3c0,0.1,0,0.2,0,0.3c-0.1,0.6-0.5,1.1-1,1.5c-0.7,0.5-1.5,0.9-2.2,1.4c-0.1,0.1-0.2,0.1-0.3,0.1h0
		c-0.2,0-0.3-0.1-0.3-0.2C411.6,562.1,411.7,562.1,411.7,562z"/>
	<path class="st0" d="M399.8,555.5c0,0,0.1,0,0.1,0c0.4-0.1,0.7-0.6,0.6-1.1c-0.4-1.1-1.3-1.8-2.4-1.9h-0.3c-0.5,0-0.8,0.4-0.8,0.9
		c0,0.2,0,0.4,0,0.7c0,0.5,0.2,1,0.6,1.2c0.4,0.3,0.9,0.4,1.4,0.4l0,0C399.1,555.6,399.5,555.6,399.8,555.5z"/>
	<path class="st0" d="M333.7,573c0.4-0.1,0.8-0.4,1-0.8c0.1-0.3-0.1-0.5-0.3-0.9c-0.2-0.3-0.4-0.6-0.6-0.9c-0.2-0.3-0.5-0.4-0.8-0.5
		c-0.3,0-0.5-0.1-0.8-0.1c-0.1,0-0.1,0-0.2,0c-0.5,0.1-0.9,0.6-0.8,1.1c0.1,0.5,0.3,1,0.6,1.4c0.3,0.5,0.8,0.7,1.4,0.7v0
		C333.3,573.1,333.5,573.1,333.7,573z"/>
	<path class="st0" d="M107,383h33.6c11.4,0,17.7-4.8,17.7-13.5v-24.3c0-10.3-3.2-14.7-11.9-16.4l-11.2-2.2v-0.9
		c0-0.9,0.7-1.1,1.2-1.1h17.5c0,0,0.1,0,0.1,0c1.5,0,2.8-1.2,2.8-2.7v-21.2c0,0,0-0.1,0-0.1c-0.1-1.5-1.4-2.7-2.9-2.6h-32
		c-11.4,0-17.7,4.8-17.7,13.6v24c0,9.5,1.8,14.6,11.9,16.4l11.1,2v1.2c0,0.9-0.7,1.1-1.2,1.1H107c-0.1,0-0.2,0-0.3,0
		c-1.5,0-2.6,1.2-2.6,2.7v21.2c0,0.1,0,0.2,0,0.3C104.2,382,105.5,383.1,107,383z M105.8,359.1c0-0.9,0.7-1.1,1.2-1.1l18.8-0.1
		c0.1,0,0.2,0,0.3,0c1.5,0,2.6-1.3,2.6-2.8v-2.6l-12.5-2.3c-7.3-1.3-10.6-3.8-10.6-14.8v-24c0-9.9,8.7-12,16-12h32c0,0,0.1,0,0.1,0
		c0.6,0,1.1,0.5,1.1,1.1v21.2c0,0,0,0.1,0,0.1c-0.1,0.6-0.6,1-1.2,1h-17.4c-0.1,0-0.2,0-0.3,0c-1.5,0-2.6,1.3-2.6,2.7v2.2l12.6,2.4
		c7.9,1.5,10.6,5.3,10.6,14.8v24.3c0,9.9-8.7,12-16,12H107c-0.5,0-1.2-0.2-1.2-1.1V359.1z"/>
	<path class="st0" d="M218.9,383c1.4-0.1,2.5-1.3,2.5-2.7v-54c0-8.8-5.8-13.6-16.2-13.6h-38.2c-0.1,0-0.2,0-0.2,0
		c-1.5,0.1-2.6,1.3-2.5,2.7v18.3c0,0.1,0,0.2,0,0.2c0.1,1.5,1.3,2.6,2.7,2.5h25.9v1.3c0,0.1,0,0.1,0,0.2c-0.1,0.5-0.5,1-1.1,0.9
		h-14.5c-10.4,0-16.2,4.8-16.2,13.6v16.9c0,8.8,5.7,13.6,16.2,13.6H192c0.1,0,0.2,0,0.2,0c1.5-0.1,2.6-1.3,2.5-2.8v-1.7
		c2.3,2.9,6,4.4,10.9,4.4h12.9C218.7,383,218.8,383,218.9,383z M194.7,375.2l-1.6,0.4v4.7c0,0.1,0,0.1,0,0.2c-0.1,0.5-0.5,1-1.1,0.9
		h-14.7c-6.6,0-14.5-2.1-14.5-12v-16.9c0-9.9,7.9-12,14.5-12h14.5c0.1,0,0.2,0,0.2,0c1.5-0.1,2.6-1.3,2.5-2.8v-3h-27.6
		c-0.1,0-0.1,0-0.2,0c-0.5-0.1-1-0.5-0.9-1.1v-18.3c0-0.1,0-0.1,0-0.2c0.1-0.5,0.5-1,1.1-0.9h38.2c6.6,0,14.5,2.1,14.5,12v54
		c0,0.8-0.3,1.1-1.1,1.1h-12.9C200.1,381.3,196.4,379.3,194.7,375.2z"/>
	<path class="st0" d="M190.4,354c-1.5,0.1-2.6,1.3-2.5,2.7v2c0,0.1,0,0.1,0,0.2c0.1,1.5,1.3,2.6,2.7,2.5h1.4c0.1,0,0.2,0,0.2,0
		c1.5-0.1,2.6-1.3,2.5-2.7V354h-4.2C190.5,354,190.4,354,190.4,354z M193.1,358.8c0,0.1,0,0.1,0,0.2c-0.1,0.5-0.5,1-1.1,0.9h-1.4
		c-0.1,0-0.1,0-0.2,0c-0.5-0.1-1-0.5-0.9-1.1v-2c0-0.1,0-0.1,0-0.2c0.1-0.5,0.5-1,1.1-0.9h2.5V358.8z"/>
	<path class="st0" d="M252.6,325.5c0.1-0.5,0.5-1,1.1-0.9h4.4c0.1,0,0.2,0,0.2,0c1.4-0.1,2.6-1.3,2.5-2.7v-21.2c0-0.1,0-0.2,0-0.3
		c-0.1-1.4-1.3-2.6-2.7-2.5h-17.7c-10.4,0-16.2,4.8-16.2,13.6v68.8c0,0.1,0,0.2,0,0.2c0.1,1.5,1.3,2.6,2.8,2.5h22.9
		c0.1,0,0.1,0,0.2,0c1.5-0.1,2.6-1.3,2.5-2.7v-29.4c0-0.1,0-0.1,0-0.2c0.1-0.5,0.5-1,1.1-0.9h4.4c0.1,0,0.2,0,0.3,0
		c1.4-0.1,2.6-1.3,2.5-2.7v-17.3c0-0.1,0-0.2,0-0.2c-0.1-1.4-1.3-2.6-2.7-2.5h-5.4v-1.4C252.6,325.6,252.6,325.5,252.6,325.5z
		 M258.1,328.7c0.1,0,0.1,0,0.2,0c0.5,0.1,1,0.5,0.9,1.1V347c0,0.1,0,0.1,0,0.2c-0.1,0.5-0.5,1-1.1,0.9h-4.4c-0.1,0-0.2,0-0.2,0
		c-1.5,0.1-2.6,1.3-2.5,2.8v29.4c0,0.1,0,0.1,0,0.2c-0.1,0.5-0.5,1-1.1,0.9H227c-0.1,0-0.1,0-0.2,0c-0.5-0.1-1-0.5-0.9-1.1v-68.8
		c0-9.9,7.9-12,14.5-12l17.6,0c0.1,0,0.1,0,0.2,0c0.5,0.1,0.9,0.5,0.9,1.1v21.2c0,0.1,0,0.1,0,0.2c-0.1,0.5-0.5,1-1.1,0.9h-4.4
		c-0.1,0-0.2,0-0.3,0c-1.4,0.1-2.6,1.3-2.5,2.7v3H258.1z"/>
	<path class="st0" d="M279,383h39.7c0.1,0,0.1,0,0.2,0c1.5-0.1,2.6-1.3,2.5-2.7V362c0-0.1,0-0.1,0-0.2c-0.1-1.5-1.3-2.6-2.7-2.5
		h-27.4v-1.4c0-0.1,0-0.1,0-0.2c0.1-0.5,0.5-1,1.1-0.9h27.9c0.1,0,0.2,0,0.2,0c1.5-0.1,2.6-1.3,2.5-2.8v-27.8
		c0-8.8-5.8-13.6-16.2-13.6H279c-10.4,0-16.2,4.8-16.2,13.6v43.1C262.8,378.2,268.6,383,279,383z M264.5,326.3c0-9.9,7.9-12,14.5-12
		l27.9,0c6.6,0,14.5,2.1,14.5,12v27.8c0,0.1,0,0.1,0,0.2c-0.1,0.5-0.5,1-1.1,0.9h-27.9c-0.1,0-0.2,0-0.2,0c-1.5,0.1-2.6,1.3-2.5,2.8
		v3h29.1c0.1,0,0.1,0,0.2,0c0.5,0.1,1,0.5,0.9,1.1v18.3c0,0.1,0,0.1,0,0.2c-0.1,0.5-0.5,1-1.1,0.9H279c-6.6,0-14.5-2.1-14.5-12
		V326.3z"/>
	<path class="st0" d="M293.7,341.7c0.1,0,0.2,0,0.3,0c1.4-0.1,2.6-1.3,2.5-2.8v-2c0-0.1,0-0.2,0-0.2c-0.1-1.5-1.3-2.6-2.8-2.5h-1.4
		c-0.1,0-0.2,0-0.2,0c-1.5,0.1-2.6,1.3-2.5,2.7v4.8H293.7L293.7,341.7z M291.2,337c0-0.1,0-0.1,0-0.2c0.1-0.5,0.5-1,1.1-0.9h1.4
		c0.1,0,0.1,0,0.2,0c0.5,0.1,1,0.5,0.9,1.1v2c0,0.1,0,0.1,0,0.2c-0.1,0.5-0.5,1-1.1,0.9h-2.5V337z"/>
	<path class="st0" d="M358.5,324.7h17.4c0,0,0.1,0,0.1,0c1.5,0,2.8-1.2,2.8-2.7v-21.2c0,0,0-0.1,0-0.1c-0.1-1.5-1.4-2.7-2.9-2.6h-32
		c-11.4,0-17.7,4.8-17.7,13.6v24c0,9.5,1.9,14.6,11.9,16.4l11.1,2v1.2c0,0.9-0.7,1.1-1.2,1.1h-18.9c-0.1,0-0.2,0-0.3,0
		c-1.5,0-2.6,1.3-2.6,2.7v21.2c0,0.1,0,0.2,0,0.3c0.1,1.5,1.4,2.6,2.9,2.4h33.6c11.4,0,17.7-4.8,17.7-13.5v-24.3
		c0-10.3-3.2-14.7-11.9-16.4l-11.2-2.2v-0.9C357.3,324.9,358,324.7,358.5,324.7z"/>
	<path class="st0" d="M427.7,312.7h-27.9c-10.4,0-16.2,4.8-16.2,13.6v43.1c0,8.8,5.7,13.6,16.2,13.6h39.8c0.1,0,0.1,0,0.2,0
		c1.5-0.1,2.6-1.3,2.5-2.7V362c0-0.1,0-0.2,0-0.2c-0.1-1.5-1.3-2.6-2.7-2.5h-27.4v-1.4c0-0.1,0-0.1,0-0.2c0.1-0.5,0.5-1,1.1-0.9
		h27.9c0.1,0,0.2,0,0.2,0c1.5-0.1,2.6-1.3,2.5-2.8v-27.8C443.9,317.5,438.1,312.7,427.7,312.7z M415.6,336.9v2c0,0.1,0,0.1,0,0.2
		c-0.1,0.5-0.5,1-1.1,0.9H412v-3.1c0-0.1,0-0.1,0-0.2c0.1-0.5,0.5-1,1.1-0.9h1.4c0.1,0,0.1,0,0.2,0
		C415.3,335.9,415.7,336.4,415.6,336.9z"/>
	<path class="st0" d="M482.2,312.7h-5.9c-0.1,0-0.1,0-0.2,0c-0.5-0.1-1-0.5-0.9-1.1v-10.7c0-0.1,0-0.2,0-0.2
		c-0.1-1.5-1.3-2.6-2.8-2.5h-22.9c-0.1,0-0.2,0-0.2,0c-1.5,0.1-2.6,1.3-2.5,2.8v68.5c0,8.8,5.8,13.6,16.2,13.6h19.2
		c0.1,0,0.1,0,0.2,0c1.5-0.1,2.6-1.3,2.5-2.7V359c0-0.1,0-0.2,0-0.3c-0.1-1.4-1.3-2.6-2.7-2.5h-5.9c-0.1,0-0.1,0-0.2,0
		c-0.5-0.1-0.9-0.5-0.9-1.1v-15.7h7c0.1,0,0.2,0,0.3,0c1.4-0.1,2.6-1.3,2.5-2.7v-21.4c0-0.1,0-0.2,0-0.2
		C484.9,313.7,483.6,312.6,482.2,312.7z"/>
	<path class="st0" d="M127.9,403.1v22h22l0-21c0.6-0.5,1.2-1,1.7-1.4l-0.5-0.8c-0.7,0.3-1.3,0.7-2,1.2H127.9z M130.1,422.8v-17.6
		h16.2l-1,1c-3.1,3-5.9,6.3-8.2,9.9l-0.5-1c-0.9-2.1-1.8-3.1-2.5-3.1c-1.2,0.1-2.3,0.8-3,1.7c0.7,0.2,1.3,0.7,1.7,1.3
		c0.7,1,1.2,2,1.7,3.1l0.4,1c0.3,0.7,0.6,1.5,0.8,2.3c0.6-0.5,1.2-1,1.9-1.4l1.1-0.7c1.2-2.3,2.5-4.5,4-6.6c1.5-2.2,3.2-4.3,5-6.3
		l0,16.5H130.1z"/>
	<path class="st0" d="M171.8,424.2c-0.7,0.2-1.3,0.2-2,0.2v0.7h9.2v-0.7c-0.5,0-1,0-1.5-0.2c-0.4-0.1-0.7-0.3-0.9-0.6
		c-0.3-0.4-0.5-0.9-0.7-1.4l-7.2-22.1h-1.5l-7,22.1c-0.1,0.5-0.4,1-0.7,1.5c-0.2,0.3-0.5,0.5-0.9,0.6c-0.5,0.1-1,0.2-1.5,0.2v0.7
		h6.7v-0.7c-0.7,0-1.3,0-2-0.2c-0.4-0.1-0.6-0.3-0.6-0.6c0-0.5,0.1-1,0.3-1.5l1.4-4.4h7.8l1.4,4.5c0.2,0.5,0.3,0.9,0.3,1.4
		C172.3,423.9,172.1,424.2,171.8,424.2z M163.2,416.4l3.4-10.8h0.1l3.5,10.8H163.2z"/>
	<path class="st0" d="M183.6,423.4c0.4,0.7,1,1.3,1.7,1.8c0.7,0.4,1.4,0.6,2.2,0.6c1.1,0,2.2-0.5,3-1.3c1-1,1.7-2.2,2.1-3.5
		c0.5-1.6,0.8-3.2,0.7-4.9c0.1-1.9-0.3-3.8-1.2-5.5c-0.6-1.4-2-2.2-3.5-2.2c-1,0-1.9,0.3-2.7,0.9c-0.9,0.7-1.7,1.6-2.2,2.6l-0.1,0
		v-3.1l-0.4-0.4l-2.2,1.1l-2.3,1l0.3,0.6c0.4-0.2,0.8-0.3,1.2-0.4c0.2,0,0.4,0.1,0.4,0.4c0.1,0.5,0.1,0.9,0.1,1.4v16.1
		c0,0.5,0,1-0.2,1.5c-0.1,0.3-0.3,0.6-0.6,0.7c-0.4,0.2-0.9,0.2-1.4,0.2v0.7h7.2v-0.7c-0.5,0-0.9,0-1.4-0.2
		c-0.3-0.1-0.5-0.4-0.6-0.7c-0.1-0.5-0.2-1-0.2-1.5L183.6,423.4L183.6,423.4z M183.6,413.2c0.4-0.8,1-1.5,1.7-2.1
		c0.6-0.5,1.3-0.8,2.1-0.8c1,0,1.8,0.7,2,1.7c0.5,1.7,0.7,3.4,0.6,5.1c0,1.8-0.2,3.6-0.7,5.3c-0.5,1.4-1.3,2.1-2.4,2.1
		c-1,0-1.9-0.6-2.4-1.5c-0.7-1.2-1-2.6-0.9-4L183.6,413.2z"/>
	<path class="st0" d="M199.2,423.4c0.4,0.7,1,1.3,1.7,1.8c0.7,0.4,1.4,0.6,2.2,0.6c1.1,0,2.2-0.5,3-1.3c1-1,1.7-2.2,2.1-3.5
		c0.5-1.6,0.7-3.2,0.7-4.9c0.1-1.9-0.3-3.8-1.2-5.5c-0.6-1.4-2-2.2-3.5-2.2c-1,0-1.9,0.3-2.7,0.9c-0.9,0.7-1.7,1.6-2.2,2.6l-0.1,0
		v-3.1l-0.4-0.4l-2.2,1.1l-2.2,1l0.3,0.6c0.4-0.2,0.8-0.3,1.2-0.4c0.2,0,0.3,0.1,0.4,0.4c0.1,0.5,0.1,0.9,0.1,1.4v16.1
		c0,0.5,0,1-0.2,1.5c-0.1,0.3-0.3,0.6-0.6,0.7c-0.4,0.2-0.9,0.2-1.4,0.2v0.7h7.2v-0.7c-0.5,0-0.9,0-1.4-0.2
		c-0.3-0.1-0.5-0.4-0.6-0.7c-0.1-0.5-0.2-1-0.2-1.5L199.2,423.4L199.2,423.4z M199.2,413.2c0.5-0.8,1-1.5,1.7-2.1
		c0.6-0.5,1.3-0.8,2.1-0.8c1,0,1.8,0.7,2.1,1.7c0.5,1.7,0.7,3.4,0.6,5.1c0,1.8-0.2,3.6-0.7,5.3c-0.5,1.4-1.3,2.1-2.4,2.1
		c-1,0-1.9-0.6-2.4-1.5c-0.7-1.2-1.1-2.6-1-4L199.2,413.2z"/>
	<path class="st0" d="M216.5,411.3c0.3-0.4,0.8-0.6,1.2-0.6c0.1,0,0.3,0,0.4,0.1c0.1,0.1,0.2,0.2,0.3,0.4c0.1,0.3,0.3,0.5,0.6,0.6
		c0.3,0.2,0.6,0.2,0.9,0.2v0c0.4,0,0.9-0.1,1.2-0.5c0.3-0.3,0.4-0.8,0.4-1.2c0-0.5-0.2-1-0.6-1.3c-0.5-0.4-1-0.5-1.6-0.5
		c-0.9,0-1.7,0.3-2.3,0.9c-0.7,0.6-1.3,1.4-1.7,2.2h-0.1v-2.7l-0.4-0.4l-2.2,1.1l-2.3,1.1l0.3,0.6c0.4-0.2,0.8-0.3,1.2-0.4
		c0.2,0,0.4,0.2,0.4,0.4c0.1,0.5,0.1,0.9,0.1,1.4v0.2l0,9.2c0,0.5,0,1-0.1,1.5c-0.1,0.3-0.3,0.6-0.6,0.7c-0.5,0.2-0.9,0.2-1.4,0.2
		v0.7h8.3v-0.7c-0.7,0-1.4,0-2.1-0.2c-0.4-0.1-0.7-0.3-0.9-0.7c-0.2-0.5-0.3-1-0.2-1.5v-8.7C215.5,412.6,215.9,411.9,216.5,411.3z"
		/>
	<path class="st0" d="M225.4,424.6c1.1,0.8,2.3,1.2,3.7,1.1c1.3,0,2.6-0.4,3.6-1.1c1.1-0.8,1.9-1.9,2.4-3.1c1.1-2.9,1.1-6,0-8.9
		c-0.5-1.2-1.3-2.3-2.4-3.1c-1.1-0.8-2.3-1.2-3.6-1.1c-1.3,0-2.6,0.4-3.7,1.1c-1.1,0.8-1.9,1.9-2.4,3.1c-1.1,2.9-1.1,6,0,8.9
		C223.5,422.8,224.3,423.8,225.4,424.6z M225.5,413.3c0.1-0.9,0.5-1.8,1-2.5c0,0,0,0,0,0c1-1.2,2.7-1.3,3.9-0.3
		c0.7,0.7,1.1,1.5,1.4,2.4c0.4,1.3,0.7,2.7,0.8,4c0.1,1.4,0.1,2.8-0.1,4.1c-0.1,0.9-0.5,1.8-1,2.5c-0.5,0.6-1.1,0.9-1.9,1
		c-0.8,0.1-1.5-0.2-2.1-0.7c-0.7-0.7-1.1-1.5-1.4-2.3c-0.4-1.3-0.7-2.6-0.8-4C225.3,416.1,225.4,414.7,225.5,413.3z"/>
	<path class="st0" d="M245.4,409.8c0.4,0,0.9,0,1.3,0.2c0.2,0.1,0.4,0.4,0.3,0.6c-0.1,0.5-0.2,1-0.3,1.5l-2.5,8.9h-0.1l-2.5-8.8
		c-0.1-0.5-0.3-1-0.3-1.5c0-0.2,0.1-0.5,0.3-0.6c0.4-0.2,0.8-0.2,1.2-0.2v-0.7h-6.9v0.7c0.4,0,0.7,0.1,1.1,0.2
		c0.3,0.1,0.5,0.4,0.7,0.6c0.3,0.4,0.4,0.9,0.5,1.4l4.1,13.8h1.8l3.9-13.8c0.1-0.5,0.3-1,0.6-1.4c0.2-0.3,0.4-0.5,0.7-0.7
		c0.3-0.1,0.7-0.2,1.1-0.2V409h-5V409.8z"/>
	<path class="st0" d="M259.3,422.4c-0.5,0.7-1.3,1.1-2.2,1.1c-0.8,0-1.5-0.3-2-0.9c-0.6-0.7-1-1.6-1.2-2.5c-0.3-1.2-0.4-2.5-0.4-3.7
		c0-0.1,0-0.1,0-0.2h8c0-1.4-0.2-2.7-0.6-4c-0.3-1.1-0.9-2-1.7-2.8c-0.8-0.7-1.8-1-2.9-1c-1.2,0-2.3,0.4-3.1,1.2
		c-0.9,0.9-1.6,2-2,3.2c-0.5,1.4-0.7,2.9-0.7,4.4c0,1.5,0.2,3.1,0.7,4.5c0.3,1.2,1,2.2,1.9,3c0.8,0.7,1.9,1,3,1
		c1.4,0,2.7-0.7,3.6-1.8c1.1-1.5,1.7-3.3,1.9-5.2h-0.7C260.6,420.1,260,421.3,259.3,422.4z M254.6,410.6c0.4-0.5,1-0.9,1.6-0.8
		c0.6,0,1.1,0.2,1.4,0.7c0.4,0.5,0.6,1.2,0.8,1.8c0.2,0.9,0.2,1.8,0.2,2.8h-5.1c0-0.7,0.1-1.4,0.2-2.2
		C253.9,412,254.2,411.3,254.6,410.6z"/>
	<path class="st0" d="M274,425.7l2.2-1.1l2.2-1l-0.3-0.6c-0.4,0.2-0.8,0.3-1.2,0.3c-0.2,0-0.4-0.2-0.4-0.4c-0.1-0.5-0.1-0.9-0.1-1.4
		v-21l-0.4-0.4l-2.2,1.1l-2.2,1l0.3,0.6c0.4-0.2,0.7-0.3,1.1-0.3c0.2,0,0.4,0.2,0.4,0.4c0.1,0.5,0.1,0.9,0.1,1.4v0.2v5.9h-0.1
		c-0.4-0.6-0.9-1-1.5-1.4c-0.6-0.4-1.4-0.6-2.1-0.6c-1.2,0-2.4,0.4-3.3,1.2c-1,0.9-1.7,2-2.1,3.3c-0.5,1.5-0.8,3.2-0.7,4.8
		c0,1.4,0.2,2.9,0.7,4.2c0.4,1.1,1,2,1.8,2.8c0.8,0.7,1.8,1,2.8,1c0.9,0,1.7-0.3,2.4-0.8c0.8-0.6,1.5-1.4,2-2.3l0.1,0v2.6L274,425.7
		z M273.6,421.3v-3V421.3C273.6,421.3,273.6,421.3,273.6,421.3z M273.6,421.4c-0.3,0.5-0.6,0.9-1,1.4c-0.3,0.3-0.6,0.6-1,0.9
		c-0.4,0.2-0.8,0.4-1.3,0.4c-1.1,0-2.1-0.8-2.4-2c-0.6-1.7-0.8-3.4-0.8-5.2c-0.1-1.7,0.2-3.5,0.8-5.1c0.3-1.2,1.4-2,2.6-2
		c1,0,1.8,0.6,2.2,1.5c0.6,1.3,0.9,2.7,0.9,4.1L273.6,421.4C273.6,421.3,273.6,421.4,273.6,421.4z"/>
	<path class="st0" d="M455.8,429H345c0.4-0.8,0.8-1.6,1.1-2.5c0.1-0.2,0.1-0.4,0.2-0.6c0.3-0.7,0.5-1.4,0.7-2.2
		c0.2-0.7,0.4-1.4,0.7-2c0.3-0.6,0.5-0.8,1.3-0.6c0.7,0.2,1.4,0.3,2.1,0.3l0-0.1c0.6,0,1.3,0,1.9-0.2c1.4-0.3,2.8-0.9,4.1-1.6
		c0.4-0.3,0.8-0.6,1.2-0.8c0.9-0.6,1.7-1.3,2.5-2.1c0.9-1,1.8-2.1,2.7-3.2c0.1-0.1,0.2-0.3,0.3-0.4c0.4-0.5,0.7-1,1.1-1.5
		c0.8-1,1.5-2.2,2.2-3.3c0.3-0.6,0.7-1.3,1-1.9c0.5-0.9,0.8-1.8,1.2-2.7c0.2-0.3,0.2-0.6,0.3-0.9c0-0.4,0.1-0.9,0.2-1.3
		c0.1-0.5,0-1-0.3-1.4c-0.1-0.2-0.3-0.3-0.4-0.5c-0.2-0.3-0.6-0.5-0.9-0.6c-0.5-0.2-1.1-0.3-1.7-0.1c-0.6,0.2-1.3,0.4-1.8,0.8
		c-0.8,0.5-1.6,1-2.4,1.5c-1,0.7-1.9,1.5-2.9,2.2c-0.4,0.3-0.7,0.6-1.1,0.9c-0.4,0.2-0.8,0.5-1.1,0.9c-1.1,1.1-2.3,2-3.3,3.1l-1,1
		c-0.1,0.1-0.1,0.1-0.2,0.2c0,0-0.1,0-0.1,0c0,0-0.1-0.1-0.1-0.1c0-0.1,0-0.1,0.1-0.2c0.5-0.8,1-1.6,1.5-2.3c0.5-0.7,1-1.4,1.6-2.1
		c0.2-0.3,0.4-0.5,0.7-0.7c0.2-0.1,0.4-0.3,0.5-0.5c0.2-0.2,0.2-0.6,0-0.8c-0.3-0.7-1-1.1-1.7-1.2c-0.3,0-0.6,0.1-0.7,0.3
		c-0.1,0.1-0.1,0.2-0.1,0.2c-0.4,0.7-0.8,1.3-1.3,1.9c-0.3,0.3-0.5,0.6-0.7,0.9c-0.8,1.3-1.7,2.6-2.5,3.9c-0.6,0.9-1.1,1.9-1.6,2.9
		c-0.9,1.9-1.8,3.8-2.8,5.7c-0.6,1.2-1.2,2.4-1.6,3.7c-0.3,0.7-0.5,1.3-0.7,2c-0.3,1-0.4,2.1-0.5,3.2c0,0.4,0,0.8-0.1,1.2
		c-0.1,0.4-0.1,0.8,0,1.2c0,0.2,0.1,0.4,0.2,0.5h-23.3c0.4-0.3,0.9-0.7,1.3-1.1c0.7-0.7,1.2-1.4,1.8-2.2c0.8-1,1.6-2.1,2.3-3.2
		c0.2-0.3,0.5-0.6,0.7-0.9l2.7-3.7c0.6-0.9,1.2-1.7,1.8-2.6c0.2-0.4,0.5-0.7,0.7-1s0.4-0.7,0.7-1c0.3-0.3,0.5-0.7,0.7-1.1
		c0.1-0.5,0.6-0.5,0.8-0.9c0.1-0.2,0.2-0.4,0.3-0.6c0.1-0.2,0.2-0.4,0.4-0.5c0.4-0.4,0.7-0.9,1-1.4c0.5-0.7,1.1-1.5,1.6-2.1
		c0.4-0.6,1-1.2,1.4-1.7s0.8-0.8,1.2-1.2c1-1.1,2.1-2.1,3.3-3l0.2-0.2c0.1-0.1,0.2-0.3,0.1-0.5c-0.1-0.2-0.2-0.3-0.3-0.4
		c-0.3-0.2-0.7-0.4-1-0.6c-0.3-0.2-0.6-0.1-0.9,0.1c-0.2,0.2-0.5,0.4-0.7,0.6c-0.7,0.7-1.4,1.4-2,2.1c-0.7,0.6-1.2,1.3-1.7,2
		c-0.1,0.2-0.3,0.4-0.5,0.6c-0.2,0.2-0.4,0.4-0.5,0.6c-1.2,1.7-2.5,3.3-3.6,5c-0.6,0.9-1.2,1.7-1.9,2.7c-0.7,1-1.5,1.9-2.2,2.9
		l-3.9,5.4c-0.9,1.2-1.8,2.5-2.8,3.7c-0.5,0.6-1.1,1.2-1.8,1.7c-0.2,0.2-0.4,0.3-0.7,0.4c0,0,0,0,0,0c-0.2,0.1-0.4-0.1-0.5-0.3
		c-0.2-0.7-0.2-1.4-0.2-2.1c0-0.2,0.1-0.4,0.1-0.7c0.1-1.1,0.2-2.1,0.4-3.2c0-0.2,0.1-0.5,0.2-0.7c0.1-0.3,0.1-0.6,0.1-0.8
		c-0.1-0.3,0-0.6,0.2-0.9c0.1-0.1,0.1-0.2,0.1-0.3c0.4-1.1,0.7-2.2,1-3.4c0.1-0.4,0.2-0.7,0.3-1.1c0-0.4,0.2-0.7,0.4-1.1
		c0.3-0.5,0.5-1.1,0.7-1.7c0.2-0.7,0.5-1.3,0.8-1.9c0.3-0.5,0.5-1,0.8-1.5c0.4-1,1-1.9,1.7-2.7c0.1-0.1,0.1-0.1,0.2-0.2
		c0.2-0.2,0.2-0.6,0-0.8c-0.2-0.2-0.3-0.3-0.5-0.5c-0.2-0.2-0.5-0.3-0.8-0.3c-0.3-0.1-0.7,0-0.8,0.3c-0.2,0.4-0.5,0.7-0.7,1.1
		c-0.4,0.6-0.7,1.1-1,1.7c-0.2,0.3-0.3,0.6-0.4,0.9c-0.2,0.5-0.4,1.1-0.7,1.7c-0.8,1.6-1.4,3.2-1.9,4.8c-0.3,0.9-0.6,1.8-0.7,2.7
		c0,0.1-0.1,0.2-0.1,0.4c-0.3,0.8-0.5,1.6-0.6,2.5c0,0.2-0.1,0.4-0.1,0.6c-0.1,0.4-0.2,0.9-0.2,1.3c-0.1,0.5-0.1,1.1-0.2,1.6
		c-0.1,0.8-0.2,1.6-0.2,2.4l0,0c0,0.5,0,0.9,0,1.2c0,0.9,0.2,1.7,0.6,2.5c0.1,0.3,0.3,0.5,0.4,0.6h-34.4v1.5h174.4V429z
		 M349.5,417.8l0.6-1.1c0.1-0.2,0.2-0.3,0.3-0.5l0.7-1c0.2-0.4,0.5-0.8,0.7-1.1c1.1-1.5,2.4-2.9,3.7-4.3c0.4-0.4,0.5-0.7,1.1-1.2
		s1-1,1.5-1.5c0.8-0.8,1.6-1.6,2.4-2.4c0.1-0.1,0.3-0.3,0.4-0.4c0.5-0.3,1-0.7,1.4-1.1c0.2-0.2,0.5-0.4,0.8-0.5
		c0.6-0.3,1.2-0.6,1.8-1c0.6-0.4,1.2-0.7,1.8-1c0.1,0,0.1,0,0.2-0.1c0,0,0.1,0,0.1,0c0.2,0,0.4,0.1,0.4,0.3c0,0.6-0.1,1.3-0.3,1.8
		c-0.3,0.8-0.7,1.5-1,2.2c-0.8,1.6-1.7,3.1-2.7,4.5c-0.6,0.9-1.3,1.6-1.9,2.5c-0.6,0.8-1.2,1.6-1.9,2.3c-1.1,1.1-2.4,2.2-3.7,3
		c-1.2,0.7-2.4,1.2-3.6,1.6c-0.5,0.1-1,0.2-1.5,0.2l0,0c-0.4,0.1-0.9,0-1.3-0.1c-0.2-0.1-0.2-0.2-0.2-0.4
		C349.3,418.3,349.4,418,349.5,417.8z"/>
	<path class="st0" d="M396.3,397.9c-0.9-1.5-2.8-1.9-4.2-1c-0.6,0.4-1.2,0.8-1.8,1.3c-1.3,1.1-2.5,2.4-3.5,3.8
		c-0.4,0.6-0.9,1.2-1.3,1.9c-0.5,0.8-0.9,1.6-1.3,2.5c-0.6,1.1-1.1,2.2-1.6,3.3c-0.2,0.5-0.6,0.8-1,1c-0.7,0.3-1.4,0.6-2.1,0.8
		c-1.8,0.6-3.8,0.4-5.4-0.6c-0.5-0.3-1-0.5-1.5-0.6c-0.4-0.1-0.8,0-1.2,0.2c-0.8,0.4-1.6,1-2.3,1.6c-0.6,0.6-1.2,1.3-1.8,2.1
		c-0.4,0.5-0.8,1-1.1,1.5c-0.7,1.1-1.2,2.2-1.5,3.5c-0.2,0.8-0.3,1.6-0.1,2.4c0.2,0.8,0.6,1.4,1.3,1.7c0.7,0.3,1.4,0.5,2.1,0.5
		c0.3,0,0.7,0,1-0.1c0.6-0.2,1.1-0.5,1.6-0.8c1-0.7,1.9-1.6,2.8-2.6c0.6-0.7,1.1-1.5,1.5-2.4c0.4-1,0.7-1.9,1.1-2.9
		c0.1-0.2,0.1-0.3,0.2-0.5c0.1-0.2,0.2-0.3,0.4-0.3c0.1,0,0.3,0,0.4,0c0.9,0.1,1.8,0,2.7-0.2c0.2,0,0.3,0,0.5-0.1c0,0,0,0,0,0
		c0.1,0,0.2,0.1,0.1,0.3c0,0.2-0.1,0.3-0.1,0.5c-0.3,0.6-0.6,1.2-0.8,1.8c-0.1,0.1-0.1,0.2-0.2,0.3c-0.7,1.4-1.2,3-1.6,4.5
		c-0.1,0.5-0.2,1.1-0.2,1.6c0,0.3,0,0.6,0,0.9c0.1,0.8,0.3,1.4,1.5,1.3c0.7,0,0.9-0.3,1-0.9c0-0.2,0-0.4,0-0.6
		c0-0.8,0.1-1.5,0.3-2.2c0.2-0.6,0.4-1.3,0.6-1.9c0.4-0.9,0.8-1.8,1.2-2.7c0.6-1.3,1.2-2.6,1.8-3.8c0.2-0.5,0.6-0.9,1.1-1.2
		c0.4-0.2,0.8-0.5,1.1-0.7c0.6-0.4,1.2-0.9,1.8-1.4c0.6-0.5,1-1.2,1.8-1.5l3.2-3.1c0.3-0.3,0.6-0.6,1-0.9c1-0.9,1.9-2,2.7-3.2
		c0.4-0.6,0.5-1.4,0.3-2.1C396.5,398.3,396.4,398.1,396.3,397.9z M373.3,414.8c-0.4,1.3-1.1,2.6-2,3.6c-0.6,0.7-1.3,1.3-2.1,1.9
		c-0.3,0.2-0.7,0.4-1.1,0.6c-0.2,0.1-0.4,0.1-0.5,0.1c-0.1,0-0.1,0-0.2,0c-0.3-0.1-0.4-0.3-0.4-0.6c0-0.2,0.1-0.5,0.2-0.7
		c0.3-1.1,0.9-2.1,1.5-3c0.1-0.2,0.3-0.4,0.4-0.6c0.7-1,1.6-1.9,2.6-2.7c0.3-0.2,0.6-0.4,0.9-0.5c0.1-0.1,0.3-0.1,0.5-0.1
		c0.2,0,0.3,0.1,0.4,0.2c0.1,0.1,0.1,0.2,0.1,0.5l0,0C373.5,414,373.4,414.4,373.3,414.8z M393.8,400.6c-0.8,1.1-1.6,2.1-2.6,3
		c-0.1,0.1-0.2,0.2-0.4,0.3c-0.4,0.2-0.8,0.4-1.1,0.8l-2.2,2c-0.1,0.1-0.3,0.2-0.4,0.4c-0.1,0.1-0.3,0.1-0.3,0c0-0.1,0-0.2,0-0.3
		c1.4-2.7,3.3-5.1,5.6-7.1c0.2-0.2,0.5-0.4,0.8-0.6c0.2-0.1,0.4-0.2,0.6-0.3c0.1,0,0.2-0.1,0.3,0c0.3,0.1,0.4,0.3,0.4,0.6l0,0
		C394.3,399.8,394.1,400.2,393.8,400.6z"/>
	<path class="st0" d="M368,423.6C368,423.6,368,423.6,368,423.6C368,423.6,368,423.7,368,423.6L368,423.6z"/>
	<path class="st0" d="M394.7,417.5c-0.9,0.8-1.9,1.4-2.9,2c-0.3,0.2-0.7,0.4-1.1,0.4c-0.2,0-0.3-0.1-0.3-0.2c0-0.3,0.1-0.7,0.2-1
		c0.3-0.9,0.7-1.8,1.2-2.7c0.5-1,1.2-1.9,1.8-2.8c0.5-0.7,1.1-1.4,1.8-1.9l0.4-0.4c0.2-0.1,0.3-0.4,0.2-0.6
		c-0.2-0.8-0.8-1.3-1.6-1.4c-0.3-0.1-0.7,0-0.9,0.3c-0.7,0.8-1.4,1.5-2,2.4c-1.3,1.8-2.4,3.8-3.3,5.9c-0.2,0.6-0.3,1.2-0.4,1.8
		c0,0.1,0,0.2,0,0.3c0.1,0.3,0.1,0.7,0.2,1c0.1,0.5,0.4,1,0.8,1.2c1.1,0.7,2.4,0.7,3.5,0.2c0.8-0.4,1.5-0.8,2.2-1.3
		c1.3-0.9,2.5-1.9,3.6-2.9c0.5-0.4,0.9-0.9,1.3-1.3c0.1-0.1,0.1-0.1,0.2-0.2c0.1,0,0.1,0,0.2,0c0,0,0.1,0.1,0.1,0.2
		c-0.1,0.2-0.1,0.4-0.2,0.5c-0.8,1.5-1.5,3.1-2,4.7c-0.4,1.1-0.6,2.2-0.6,3.4l0,0.1c0,0.2,0,0.5,0,0.7c0.2,1.1,0,1.4,1.7,1.6
		c0.3,0,0.6-0.2,0.7-0.5c0.1-0.3,0.1-0.6,0.1-0.9c0-0.4,0-0.8,0-1.1c0.2-1.3,0.6-2.6,1.1-3.8c0.4-0.9,0.8-1.7,1.2-2.6l1.3-2.7
		c0.2-0.5,0.3-0.8,0.6-1.4s0.7-1.1,1-1.7c1-1.8,2.2-3.4,3.3-5.1c0.2-0.5,0.7-0.7,1.2-0.6h0.3c0.5,0,1,0,1.5-0.1
		c0.9-0.2,1.9-0.3,2.8-0.3c0.3,0,0.5,0,0.8,0c0.2,0,0.3-0.1,0.4-0.1c0,0,0.1,0,0.1,0c0.4-0.2,0.5-0.7,0.3-1.1c0-0.1-0.1-0.2-0.1-0.2
		c-0.5-0.9-1.6-1.3-2.5-1c-0.6,0.2-1.3,0.4-1.9,0.5c-0.1,0-0.2,0-0.4,0c0,0-0.1-0.1-0.1-0.1c0.2-0.4,0.2-0.6,0.6-1
		c0.3-0.4,0.7-0.9,1-1.3c0.6-0.9,1.3-1.8,2.1-2.6c0.1-0.1,0.2-0.2,0.2-0.3c0.2-0.3,0.1-0.6-0.1-0.9l-0.6-0.5
		c-0.3-0.2-0.6-0.4-0.9-0.5c-0.3-0.1-0.6,0-0.8,0.2c-0.2,0.1-0.3,0.3-0.4,0.5c-0.3,0.6-0.6,1.2-1,1.7c-0.7,0.9-1.4,2-2,2.7
		c-0.6,0.8-1.2,1.6-1.8,2.5c-0.4,0.5-0.8,1-1.2,1.5c-0.1,0.1-0.2,0.2-0.3,0.2c-0.6,0.3-1.1,0.8-1.5,1.3c-1.4,1.5-2.7,3.1-4.1,4.7
		c-1.3,1.4-2.7,2.8-4.2,4.1C395.2,417.2,395,417.3,394.7,417.5z M393.7,419.5L393.7,419.5l-0.1-0.1h0.1L393.7,419.5L393.7,419.5z"/>
	<path class="st0" d="M410.2,417.8c0.2-0.6,0.3-0.7,0.9-0.8h0.3c1.1-0.1,2.1-0.4,3-1c0.4-0.2,0.8-0.4,1.1-0.7
		c0.5-0.3,0.9-0.6,1.3-0.9c0.5-0.6,1-1.2,1.4-1.9c0.2-0.3,0.3-0.7,0.2-1c0-0.2-0.1-0.5-0.2-0.7c-0.1-0.3-0.2-0.6-0.3-0.9
		c-0.3-0.8-1-1.4-1.8-1.7c-0.6-0.2-1.2-0.2-1.8-0.2c-0.4,0-0.7,0.1-1,0.3c-0.5,0.3-0.9,0.6-1.3,0.9c-0.4,0.3-0.7,0.7-1.1,1
		c-0.7,0.6-1.2,1.4-1.6,2.2c-0.2,0.5-0.4,0.9-0.7,1.4c-0.4,0.7-0.7,1.5-0.9,2.3c0,0.2-0.1,0.4-0.1,0.5c-0.2,0.7-0.3,1.4-0.2,2.1
		c0,0.1,0,0.2,0,0.4c0.1,1.6,1,3.1,2.4,3.9c0.6,0.3,1.3,0.5,2,0.5l0.2,0.1c0.5,0,0.9,0,1.4-0.2c0.8-0.3,1.5-0.6,2.2-1
		c1.1-0.6,2.1-1.2,3.1-1.9c0.3-0.2,0.5-0.3,0.8-0.5c0.8-0.7,1.7-1.2,2.5-1.8c0.4-0.3,0.8-0.6,1.2-0.9c0.6-0.6,1.2-1.2,1.9-1.7
		c0.4-0.3,0.8-0.7,1.2-1.1c0.4-0.4,0.7-0.8,1.1-1.1c0.2-0.2,0.3-0.3,0.5-0.5c0.2-0.2,0.2-0.4,0.1-0.6c-0.2-0.7-0.8-1.3-1.5-1.5
		c-0.2-0.1-0.3,0-0.5,0.1c-0.2,0.1-0.4,0.3-0.5,0.5c-0.2,0.3-0.5,0.6-0.8,0.8c-0.4,0.3-0.7,0.7-1.1,1c-1.1,1.1-2.3,2.1-3.6,3.1
		c-1.5,1.2-3.1,2.3-4.8,3.2c-0.8,0.5-1.6,0.9-2.5,1.3c-0.6,0.2-1.2,0.3-1.8,0.3c-0.3,0-0.5-0.1-0.7-0.3c-0.6-0.6-0.8-1.4-0.6-2.2
		L410.2,417.8z M411.7,413.7c0.1-0.2,0.3-0.4,0.5-0.6c0.6-0.6,1.1-1.2,1.7-1.8c0.3-0.2,0.5-0.4,0.8-0.6c0.2-0.1,0.3-0.1,0.5-0.2
		c0.2,0,0.3,0.1,0.3,0.3c0,0.1,0,0.2,0,0.3c-0.1,0.6-0.5,1.2-1,1.5c-0.7,0.5-1.5,0.9-2.2,1.4c-0.1,0-0.2,0.1-0.3,0.1l0,0
		c-0.2,0-0.3-0.1-0.3-0.2C411.7,413.9,411.7,413.8,411.7,413.7z"/>
	<path class="st0" d="M399.8,407.2c0,0,0.1,0,0.1,0c0.4-0.1,0.7-0.6,0.6-1.1c-0.4-1.1-1.3-1.8-2.4-1.9h-0.3c-0.5,0-0.8,0.4-0.8,0.9
		c0,0.2,0,0.4,0,0.6c0,0.5,0.2,1,0.6,1.2c0.4,0.3,0.9,0.4,1.4,0.4l0,0C399.2,407.3,399.5,407.3,399.8,407.2z"/>
	<path class="st0" d="M333.8,422.2c-0.2-0.3-0.5-0.4-0.8-0.5c-0.3,0-0.5-0.1-0.8-0.1c-0.1,0-0.1,0-0.2,0c-0.5,0.1-0.9,0.6-0.8,1.1
		c0.1,0.5,0.3,1,0.6,1.4c0.3,0.5,0.8,0.7,1.4,0.7c0.2,0,0.4,0,0.5-0.1c0.4-0.1,0.8-0.4,1-0.8c0.1-0.4-0.1-0.6-0.3-0.9
		C334.2,422.8,334,422.5,333.8,422.2z"/>
	<path class="st0" d="M107,234.8h33.6c11.4,0,17.7-4.8,17.7-13.5v-24.3c0-10.3-3.2-14.7-11.9-16.4l-11.2-2.2v-0.9
		c0-0.9,0.7-1.1,1.2-1.1h17.5c0,0,0.1,0,0.1,0c1.5,0,2.8-1.2,2.8-2.7v-21.2c0,0,0-0.1,0-0.1c-0.1-1.5-1.4-2.7-2.9-2.6h-32
		c-11.4,0-17.7,4.8-17.7,13.6v24c0,9.5,1.8,14.6,11.9,16.4l11.1,2v1.2c0,0.9-0.7,1.1-1.2,1.1H107c-0.1,0-0.2,0-0.3,0
		c-1.5,0-2.6,1.3-2.6,2.7V232c0,0.1,0,0.2,0,0.3C104.3,233.8,105.5,234.9,107,234.8z M105.8,210.8c0-0.9,0.7-1.1,1.2-1.1l18.8,0
		c0.1,0,0.2,0,0.3,0c1.5,0,2.6-1.3,2.6-2.7v-2.7l-12.5-2.3c-7.3-1.3-10.6-3.8-10.6-14.8v-24c0-9.9,8.7-12,16-12h32c0,0,0.1,0,0.1,0
		c0.6,0,1.1,0.5,1.1,1.1v21.2c0,0,0,0.1,0,0.1c-0.1,0.6-0.6,1-1.2,1h-17.4c-0.1,0-0.2,0-0.3,0c-1.5,0-2.6,1.3-2.6,2.7v2.2l12.6,2.4
		c7.9,1.5,10.6,5.3,10.6,14.8v24.3c0,9.9-8.7,12-16,12H107c-0.5,0-1.2-0.2-1.2-1.1V210.8z"/>
	<path class="st0" d="M177.3,234.8H192c0.1,0,0.2,0,0.2,0c1.5-0.1,2.6-1.3,2.5-2.8v-1.7c2.3,2.9,6,4.4,10.9,4.4h12.9
		c0.1,0,0.2,0,0.3,0c1.4-0.1,2.5-1.3,2.4-2.7v-54c0-8.8-5.8-13.6-16.2-13.6h-38.2c-0.1,0-0.1,0-0.2,0c-1.5,0.1-2.6,1.3-2.5,2.7v18.3
		c0,0.1,0,0.2,0,0.2c0.1,1.5,1.3,2.6,2.7,2.5h25.9v1.3c0,0.1,0,0.1,0,0.2c-0.1,0.5-0.5,1-1.1,0.9h-14.5c-10.4,0-16.2,4.8-16.2,13.6
		v16.9C161.1,229.9,166.9,234.8,177.3,234.8z M162.8,204.3c0-9.9,7.9-12,14.5-12h14.5c0.1,0,0.2,0,0.2,0c1.5-0.1,2.6-1.3,2.5-2.8v-3
		h-27.6c-0.1,0-0.1,0-0.2,0c-0.5-0.1-1-0.5-0.9-1.1v-18.3c0-0.1,0-0.1,0-0.2c0.1-0.5,0.5-1,1.1-0.9h38.2c6.6,0,14.5,2.1,14.5,12v54
		c0,0.8-0.3,1.1-1.1,1.1h-12.9c-5.6,0-9.3-2.1-11-6.1l-1.6,0.3v4.7c0,0.1,0,0.1,0,0.2c-0.1,0.5-0.5,1-1.1,0.9h-14.7
		c-6.6,0-14.5-2.1-14.5-12V204.3z"/>
	<path class="st0" d="M190.6,213.3h1.4c0.1,0,0.1,0,0.2,0c1.4,0,2.6-1.2,2.5-2.7v-4.8h-4.2c-0.1,0-0.1,0-0.2,0
		c-1.5,0.1-2.6,1.3-2.5,2.7v2c0,0.1,0,0.2,0,0.2C187.9,212.2,189.1,213.3,190.6,213.3z M189.5,208.5c0-0.1,0-0.1,0-0.2
		c0.1-0.5,0.5-1,1.1-0.9h2.5v3.1c0,0.1,0,0.1,0,0.2c-0.1,0.5-0.5,1-1.1,0.9h-1.4c-0.1,0-0.1,0-0.2,0c-0.5-0.1-1-0.5-0.9-1.1V208.5z"
		/>
	<path class="st0" d="M227,234.8h22.9c0.1,0,0.2,0,0.2,0c1.5-0.1,2.6-1.3,2.5-2.8v-29.4c0-0.1,0-0.1,0-0.2c0.1-0.5,0.5-1,1.1-0.9
		h4.4c0.1,0,0.2,0,0.3,0c1.4-0.1,2.6-1.3,2.5-2.7v-17.3c0-0.1,0-0.2,0-0.3c-0.1-1.4-1.3-2.6-2.7-2.5h-5.4v-1.4c0-0.1,0-0.1,0-0.2
		c0.1-0.5,0.5-1,1.1-0.9h4.4c0.1,0,0.2,0,0.3,0c1.4-0.1,2.5-1.3,2.5-2.7v-21.2c0-0.1,0-0.2,0-0.3c-0.1-1.4-1.3-2.6-2.7-2.5h-17.7
		c-10.4,0-16.2,4.8-16.2,13.6V232c0,0.1,0,0.2,0,0.2C224.3,233.7,225.5,234.8,227,234.8z M226,163.3c0-9.9,7.9-12,14.5-12h17.6
		c0.1,0,0.1,0,0.2,0c0.5,0.1,1,0.5,0.9,1.1v21.2c0,0.1,0,0.1,0,0.2c-0.1,0.5-0.5,1-1.1,0.9h-4.4c-0.1,0-0.2,0-0.2,0
		c-1.5,0.1-2.6,1.3-2.5,2.7v3h7.1c0.1,0,0.1,0,0.2,0c0.5,0.1,1,0.5,0.9,1.1v17.3c0,0.1,0,0.1,0,0.2c-0.1,0.5-0.5,1-1.1,0.9h-4.4
		c-0.1,0-0.2,0-0.2,0c-1.5,0.1-2.6,1.3-2.5,2.8V232c0,0.1,0,0.1,0,0.2c0,0.6-0.5,1-1.1,0.9H227c-0.1,0-0.1,0-0.2,0
		c-0.5-0.1-0.9-0.5-0.9-1.1V163.3z"/>
	<path class="st0" d="M293.7,193.5c0.1,0,0.2,0,0.3,0c1.5-0.1,2.6-1.3,2.5-2.7v-2c0-0.1,0-0.2,0-0.2c-0.1-1.5-1.3-2.6-2.8-2.5h-1.4
		c-0.1,0-0.2,0-0.2,0c-1.5,0.1-2.6,1.3-2.5,2.7v4.8L293.7,193.5L293.7,193.5z M291.2,191.8v-3.1c0-0.1,0-0.1,0-0.2
		c0.1-0.5,0.5-1,1.1-0.9h1.4c0.1,0,0.1,0,0.2,0c0.5,0.1,1,0.5,0.9,1.1v2c0,0.1,0,0.1,0,0.2c-0.1,0.5-0.5,1-1.1,0.9H291.2z"/>
	<path class="st0" d="M279,234.8h39.7c0.1,0,0.2,0,0.3,0c1.5-0.1,2.6-1.3,2.5-2.8v-18.2c0-0.1,0-0.2,0-0.2c-0.1-1.5-1.3-2.6-2.7-2.5
		h-27.4v-1.4c0-0.1,0-0.1,0-0.2c0.1-0.5,0.5-1,1.1-0.9h27.9c0.1,0,0.2,0,0.2,0c1.5-0.1,2.6-1.3,2.5-2.7V178
		c0-8.8-5.8-13.6-16.2-13.6H279c-10.4,0-16.2,4.8-16.2,13.6v43.1C262.8,229.9,268.6,234.8,279,234.8z M264.5,178.1
		c0-9.9,7.9-12,14.5-12l27.9,0c6.6,0,14.5,2.1,14.5,12v27.8c0,0.1,0,0.1,0,0.2c-0.1,0.5-0.5,1-1.1,0.9h-27.9c-0.1,0-0.2,0-0.2,0
		c-1.5,0.1-2.6,1.3-2.5,2.7v3h29.1c0.1,0,0.1,0,0.2,0c0.5,0.1,1,0.5,0.9,1.1v18.3c0,0.1,0,0.1,0,0.2c-0.1,0.5-0.5,1-1.1,0.9H279
		c-6.6,0-14.5-2.1-14.5-12V178.1z"/>
	<path class="st0" d="M338.1,203.7l11.1,2v1.2c0,0.9-0.7,1.1-1.2,1.1h-18.9c-0.1,0-0.2,0-0.3,0c-1.5,0-2.6,1.3-2.6,2.7V232
		c0,0.1,0,0.2,0,0.3c0.1,1.5,1.4,2.6,2.9,2.4h33.6c11.4,0,17.7-4.8,17.7-13.5v-24.3c0-10.3-3.2-14.7-11.9-16.4l-11.2-2.2v-0.9
		c0-0.9,0.7-1.1,1.2-1.1h17.4c0,0,0.1,0,0.1,0c1.5,0,2.8-1.2,2.8-2.7v-21.2c0,0,0-0.1,0-0.1c-0.1-1.5-1.4-2.7-2.9-2.6h-32
		c-11.4,0-17.7,4.8-17.7,13.6v24C326.2,196.8,328.1,201.9,338.1,203.7z"/>
	<path class="st0" d="M399.8,234.8h39.8c0.1,0,0.2,0,0.3,0c1.5-0.1,2.6-1.3,2.5-2.8v-18.2c0-0.1,0-0.2,0-0.2
		c-0.1-1.5-1.3-2.6-2.8-2.5h-27.4v-1.4c0-0.1,0-0.1,0-0.2c0.1-0.5,0.5-1,1.1-0.9h27.9c0.1,0,0.2,0,0.2,0c1.5-0.1,2.6-1.3,2.5-2.7
		V178c0-8.8-5.7-13.6-16.2-13.6h-27.9c-10.4,0-16.2,4.8-16.2,13.6v43.1C383.6,229.9,389.4,234.8,399.8,234.8z M412,191.8v-3.1
		c0-0.1,0-0.1,0-0.2c0.1-0.5,0.5-1,1.1-0.9h1.4c0.1,0,0.1,0,0.2,0c0.5,0.1,1,0.5,0.9,1.1v2c0,0.1,0,0.1,0,0.2
		c-0.1,0.5-0.5,1-1.1,0.9H412z"/>
	<path class="st0" d="M484.9,166.9c-0.1-1.5-1.3-2.6-2.7-2.5h-5.9c-0.1,0-0.1,0-0.2,0c-0.5-0.1-1-0.5-0.9-1.1v-10.8
		c0-0.1,0-0.2,0-0.2c-0.1-1.5-1.3-2.6-2.7-2.5h-22.9c-0.1,0-0.2,0-0.2,0c-1.5,0.1-2.6,1.3-2.5,2.7v68.6c0,8.8,5.8,13.6,16.2,13.6
		h19.2c0.1,0,0.2,0,0.2,0c1.5-0.1,2.6-1.3,2.5-2.8v-21.2c0-0.1,0-0.2,0-0.2c-0.1-1.5-1.3-2.6-2.7-2.5h-5.9c-0.1,0-0.1,0-0.2,0
		c-0.5-0.1-1-0.5-0.9-1.1v-15.7h7c0.1,0,0.2,0,0.2,0c1.5-0.1,2.6-1.3,2.5-2.8v-21.4C484.9,167.1,484.9,167,484.9,166.9z"/>
	<path class="st0" d="M127.9,254.9v22h22l0-21c0.6-0.5,1.2-1,1.7-1.4l-0.5-0.8c-0.7,0.3-1.3,0.7-2,1.2H127.9z M130.1,274.5v-17.6
		h16.2l-1,1c-3.1,2.9-5.9,6.3-8.2,9.9l-0.5-1c-0.9-2.1-1.8-3.1-2.5-3.1c-1.2,0.1-2.3,0.8-3,1.7c0.7,0.3,1.3,0.7,1.7,1.3
		c0.7,1,1.2,2,1.7,3.1l0.4,1c0.3,0.8,0.6,1.5,0.8,2.3c0.6-0.5,1.2-1,1.9-1.4l1.1-0.8c1.2-2.3,2.5-4.5,4-6.6c1.5-2.2,3.2-4.3,5-6.3
		l0,16.5H130.1z"/>
	<path class="st0" d="M157,276.9h6.7v-0.7c-0.7,0-1.3,0-2-0.2c-0.4-0.1-0.6-0.3-0.6-0.6c0-0.5,0.1-1,0.3-1.5l1.4-4.4h7.8l1.4,4.5
		c0.2,0.5,0.3,0.9,0.3,1.4c0,0.3-0.3,0.6-0.6,0.6c-0.7,0.2-1.3,0.2-2,0.2v0.7h9.2v-0.7c-0.5,0-1,0-1.5-0.2c-0.4-0.1-0.7-0.4-0.9-0.7
		c-0.3-0.4-0.5-0.9-0.7-1.4l-7.2-22.1h-1.5l-7,22.1c-0.1,0.5-0.4,1-0.7,1.5c-0.2,0.3-0.5,0.5-0.9,0.7c-0.5,0.1-1,0.2-1.5,0.2V276.9z
		 M166.7,257.3l3.5,10.8h-7L166.7,257.3L166.7,257.3z"/>
	<path class="st0" d="M180.6,282c-0.1,0.3-0.3,0.6-0.6,0.7c-0.4,0.2-0.9,0.2-1.4,0.2v0.7h7.2v-0.7c-0.5,0-0.9,0-1.4-0.2
		c-0.3-0.1-0.5-0.4-0.6-0.7c-0.1-0.5-0.2-1-0.2-1.5v-5.3h0.1c0.4,0.7,1,1.3,1.7,1.8c1.7,1,3.8,0.7,5.2-0.7c1-1,1.7-2.2,2.1-3.5
		c0.5-1.6,0.8-3.2,0.7-4.8c0.1-1.9-0.3-3.8-1.2-5.5c-0.6-1.4-2-2.2-3.5-2.2c-1,0-1.9,0.3-2.7,0.9c-0.9,0.7-1.7,1.6-2.2,2.7h-0.1
		v-3.1l-0.4-0.4l-2.2,1.1l-2.3,1l0.3,0.6c0.4-0.2,0.8-0.3,1.2-0.4c0.2,0,0.4,0.1,0.4,0.4c0.1,0.5,0.1,0.9,0.1,1.4v16.1
		C180.8,281,180.7,281.5,180.6,282z M183.6,264.9c0.4-0.8,1-1.5,1.7-2.1c0.6-0.5,1.3-0.8,2.1-0.8c1,0,1.8,0.7,2,1.7
		c0.5,1.7,0.7,3.4,0.6,5.1c0,1.8-0.2,3.6-0.7,5.3c-0.5,1.4-1.3,2.1-2.4,2.1c-1,0-1.9-0.6-2.4-1.5c-0.7-1.2-1-2.6-0.9-4L183.6,264.9z
		"/>
	<path class="st0" d="M196.2,282c-0.1,0.3-0.3,0.6-0.6,0.7c-0.4,0.2-0.9,0.2-1.4,0.2v0.7h7.2v-0.7c-0.5,0-0.9,0-1.4-0.2
		c-0.3-0.1-0.5-0.4-0.6-0.7c-0.1-0.5-0.2-1-0.2-1.5v-5.3h0.1c0.4,0.7,1,1.3,1.7,1.8c1.7,1,3.8,0.7,5.2-0.7c1-1,1.7-2.2,2.1-3.5
		c0.5-1.6,0.7-3.2,0.7-4.8c0.1-1.9-0.3-3.8-1.2-5.5c-0.6-1.4-2-2.2-3.5-2.2c-1,0-1.9,0.3-2.7,0.9c-0.9,0.7-1.7,1.6-2.2,2.7h-0.1
		v-3.1l-0.4-0.4l-2.2,1.1l-2.2,1l0.3,0.6c0.4-0.2,0.8-0.3,1.2-0.4c0.2,0,0.3,0.1,0.4,0.4c0.1,0.5,0.1,0.9,0.1,1.4v16.1
		C196.4,281,196.3,281.5,196.2,282z M199.2,264.9c0.5-0.8,1-1.5,1.7-2.1c0.6-0.5,1.3-0.8,2.1-0.8c1,0,1.8,0.7,2.1,1.7
		c0.5,1.7,0.7,3.4,0.6,5.1c0,1.8-0.2,3.6-0.7,5.3c-0.5,1.4-1.3,2.1-2.4,2.1c-1,0-1.9-0.6-2.4-1.5c-0.7-1.2-1.1-2.6-1-4L199.2,264.9z
		"/>
	<path class="st0" d="M220.9,260.7c-0.5-0.4-1-0.5-1.6-0.5c-0.9,0-1.7,0.3-2.3,0.9c-0.7,0.6-1.3,1.4-1.7,2.3h-0.1v-2.8l-0.4-0.4
		l-2.2,1.1l-2.3,1.1l0.3,0.6c0.4-0.2,0.8-0.3,1.2-0.4c0.2,0,0.4,0.2,0.4,0.4c0.1,0.5,0.1,0.9,0.1,1.4v0.2l0,9.2c0,0.5,0,1-0.1,1.5
		c-0.1,0.3-0.3,0.6-0.6,0.7c-0.5,0.2-0.9,0.2-1.4,0.2v0.7h8.3v-0.7c-0.7,0-1.4,0-2.1-0.2c-0.4-0.1-0.7-0.3-0.9-0.7
		c-0.2-0.5-0.3-1-0.2-1.5v-8.7c0.4-0.7,0.9-1.4,1.4-2.1c0.3-0.4,0.8-0.6,1.2-0.6c0.1,0,0.3,0,0.4,0.1c0.1,0.1,0.2,0.3,0.3,0.4
		c0.1,0.3,0.3,0.5,0.6,0.6c0.3,0.2,0.6,0.2,0.9,0.2v0c0.5,0,0.9-0.2,1.2-0.5c0.3-0.3,0.4-0.8,0.4-1.2
		C221.5,261.5,221.3,261,220.9,260.7z"/>
	<path class="st0" d="M225.4,276.4c1.1,0.8,2.3,1.2,3.7,1.1c1.3,0,2.6-0.4,3.6-1.1c1.1-0.8,1.9-1.9,2.4-3.1c1.1-2.9,1.1-6,0-8.9
		c-0.5-1.2-1.3-2.3-2.4-3.1c-1.1-0.8-2.3-1.1-3.6-1.1c-1.3,0-2.6,0.4-3.7,1.1c-1.1,0.8-1.9,1.9-2.4,3.1c-1.1,2.9-1.1,6,0,8.9
		C223.5,274.5,224.3,275.6,225.4,276.4z M225.5,265c0.1-0.9,0.5-1.8,1-2.5c0,0,0,0,0,0c1-1.2,2.7-1.3,3.9-0.3
		c0.7,0.7,1.1,1.5,1.4,2.3c0.4,1.3,0.7,2.7,0.8,4.1c0.1,1.4,0.1,2.8-0.1,4.1c-0.1,0.9-0.5,1.8-1,2.5c-0.5,0.6-1.1,0.9-1.9,1
		c-0.8,0.1-1.5-0.2-2.1-0.7c-0.7-0.7-1.1-1.5-1.4-2.3c-0.4-1.3-0.7-2.6-0.8-4C225.3,267.8,225.4,266.4,225.5,265z"/>
	<path class="st0" d="M245.4,261.5c0.4,0,0.9,0,1.3,0.2c0.2,0.1,0.4,0.4,0.3,0.6c-0.1,0.5-0.2,1-0.3,1.5l-2.5,8.9h-0.1l-2.5-8.8
		c-0.1-0.5-0.2-1-0.3-1.5c0-0.2,0.1-0.5,0.3-0.6c0.4-0.2,0.8-0.2,1.2-0.2v-0.7h-6.9v0.7c0.4,0,0.7,0,1.1,0.2
		c0.3,0.1,0.6,0.4,0.7,0.7c0.3,0.4,0.4,0.9,0.5,1.4l4.1,13.8h1.8l3.9-13.8c0.1-0.5,0.3-1,0.6-1.4c0.2-0.3,0.4-0.5,0.7-0.7
		c0.3-0.1,0.7-0.2,1.1-0.2v-0.7h-5V261.5z"/>
	<path class="st0" d="M261.6,268c0-1.4-0.2-2.7-0.6-4c-0.3-1.1-1-2.1-1.8-2.8c-0.8-0.7-1.8-1-2.9-1c-1.2,0-2.3,0.4-3.1,1.2
		c-0.9,0.9-1.6,2-2,3.2c-0.5,1.4-0.7,2.9-0.7,4.4c0,1.5,0.2,3.1,0.7,4.5c0.3,1.2,1,2.2,1.9,3c0.8,0.7,1.9,1,3,1
		c1.4,0,2.7-0.6,3.6-1.8c1.1-1.5,1.7-3.4,1.9-5.2h-0.7c-0.2,1.3-0.8,2.6-1.6,3.6c-0.5,0.7-1.3,1.1-2.2,1.1c-0.8,0-1.5-0.3-2-0.9
		c-0.6-0.7-1-1.6-1.2-2.5c-0.3-1.2-0.4-2.5-0.4-3.7c0,0,0-0.1,0-0.1H261.6z M254.6,262.3c0.4-0.5,1-0.8,1.6-0.8
		c0.5,0,1.1,0.2,1.4,0.7c0.4,0.5,0.6,1.2,0.8,1.8c0.2,0.9,0.2,1.8,0.2,2.8h-5.1c0-0.7,0.1-1.4,0.2-2.2
		C253.9,263.8,254.2,263,254.6,262.3z"/>
	<path class="st0" d="M274,277.5l2.2-1.1l2.2-1l-0.3-0.6c-0.4,0.2-0.8,0.3-1.2,0.3c-0.2,0-0.4-0.2-0.4-0.4c-0.1-0.5-0.1-0.9-0.1-1.4
		v-21l-0.4-0.4l-2.2,1.1l-2.2,1l0.3,0.6c0.4-0.2,0.7-0.3,1.1-0.3c0.2,0,0.4,0.2,0.4,0.4c0.1,0.5,0.1,0.9,0.1,1.4v0.2V267l0,6
		c0,0,0,0,0,0v4L274,277.5z"/>
	<path class="st0" d="M273.6,265.8v7.3c0,0,0,0,0-0.1v-6C273.6,266.6,273.6,266.2,273.6,265.8z"/>
	<path class="st0" d="M272.6,274.5c-0.3,0.3-0.6,0.6-1,0.9c-0.4,0.2-0.8,0.4-1.3,0.4c-1.1,0-2.1-0.8-2.4-2c-0.6-1.7-0.8-3.4-0.8-5.2
		c-0.1-1.7,0.2-3.5,0.8-5.1c0.3-1.2,1.4-2,2.6-2c1,0,1.8,0.6,2.2,1.4c0.5,0.9,0.7,1.9,0.8,2.9v-3.7h-0.1c-0.4-0.6-0.9-1-1.5-1.4
		c-0.6-0.4-1.4-0.6-2.1-0.6c-1.2,0-2.4,0.4-3.3,1.2c-1,0.9-1.7,2-2.1,3.3c-0.5,1.5-0.8,3.2-0.7,4.8c0,1.4,0.2,2.9,0.7,4.3
		c0.4,1.1,1,2,1.8,2.8c0.8,0.7,1.8,1,2.8,1c0.9,0,1.7-0.2,2.4-0.8c0.8-0.6,1.5-1.4,2-2.3l0.1,0v-1.3c0,0,0,0,0,0
		C273.3,273.6,272.9,274.1,272.6,274.5z"/>
	<path class="st0" d="M374.1,262.6c-0.5-0.3-1-0.5-1.5-0.6c-0.4-0.1-0.8,0-1.2,0.2c-0.8,0.4-1.6,1-2.3,1.6c-0.6,0.6-1.2,1.3-1.8,2.1
		c-0.4,0.5-0.8,1-1.1,1.5c-0.7,1.1-1.2,2.2-1.5,3.4c-0.2,0.8-0.3,1.6-0.1,2.4c0.2,0.8,0.6,1.4,1.3,1.7c0.7,0.3,1.4,0.5,2.1,0.5l0,0
		c0.3,0,0.7,0,1-0.1c0.6-0.2,1.1-0.5,1.6-0.8c1-0.7,1.9-1.6,2.8-2.6c0.6-0.7,1.1-1.5,1.5-2.4c0.4-1,0.7-1.9,1.1-2.9
		c0.1-0.2,0.1-0.4,0.2-0.5c0.1-0.2,0.2-0.3,0.4-0.3c0.1,0,0.3,0,0.4,0c0.9,0.1,1.8,0,2.7-0.2l0.5-0.1c0,0,0,0,0,0
		c0.1,0,0.2,0.1,0.1,0.3c0,0.2-0.1,0.3-0.1,0.5c-0.3,0.6-0.6,1.2-0.8,1.8c-0.1,0.1-0.1,0.2-0.2,0.3c-0.7,1.4-1.3,3-1.6,4.5
		c-0.1,0.5-0.2,1-0.2,1.6c0,0.3,0,0.6,0,0.9c0.1,0.8,0.3,1.4,1.5,1.3c0.7,0,0.9-0.3,1-0.9c0-0.2,0-0.4,0-0.6c0-0.8,0.1-1.5,0.3-2.2
		c0.2-0.6,0.4-1.3,0.6-1.9c0.4-0.9,0.8-1.8,1.2-2.7c0.6-1.3,1.2-2.6,1.8-3.8c0.2-0.5,0.6-0.9,1.1-1.2c0.4-0.2,0.8-0.5,1.1-0.7
		c0.6-0.4,1.2-0.9,1.8-1.3c0.6-0.5,1-1.2,1.8-1.5l3.2-3.1c0.3-0.3,0.6-0.6,1-0.9c1-0.9,1.9-2,2.7-3.2c0.4-0.6,0.5-1.4,0.3-2.1
		c-0.1-0.2-0.2-0.5-0.3-0.7c-0.9-1.5-2.8-1.9-4.2-1c-0.6,0.4-1.2,0.8-1.8,1.3c-1.3,1.1-2.5,2.4-3.5,3.8c-0.4,0.6-0.9,1.2-1.3,1.9
		c-0.5,0.8-0.9,1.7-1.3,2.5c-0.6,1.1-1.1,2.2-1.6,3.3c-0.2,0.5-0.6,0.8-1,1c-0.7,0.3-1.4,0.6-2.1,0.9
		C377.6,263.9,375.6,263.6,374.1,262.6z M373.3,266.5c-0.4,1.3-1.1,2.6-2,3.6c-0.6,0.7-1.3,1.3-2.1,1.9c-0.3,0.2-0.7,0.4-1.1,0.6
		c-0.2,0.1-0.4,0.1-0.5,0.1c-0.1,0-0.1,0-0.2,0c-0.3-0.1-0.4-0.3-0.4-0.6c0-0.3,0.1-0.5,0.2-0.7c0.3-1.1,0.9-2.1,1.5-3
		c0.1-0.2,0.3-0.4,0.4-0.6c0.7-1,1.6-1.9,2.6-2.7c0.3-0.2,0.6-0.4,0.9-0.5c0.1-0.1,0.3-0.1,0.5-0.1c0.2,0,0.3,0.1,0.4,0.3
		c0.1,0.1,0.1,0.2,0.1,0.5l0,0C373.5,265.7,373.4,266.1,373.3,266.5z M386.7,258.4c0.8-1.6,1.8-3.1,3-4.4c0.8-0.9,1.7-1.8,2.6-2.6
		c0.2-0.2,0.5-0.4,0.8-0.6c0.2-0.1,0.4-0.2,0.6-0.3c0.1,0,0.2-0.1,0.3,0c0.3,0.1,0.4,0.3,0.4,0.6l0,0c0,0.5-0.2,0.9-0.5,1.3
		c-0.8,1.1-1.6,2.1-2.6,3c-0.1,0.1-0.2,0.2-0.4,0.3c-0.4,0.2-0.8,0.4-1.1,0.8l-2.2,2c-0.1,0.1-0.3,0.2-0.4,0.4
		c-0.1,0.1-0.3,0.1-0.3,0C386.7,258.6,386.7,258.5,386.7,258.4z"/>
	<path class="st0" d="M398.9,279.3c0.3,0,0.6-0.2,0.7-0.5c0.1-0.3,0.1-0.6,0.1-0.9c0-0.4,0-0.8,0-1.1c0.2-1.3,0.6-2.6,1.1-3.8
		c0.4-0.9,0.8-1.7,1.2-2.6l1.3-2.7c0.2-0.4,0.3-0.8,0.6-1.4s0.7-1.1,1-1.7c1-1.8,2.2-3.4,3.3-5.1c0.2-0.5,0.7-0.7,1.2-0.7h0.3
		c0.5,0,1,0,1.5-0.1c0.9-0.2,1.9-0.3,2.8-0.3c0.3,0,0.5,0,0.8,0c0.2,0,0.3-0.1,0.4-0.1c0,0,0.1,0,0.1,0c0.4-0.2,0.5-0.7,0.3-1.1
		c0-0.1-0.1-0.2-0.1-0.2c-0.5-0.9-1.6-1.3-2.5-1c-0.6,0.2-1.3,0.4-1.9,0.5c-0.1,0-0.2,0-0.4,0c0,0-0.1-0.1-0.1-0.1
		c0.2-0.4,0.2-0.6,0.6-1c0.3-0.4,0.7-0.9,1-1.3c0.6-0.9,1.3-1.8,2.1-2.6c0.1-0.1,0.2-0.2,0.2-0.3c0.2-0.3,0.1-0.6-0.1-0.9l-0.6-0.5
		c-0.3-0.2-0.6-0.4-0.9-0.4c-0.3-0.1-0.6,0-0.8,0.2c-0.2,0.1-0.3,0.3-0.4,0.5c-0.3,0.6-0.6,1.2-1,1.7c-0.7,0.9-1.4,2-2,2.7
		c-0.6,0.8-1.2,1.6-1.8,2.5c-0.4,0.5-0.8,1-1.2,1.5c-0.1,0.1-0.2,0.2-0.3,0.2c-0.6,0.3-1.1,0.8-1.5,1.3c-1.4,1.5-2.7,3.1-4.1,4.7
		c-1.3,1.4-2.7,2.8-4.2,4.1c-0.2,0.2-0.5,0.4-0.7,0.6c-0.9,0.8-1.9,1.5-2.9,2c-0.4,0.2-0.7,0.4-1.1,0.4c-0.2,0-0.3-0.1-0.3-0.2
		c0-0.3,0.1-0.7,0.2-1c0.3-0.9,0.7-1.8,1.2-2.6c0.5-1,1.2-1.9,1.8-2.8c0.5-0.7,1.1-1.4,1.8-1.9c0.2-0.1,0.3-0.2,0.4-0.4
		c0.2-0.1,0.3-0.4,0.2-0.6c-0.2-0.8-0.9-1.4-1.7-1.5c-0.3-0.1-0.7,0-0.9,0.3c-0.7,0.8-1.4,1.5-2,2.4c-1.3,1.8-2.4,3.8-3.3,5.9
		c-0.2,0.6-0.3,1.2-0.4,1.8c0,0.1,0,0.2,0,0.3c0.1,0.3,0.1,0.7,0.2,1c0.1,0.5,0.4,0.9,0.8,1.2c1.1,0.7,2.4,0.7,3.5,0.2
		c0.8-0.3,1.5-0.8,2.2-1.3c1.3-0.9,2.5-1.9,3.6-2.9c0.5-0.4,0.9-0.9,1.3-1.3c0.1-0.1,0.1-0.1,0.2-0.2c0.1,0,0.1,0,0.2,0
		c0,0,0.1,0.1,0.1,0.2c-0.1,0.2-0.1,0.4-0.2,0.5c-0.8,1.5-1.4,3.1-2,4.7c-0.4,1.1-0.6,2.2-0.6,3.4l0.1,0c0,0.2,0,0.5,0,0.7
		C397.4,278.8,397.2,279.1,398.9,279.3z M393.7,271.2L393.7,271.2l-0.1-0.1c0.1,0,0.1,0,0.1,0C393.7,271.1,393.8,271.2,393.7,271.2
		L393.7,271.2z"/>
	<path class="st0" d="M321.7,254.6c-0.2,0.4-0.5,0.7-0.7,1.1c-0.4,0.6-0.7,1.1-1,1.7c-0.2,0.3-0.3,0.6-0.4,0.9
		c-0.2,0.5-0.4,1.1-0.7,1.7c-0.8,1.6-1.4,3.2-1.9,4.8c-0.3,0.9-0.6,1.8-0.7,2.7c0,0.1-0.1,0.2-0.1,0.4c-0.3,0.8-0.5,1.6-0.6,2.5
		c0,0.2-0.1,0.4-0.1,0.6c-0.1,0.4-0.2,0.9-0.2,1.3c-0.1,0.5-0.1,1.1-0.2,1.6c-0.1,0.8-0.2,1.6-0.2,2.4l0-0.1c0,0.5,0,0.9,0,1.2
		c0,0.9,0.2,1.7,0.6,2.5c0.1,0.3,0.3,0.5,0.5,0.7h-34.5v1.5h174.4v-1.5H345c0.4-0.8,0.8-1.6,1-2.5c0.1-0.2,0.1-0.4,0.2-0.6
		c0.3-0.7,0.5-1.4,0.7-2.1c0.2-0.7,0.4-1.4,0.7-2c0.3-0.6,0.5-0.8,1.3-0.6c0.7,0.2,1.4,0.3,2.1,0.3l0,0c0.6,0,1.3,0,1.9-0.2
		c1.4-0.3,2.8-0.9,4.1-1.6c0.4-0.3,0.8-0.6,1.2-0.9c0.9-0.6,1.7-1.3,2.5-2.1c0.9-1,1.8-2.1,2.7-3.1c0.1-0.1,0.2-0.3,0.3-0.4
		c0.4-0.5,0.7-1,1.1-1.5c0.8-1,1.5-2.2,2.2-3.3c0.3-0.6,0.7-1.3,1-1.9c0.5-0.9,0.8-1.8,1.2-2.6c0.2-0.3,0.3-0.6,0.3-0.9
		c0-0.4,0.1-0.9,0.2-1.3c0.1-0.5,0-1-0.3-1.4c-0.1-0.2-0.3-0.4-0.4-0.5c-0.2-0.3-0.6-0.5-0.9-0.6c-0.5-0.2-1.1-0.3-1.7-0.1
		c-0.6,0.2-1.3,0.4-1.8,0.8c-0.8,0.5-1.6,1-2.4,1.5c-1,0.7-1.9,1.5-2.9,2.2c-0.4,0.3-0.7,0.6-1.1,0.8c-0.4,0.2-0.8,0.5-1.1,0.9
		c-1.1,1.1-2.3,2-3.3,3.1l-1,1c-0.1,0.1-0.1,0.1-0.2,0.2h-0.1c0,0-0.1-0.1-0.1-0.1c0-0.1,0-0.1,0.1-0.2c0.5-0.8,1-1.6,1.5-2.3
		c0.5-0.7,1-1.4,1.6-2.1c0.2-0.3,0.4-0.5,0.7-0.7c0.2-0.2,0.4-0.3,0.5-0.5c0.2-0.2,0.2-0.6,0-0.8c-0.3-0.7-1-1.1-1.7-1.2
		c-0.3,0-0.6,0.1-0.7,0.3c-0.1,0.1-0.1,0.2-0.1,0.2c-0.4,0.7-0.8,1.3-1.3,1.9c-0.3,0.3-0.5,0.6-0.7,0.9c-0.8,1.3-1.7,2.6-2.5,3.9
		c-0.6,0.9-1.1,1.9-1.6,2.9c-0.9,1.9-1.8,3.8-2.8,5.7c-0.6,1.2-1.2,2.4-1.6,3.6c-0.3,0.7-0.5,1.3-0.7,2c-0.2,1-0.4,2.1-0.5,3.2
		c0,0.4,0,0.8-0.1,1.2c-0.1,0.4-0.1,0.8,0,1.2c0,0.2,0.1,0.3,0.2,0.5h-23.4c0.5-0.4,0.9-0.7,1.3-1.2c0.7-0.7,1.2-1.4,1.8-2.2
		c0.8-1,1.6-2.1,2.3-3.2c0.2-0.3,0.5-0.6,0.7-0.9l2.7-3.7c0.6-0.9,1.2-1.7,1.8-2.7c0.2-0.3,0.5-0.7,0.7-1s0.4-0.7,0.7-1
		c0.3-0.3,0.5-0.7,0.7-1.1c0.1-0.5,0.6-0.5,0.8-0.9c0.1-0.2,0.2-0.4,0.3-0.6c0.1-0.2,0.2-0.4,0.4-0.5c0.4-0.4,0.7-0.9,1-1.4
		c0.5-0.7,1.1-1.6,1.6-2.1s1-1.2,1.4-1.7s0.8-0.8,1.2-1.2c1-1.1,2.1-2.1,3.3-3c0.1-0.1,0.2-0.1,0.2-0.2c0.1-0.1,0.2-0.3,0.1-0.5
		c-0.1-0.2-0.2-0.3-0.3-0.5c-0.3-0.2-0.7-0.4-1-0.6c-0.3-0.1-0.6-0.1-0.9,0.1c-0.2,0.2-0.5,0.4-0.7,0.6c-0.7,0.7-1.4,1.4-2,2.1
		c-0.7,0.6-1.2,1.3-1.7,2c-0.1,0.2-0.3,0.4-0.5,0.6c-0.2,0.2-0.4,0.4-0.5,0.6c-1.2,1.7-2.5,3.3-3.6,5c-0.6,0.9-1.2,1.6-1.9,2.7
		s-1.5,2-2.2,3c-1.3,1.8-2.6,3.6-3.9,5.4c-0.9,1.3-1.8,2.5-2.8,3.7c-0.5,0.6-1.1,1.2-1.8,1.7c-0.2,0.2-0.4,0.3-0.7,0.4c0,0,0,0,0,0
		c-0.2,0.1-0.4-0.1-0.5-0.3c-0.2-0.7-0.2-1.4-0.2-2.1c0-0.2,0.1-0.4,0.1-0.7c0.1-1.1,0.2-2.1,0.4-3.2c0-0.2,0.1-0.5,0.2-0.7
		c0.1-0.3,0.1-0.6,0.1-0.8c-0.1-0.3,0-0.6,0.2-0.9c0.1-0.1,0.1-0.2,0.1-0.4c0.4-1.1,0.7-2.2,1-3.3c0.1-0.4,0.2-0.7,0.3-1.1
		c0-0.4,0.2-0.7,0.4-1.1c0.3-0.5,0.5-1.1,0.7-1.7c0.2-0.7,0.5-1.3,0.8-1.9c0.3-0.5,0.5-1,0.8-1.5c0.4-1,1-1.9,1.7-2.7
		c0.1-0.1,0.1-0.1,0.2-0.2c0.2-0.2,0.2-0.6,0-0.9c-0.2-0.2-0.3-0.3-0.5-0.5c-0.2-0.2-0.5-0.3-0.8-0.3
		C322.2,254.2,321.8,254.3,321.7,254.6z M349.5,269.6l0.6-1.2c0.1-0.2,0.2-0.3,0.3-0.5l0.7-1c0.2-0.4,0.5-0.8,0.7-1.1
		c1.1-1.5,2.4-2.9,3.7-4.3c0.4-0.4,0.5-0.7,1.1-1.2c0.5-0.5,1-1,1.5-1.5c0.8-0.8,1.6-1.6,2.4-2.4c0.1-0.1,0.3-0.3,0.4-0.4
		c0.5-0.3,1-0.7,1.4-1.1c0.2-0.2,0.5-0.4,0.8-0.5c0.6-0.3,1.2-0.6,1.8-1c0.6-0.4,1.2-0.7,1.8-1c0.1,0,0.1,0,0.2-0.1c0,0,0.1,0,0.1,0
		c0.2,0,0.4,0.1,0.4,0.3c0,0.6-0.1,1.3-0.3,1.8c-0.3,0.8-0.7,1.5-1,2.2c-0.8,1.6-1.7,3.1-2.7,4.5c-0.6,0.9-1.3,1.6-1.9,2.5
		c-0.6,0.8-1.2,1.6-1.9,2.3c-1.1,1.2-2.4,2.2-3.7,3c-1.2,0.7-2.4,1.2-3.6,1.6c-0.5,0.1-1,0.2-1.5,0.2l0,0c-0.4,0.1-0.9,0-1.3-0.1
		c-0.2-0.1-0.2-0.2-0.2-0.4C349.3,270,349.4,269.8,349.5,269.6z"/>
	<path class="st0" d="M409.8,274.7c0.6,0.4,1.4,0.5,2.1,0.5l0.1,0.1c0.5,0,0.9,0,1.4-0.2c0.8-0.3,1.5-0.6,2.2-1
		c1.2-0.6,2.2-1.2,3.2-1.9c0.3-0.2,0.5-0.3,0.8-0.5c0.8-0.7,1.7-1.2,2.5-1.8c0.4-0.3,0.8-0.6,1.2-1c0.6-0.6,1.2-1.2,1.9-1.7
		c0.4-0.3,0.8-0.7,1.2-1.1c0.4-0.4,0.7-0.8,1.2-1.1c0.2-0.1,0.3-0.3,0.5-0.5c0.2-0.2,0.2-0.4,0.1-0.6c-0.2-0.7-0.8-1.3-1.5-1.5
		c-0.2-0.1-0.3,0-0.5,0.1c-0.2,0.1-0.4,0.3-0.5,0.5c-0.2,0.3-0.5,0.6-0.8,0.8c-0.4,0.3-0.7,0.7-1.1,1c-1.1,1.1-2.3,2.1-3.6,3.1
		c-1.5,1.2-3.1,2.2-4.8,3.2c-0.8,0.5-1.6,0.9-2.5,1.3c-0.6,0.2-1.2,0.3-1.8,0.3c-0.3,0-0.5-0.1-0.7-0.3c-0.6-0.6-0.8-1.4-0.6-2.2
		l0.2-0.8c0.2-0.6,0.3-0.7,0.9-0.8h0.4c1.1-0.1,2.1-0.4,3-1c0.4-0.2,0.8-0.4,1.1-0.7c0.5-0.2,0.9-0.6,1.3-0.9c0.5-0.6,1-1.2,1.4-1.9
		c0.2-0.3,0.3-0.7,0.2-1c0-0.2-0.1-0.5-0.2-0.7c-0.1-0.3-0.2-0.6-0.3-0.9c-0.3-0.8-1-1.4-1.8-1.7c-0.6-0.2-1.2-0.2-1.8-0.2
		c-0.4,0-0.7,0.1-1,0.3c-0.5,0.2-0.9,0.6-1.3,0.9l-1.1,1c-0.7,0.6-1.3,1.4-1.8,2.2c-0.2,0.5-0.4,0.9-0.7,1.3
		c-0.4,0.7-0.7,1.5-0.9,2.3c0,0.2-0.1,0.4-0.1,0.5c-0.2,0.7-0.3,1.4-0.2,2c0,0.1,0,0.3,0,0.4C407.5,272.5,408.4,273.9,409.8,274.7z
		 M411.7,265.5c0.1-0.2,0.3-0.4,0.5-0.6c0.6-0.6,1.1-1.2,1.7-1.8c0.3-0.2,0.5-0.4,0.8-0.6c0.2-0.1,0.3-0.1,0.5-0.1
		c0.1,0,0.3,0.1,0.3,0.3c0,0.1,0,0.2,0,0.3c-0.1,0.6-0.5,1.1-1,1.5c-0.7,0.5-1.5,0.9-2.2,1.4c-0.1,0.1-0.2,0.1-0.3,0.1h0
		c-0.2,0-0.3-0.1-0.3-0.2C411.7,265.6,411.7,265.6,411.7,265.5z"/>
	<path class="st0" d="M399.8,259c0,0,0.1,0,0.1,0c0.5-0.1,0.7-0.6,0.6-1.1c-0.4-1.1-1.3-1.8-2.4-1.9h-0.3c-0.5,0-0.8,0.4-0.8,0.9
		c0,0.2,0,0.4,0,0.6c0,0.5,0.2,1,0.6,1.2c0.4,0.3,0.9,0.4,1.4,0.4l0,0C399.1,259.1,399.5,259,399.8,259z"/>
	<path class="st0" d="M333.8,273.9c-0.2-0.3-0.5-0.4-0.8-0.5c-0.3,0-0.5-0.1-0.8-0.1c-0.1,0-0.1,0-0.2,0c-0.5,0.1-0.9,0.6-0.8,1.2
		c0.1,0.5,0.3,0.9,0.6,1.3c0.3,0.5,0.8,0.7,1.4,0.7c0.2,0,0.4,0,0.5-0.1c0.4-0.1,0.8-0.4,1-0.8c0.1-0.3-0.1-0.6-0.3-0.9
		C334.2,274.5,334,274.2,333.8,273.9z"/>
</g>
</svg>
